<?xml version="1.0" encoding="utf-8"?>
<!-- Generator: Adobe Illustrator 22.0.0, SVG Export Plug-In . SVG Version: 6.00 Build 0)  -->
<svg version="1.1" id="Layer_1" xmlns="http://www.w3.org/2000/svg" xmlns:xlink="http://www.w3.org/1999/xlink" x="0px" y="0px"
	 viewBox="0 0 200 200" style="enable-background:new 0 0 200 200;" xml:space="preserve">
<style type="text/css">
	.st0{fill:#16110D;}
	.st1{fill:#F68848;}
	.st2{fill:#FFEECC;}
</style>
<g id="_x31_">
	<g id="XMLID_2600_">
		<ellipse id="XMLID_3942_" class="st0" cx="77.2" cy="168.4" rx="1.8" ry="1.1"/>
		<path id="XMLID_3941_" class="st0" d="M85.3,163.7c0.7,0.4,0.7,1.1,0,1.5c-0.7,0.4-1.9,0.4-2.6,0c-0.7-0.4-0.7-1.1,0-1.5
			C83.4,163.3,84.6,163.3,85.3,163.7z"/>
		<path id="XMLID_3940_" class="st0" d="M78.5,159.8c0.7,0.4,0.7,1.1,0,1.5c-0.7,0.4-1.9,0.4-2.6,0c-0.7-0.4-0.7-1.1,0-1.5
			C76.6,159.4,77.8,159.4,78.5,159.8z"/>
		<path id="XMLID_3939_" class="st0" d="M126.4,194.5c0.7,0.4,0.7,1.1,0,1.5c-0.7,0.4-1.9,0.4-2.6,0c-0.7-0.4-0.7-1.1,0-1.5
			C124.5,194.1,125.7,194.1,126.4,194.5z"/>
		<ellipse id="XMLID_3938_" class="st0" cx="131.9" cy="191.3" rx="1.8" ry="1.1"/>
		<path id="XMLID_3937_" class="st0" d="M140,186.6c0.7,0.4,0.7,1.1,0,1.5c-0.7,0.4-1.9,0.4-2.6,0c-0.7-0.4-0.7-1.1,0-1.5
			C138.1,186.2,139.2,186.2,140,186.6z"/>
		<ellipse id="XMLID_3936_" class="st0" cx="145.4" cy="183.5" rx="1.8" ry="1.1"/>
		<path id="XMLID_3935_" class="st0" d="M153.5,178.8c0.7,0.4,0.7,1.1,0,1.5c-0.7,0.4-1.9,0.4-2.6,0c-0.7-0.4-0.7-1.1,0-1.5
			C151.7,178.4,152.8,178.4,153.5,178.8z"/>
		<ellipse id="XMLID_3934_" class="st0" cx="159" cy="175.6" rx="1.8" ry="1.1"/>
		<path id="XMLID_3932_" class="st0" d="M112.8,194.5c0.7,0.4,0.7,1.1,0,1.5c-0.7,0.4-1.9,0.4-2.6,0c-0.7-0.4-0.7-1.1,0-1.5
			C110.9,194.1,112.1,194.1,112.8,194.5z"/>
		<ellipse id="XMLID_3930_" class="st0" cx="118.3" cy="191.3" rx="1.8" ry="1.1"/>
		<ellipse id="XMLID_3929_" class="st0" cx="125.1" cy="187.4" rx="1.8" ry="1.1"/>
		<ellipse id="XMLID_3928_" class="st0" cx="131.9" cy="183.5" rx="1.8" ry="1.1"/>
		<path id="XMLID_3927_" class="st0" d="M140,178.8c0.7,0.4,0.7,1.1,0,1.5c-0.7,0.4-1.9,0.4-2.6,0c-0.7-0.4-0.7-1.1,0-1.5
			C138.1,178.4,139.2,178.4,140,178.8z"/>
		<path id="XMLID_3926_" class="st0" d="M146.7,174.9c0.7,0.4,0.7,1.1,0,1.5c-0.7,0.4-1.9,0.4-2.6,0s-0.7-1.1,0-1.5
			C144.9,174.5,146,174.5,146.7,174.9z"/>
		<ellipse id="XMLID_3925_" class="st0" cx="152.2" cy="171.7" rx="1.8" ry="1.1"/>
		<path id="XMLID_3924_" class="st0" d="M160.3,167c0.7,0.4,0.7,1.1,0,1.5c-0.7,0.4-1.9,0.4-2.6,0c-0.7-0.4-0.7-1.1,0-1.5
			C158.4,166.6,159.6,166.6,160.3,167z"/>
		<ellipse id="XMLID_3922_" class="st0" cx="104.7" cy="191.3" rx="1.8" ry="1.1"/>
		<path id="XMLID_3921_" class="st0" d="M112.8,186.6c0.7,0.4,0.7,1.1,0,1.5c-0.7,0.4-1.9,0.4-2.6,0c-0.7-0.4-0.7-1.1,0-1.5
			C110.9,186.2,112.1,186.2,112.8,186.6z"/>
		<path id="XMLID_3920_" class="st0" d="M119.6,182.7c0.7,0.4,0.7,1.1,0,1.5c-0.7,0.4-1.9,0.4-2.6,0c-0.7-0.4-0.7-1.1,0-1.5
			C117.7,182.3,118.9,182.3,119.6,182.7z"/>
		<path id="XMLID_3919_" class="st0" d="M126.4,178.8c0.7,0.4,0.7,1.1,0,1.5c-0.7,0.4-1.9,0.4-2.6,0c-0.7-0.4-0.7-1.1,0-1.5
			C124.5,178.4,125.7,178.4,126.4,178.8z"/>
		<path id="XMLID_3918_" class="st0" d="M133.2,174.9c0.7,0.4,0.7,1.1,0,1.5c-0.7,0.4-1.9,0.4-2.6,0s-0.7-1.1,0-1.5
			C131.3,174.5,132.4,174.5,133.2,174.9z"/>
		<ellipse id="XMLID_3917_" class="st0" cx="138.7" cy="171.7" rx="1.8" ry="1.1"/>
		<ellipse id="XMLID_3916_" class="st0" cx="145.4" cy="167.8" rx="1.8" ry="1.1"/>
		<path id="XMLID_3915_" class="st0" d="M153.5,163.1c0.7,0.4,0.7,1.1,0,1.5c-0.7,0.4-1.9,0.4-2.6,0c-0.7-0.4-0.7-1.1,0-1.5
			C151.7,162.7,152.8,162.7,153.5,163.1z"/>
		<path id="XMLID_3914_" class="st0" d="M160.3,159.2c0.7,0.4,0.7,1.1,0,1.5c-0.7,0.4-1.9,0.4-2.6,0c-0.7-0.4-0.7-1.1,0-1.5
			C158.4,158.8,159.6,158.8,160.3,159.2z"/>
		<path id="XMLID_3912_" class="st0" d="M99.2,186.6c0.7,0.4,0.7,1.1,0,1.5c-0.7,0.4-1.9,0.4-2.6,0c-0.7-0.4-0.7-1.1,0-1.5
			C97.3,186.2,98.4,186.2,99.2,186.6z"/>
		<ellipse id="XMLID_3911_" class="st0" cx="104.6" cy="183.4" rx="1.8" ry="1.1"/>
		<path id="XMLID_3910_" class="st0" d="M112.7,178.8c0.7,0.4,0.7,1.1,0,1.5c-0.7,0.4-1.9,0.4-2.6,0c-0.7-0.4-0.7-1.1,0-1.5
			C110.9,178.3,112,178.3,112.7,178.8z"/>
		<ellipse id="XMLID_3909_" class="st0" cx="118.2" cy="175.6" rx="1.8" ry="1.1"/>
		<path id="XMLID_2775_" class="st0" d="M126.3,170.9c0.7,0.4,0.7,1.1,0,1.5c-0.7,0.4-1.9,0.4-2.6,0c-0.7-0.4-0.7-1.1,0-1.5
			C124.4,170.5,125.6,170.5,126.3,170.9z"/>
		<path id="XMLID_2774_" class="st0" d="M133.1,167c0.7,0.4,0.7,1.1,0,1.5c-0.7,0.4-1.9,0.4-2.6,0c-0.7-0.4-0.7-1.1,0-1.5
			C131.2,166.6,132.4,166.6,133.1,167z"/>
		<ellipse id="XMLID_2773_" class="st0" cx="138.6" cy="163.8" rx="1.8" ry="1.1"/>
		<ellipse id="XMLID_2772_" class="st0" cx="145.4" cy="159.9" rx="1.8" ry="1.1"/>
		<path id="XMLID_2767_" class="st0" d="M153.5,155.2c0.7,0.4,0.7,1.1,0,1.5s-1.9,0.4-2.6,0s-0.7-1.1,0-1.5
			C151.6,154.8,152.8,154.8,153.5,155.2z"/>
		<path id="XMLID_2765_" class="st0" d="M92.4,182.7c0.7,0.4,0.7,1.1,0,1.5c-0.7,0.4-1.9,0.4-2.6,0c-0.7-0.4-0.7-1.1,0-1.5
			C90.5,182.3,91.6,182.3,92.4,182.7z"/>
		<ellipse id="XMLID_2764_" class="st0" cx="97.9" cy="179.5" rx="1.8" ry="1.1"/>
		<ellipse id="XMLID_2763_" class="st0" cx="104.6" cy="175.6" rx="1.8" ry="1.1"/>
		<ellipse id="XMLID_2762_" class="st0" cx="84.3" cy="179.5" rx="1.8" ry="1.1"/>
		<path id="XMLID_2761_" class="st0" d="M92.4,174.8c0.7,0.4,0.7,1.1,0,1.5c-0.7,0.4-1.9,0.4-2.6,0c-0.7-0.4-0.7-1.1,0-1.5
			C90.5,174.4,91.6,174.4,92.4,174.8z"/>
		<path id="XMLID_2760_" class="st0" d="M99.2,170.9c0.7,0.4,0.7,1.1,0,1.5c-0.7,0.4-1.9,0.4-2.6,0c-0.7-0.4-0.7-1.1,0-1.5
			C97.3,170.5,98.4,170.5,99.2,170.9z"/>
		<ellipse id="XMLID_2758_" class="st0" cx="77.5" cy="175.6" rx="1.8" ry="1.1"/>
		<path id="XMLID_2756_" class="st0" d="M85.6,170.9c0.7,0.4,0.7,1.1,0,1.5c-0.7,0.4-1.9,0.4-2.6,0c-0.7-0.4-0.7-1.1,0-1.5
			C83.7,170.5,84.9,170.5,85.6,170.9z"/>
		<path id="XMLID_2755_" class="st0" d="M92.4,167c0.7,0.4,0.7,1.1,0,1.5c-0.7,0.4-1.9,0.4-2.6,0c-0.7-0.4-0.7-1.1,0-1.5
			C90.5,166.6,91.6,166.6,92.4,167z"/>
	</g>
	<g id="XMLID_25_">
		<polygon id="XMLID_2771_" class="st1" points="107.6,5.4 147.8,27.4 120.2,43.4 80,21.3 		"/>
		<g id="XMLID_2757_">
			<polygon id="XMLID_2563_" class="st1" points="117.1,83.7 116.7,102 116.7,176.6 76.5,154.5 76.3,91.1 113.9,79.9 			"/>
			<path id="XMLID_2768_" class="st0" d="M116.7,178.3l-41.6-22.9l-0.1-65.3l39.5-11.8l4.2,4.9l-0.5,18.8l0,75.4L116.7,178.3z
				 M77.9,153.7l37.3,20.5l0-72.2l0.4-17.8l-2.3-2.7L77.8,92.2L77.9,153.7z"/>
		</g>
		<polygon id="XMLID_2759_" class="st1" points="41,80.6 81.2,102.6 120.2,43.4 80,21.3 		"/>
		<polygon id="XMLID_2562_" class="st2" points="107.6,14.6 147.8,36.7 120.2,52.7 80,30.6 		"/>
		<path id="XMLID_2739_" class="st0" d="M107.6,3.7L79,20.3L39.1,80.7l1,1l16.1,13.5l40.1,22l1.4,0.6l13.6-20.7
			c1.6-2.5,3-4.9,4.3-7.2c-0.2,5.4-0.2,11.2-0.2,17.3v70.3l1.4,0.8l32.6-18.8V26.6L107.6,3.7z M80.7,100.7L43,80l37.4-56.8l3.4,1.8
			l34.3,18.9L80.7,100.7z M129.5,36.4l-9.3,5.4L87.9,24l-5-2.7L107.7,7l37.3,20.5L129.5,36.4z"/>
	</g>
</g>
</svg>
