<?xml version="1.0" encoding="utf-8"?>
<!-- Generator: Adobe Illustrator 22.0.0, SVG Export Plug-In . SVG Version: 6.00 Build 0)  -->
<svg version="1.1" id="Layer_1" xmlns="http://www.w3.org/2000/svg" xmlns:xlink="http://www.w3.org/1999/xlink" x="0px" y="0px"
	 viewBox="0 0 200 200" style="enable-background:new 0 0 200 200;" xml:space="preserve">
<style type="text/css">
	.st0{fill:#F68848;}
	.st1{fill:#16110D;}
	.st2{fill:#FFEECC;}
</style>
<g id="_x32_">
	<g id="XMLID_3437_">
		<g id="XMLID_2535_">
			<path id="XMLID_3454_" class="st0" d="M97.8,32l-45.1-2.2c0,0-18.3,23.4-17.9,24.3c0.4,0.9,2.5,15.6,2.8,18
				c-1.2,0.6-2.4,1.2-3.6,1.9c-0.2,0.1-0.5,0.3-0.7,0.4v36.9l12,0.5c0.6-5,1.8-9.2,3.4-12.6c1.6-3.3,4.3-6.1,7.9-8.1
				c3.5-2,7.1-3.1,10.8-3.2c3.7-0.1,7,0.7,10,2.4c2.4,1.4,4.2,3,5.5,4.8c1.2,1.8,2.2,4.4,2.8,7.6c0.6,3,1,8.8,1.4,17.4h10.7V32z"/>
			<path id="XMLID_3455_" class="st1" d="M99.2,121.6H87.5h-1.4c-0.4-8.5-1.3-15.7-1.8-18.6c-0.6-3-1.4-5.3-2.5-7
				c-1.1-1.6-2.8-3.1-5-4.4c-2.7-1.6-5.9-2.3-9.2-2.2c-3.4,0.1-6.8,1.1-10.1,3c-3.4,1.9-5.8,4.5-7.3,7.5c-1.6,3.2-2.6,7.3-3.3,12.1
				l-0.2,1.3l-14.8-0.7V73.6l1.4-0.8c0.9-0.5,1.8-1,2.8-1.5c-1.1-7.7-2.3-15.7-2.6-16.6C33,53.7,32.6,53,51.5,28.9l0.5-0.6l47.2,2.3
				V121.6z M88.5,118.7h7.9V33.3l-43-2.1c-7.6,9.7-15.8,20.6-17,22.9c0.3,1.3,1,5.1,2.8,17.7l0.1,1l-1.6,0.8c-1,0.5-1.9,1-2.8,1.5
				v34.7l9.3,0.4c0.7-4.6,1.8-8.5,3.3-11.7c1.7-3.6,4.6-6.5,8.5-8.8c3.7-2.1,7.6-3.3,11.5-3.4c3.9-0.1,7.6,0.7,10.8,2.6
				c2.6,1.5,4.6,3.3,6,5.3c1.3,2,2.3,4.7,3,8.1C87.7,105.4,88.1,110.7,88.5,118.7z"/>
		</g>
		<polygon id="XMLID_3450_" class="st0" points="8.3,110.1 8.4,63.8 45.5,65.5 45.4,111.8 		"/>
		<polygon id="XMLID_3446_" class="st0" points="87.6,108 87.5,154.4 108,166.2 108.1,119.9 		"/>
		<g id="XMLID_3205_">
			<g id="XMLID_3206_">
				<path id="XMLID_26_" class="st0" d="M191.7,71.6l-83.6,48.3L87.6,108l-0.3-32.7c-0.4-9.5-0.9-15.8-1.5-19
					c-0.6-3.2-1.5-5.7-2.8-7.6c-1.2-1.8-3.1-3.5-5.5-4.8c-3-1.7-6.3-2.5-10-2.4c-3.7,0.1-7.3,1.2-10.8,3.2c-3.6,2.1-6.3,4.8-7.9,8.1
					c-1.6,3.3-2.8,7.5-3.4,12.6L8.4,63.8C9,57.3,10.2,52.2,12,48.6c1.8-3.7,4.4-7.2,8-10.6c3.5-3.4,8.3-6.9,14.2-10.3
					c7.5-4.3,15.4-7.4,23.9-9.3c8.5-1.9,16.8-2.3,24.9-1.4c8.1,0.9,15.2,3.2,21.2,6.6c4.5,2.6,8.1,5.3,10.8,8.2s4.7,6.1,6.1,9.6
					c1.3,3.5,2.1,7.6,2.3,12.2c0.2,4.6-0.4,13.9-1.7,27.9l0.8,0.5L166,56.8L191.7,71.6z"/>
				<path id="XMLID_3438_" class="st2" d="M191.7,82l-83.6,48.3l-20.5-11.8l-0.3-32.7c-0.4-9.5-0.9-15.8-1.5-19
					c-0.6-3.2-1.5-5.7-2.8-7.6c-1.2-1.8-3.1-3.5-5.5-4.8c-3-1.7-6.3-2.5-10-2.4c-3.7,0.1-7.3,1.2-10.8,3.2c-3.6,2.1-6.3,4.8-7.9,8.1
					c-1.6,3.3-2.8,7.5-3.4,12.6L8.4,74.2C9,67.7,10.2,62.6,12,58.9c1.8-3.7,4.4-7.2,8-10.6c3.5-3.4,8.3-6.9,14.2-10.3
					c7.5-4.3,15.4-7.4,23.9-9.3c8.5-1.9,16.8-2.3,24.9-1.4c8.1,0.9,15.2,3.2,21.2,6.6c4.5,2.6,8.1,5.3,10.8,8.2
					c2.7,2.9,4.7,6.1,6.1,9.6c1.3,3.5,2.1,7.6,2.3,12.2c0.2,4.6-0.4,13.9-1.7,27.9l0.8,0.5L166,67.2L191.7,82z"/>
			</g>
		</g>
		<polygon id="XMLID_2599_" class="st1" points="70.1,88.2 70.1,41.6 56.8,44.8 47.8,55.2 45.5,70.3 45.5,108 49.5,98.4 58.9,89.3 
					"/>
		<path id="XMLID_3443_" class="st1" d="M166,55.1l-42.8,24.7c1.2-13.2,1.7-21.8,1.5-26.3c-0.2-4.8-1-9-2.4-12.7
			c-1.4-3.7-3.5-7-6.4-10c-2.8-3-6.5-5.8-11.2-8.5c-6.2-3.6-13.5-5.9-21.8-6.8c-8.2-1-16.8-0.5-25.3,1.4C49.2,18.8,41,22,33.5,26.3
			c-6,3.5-10.9,7-14.5,10.5c-3.7,3.6-6.4,7.3-8.3,11.1C9,51.4,7.8,56.3,7.1,62.3l-0.2,0l-0.1,49.3l40,1.8L47,65.6
			c0.6-4.8,1.7-8.9,3.2-12c1.5-3.1,3.9-5.6,7.3-7.5c3.3-1.9,6.7-2.9,10.1-3c3.4-0.1,6.5,0.6,9.2,2.2c2.2,1.3,3.9,2.8,5,4.4
			c1.1,1.7,2,4,2.5,7c0.6,3.1,1.1,9.4,1.4,18.8l0.3,32.7L86,155.2l21.9,12.7l85.1-49.1l0.1-48L166,55.1z M43.9,110.3l-34.2-1.6
			l0.1-43.5l22.5,1l11.8,0.5L43.9,110.3z M106.5,163.7l-17.6-10.2l0.1-43l16.4,9.4l1.2,0.7L106.5,163.7z M103.9,115.8l-14.9-8.6
			l-0.3-31.9c-0.4-9.7-0.9-16-1.5-19.3c-0.6-3.4-1.6-6.1-3-8.1c-1.4-2-3.4-3.8-6-5.3c-3.2-1.9-6.9-2.7-10.8-2.6
			c-3.9,0.1-7.8,1.3-11.5,3.4c-3.9,2.2-6.7,5.2-8.5,8.8c-1.5,3.2-2.7,7.1-3.3,11.7L10,62.4c0.6-5.6,1.8-10,3.3-13.2
			c1.7-3.5,4.3-6.9,7.7-10.2c3.4-3.3,8.1-6.7,13.9-10.1c7.3-4.2,15.2-7.3,23.5-9.1c8.3-1.8,16.5-2.3,24.4-1.4
			c7.9,0.9,14.8,3.1,20.6,6.5c4.4,2.5,7.9,5.2,10.5,8c2.6,2.7,4.5,5.8,5.8,9.1c1.3,3.3,2,7.3,2.2,11.7c0.2,4.5-0.4,13.9-1.7,27.7
			l-0.1,0.9l2.3,1.3L166,58.4l22.8,13.2l-29.6,17.1l-51.1,29.5L103.9,115.8z"/>
	</g>
	<g id="XMLID_4044_">
		<ellipse id="XMLID_4043_" class="st1" cx="38.7" cy="140.8" rx="1.9" ry="1.1"/>
		<path id="XMLID_4042_" class="st1" d="M46.9,136.1c0.7,0.4,0.7,1.1,0,1.5c-0.7,0.4-1.9,0.4-2.6,0c-0.7-0.4-0.7-1.1,0-1.5
			C45,135.6,46.2,135.6,46.9,136.1z"/>
		<path id="XMLID_4041_" class="st1" d="M53.8,132.1c0.7,0.4,0.7,1.1,0,1.5c-0.7,0.4-1.9,0.4-2.6,0c-0.7-0.4-0.7-1.1,0-1.5
			C51.9,131.7,53.1,131.7,53.8,132.1z"/>
		<ellipse id="XMLID_4040_" class="st1" cx="59.3" cy="128.9" rx="1.9" ry="1.1"/>
		<ellipse id="XMLID_4039_" class="st1" cx="66.2" cy="124.9" rx="1.9" ry="1.1"/>
		<ellipse id="XMLID_4038_" class="st1" cx="73.1" cy="120.9" rx="1.9" ry="1.1"/>
		<path id="XMLID_4037_" class="st1" d="M81.3,116.2c0.7,0.4,0.7,1.1,0,1.5c-0.7,0.4-1.9,0.4-2.6,0c-0.7-0.4-0.7-1.1,0-1.5
			C79.4,115.8,80.6,115.8,81.3,116.2z"/>
		<path id="XMLID_4036_" class="st1" d="M33.1,136.1c0.7,0.4,0.7,1.1,0,1.5c-0.7,0.4-1.9,0.4-2.6,0s-0.7-1.1,0-1.5
			C31.2,135.6,32.4,135.6,33.1,136.1z"/>
		<path id="XMLID_4035_" class="st1" d="M40,132.1c0.7,0.4,0.7,1.1,0,1.5c-0.7,0.4-1.9,0.4-2.6,0c-0.7-0.4-0.7-1.1,0-1.5
			C38.1,131.7,39.3,131.7,40,132.1z"/>
		<path id="XMLID_4034_" class="st1" d="M46.9,128.1c0.7,0.4,0.7,1.1,0,1.5c-0.7,0.4-1.9,0.4-2.6,0c-0.7-0.4-0.7-1.1,0-1.5
			C45,127.7,46.2,127.7,46.9,128.1z"/>
		<path id="XMLID_4033_" class="st1" d="M53.8,124.1c0.7,0.4,0.7,1.1,0,1.5c-0.7,0.4-1.9,0.4-2.6,0c-0.7-0.4-0.7-1.1,0-1.5
			C51.9,123.7,53.1,123.7,53.8,124.1z"/>
		<path id="XMLID_4032_" class="st1" d="M60.7,120.2c0.7,0.4,0.7,1.1,0,1.5c-0.7,0.4-1.9,0.4-2.6,0c-0.7-0.4-0.7-1.1,0-1.5
			C58.8,119.8,59.9,119.8,60.7,120.2z"/>
		<path id="XMLID_4031_" class="st1" d="M67.5,116.2c0.7,0.4,0.7,1.1,0,1.5c-0.7,0.4-1.9,0.4-2.6,0c-0.7-0.4-0.7-1.1,0-1.5
			C65.6,115.8,66.8,115.8,67.5,116.2z"/>
		<path id="XMLID_4030_" class="st1" d="M74.4,112.2c0.7,0.4,0.7,1.1,0,1.5c-0.7,0.4-1.9,0.4-2.6,0c-0.7-0.4-0.7-1.1,0-1.5
			C72.5,111.8,73.7,111.8,74.4,112.2z"/>
		<ellipse id="XMLID_4028_" class="st1" cx="24.9" cy="132.8" rx="1.9" ry="1.1"/>
		<ellipse id="XMLID_4027_" class="st1" cx="31.8" cy="128.9" rx="1.9" ry="1.1"/>
		<ellipse id="XMLID_4026_" class="st1" cx="38.7" cy="124.9" rx="1.9" ry="1.1"/>
		<path id="XMLID_4025_" class="st1" d="M46.9,120.2c0.7,0.4,0.7,1.1,0,1.5c-0.7,0.4-1.9,0.4-2.6,0c-0.7-0.4-0.7-1.1,0-1.5
			C45,119.8,46.2,119.8,46.9,120.2z"/>
		<ellipse id="XMLID_4024_" class="st1" cx="52.5" cy="117" rx="1.9" ry="1.1"/>
		<path id="XMLID_4023_" class="st1" d="M60.7,112.2c0.7,0.4,0.7,1.1,0,1.5c-0.7,0.4-1.9,0.4-2.6,0c-0.7-0.4-0.7-1.1,0-1.5
			C58.8,111.8,59.9,111.8,60.7,112.2z"/>
		<ellipse id="XMLID_4022_" class="st1" cx="66.2" cy="109" rx="1.9" ry="1.1"/>
		<ellipse id="XMLID_4021_" class="st1" cx="18.1" cy="128.9" rx="1.9" ry="1.1"/>
		<path id="XMLID_4020_" class="st1" d="M26.3,124.1c0.7,0.4,0.7,1.1,0,1.5s-1.9,0.4-2.6,0s-0.7-1.1,0-1.5
			C24.4,123.7,25.5,123.7,26.3,124.1z"/>
		<path id="XMLID_4019_" class="st1" d="M33.1,120.2c0.7,0.4,0.7,1.1,0,1.5c-0.7,0.4-1.9,0.4-2.6,0c-0.7-0.4-0.7-1.1,0-1.5
			C31.2,119.8,32.4,119.8,33.1,120.2z"/>
		<path id="XMLID_4018_" class="st1" d="M40,116.2c0.7,0.4,0.7,1.1,0,1.5c-0.7,0.4-1.9,0.4-2.6,0c-0.7-0.4-0.7-1.1,0-1.5
			C38.1,115.8,39.3,115.8,40,116.2z"/>
		<path id="XMLID_4017_" class="st1" d="M53.8,108.3c0.7,0.4,0.7,1.1,0,1.5c-0.7,0.4-1.9,0.4-2.6,0c-0.7-0.4-0.7-1.1,0-1.5
			S53.1,107.8,53.8,108.3z"/>
		<ellipse id="XMLID_4016_" class="st1" cx="59.3" cy="105" rx="1.9" ry="1.1"/>
		<path id="XMLID_4015_" class="st1" d="M12.5,124.1c0.7,0.4,0.7,1.1,0,1.5c-0.7,0.4-1.9,0.4-2.6,0s-0.7-1.1,0-1.5
			C10.6,123.7,11.8,123.7,12.5,124.1z"/>
		<path id="XMLID_4014_" class="st1" d="M19.4,120.2c0.7,0.4,0.7,1.1,0,1.5c-0.7,0.4-1.9,0.4-2.6,0c-0.7-0.4-0.7-1.1,0-1.5
			C17.5,119.8,18.7,119.8,19.4,120.2z"/>
		<ellipse id="XMLID_4013_" class="st1" cx="24.9" cy="117" rx="1.9" ry="1.1"/>
		<path id="XMLID_4012_" class="st1" d="M44.3,104.3c0.7-0.4,1.9-0.4,2.6,0c0.7,0.4,0.7,1.1,0,1.5C46.2,106.2,43.5,104.7,44.3,104.3
			z"/>
		<ellipse id="XMLID_4011_" class="st1" cx="52.5" cy="101.1" rx="1.9" ry="1.1"/>
		<path id="XMLID_4010_" class="st1" d="M12.4,116.2c0.7,0.4,0.7,1.1,0,1.5c-0.7,0.4-1.9,0.4-2.6,0c-0.7-0.4-0.7-1.1,0-1.5
			C10.5,115.7,11.7,115.7,12.4,116.2z"/>
		<ellipse id="XMLID_4008_" class="st1" cx="128.5" cy="183.9" rx="1.9" ry="1.1"/>
		<path id="XMLID_4007_" class="st1" d="M136.7,179.2c0.7,0.4,0.7,1.1,0,1.5c-0.7,0.4-1.9,0.4-2.6,0c-0.7-0.4-0.7-1.1,0-1.5
			C134.8,178.7,135.9,178.7,136.7,179.2z"/>
		<ellipse id="XMLID_4006_" class="st1" cx="142.2" cy="175.9" rx="1.9" ry="1.1"/>
		<path id="XMLID_4005_" class="st1" d="M150.4,171.2c0.7,0.4,0.7,1.1,0,1.5c-0.7,0.4-1.9,0.4-2.6,0c-0.7-0.4-0.7-1.1,0-1.5
			C148.5,170.8,149.7,170.8,150.4,171.2z"/>
		<ellipse id="XMLID_4004_" class="st1" cx="156" cy="168" rx="1.9" ry="1.1"/>
		<path id="XMLID_4003_" class="st1" d="M164.2,163.3c0.7,0.4,0.7,1.1,0,1.5c-0.7,0.4-1.9,0.4-2.6,0c-0.7-0.4-0.7-1.1,0-1.5
			C162.3,162.9,163.5,162.9,164.2,163.3z"/>
		<path id="XMLID_4002_" class="st1" d="M116,183.1c0.7,0.4,0.7,1.1,0,1.5c-0.7,0.4-1.9,0.4-2.6,0c-0.7-0.4-0.7-1.1,0-1.5
			C114.1,182.7,115.3,182.7,116,183.1z"/>
		<path id="XMLID_4001_" class="st1" d="M122.9,179.2c0.7,0.4,0.7,1.1,0,1.5c-0.7,0.4-1.9,0.4-2.6,0c-0.7-0.4-0.7-1.1,0-1.5
			C121,178.7,122.2,178.7,122.9,179.2z"/>
		<path id="XMLID_4000_" class="st1" d="M129.8,175.2c0.7,0.4,0.7,1.1,0,1.5c-0.7,0.4-1.9,0.4-2.6,0c-0.7-0.4-0.7-1.1,0-1.5
			C127.9,174.8,129.1,174.8,129.8,175.2z"/>
		<path id="XMLID_3999_" class="st1" d="M136.7,171.2c0.7,0.4,0.7,1.1,0,1.5c-0.7,0.4-1.9,0.4-2.6,0c-0.7-0.4-0.7-1.1,0-1.5
			C134.8,170.8,135.9,170.8,136.7,171.2z"/>
		<ellipse id="XMLID_3998_" class="st1" cx="142.2" cy="168" rx="1.9" ry="1.1"/>
		<path id="XMLID_3997_" class="st1" d="M150.4,163.3c0.7,0.4,0.7,1.1,0,1.5c-0.7,0.4-1.9,0.4-2.6,0c-0.7-0.4-0.7-1.1,0-1.5
			C148.5,162.9,149.7,162.9,150.4,163.3z"/>
		<path id="XMLID_3996_" class="st1" d="M157.3,159.3c0.7,0.4,0.7,1.1,0,1.5c-0.7,0.4-1.9,0.4-2.6,0c-0.7-0.4-0.7-1.1,0-1.5
			C155.4,158.9,156.6,158.9,157.3,159.3z"/>
		<path id="XMLID_3995_" class="st1" d="M109.2,179.2c0.7,0.4,0.7,1.1,0,1.5c-0.7,0.4-1.9,0.4-2.6,0c-0.7-0.4-0.7-1.1,0-1.5
			C107.2,178.7,108.4,178.7,109.2,179.2z"/>
		<path id="XMLID_3994_" class="st1" d="M116,175.2c0.7,0.4,0.7,1.1,0,1.5c-0.7,0.4-1.9,0.4-2.6,0c-0.7-0.4-0.7-1.1,0-1.5
			C114.1,174.8,115.3,174.8,116,175.2z"/>
		<ellipse id="XMLID_3993_" class="st1" cx="121.6" cy="172" rx="1.9" ry="1.1"/>
		<ellipse id="XMLID_3992_" class="st1" cx="128.5" cy="168" rx="1.9" ry="1.1"/>
		<ellipse id="XMLID_3991_" class="st1" cx="135.4" cy="164" rx="1.9" ry="1.1"/>
		<ellipse id="XMLID_3990_" class="st1" cx="142.2" cy="160.1" rx="1.9" ry="1.1"/>
		<ellipse id="XMLID_3989_" class="st1" cx="149.1" cy="156.1" rx="1.9" ry="1.1"/>
		<path id="XMLID_3988_" class="st1" d="M102.3,175.2c0.7,0.4,0.7,1.1,0,1.5c-0.7,0.4-1.9,0.4-2.6,0c-0.7-0.4-0.7-1.1,0-1.5
			C100.4,174.8,101.5,174.8,102.3,175.2z"/>
		<ellipse id="XMLID_3987_" class="st1" cx="107.8" cy="172" rx="1.9" ry="1.1"/>
		<ellipse id="XMLID_3986_" class="st1" cx="114.7" cy="168" rx="1.9" ry="1.1"/>
		<path id="XMLID_3985_" class="st1" d="M122.9,163.3c0.7,0.4,0.7,1.1,0,1.5c-0.7,0.4-1.9,0.4-2.6,0c-0.7-0.4-0.7-1.1,0-1.5
			C121,162.9,122.2,162.9,122.9,163.3z"/>
		<path id="XMLID_3984_" class="st1" d="M129.8,159.3c0.7,0.4,0.7,1.1,0,1.5c-0.7,0.4-1.9,0.4-2.6,0c-0.7-0.4-0.7-1.1,0-1.5
			C127.9,158.9,129.1,158.9,129.8,159.3z"/>
		<ellipse id="XMLID_3983_" class="st1" cx="135.4" cy="156.1" rx="1.9" ry="1.1"/>
		<path id="XMLID_3982_" class="st1" d="M143.6,151.4c0.7,0.4,0.7,1.1,0,1.5s-1.9,0.4-2.6,0s-0.7-1.1,0-1.5
			C141.6,150.9,142.8,150.9,143.6,151.4z"/>
		<ellipse id="XMLID_3981_" class="st1" cx="94.1" cy="172" rx="1.9" ry="1.1"/>
		<ellipse id="XMLID_3980_" class="st1" cx="101" cy="168" rx="1.9" ry="1.1"/>
		<path id="XMLID_3979_" class="st1" d="M122.9,155.3c0.7,0.4,0.7,1.1,0,1.5c-0.7,0.4-1.9,0.4-2.6,0
			C119.6,156.4,122.2,154.9,122.9,155.3z"/>
		<path id="XMLID_3978_" class="st1" d="M136.7,147.4c0.7,0.4,0.7,1.1,0,1.5c-0.7,0.4-1.9,0.4-2.6,0S135.9,147,136.7,147.4z"/>
		<path id="XMLID_3977_" class="st1" d="M88.5,167.2c0.7,0.4,0.7,1.1,0,1.5c-0.7,0.4-1.9,0.4-2.6,0c-0.7-0.4-0.7-1.1,0-1.5
			C86.6,166.8,87.8,166.8,88.5,167.2z"/>
		<path id="XMLID_3976_" class="st1" d="M95.4,163.3c0.7,0.4,0.7,1.1,0,1.5c-0.7,0.4-1.9,0.4-2.6,0c-0.7-0.4-0.7-1.1,0-1.5
			C93.5,162.9,94.7,162.9,95.4,163.3z"/>
		<ellipse id="XMLID_3975_" class="st1" cx="80.3" cy="164" rx="1.9" ry="1.1"/>
		<path id="XMLID_3974_" class="st1" d="M88.5,159.3c0.7,0.4,0.7,1.1,0,1.5c-0.7,0.4-1.9,0.4-2.6,0c-0.7-0.4-0.7-1.1,0-1.5
			C86.6,158.9,87.8,158.9,88.5,159.3z"/>
		<path id="XMLID_3973_" class="st1" d="M81.6,155.3c0.7,0.4,0.7,1.1,0,1.5c-0.7,0.4-1.9,0.4-2.6,0c-0.7-0.4-0.7-1.1,0-1.5
			C79.7,154.9,80.9,154.9,81.6,155.3z"/>
		<path id="XMLID_3972_" class="st1" d="M81.6,147.3c0.7,0.4,0.7,1.1,0,1.5c-0.7,0.4-1.9,0.4-2.6,0c-0.7-0.4-0.7-1.1,0-1.5
			C79.7,146.9,80.8,146.9,81.6,147.3z"/>
		<ellipse id="XMLID_3971_" class="st1" cx="80.3" cy="140.2" rx="1.9" ry="1.1"/>
		<ellipse id="XMLID_3970_" class="st1" cx="80.3" cy="132.2" rx="1.9" ry="1.1"/>
		<path id="XMLID_3968_" class="st1" d="M54,139.4c0.7,0.4,0.7,1.1,0,1.5c-0.7,0.4-1.9,0.4-2.6,0c-0.7-0.4-0.7-1.1,0-1.5
			C52.1,139,53.3,139,54,139.4z"/>
		<path id="XMLID_3967_" class="st1" d="M60.9,135.4c0.7,0.4,0.7,1.1,0,1.5c-0.7,0.4-1.9,0.4-2.6,0c-0.7-0.4-0.7-1.1,0-1.5
			C59,135,60.2,135,60.9,135.4z"/>
		<ellipse id="XMLID_3966_" class="st1" cx="73.4" cy="128.2" rx="1.9" ry="1.1"/>
		<path id="XMLID_3965_" class="st1" d="M81.6,123.5c0.7,0.4,0.7,1.1,0,1.5c-0.7,0.4-1.9,0.4-2.6,0c-0.7-0.4-0.7-1.1,0-1.5
			C79.7,123.1,80.8,123.1,81.6,123.5z"/>
		<path id="XMLID_3964_" class="st1" d="M78.7,108.3c0.7-0.4,1.9-0.4,2.6,0c0.7,0.4,0.7,1.1,0,1.5c-0.7,0.4-1.9,0.4-2.6,0
			C78,109.4,78,108.7,78.7,108.3z"/>
		<path id="XMLID_3963_" class="st1" d="M71.8,104.3c0.7-0.4,1.9-0.4,2.6,0c0.7,0.4,0.7,1.1,0,1.5c-0.7,0.4-1.9,0.4-2.6,0
			C71.1,105.4,71.1,104.8,71.8,104.3z"/>
		<path id="XMLID_3962_" class="st1" d="M81.3,100.4c0.7,0.4,0.7,1.1,0,1.5c-0.7,0.4-1.9,0.4-2.6,0c-0.7-0.4-0.7-1.1,0-1.5
			C79.4,99.9,80.6,99.9,81.3,100.4z"/>
		<path id="XMLID_3961_" class="st1" d="M64.9,100.4c0.7-0.4,1.9-0.4,2.6,0c0.7,0.4,0.7,1.1,0,1.5c-0.7,0.4-1.9,0.4-2.6,0
			C64.2,101.5,64.2,100.8,64.9,100.4z"/>
		<path id="XMLID_3960_" class="st1" d="M74.4,96.4c0.7,0.4,0.7,1.1,0,1.5c-0.7,0.4-1.9,0.4-2.6,0c-0.7-0.4-0.7-1.1,0-1.5
			C72.5,96,73.7,96,74.4,96.4z"/>
		<path id="XMLID_3959_" class="st1" d="M58,96.4c0.7-0.4,1.9-0.4,2.6,0c0.7,0.4,0.7,1.1,0,1.5c-0.7,0.4-1.9,0.4-2.6,0
			C57.3,97.5,57.3,96.8,58,96.4z"/>
		<ellipse id="XMLID_3958_" class="st1" cx="66.2" cy="93.2" rx="1.9" ry="1.1"/>
		<path id="XMLID_3957_" class="st1" d="M53.7,92.4c0.7,0.4,0.7,1.1,0,1.5c-0.7,0.4-1.9,0.4-2.6,0C50.4,93.5,53,92,53.7,92.4z"/>
		<path id="XMLID_3956_" class="st1" d="M60.6,88.4c0.7,0.4,0.7,1.1,0,1.5c-0.7,0.4-1.9,0.4-2.6,0C57.3,89.5,59.9,88,60.6,88.4z"/>
		<path id="XMLID_3955_" class="st1" d="M168.5,159.4c0.7-0.4,1.9-0.4,2.6,0c0.7,0.4,0.7,1.1,0,1.5c-0.7,0.4-1.9,0.4-2.6,0
			C167.7,160.5,167.7,159.8,168.5,159.4z"/>
		<path id="XMLID_3954_" class="st1" d="M178,155.4c0.7,0.4,0.7,1.1,0,1.5c-0.7,0.4-1.9,0.4-2.6,0c-0.7-0.4-0.7-1.1,0-1.5
			C176.1,155,177.2,155,178,155.4z"/>
		<path id="XMLID_3953_" class="st1" d="M184.9,151.4c0.7,0.4,0.7,1.1,0,1.5c-0.7,0.4-1.9,0.4-2.6,0c-0.7-0.4-0.7-1.1,0-1.5
			C183,151,184.1,151,184.9,151.4z"/>
		<path id="XMLID_3952_" class="st1" d="M191.7,147.4c0.7,0.4,0.7,1.1,0,1.5c-0.7,0.4-1.9,0.4-2.6,0c-0.7-0.4-0.7-1.1,0-1.5
			S191,147,191.7,147.4z"/>
		<path id="XMLID_3951_" class="st1" d="M161.6,155.4c0.7-0.4,1.9-0.4,2.6,0c0.7,0.4,0.7,1.1,0,1.5c-0.7,0.4-1.9,0.4-2.6,0
			C160.9,156.5,160.8,155.8,161.6,155.4z"/>
		<path id="XMLID_3950_" class="st1" d="M171.1,151.4c0.7,0.4,0.7,1.1,0,1.5c-0.7,0.4-1.9,0.4-2.6,0c-0.7-0.4-0.7-1.1,0-1.5
			C169.2,151,170.4,151,171.1,151.4z"/>
		<path id="XMLID_3949_" class="st1" d="M178,147.4c0.7,0.4,0.7,1.1,0,1.5c-0.7,0.4-1.9,0.4-2.6,0c-0.7-0.4-0.7-1.1,0-1.5
			C176.1,147,177.2,147,178,147.4z"/>
		<ellipse id="XMLID_3948_" class="st1" cx="183.5" cy="144.2" rx="1.9" ry="1.1"/>
		<ellipse id="XMLID_3947_" class="st1" cx="190.4" cy="140.3" rx="1.9" ry="1.1"/>
		<path id="XMLID_3946_" class="st1" d="M154.7,151.4c0.7-0.4,1.9-0.4,2.6,0c0.7,0.4,0.7,1.1,0,1.5c-0.7,0.4-1.9,0.4-2.6,0
			C154,152.5,154,151.8,154.7,151.4z"/>
		<path id="XMLID_3945_" class="st1" d="M164.2,147.4c0.7,0.4,0.7,1.1,0,1.5c-0.7,0.4-1.9,0.4-2.6,0c-0.7-0.4-0.7-1.1,0-1.5
			C162.3,147,163.5,147,164.2,147.4z"/>
		<path id="XMLID_3944_" class="st1" d="M171.1,143.5c0.7,0.4,0.7,1.1,0,1.5c-0.7,0.4-1.9,0.4-2.6,0c-0.7-0.4-0.7-1.1,0-1.5
			C169.2,143,170.4,143,171.1,143.5z"/>
		<ellipse id="XMLID_3943_" class="st1" cx="176.7" cy="140.3" rx="1.9" ry="1.1"/>
		<path id="XMLID_3933_" class="st1" d="M184.9,135.5c0.7,0.4,0.7,1.1,0,1.5c-0.7,0.4-1.9,0.4-2.6,0c-0.7-0.4-0.7-1.1,0-1.5
			C183,135.1,184.1,135.1,184.9,135.5z"/>
		<path id="XMLID_3923_" class="st1" d="M191.7,131.5c0.7,0.4,0.7,1.1,0,1.5s-1.9,0.4-2.6,0c-0.7-0.4-0.7-1.1,0-1.5
			C189.8,131.1,191,131.1,191.7,131.5z"/>
		<path id="XMLID_3913_" class="st1" d="M147.8,147.4c0.7-0.4,1.9-0.4,2.6,0c0.7,0.4,0.7,1.1,0,1.5c-0.7,0.4-1.9,0.4-2.6,0
			C147.1,148.5,147.1,147.9,147.8,147.4z"/>
		<ellipse id="XMLID_3458_" class="st1" cx="156" cy="144.2" rx="1.9" ry="1.1"/>
		<ellipse id="XMLID_3453_" class="st1" cx="162.9" cy="140.3" rx="1.9" ry="1.1"/>
		<path id="XMLID_3452_" class="st1" d="M171.1,135.5c0.7,0.4,0.7,1.1,0,1.5c-0.7,0.4-1.9,0.4-2.6,0c-0.7-0.4-0.7-1.1,0-1.5
			C169.2,135.1,170.4,135.1,171.1,135.5z"/>
		<path id="XMLID_3451_" class="st1" d="M178,131.5c0.7,0.4,0.7,1.1,0,1.5c-0.7,0.4-1.9,0.4-2.6,0c-0.7-0.4-0.7-1.1,0-1.5
			C176.1,131.1,177.2,131.1,178,131.5z"/>
		<ellipse id="XMLID_3449_" class="st1" cx="183.5" cy="128.3" rx="1.9" ry="1.1"/>
		<path id="XMLID_3448_" class="st1" d="M191.7,123.6c0.7,0.4,0.7,1.1,0,1.5c-0.7,0.4-1.9,0.4-2.6,0c-0.7-0.4-0.7-1.1,0-1.5
			C189.8,123.2,191,123.2,191.7,123.6z"/>
		<path id="XMLID_3447_" class="st1" d="M143.6,143.5c0.7,0.4,0.7,1.1,0,1.5c-0.7,0.4-1.9,0.4-2.6,0S142.8,143,143.6,143.5z"/>
		<path id="XMLID_3440_" class="st1" d="M150.5,139.5c0.7,0.4,0.7,1.1,0,1.5c-0.7,0.4-1.9,0.4-2.6,0
			C147.1,140.6,149.7,139.1,150.5,139.5z"/>
		<path id="XMLID_3207_" class="st1" d="M157.3,135.5c0.7,0.4,0.7,1.1,0,1.5c-0.7,0.4-1.9,0.4-2.6,0
			C154,136.6,156.6,135.1,157.3,135.5z"/>
		<path id="XMLID_2766_" class="st1" d="M184.9,119.6c0.7,0.4,0.7,1.1,0,1.5s-1.9,0.4-2.6,0S184.1,119.2,184.9,119.6z"/>
	</g>
</g>
</svg>
