<?xml version="1.0" encoding="utf-8"?>
<!-- Generator: Adobe Illustrator 22.0.0, SVG Export Plug-In . SVG Version: 6.00 Build 0)  -->
<svg version="1.1" id="Layer_1" xmlns="http://www.w3.org/2000/svg" xmlns:xlink="http://www.w3.org/1999/xlink" x="0px" y="0px"
	 viewBox="0 0 200 200" style="enable-background:new 0 0 200 200;" xml:space="preserve">
<style type="text/css">
	.st0{fill:#F68848;}
	.st1{fill:#16110D;}
	.st2{fill:#FFEECC;}
</style>
<g id="_x33_">
	<g id="XMLID_2918_">
		<g id="XMLID_3027_">
			<path id="XMLID_3045_" class="st0" d="M56.6,76.2l30.7-18l9.5,21.6l-7.5,18.6l-19.2-7.5c0,0-9.1-4-9.3-5.1
				C60.6,84.7,56.6,76.2,56.6,76.2z"/>
			<path id="XMLID_3046_" class="st1" d="M90.1,100.1l-20.4-8c-9.7-4.3-10-5.4-10.1-6.1c-0.2-0.7-2.2-5.3-4.1-9.3l-0.1-0.3v-1.1
				L88,56.3l10.3,23.5L90.1,100.1z M62.1,85.2c0.8,0.8,5,2.9,8.6,4.4l17.9,7l6.8-16.9l-8.7-19.7L58.3,76.7
				C59.5,79.2,61.6,83.8,62.1,85.2z"/>
		</g>
		<g id="XMLID_3029_">
			<path id="XMLID_3041_" class="st0" d="M38.8,112.2l26.5-16.2l17.2,10.4c0,0,17.7,18.6,17,21.2c-0.7,2.7-5.9,23-5.9,23
				s-31.9,3.3-32.3,1c-0.4-2.3-16.1-16-16.1-16L38.8,112.2z"/>
			<path id="XMLID_3042_" class="st1" d="M67.8,153.7c-7.4,0-7.6-1.1-7.8-1.9c-0.5-1.4-8.4-8.9-15.7-15.3l-0.3-0.3l-6.5-23.8l0-1
				l27.8-17l18.2,11c12.1,12.7,17.9,20.2,17.3,22.5c-0.7,2.7-5.9,23-5.9,23l-0.2,0.9l-0.9,0.1C80.6,153.2,72.7,153.7,67.8,153.7z
				 M62.4,150.7c2.5,0.8,16.9-0.1,30.2-1.4c1-3.9,5.1-19.8,5.7-22.1c-0.3-1.7-8.8-11.7-16.6-19.9l-16.4-9.9l-25,15.3l6,22
				C52,139.7,60.9,147.8,62.4,150.7z"/>
		</g>
		<g id="XMLID_3026_">
			<path id="XMLID_3037_" class="st0" d="M159,134.4c0-16.7-8.1-31.5-24.3-44.6c-2.4-1.3-42.5,18.5-42.5,18.5s-1.6,11.4-3.2,22.8
				c1.6,1.4,3.2,2.7,4.8,3.9c1.6,1.2,3.3,2.4,5,3.6l3.2,13.8l10.3,24.4l36.7-21.6c1-0.5,2-1,2.8-1.7l0,0l0,0
				C156.6,149.9,159,143.5,159,134.4z"/>
			<path id="XMLID_3038_" d="M111.8,178.7l-10.9-25.8l-3.2-13.5l-0.7-0.5c-1.3-0.9-2.7-1.9-3.9-2.8c-1.6-1.2-3.2-2.6-4.8-4l-0.5-0.5
				l0.1-0.7c1.5-11.4,3.2-22.8,3.2-22.8l0.1-0.7l0.6-0.3c27-13.3,41.7-19.5,43.7-18.5c16.6,13.4,25,28.7,25,45.7
				c0,9.1-2.3,15.7-6.9,19.6l0,0.1l-0.8,0.5c-0.9,0.7-1.9,1.3-3,1.8L111.8,178.7z M90.5,130.5c1.4,1.2,2.8,2.4,4.2,3.4
				c1.2,0.9,2.5,1.9,3.8,2.8l1.6,1.1l3.4,14.3l9.6,22.8l35.4-20.8c1-0.5,1.9-0.9,2.6-1.5l0.2-0.1c4.3-3.3,6.5-9.4,6.5-18.1
				c0-16.1-7.9-30.6-23.5-43.3c-3.2,0.3-23,9.4-40.7,18.1C93.1,111.7,91.8,121,90.5,130.5z"/>
		</g>
		<g id="XMLID_2919_">
			<g id="XMLID_3028_">
				<path id="XMLID_2494_" class="st0" d="M94.9,80.7l7.1,4.1c1.5,0.9,2.9,1.7,4.2,2.5l4.7,18.7l0.2,0.3l10.6-6.2l15.1-8.8l10.7-6.2
					c0.1-0.1,0.2-0.1,0.3-0.2l0.2-0.1c0,0,0,0,0,0c0.4-0.3,0.9-0.5,1.3-0.9c4.4-3.4,6.5-9.2,6.5-17.4c0-9.6-3.4-19-10.1-28.4
					c-6.8-9.4-16.1-17.5-28-24.3c-8.2-4.7-15.5-7.9-21.9-9.6c-6.4-1.6-12.6-1.8-18.7-0.4L38.8,26.3l56.1,28.2V80.7z"/>
				<path id="XMLID_3034_" class="st1" d="M110.8,108l-1.2-1.7L105,88.1c-1.2-0.7-2.4-1.5-3.7-2.2l-7.7-4.5V55.3L38,27.3l-0.7-1.7
					L76.9,2.4c6.3-1.4,12.7-1.2,19.3,0.4c6.5,1.6,13.9,4.9,22.2,9.7c12,6.9,21.6,15.2,28.4,24.7c6.9,9.5,10.4,19.3,10.4,29.1
					c0,8.6-2.4,14.8-7,18.5c-0.2,0.1-0.3,0.2-0.5,0.4l0,0.1l-1,0.6l0,0l-0.3,0.2l-0.3,0.2L110.8,108z M96.2,79.9l6.4,3.7
					c1.5,0.9,2.9,1.7,4.3,2.6l0.5,0.3l4.5,17.9l35.6-20.8c0.4-0.2,0.8-0.5,1.2-0.8c4-3.1,6-8.6,6-16.4c0-9.2-3.3-18.5-9.9-27.6
					c-6.6-9.2-15.9-17.2-27.6-24C109,10.2,101.8,7,95.6,5.4C89.5,3.9,83.5,3.7,77.7,5L41.5,26.2l54.7,27.5V79.9z"/>
			</g>
		</g>
		<path id="XMLID_2920_" class="st0" d="M117.6,88.9c0,8.2-2.2,14-6.5,17.4c-4.3,3.4-10.6,4-18.9,2v0.5c19.2,13.9,28.8,29.9,28.8,48
			c0,12.3-4.2,19.6-12.7,21.8c-8.5,2.2-20.2-1.1-35.3-9.7c-6.2-3.6-11.9-7.4-17.2-11.5c-5.3-4.1-11-9.2-17.1-15.5v-29.8
			c5,5.9,10.2,11,15.4,15.5c5.2,4.4,10,7.9,14.4,10.5c6.8,3.9,11.8,5.7,14.9,5.3c3.1-0.4,4.7-3,4.7-7.7c0-3.6-0.8-6.9-2.4-9.8
			c-1.6-2.9-4.2-5.9-7.9-9c-3.6-3.1-8.3-6.3-14.2-9.7l-7.1-4.1v-27l7.2,4.2c15.8,9.1,23.7,9,23.7-0.3c0-3.5-1.2-6.8-3.5-9.8
			c-2.3-3-5.5-5.7-9.4-8c-7.3-4.2-14.9-5.8-22.8-4.6L38.9,26.2c6.1-1.3,12.3-1.2,18.7,0.4c6.4,1.6,13.7,4.8,21.9,9.6
			c11.9,6.9,21.2,15,28,24.3C114.3,69.9,117.6,79.3,117.6,88.9z"/>
		<path id="XMLID_4047_" class="st2" d="M66.3,87.9C82.1,97,90,96.9,90,87.6c0-3.5-1.2-6.8-3.5-9.8c-1.8-2.3-4-4.4-6.6-6.2
			L59.1,83.7L66.3,87.9z"/>
		<path id="XMLID_4050_" class="st2" d="M56,136.8c5.2,4.4,10,7.9,14.4,10.5c6.8,3.9,11.8,5.7,14.9,5.3c3.1-0.4,4.7-3,4.7-7.7
			c0-3.6-0.8-6.9-2.4-9.8c-1.6-2.9-4.2-5.9-7.9-9c-3.6-3.1-8.3-6.3-14.2-9.7l-7.1-4.1l-2.8-0.2l-15.1,9.2
			C45.6,127.2,50.8,132.4,56,136.8z"/>
		<path id="XMLID_27_" class="st1" d="M117.8,139l38.1-21.7l3.1,13.9l-0.7,13l-6.9,10.2L116,173.6l4.1-7.2c0,0,0.6-14.6,0.9-15.4
			C121.3,150.2,117.8,139,117.8,139z"/>
		<polygon id="XMLID_2493_" class="st1" points="106.6,121.8 145,99.5 136.8,91.3 109.5,107.1 99.5,109.4 93.4,109.1 		"/>
		<path id="XMLID_4029_" class="st2" d="M104.4,62.2l38.7-22.1c-6.1-6.6-13.6-12.5-22.6-17.7c-8.2-4.7-15.5-7.9-21.9-9.6
			c-6.4-1.6-12.6-1.8-18.7-0.4L41.5,35l0.2,0.1l-0.1-0.2c6.1-1.3,12.3-1.2,18.7,0.4c6.4,1.6,13.7,4.8,21.9,9.6
			C91.1,50,98.4,55.7,104.4,62.2z"/>
		<path id="XMLID_4045_" class="st2" d="M112.4,78.7c0.3,1.3,0.7,2.8,1,4.2l38.2-21.6c-0.6-6.4-2.8-11.8-2.8-11.8l-39.2,22
			C110.5,73.2,111.7,76,112.4,78.7z"/>
		<path id="XMLID_3031_" class="st1" d="M102.9,180.6c-8.1,0-18.3-3.5-30.5-10.6c-6.2-3.6-12-7.5-17.3-11.6
			c-5.3-4.1-11.1-9.3-17.2-15.6l-0.4-0.4v-31.1l1.6-1l0.7,0.9c5,5.8,10.1,10.9,15.2,15.3c5.1,4.4,9.9,7.8,14.2,10.3
			c8.1,4.7,12.1,5.4,14.1,5.1c1.5-0.2,3.5-1.1,3.5-6.4c0-3.4-0.8-6.5-2.3-9.2c-1.5-2.8-4.1-5.7-7.6-8.6c-3.5-3-8.2-6.2-14-9.5
			l-7.7-4.5V75.4l1.3-0.8l7.9,4.6c12.4,7.2,17.5,7.2,19.6,6c1.4-0.8,2-2.5,2-5.1c0-3.2-1.1-6.2-3.2-9c-2.2-2.9-5.2-5.5-9-7.6
			c-7-4.1-14.4-5.6-21.9-4.5l-1,0.1L37.3,25.6l1.3-0.7l0.1,0c6.3-1.4,12.7-1.2,19.3,0.4c6.5,1.6,13.9,4.9,22.2,9.7
			c12,6.9,21.6,15.2,28.4,24.7c6.9,9.5,10.4,19.3,10.4,29.1c0,8.6-2.4,14.8-7,18.5c-3.8,2.9-8.9,4-15.3,3.1
			c17,13.4,25.7,29,25.7,46.3c0,13-4.6,20.7-13.7,23.1C106.9,180.4,104.9,180.6,102.9,180.6z M40.1,141.4c5.9,6,11.5,11.1,16.6,15
			c5.2,4,10.9,7.8,17,11.4c14.7,8.5,26.2,11.7,34.3,9.6c7.9-2,11.7-8.8,11.7-20.5c0-17.6-9.5-33.4-28.2-47l-0.5-0.4v-2.9l1.7,0.4
			c7.8,2,13.7,1.4,17.7-1.7c4-3.1,6-8.6,6-16.4c0-9.2-3.3-18.5-9.9-27.6c-6.6-9.2-15.9-17.2-27.6-24c-8.1-4.7-15.3-7.8-21.6-9.4
			c-5.6-1.4-11.1-1.7-16.5-0.7l11.9,29c7.8-0.9,15.4,0.7,22.6,4.9c4.1,2.4,7.4,5.1,9.8,8.3c2.5,3.3,3.8,6.8,3.8,10.6
			c0,3.6-1.1,6.2-3.4,7.4c-4,2.3-11.3,0.4-22.3-6l-5.2-3v23.9l6.4,3.7c5.9,3.4,10.7,6.7,14.3,9.8c3.7,3.2,6.5,6.3,8.2,9.3
			c1.7,3.1,2.6,6.6,2.6,10.5c0,6.8-3.2,8.7-5.8,9c-3.5,0.4-8.6-1.3-15.7-5.5c-4.4-2.6-9.4-6.1-14.6-10.6c-4.4-3.8-8.9-8.1-13.2-12.9
			V141.4z"/>
	</g>
	<g id="XMLID_4106_">
		<ellipse id="XMLID_4105_" class="st1" cx="110.7" cy="197.5" rx="1.7" ry="1"/>
		<ellipse id="XMLID_4104_" class="st1" cx="117" cy="193.9" rx="1.7" ry="1"/>
		<ellipse id="XMLID_4103_" class="st1" cx="123.3" cy="190.2" rx="1.7" ry="1"/>
		<path id="XMLID_4102_" class="st1" d="M130.8,185.9c0.7,0.4,0.7,1,0,1.4c-0.7,0.4-1.7,0.4-2.4,0c-0.7-0.4-0.7-1,0-1.4
			C129,185.5,130.1,185.5,130.8,185.9z"/>
		<path id="XMLID_4101_" class="st1" d="M137.1,182.3c0.7,0.4,0.7,1,0,1.4c-0.7,0.4-1.7,0.4-2.4,0c-0.7-0.4-0.7-1,0-1.4
			C135.3,181.9,136.4,181.9,137.1,182.3z"/>
		<ellipse id="XMLID_4100_" class="st1" cx="142.2" cy="179.3" rx="1.7" ry="1"/>
		<path id="XMLID_4099_" class="st1" d="M149.7,175c0.7,0.4,0.7,1,0,1.4c-0.7,0.4-1.7,0.4-2.4,0c-0.7-0.4-0.7-1,0-1.4
			C147.9,174.6,149,174.6,149.7,175z"/>
		<path id="XMLID_4098_" class="st1" d="M155.9,171.4c0.7,0.4,0.7,1,0,1.4c-0.7,0.4-1.7,0.4-2.4,0c-0.7-0.4-0.7-1,0-1.4
			C154.2,171,155.3,171,155.9,171.4z"/>
		<ellipse id="XMLID_4097_" class="st1" cx="161" cy="168.4" rx="1.7" ry="1"/>
		<ellipse id="XMLID_4096_" class="st1" cx="98" cy="197.5" rx="1.7" ry="1"/>
		<path id="XMLID_4094_" class="st1" d="M105.5,193.1c0.7,0.4,0.7,1,0,1.4c-0.7,0.4-1.7,0.4-2.4,0c-0.7-0.4-0.7-1,0-1.4
			C103.8,192.8,104.9,192.8,105.5,193.1z"/>
		<ellipse id="XMLID_4093_" class="st1" cx="110.6" cy="190.2" rx="1.7" ry="1"/>
		<ellipse id="XMLID_4092_" class="st1" cx="116.9" cy="186.6" rx="1.7" ry="1"/>
		<ellipse id="XMLID_4091_" class="st1" cx="123.2" cy="182.9" rx="1.7" ry="1"/>
		<path id="XMLID_4090_" class="st1" d="M130.7,178.6c0.7,0.4,0.7,1,0,1.4c-0.7,0.4-1.7,0.4-2.4,0c-0.7-0.4-0.7-1,0-1.4
			C129,178.2,130,178.2,130.7,178.6z"/>
		<path id="XMLID_4089_" class="st1" d="M137,175c0.7,0.4,0.7,1,0,1.4c-0.7,0.4-1.7,0.4-2.4,0c-0.7-0.4-0.7-1,0-1.4
			C135.3,174.6,136.3,174.6,137,175z"/>
		<ellipse id="XMLID_4088_" class="st1" cx="142.1" cy="172" rx="1.7" ry="1"/>
		<path id="XMLID_4087_" class="st1" d="M149.6,167.7c0.7,0.4,0.7,1,0,1.4c-0.7,0.4-1.7,0.4-2.4,0c-0.7-0.4-0.7-1,0-1.4
			C147.9,167.3,148.9,167.3,149.6,167.7z"/>
		<path id="XMLID_4086_" class="st1" d="M155.9,164.1c0.7,0.4,0.7,1,0,1.4c-0.7,0.4-1.7,0.4-2.4,0c-0.7-0.4-0.7-1,0-1.4
			C154.2,163.7,155.2,163.7,155.9,164.1z"/>
		<ellipse id="XMLID_4085_" class="st1" cx="161" cy="161.1" rx="1.7" ry="1"/>
		<path id="XMLID_4084_" class="st1" d="M86.6,196.8c0.7,0.4,0.7,1,0,1.4c-0.7,0.4-1.7,0.4-2.4,0c-0.7-0.4-0.7-1,0-1.4
			C84.9,196.4,86,196.4,86.6,196.8z"/>
		<ellipse id="XMLID_4083_" class="st1" cx="91.7" cy="193.8" rx="1.7" ry="1"/>
		<path id="XMLID_4082_" class="st1" d="M99.2,189.5c0.7,0.4,0.7,1,0,1.4s-1.7,0.4-2.4,0c-0.7-0.4-0.7-1,0-1.4
			C97.5,189.1,98.6,189.1,99.2,189.5z"/>
		<path id="XMLID_4081_" class="st1" d="M105.5,185.9c0.7,0.4,0.7,1,0,1.4c-0.7,0.4-1.7,0.4-2.4,0c-0.7-0.4-0.7-1,0-1.4
			C103.8,185.5,104.9,185.5,105.5,185.9z"/>
		<path id="XMLID_4080_" class="st1" d="M111.8,182.2c0.7,0.4,0.7,1,0,1.4c-0.7,0.4-1.7,0.4-2.4,0c-0.7-0.4-0.7-1,0-1.4
			C110.1,181.9,111.2,181.9,111.8,182.2z"/>
		<path id="XMLID_4079_" class="st1" d="M118.1,178.6c0.7,0.4,0.7,1,0,1.4c-0.7,0.4-1.7,0.4-2.4,0s-0.7-1,0-1.4
			C116.4,178.2,117.5,178.2,118.1,178.6z"/>
		<path id="XMLID_4078_" class="st1" d="M124.4,175c0.7,0.4,0.7,1,0,1.4c-0.7,0.4-1.7,0.4-2.4,0c-0.7-0.4-0.7-1,0-1.4
			C122.7,174.6,123.8,174.6,124.4,175z"/>
		<ellipse id="XMLID_4077_" class="st1" cx="129.5" cy="172" rx="1.7" ry="1"/>
		<path id="XMLID_4076_" class="st1" d="M137,167.7c0.7,0.4,0.7,1,0,1.4c-0.7,0.4-1.7,0.4-2.4,0c-0.7-0.4-0.7-1,0-1.4
			C135.3,167.3,136.3,167.3,137,167.7z"/>
		<path id="XMLID_4075_" class="st1" d="M143.3,164.1c0.7,0.4,0.7,1,0,1.4c-0.7,0.4-1.7,0.4-2.4,0c-0.7-0.4-0.7-1,0-1.4
			C141.6,163.7,142.6,163.7,143.3,164.1z"/>
		<ellipse id="XMLID_4074_" class="st1" cx="148.4" cy="161.1" rx="1.7" ry="1"/>
		<ellipse id="XMLID_4073_" class="st1" cx="154.7" cy="157.5" rx="1.7" ry="1"/>
		<path id="XMLID_4072_" class="st1" d="M162.2,153.2c0.7,0.4,0.7,1,0,1.4c-0.7,0.4-1.7,0.4-2.4,0c-0.7-0.4-0.7-1,0-1.4
			C160.4,152.8,161.5,152.8,162.2,153.2z"/>
		<path id="XMLID_4071_" class="st1" d="M80.3,193.1c0.7,0.4,0.7,1,0,1.4c-0.7,0.4-1.7,0.4-2.4,0c-0.7-0.4-0.7-1,0-1.4
			C78.6,192.8,79.7,192.8,80.3,193.1z"/>
		<path id="XMLID_4070_" class="st1" d="M86.6,189.5c0.7,0.4,0.7,1,0,1.4s-1.7,0.4-2.4,0c-0.7-0.4-0.7-1,0-1.4
			C84.9,189.1,86,189.1,86.6,189.5z"/>
		<ellipse id="XMLID_4069_" class="st1" cx="91.7" cy="186.6" rx="1.7" ry="1"/>
		<path id="XMLID_4068_" class="st1" d="M99.2,182.2c0.7,0.4,0.7,1,0,1.4c-0.7,0.4-1.7,0.4-2.4,0c-0.7-0.4-0.7-1,0-1.4
			C97.5,181.9,98.6,181.9,99.2,182.2z"/>
		<path id="XMLID_4067_" class="st1" d="M74.1,189.5c0.7,0.4,0.7,1,0,1.4c-0.7,0.4-1.7,0.4-2.4,0c-0.7-0.4-0.7-1,0-1.4
			C72.3,189.1,73.4,189.1,74.1,189.5z"/>
		<ellipse id="XMLID_4066_" class="st1" cx="79.1" cy="186.6" rx="1.7" ry="1"/>
		<ellipse id="XMLID_4065_" class="st1" cx="85.4" cy="182.9" rx="1.7" ry="1"/>
		<path id="XMLID_4064_" class="st1" d="M67.8,185.9c0.7,0.4,0.7,1,0,1.4c-0.7,0.4-1.7,0.4-2.4,0c-0.7-0.4-0.7-1,0-1.4
			C66,185.5,67.1,185.5,67.8,185.9z"/>
		<path id="XMLID_4063_" class="st1" d="M74.1,182.2c0.7,0.4,0.7,1,0,1.4c-0.7,0.4-1.7,0.4-2.4,0c-0.7-0.4-0.7-1,0-1.4
			C72.3,181.9,73.4,181.9,74.1,182.2z"/>
		<ellipse id="XMLID_4062_" class="st1" cx="79.1" cy="179.3" rx="1.7" ry="1"/>
		<ellipse id="XMLID_4061_" class="st1" cx="60.3" cy="182.9" rx="1.7" ry="1"/>
		<ellipse id="XMLID_4060_" class="st1" cx="66.6" cy="179.3" rx="1.7" ry="1"/>
		<path id="XMLID_4059_" class="st1" d="M74.1,175c0.7,0.4,0.7,1,0,1.4c-0.7,0.4-1.7,0.4-2.4,0c-0.7-0.4-0.7-1,0-1.4
			C72.3,174.6,73.4,174.6,74.1,175z"/>
		<ellipse id="XMLID_4058_" class="st1" cx="54" cy="179.3" rx="1.7" ry="1"/>
		<path id="XMLID_4057_" class="st1" d="M61.5,175c0.7,0.4,0.7,1,0,1.4c-0.7,0.4-1.7,0.4-2.4,0c-0.7-0.4-0.7-1,0-1.4
			C59.7,174.6,60.8,174.6,61.5,175z"/>
		<path id="XMLID_4056_" class="st1" d="M67.8,171.3c0.7,0.4,0.7,1,0,1.4c-0.7,0.4-1.7,0.4-2.4,0c-0.7-0.4-0.7-1,0-1.4
			C66,171,67.1,171,67.8,171.3z"/>
		<path id="XMLID_4055_" class="st1" d="M48.9,175c0.7,0.4,0.7,1,0,1.4c-0.7,0.4-1.7,0.4-2.4,0c-0.7-0.4-0.7-1,0-1.4
			C47.1,174.6,48.2,174.6,48.9,175z"/>
		<path id="XMLID_4054_" class="st1" d="M55.2,171.3c0.7,0.4,0.7,1,0,1.4c-0.7,0.4-1.7,0.4-2.4,0c-0.7-0.4-0.7-1,0-1.4
			C53.4,171,54.5,171,55.2,171.3z"/>
		<path id="XMLID_4053_" class="st1" d="M61.5,167.7c0.7,0.4,0.7,1,0,1.4c-0.7,0.4-1.7,0.4-2.4,0c-0.7-0.4-0.7-1,0-1.4
			C59.7,167.3,60.8,167.3,61.5,167.7z"/>
		<path id="XMLID_4052_" class="st1" d="M48.8,167.7c0.7,0.4,0.7,1,0,1.4c-0.7,0.4-1.7,0.4-2.4,0c-0.7-0.4-0.7-1,0-1.4
			C47.1,167.3,48.2,167.3,48.8,167.7z"/>
		<path id="XMLID_4051_" class="st1" d="M55.1,164c0.7,0.4,0.7,1,0,1.4c-0.7,0.4-1.7,0.4-2.4,0c-0.7-0.4-0.7-1,0-1.4
			C53.4,163.6,54.4,163.6,55.1,164z"/>
		<path id="XMLID_4049_" class="st1" d="M42.5,164c0.7,0.4,0.7,1,0,1.4c-0.7,0.4-1.7,0.4-2.4,0c-0.7-0.4-0.7-1,0-1.4
			C40.8,163.6,41.9,163.6,42.5,164z"/>
		<ellipse id="XMLID_4048_" class="st1" cx="47.6" cy="161.1" rx="1.7" ry="1"/>
		<path id="XMLID_4046_" class="st1" d="M42.5,156.8c0.7,0.4,0.7,1,0,1.4c-0.7,0.4-1.7,0.4-2.4,0c-0.7-0.4-0.7-1,0-1.4
			C40.8,156.4,41.9,156.4,42.5,156.8z"/>
		<path id="XMLID_4009_" class="st1" d="M42.5,149.5c0.7,0.4,0.7,1,0,1.4c-0.7,0.4-1.7,0.4-2.4,0c-0.7-0.4-0.7-1,0-1.4
			C40.8,149.1,41.9,149.1,42.5,149.5z"/>
	</g>
</g>
</svg>
