<?xml version="1.0" encoding="utf-8"?>
<!-- Generator: Adobe Illustrator 22.0.0, SVG Export Plug-In . SVG Version: 6.00 Build 0)  -->
<svg version="1.1" id="Layer_1" xmlns="http://www.w3.org/2000/svg" xmlns:xlink="http://www.w3.org/1999/xlink" x="0px" y="0px"
	 viewBox="0 0 200 200" style="enable-background:new 0 0 200 200;" xml:space="preserve">
<style type="text/css">
	.st0{fill:#16110D;}
	.st1{fill:#F68848;}
	.st2{fill:#FFBE2E;}
	.st3{fill:#FFEECC;}
</style>
<g id="_x34_">
	<g id="XMLID_4191_">
		<ellipse id="XMLID_4190_" class="st0" cx="111.2" cy="172.3" rx="2" ry="1.2"/>
		<ellipse id="XMLID_4189_" class="st0" cx="81.5" cy="180.8" rx="2" ry="1.2"/>
		<path id="XMLID_4188_" class="st0" d="M90.4,175.7c0.8,0.5,0.8,1.2,0,1.6c-0.8,0.5-2.1,0.5-2.8,0c-0.8-0.5-0.8-1.2,0-1.6
			C88.3,175.3,89.6,175.3,90.4,175.7z"/>
		<path id="XMLID_4187_" class="st0" d="M97.8,171.5c0.8,0.5,0.8,1.2,0,1.6c-0.8,0.5-2.1,0.5-2.8,0c-0.8-0.5-0.8-1.2,0-1.6
			S97,171,97.8,171.5z"/>
		<path id="XMLID_4186_" class="st0" d="M105.2,167.2c0.8,0.5,0.8,1.2,0,1.6c-0.8,0.5-2.1,0.5-2.8,0c-0.8-0.5-0.8-1.2,0-1.6
			C103.1,166.7,104.4,166.7,105.2,167.2z"/>
		<ellipse id="XMLID_4185_" class="st0" cx="66.7" cy="180.8" rx="2" ry="1.2"/>
		<ellipse id="XMLID_4184_" class="st0" cx="74.1" cy="176.6" rx="2" ry="1.2"/>
		<ellipse id="XMLID_4183_" class="st0" cx="81.5" cy="172.3" rx="2" ry="1.2"/>
		<path id="XMLID_4182_" class="st0" d="M90.4,167.2c0.8,0.5,0.8,1.2,0,1.6c-0.8,0.5-2.1,0.5-2.8,0c-0.8-0.5-0.8-1.2,0-1.6
			C88.3,166.7,89.6,166.7,90.4,167.2z"/>
		<path id="XMLID_4181_" class="st0" d="M97.8,162.9c0.8,0.5,0.8,1.2,0,1.6c-0.8,0.5-2.1,0.5-2.8,0s-0.8-1.2,0-1.6
			C95.7,162.5,97,162.5,97.8,162.9z"/>
		<path id="XMLID_4180_" class="st0" d="M60.7,175.7c0.8,0.5,0.8,1.2,0,1.6c-0.8,0.5-2.1,0.5-2.8,0c-0.8-0.5-0.8-1.2,0-1.6
			C58.6,175.3,59.9,175.3,60.7,175.7z"/>
		<ellipse id="XMLID_4179_" class="st0" cx="66.7" cy="172.3" rx="2" ry="1.2"/>
		<path id="XMLID_4178_" class="st0" d="M75.5,167.2c0.8,0.5,0.8,1.2,0,1.6c-0.8,0.5-2.1,0.5-2.8,0c-0.8-0.5-0.8-1.2,0-1.6
			C73.5,166.7,74.7,166.7,75.5,167.2z"/>
		<path id="XMLID_4177_" class="st0" d="M82.9,162.9c0.8,0.5,0.8,1.2,0,1.6s-2.1,0.5-2.8,0c-0.8-0.5-0.8-1.2,0-1.6
			C80.9,162.5,82.2,162.5,82.9,162.9z"/>
		<ellipse id="XMLID_4176_" class="st0" cx="88.9" cy="159.4" rx="2" ry="1.2"/>
		<ellipse id="XMLID_4175_" class="st0" cx="51.9" cy="172.3" rx="2" ry="1.2"/>
		<ellipse id="XMLID_4174_" class="st0" cx="59.3" cy="168" rx="2" ry="1.2"/>
		<ellipse id="XMLID_4173_" class="st0" cx="66.7" cy="163.7" rx="2" ry="1.2"/>
		<ellipse id="XMLID_4172_" class="st0" cx="74.1" cy="159.4" rx="2" ry="1.2"/>
		<ellipse id="XMLID_4171_" class="st0" cx="81.5" cy="155.2" rx="2" ry="1.2"/>
		<ellipse id="XMLID_4170_" class="st0" cx="44.4" cy="168" rx="2" ry="1.2"/>
		<ellipse id="XMLID_4169_" class="st0" cx="51.8" cy="163.7" rx="2" ry="1.2"/>
		<path id="XMLID_4168_" class="st0" d="M60.6,158.6c0.8,0.5,0.8,1.2,0,1.6c-0.8,0.5-2.1,0.5-2.8,0c-0.8-0.5-0.8-1.2,0-1.6
			C58.6,158.1,59.9,158.1,60.6,158.6z"/>
		<ellipse id="XMLID_4167_" class="st0" cx="37" cy="163.7" rx="2" ry="1.2"/>
		<ellipse id="XMLID_4166_" class="st0" cx="44.4" cy="159.4" rx="2" ry="1.2"/>
		<path id="XMLID_4165_" class="st0" d="M53.2,154.3c0.8,0.5,0.8,1.2,0,1.6c-0.8,0.5-2.1,0.5-2.8,0c-0.8-0.5-0.8-1.2,0-1.6
			C51.2,153.8,52.4,153.8,53.2,154.3z"/>
		<path id="XMLID_4164_" class="st0" d="M60.6,151.7c-0.8,0.5-2.1,0.5-2.8,0c-0.8-0.5-0.8-1.2,0-1.6
			C58.6,149.6,61.4,151.2,60.6,151.7z"/>
		<path id="XMLID_4163_" class="st0" d="M31,158.6c0.8,0.5,0.8,1.2,0,1.6c-0.8,0.5-2.1,0.5-2.8,0c-0.8-0.5-0.8-1.2,0-1.6
			C28.9,158.1,30.2,158.1,31,158.6z"/>
		<path id="XMLID_4162_" class="st0" d="M38.4,154.3c0.8,0.5,0.8,1.2,0,1.6c-0.8,0.5-2.1,0.5-2.8,0c-0.8-0.5-0.8-1.2,0-1.6
			C36.3,153.8,37.6,153.8,38.4,154.3z"/>
		<ellipse id="XMLID_4161_" class="st0" cx="44.4" cy="150.8" rx="2" ry="1.2"/>
		<path id="XMLID_4160_" class="st0" d="M53.2,147.4c-0.8,0.5-2.1,0.5-2.8,0c-0.8-0.5-0.8-1.2,0-1.6C51.2,145.3,54,146.9,53.2,147.4
			z"/>
		<path id="XMLID_4159_" class="st0" d="M31,150c0.8,0.5,0.8,1.2,0,1.6c-0.8,0.5-2.1,0.5-2.8,0c-0.8-0.5-0.8-1.2,0-1.6
			S30.2,149.6,31,150z"/>
		<ellipse id="XMLID_4158_" class="st0" cx="37" cy="146.6" rx="2" ry="1.2"/>
		<ellipse id="XMLID_4157_" class="st0" cx="29.6" cy="142.3" rx="2" ry="1.2"/>
		<path id="XMLID_4156_" class="st0" d="M31,132.9c0.8,0.5,0.8,1.2,0,1.6s-2.1,0.5-2.8,0s-0.8-1.2,0-1.6
			C28.9,132.4,30.2,132.4,31,132.9z"/>
		<ellipse id="XMLID_4155_" class="st0" cx="37" cy="129.4" rx="2" ry="1.2"/>
		<ellipse id="XMLID_4154_" class="st0" cx="22.1" cy="129.4" rx="2" ry="1.2"/>
		<path id="XMLID_4153_" class="st0" d="M31,124.3c0.8,0.5,0.8,1.2,0,1.6c-0.8,0.5-2.1,0.5-2.8,0c-0.8-0.5-0.8-1.2,0-1.6
			C28.9,123.9,30.2,123.9,31,124.3z"/>
		<path id="XMLID_4152_" class="st0" d="M16.2,124.3c0.8,0.5,0.8,1.2,0,1.6c-0.8,0.5-2.1,0.5-2.8,0c-0.8-0.5-0.8-1.2,0-1.6
			C14.1,123.9,15.4,123.9,16.2,124.3z"/>
		<ellipse id="XMLID_4151_" class="st0" cx="22.1" cy="120.9" rx="2" ry="1.2"/>
		<ellipse id="XMLID_4150_" class="st0" cx="7.3" cy="120.8" rx="2" ry="1.2"/>
		<path id="XMLID_4149_" class="st0" d="M16.1,115.7c0.8,0.5,0.8,1.2,0,1.6c-0.8,0.5-2.1,0.5-2.8,0c-0.8-0.5-0.8-1.2,0-1.6
			C14,115.3,15.3,115.3,16.1,115.7z"/>
		<path id="XMLID_4148_" class="st0" d="M8.7,111.5c0.8,0.5,0.8,1.2,0,1.6c-0.8,0.5-2.1,0.5-2.8,0c-0.8-0.5-0.8-1.2,0-1.6
			C6.6,111,7.9,111,8.7,111.5z"/>
		<path id="XMLID_4147_" class="st0" d="M120,167.2c0.8,0.5,0.8,1.2,0,1.6s-2.1,0.5-2.8,0c-0.8-0.5-0.8-1.2,0-1.6
			C118,166.8,119.2,166.8,120,167.2z"/>
		<ellipse id="XMLID_4146_" class="st0" cx="126" cy="163.8" rx="2" ry="1.2"/>
		<path id="XMLID_4145_" class="st0" d="M134.9,158.7c0.8,0.5,0.8,1.2,0,1.6c-0.8,0.5-2.1,0.5-2.8,0c-0.8-0.5-0.8-1.2,0-1.6
			C132.8,158.2,134.1,158.2,134.9,158.7z"/>
		<ellipse id="XMLID_4144_" class="st0" cx="140.8" cy="155.2" rx="2" ry="1.2"/>
		<path id="XMLID_4143_" class="st0" d="M149.7,150.1c0.8,0.5,0.8,1.2,0,1.6c-0.8,0.5-2.1,0.5-2.8,0c-0.8-0.5-0.8-1.2,0-1.6
			C147.6,149.7,148.9,149.7,149.7,150.1z"/>
		<path id="XMLID_4142_" class="st0" d="M109.8,163c0.8-0.5,2.1-0.5,2.8,0c0.8,0.5,0.8,1.2,0,1.6c-0.8,0.5-2.1,0.5-2.8,0
			C109,164.2,109,163.4,109.8,163z"/>
		<ellipse id="XMLID_4141_" class="st0" cx="118.6" cy="159.5" rx="2" ry="1.2"/>
		<path id="XMLID_4140_" class="st0" d="M127.4,154.4c0.8,0.5,0.8,1.2,0,1.6c-0.8,0.5-2.1,0.5-2.8,0c-0.8-0.5-0.8-1.2,0-1.6
			C125.4,153.9,126.7,153.9,127.4,154.4z"/>
		<ellipse id="XMLID_4139_" class="st0" cx="133.4" cy="150.9" rx="2" ry="1.2"/>
		<ellipse id="XMLID_4138_" class="st0" cx="140.8" cy="146.7" rx="2" ry="1.2"/>
		<ellipse id="XMLID_4137_" class="st0" cx="148.3" cy="142.4" rx="2" ry="1.2"/>
		<ellipse id="XMLID_4136_" class="st0" cx="155.7" cy="138.1" rx="2" ry="1.2"/>
		<path id="XMLID_4135_" class="st0" d="M164.5,133c0.8,0.5,0.8,1.2,0,1.6c-0.8,0.5-2.1,0.5-2.8,0c-0.8-0.5-0.8-1.2,0-1.6
			C162.5,132.5,163.7,132.5,164.5,133z"/>
		<path id="XMLID_4134_" class="st0" d="M171.9,128.7c0.8,0.5,0.8,1.2,0,1.6c-0.8,0.5-2.1,0.5-2.8,0c-0.8-0.5-0.8-1.2,0-1.6
			C169.9,128.3,171.1,128.3,171.9,128.7z"/>
		<ellipse id="XMLID_4133_" class="st0" cx="177.9" cy="125.3" rx="2" ry="1.2"/>
		<path id="XMLID_4132_" class="st0" d="M186.7,120.2c0.8,0.5,0.8,1.2,0,1.6c-0.8,0.5-2.1,0.5-2.8,0c-0.8-0.5-0.8-1.2,0-1.6
			C184.7,119.7,186,119.7,186.7,120.2z"/>
		<path id="XMLID_4131_" class="st0" d="M194.2,115.9c0.8,0.5,0.8,1.2,0,1.6c-0.8,0.5-2.1,0.5-2.8,0c-0.8-0.5-0.8-1.2,0-1.6
			C192.1,115.4,193.4,115.4,194.2,115.9z"/>
		<path id="XMLID_4129_" class="st0" d="M102.4,158.7c0.8-0.5,2.1-0.5,2.8,0c0.8,0.5,0.8,1.2,0,1.6c-0.8,0.5-2.1,0.5-2.8,0
			S101.6,159.1,102.4,158.7z"/>
		<path id="XMLID_4127_" class="st0" d="M112.6,154.4c0.8,0.5,0.8,1.2,0,1.6c-0.8,0.5-2.1,0.5-2.8,0c-0.8-0.5-0.8-1.2,0-1.6
			C110.6,153.9,111.8,153.9,112.6,154.4z"/>
		<path id="XMLID_4126_" class="st0" d="M120,150.1c0.8,0.5,0.8,1.2,0,1.6c-0.8,0.5-2.1,0.5-2.8,0c-0.8-0.5-0.8-1.2,0-1.6
			C118,149.7,119.2,149.7,120,150.1z"/>
		<path id="XMLID_4125_" class="st0" d="M127.4,145.8c0.8,0.5,0.8,1.2,0,1.6c-0.8,0.5-2.1,0.5-2.8,0c-0.8-0.5-0.8-1.2,0-1.6
			C125.4,145.4,126.7,145.4,127.4,145.8z"/>
		<ellipse id="XMLID_4124_" class="st0" cx="133.4" cy="142.4" rx="2" ry="1.2"/>
		<ellipse id="XMLID_4123_" class="st0" cx="140.8" cy="138.1" rx="2" ry="1.2"/>
		<path id="XMLID_4122_" class="st0" d="M149.7,133c0.8,0.5,0.8,1.2,0,1.6c-0.8,0.5-2.1,0.5-2.8,0c-0.8-0.5-0.8-1.2,0-1.6
			C147.6,132.5,148.9,132.5,149.7,133z"/>
		<path id="XMLID_4121_" class="st0" d="M157.1,128.7c0.8,0.5,0.8,1.2,0,1.6c-0.8,0.5-2.1,0.5-2.8,0c-0.8-0.5-0.8-1.2,0-1.6
			C155,128.3,156.3,128.3,157.1,128.7z"/>
		<ellipse id="XMLID_4120_" class="st0" cx="163.1" cy="125.3" rx="2" ry="1.2"/>
		<path id="XMLID_4119_" class="st0" d="M171.9,120.2c0.8,0.5,0.8,1.2,0,1.6c-0.8,0.5-2.1,0.5-2.8,0c-0.8-0.5-0.8-1.2,0-1.6
			C169.9,119.7,171.1,119.7,171.9,120.2z"/>
		<path id="XMLID_4118_" class="st0" d="M179.3,115.9c0.8,0.5,0.8,1.2,0,1.6c-0.8,0.5-2.1,0.5-2.8,0c-0.8-0.5-0.8-1.2,0-1.6
			C177.3,115.4,178.5,115.4,179.3,115.9z"/>
		<ellipse id="XMLID_4117_" class="st0" cx="185.3" cy="112.4" rx="2" ry="1.2"/>
		<path id="XMLID_4116_" class="st0" d="M194.2,107.3c0.8,0.5,0.8,1.2,0,1.6c-0.8,0.5-2.1,0.5-2.8,0c-0.8-0.5-0.8-1.2,0-1.6
			C192.1,106.9,193.4,106.9,194.2,107.3z"/>
		<path id="XMLID_4115_" class="st0" d="M94.9,154.4c0.8-0.5,2.1-0.5,2.8,0c0.8,0.5,0.8,1.2,0,1.6c-0.8,0.5-2.1,0.5-2.8,0
			C94.2,155.6,94.2,154.9,94.9,154.4z"/>
		<path id="XMLID_4114_" class="st0" d="M124.6,137.3c0.8-0.5,2.1-0.5,2.8,0c0.8,0.5,0.8,1.2,0,1.6c-0.8,0.5-2.1,0.5-2.8,0
			C123.8,138.5,123.8,137.7,124.6,137.3z"/>
		<ellipse id="XMLID_4110_" class="st0" cx="133.4" cy="133.8" rx="2" ry="1.2"/>
		<path id="XMLID_4109_" class="st0" d="M142.3,128.7c0.8,0.5,0.8,1.2,0,1.6c-0.8,0.5-2.1,0.5-2.8,0c-0.8-0.5-0.8-1.2,0-1.6
			C140.2,128.3,141.5,128.3,142.3,128.7z"/>
		<path id="XMLID_3506_" class="st0" d="M149.7,124.4c0.8,0.5,0.8,1.2,0,1.6c-0.8,0.5-2.1,0.5-2.8,0c-0.8-0.5-0.8-1.2,0-1.6
			C147.6,124,148.9,124,149.7,124.4z"/>
		<path id="XMLID_3505_" class="st0" d="M157.1,120.2c0.8,0.5,0.8,1.2,0,1.6c-0.8,0.5-2.1,0.5-2.8,0c-0.8-0.5-0.8-1.2,0-1.6
			C155,119.7,156.3,119.7,157.1,120.2z"/>
		<path id="XMLID_3504_" class="st0" d="M164.5,115.9c0.8,0.5,0.8,1.2,0,1.6c-0.8,0.5-2.1,0.5-2.8,0c-0.8-0.5-0.8-1.2,0-1.6
			C162.5,115.4,163.7,115.4,164.5,115.9z"/>
		<ellipse id="XMLID_3503_" class="st0" cx="170.5" cy="112.4" rx="2" ry="1.2"/>
		<path id="XMLID_3502_" class="st0" d="M179.3,107.3c0.8,0.5,0.8,1.2,0,1.6c-0.8,0.5-2.1,0.5-2.8,0c-0.8-0.5-0.8-1.2,0-1.6
			C177.3,106.9,178.5,106.9,179.3,107.3z"/>
		<path id="XMLID_3501_" class="st0" d="M186.7,103c0.8,0.5,0.8,1.2,0,1.6c-0.8,0.5-2.1,0.5-2.8,0c-0.8-0.5-0.8-1.2,0-1.6
			C184.7,102.6,186,102.6,186.7,103z"/>
		<ellipse id="XMLID_3500_" class="st0" cx="192.7" cy="99.6" rx="2" ry="1.2"/>
		<path id="XMLID_3495_" class="st0" d="M87.5,150.1c0.8-0.5,2.1-0.5,2.8,0c0.8,0.5,0.8,1.2,0,1.6c-0.8,0.5-2.1,0.5-2.8,0
			C86.7,151.3,86.7,150.6,87.5,150.1z"/>
		<path id="XMLID_3494_" class="st0" d="M127.4,128.7c0.8,0.5,0.8,1.2,0,1.6c-0.8,0.5-2.1,0.5-2.8,0
			C123.8,129.9,126.7,128.3,127.4,128.7z"/>
		<path id="XMLID_3493_" class="st0" d="M134.9,124.4c0.8,0.5,0.8,1.2,0,1.6c-0.8,0.5-2.1,0.5-2.8,0c-0.8-0.5-0.8-1.2,0-1.6
			C132.8,124,134.1,124,134.9,124.4z"/>
		<ellipse id="XMLID_3491_" class="st0" cx="140.8" cy="121" rx="2" ry="1.2"/>
		<path id="XMLID_3490_" class="st0" d="M149.7,115.9c0.8,0.5,0.8,1.2,0,1.6c-0.8,0.5-2.1,0.5-2.8,0c-0.8-0.5-0.8-1.2,0-1.6
			C147.6,115.4,148.9,115.4,149.7,115.9z"/>
		<ellipse id="XMLID_3489_" class="st0" cx="155.7" cy="112.4" rx="2" ry="1.2"/>
		<path id="XMLID_3488_" class="st0" d="M164.5,107.3c0.8,0.5,0.8,1.2,0,1.6c-0.8,0.5-2.1,0.5-2.8,0c-0.8-0.5-0.8-1.2,0-1.6
			C162.5,106.9,163.7,106.9,164.5,107.3z"/>
		<ellipse id="XMLID_3483_" class="st0" cx="170.5" cy="103.9" rx="2" ry="1.2"/>
		<ellipse id="XMLID_3482_" class="st0" cx="177.9" cy="99.6" rx="2" ry="1.2"/>
		<ellipse id="XMLID_3481_" class="st0" cx="185.3" cy="95.3" rx="2" ry="1.2"/>
		<path id="XMLID_3479_" class="st0" d="M194.2,90.2c0.8,0.5,0.8,1.2,0,1.6c-0.8,0.5-2.1,0.5-2.8,0c-0.8-0.5-0.8-1.2,0-1.6
			C192.1,89.7,193.4,89.7,194.2,90.2z"/>
		<path id="XMLID_3478_" class="st0" d="M134.8,115.8c0.8,0.5,0.8,1.2,0,1.6c-0.8,0.5-2.1,0.5-2.8,0
			C131.2,117,134,115.4,134.8,115.8z"/>
		<path id="XMLID_3477_" class="st0" d="M38.4,121.8c-0.8,0.5-2.1,0.5-2.8,0c-0.8-0.5-0.8-1.2,0-1.6c0.8-0.5,2.1-0.5,2.8,0
			C39.2,120.6,39.2,121.3,38.4,121.8z"/>
		<path id="XMLID_3476_" class="st0" d="M28.2,115.8c0.8-0.5,2.1-0.5,2.8,0c0.8,0.5,0.8,1.2,0,1.6c-0.8,0.5-2.1,0.5-2.8,0
			C27.4,117,27.4,116.3,28.2,115.8z"/>
		<path id="XMLID_3475_" class="st0" d="M20.7,111.5c0.8-0.5,2.1-0.5,2.8,0c0.8,0.5,0.8,1.2,0,1.6c-0.8,0.5-2.1,0.5-2.8,0
			C19.9,112.7,19.9,112,20.7,111.5z"/>
		<path id="XMLID_3471_" class="st0" d="M13.3,107.2c0.8-0.5,2.1-0.5,2.8,0c0.8,0.5,0.8,1.2,0,1.6c-0.8,0.5-2.1,0.5-2.8,0
			C12.5,108.4,12.5,107.7,13.3,107.2z"/>
		<path id="XMLID_3466_" class="st0" d="M5.9,103c0.8-0.5,2.1-0.5,2.8,0c0.8,0.5,0.8,1.2,0,1.6c-0.8,0.5-2.1,0.5-2.8,0
			C5.1,104.1,5.1,103.4,5.9,103z"/>
		<path id="XMLID_3461_" class="st0" d="M124.9,170.8c0.8-0.5,2.1-0.5,2.8,0c0.8,0.5,0.8,1.2,0,1.6c-0.8,0.5-2.1,0.5-2.8,0
			C124.1,172,124.1,171.3,124.9,170.8z"/>
		<path id="XMLID_3460_" class="st0" d="M135.1,166.6c0.8,0.5,0.8,1.2,0,1.6c-0.8,0.5-2.1,0.5-2.8,0c-0.8-0.5-0.8-1.2,0-1.6
			C133.1,166.1,134.4,166.1,135.1,166.6z"/>
		<ellipse id="XMLID_3168_" class="st0" cx="141.1" cy="163.1" rx="2" ry="1.2"/>
		<path id="XMLID_3167_" class="st0" d="M150,158c0.8,0.5,0.8,1.2,0,1.6c-0.8,0.5-2.1,0.5-2.8,0c-0.8-0.5-0.8-1.2,0-1.6
			C147.9,157.5,149.2,157.5,150,158z"/>
	</g>
	<g id="XMLID_28_">
		<g id="XMLID_3459_">
			<polygon id="XMLID_3496_" class="st1" points="10.5,96.8 10.6,46.8 58.8,74.6 58.6,124.6 			"/>
			<path id="XMLID_3497_" class="st0" d="M60.2,127.3L8.9,97.7l0.1-51.8l1.6-0.9l49.7,28.7L60.2,127.3z M12.1,95.9l45,26l0.1-46.4
				l-45-26L12.1,95.9z"/>
		</g>
		<polygon id="XMLID_3492_" class="st1" points="67.6,106.7 67.5,156.7 35.3,138.1 35.4,88.1 		"/>
		<g id="XMLID_3462_">
			<path id="XMLID_3485_" class="st0" d="M116.9,80.1l-0.1,46.3l69.9-40.3l0.1-46.4L116.9,80.1z M113.6,131.8l0.2-53.6l74.6-43
				l1.6,0.9l-0.1,51.8L113.6,131.8z"/>
			<polygon id="XMLID_3484_" class="st0" points="188.3,37 188.2,87 115.2,129.1 115.3,79.1 			"/>
		</g>
		<polygon id="XMLID_3480_" class="st1" points="91,93.2 104.3,100.9 104.1,150.8 90.8,143.2 		"/>
		<path id="XMLID_4108_" class="st2" d="M137.6,31.4c-31.4,3.8-79.2,9.2-81.8,9.2l-1.6-0.1v10.7l17.2,18.6h35.2l35.2-38.8
			L137.6,31.4z"/>
		<path id="XMLID_2508_" class="st1" d="M104.3,100.9L91,93.2l-23.4,13.5L35.4,88.1l23.4-13.5L10.6,46.8L34.6,33l123.6-13.4
			L188.3,37l-73,42.1l13.3,7.7L104.3,100.9z M83.1,60.6l14-8.1c2.6-1.5,6.3-3.5,11-6c4.7-2.5,7.2-3.8,7.5-3.8l-0.9-0.5
			c-6.1,1.4-12.2,2.4-18.2,3.2l-33.3,3.8L83.1,60.6z"/>
		<path id="XMLID_3474_" class="st3" d="M122.7,83.4l-7.4-4.2L181,41.3l-22.8-13.2L34.6,41.5l-22.5,13v1.6l46.7,27L35.4,96.6
			l32.2,18.6L91,101.7l13.3,7.7l24.4-14.1l-13.3-7.7L122.7,83.4z M97.2,60.9l-14,8.1L63.2,57.6l33.3-3.8c6.1-0.8,12.1-1.8,18.2-3.2
			l0.9,0.5c-0.3,0.1-2.8,1.3-7.5,3.8C103.5,57.4,99.8,59.4,97.2,60.9z"/>
		<g id="XMLID_2509_">
			<path id="XMLID_4113_" class="st0" d="M97.9,53.8c2.6-1.5,6.3-3.5,10.9-6c5.8-3.1,7-3.6,7.1-3.7l4.2-0.8l-5.1-3l-0.6,0.1
				c-6,1.4-12.1,2.4-18.1,3.2l-38,4.3l24.8,14.3L97.9,53.8z M96.7,46.8c3.4-0.4,6.9-1,10.4-1.6c-4.5,2.4-8.1,4.3-10.7,5.8l-13.3,7.7
				l-15-8.7L96.7,46.8z"/>
			<path id="XMLID_3464_" class="st0" d="M189.9,36.1L158.5,18L34.4,31.4L9.1,45.9l0,1.8l46.6,26.9L33.8,87.2L33.7,139l33.8,19.5
				L90.8,145l13.3,7.7l25.9-15l0.1-51.8l-11.7-6.8l71.4-41.2V36.1z M65.9,154l-29.1-16.8L37,90.8l22.6,13l6.5,3.7L65.9,154z
				 M102.6,148.1l-10.2-5.9l0.1-46.4l9,5.2l1.2,0.7L102.6,148.1z M112.2,79.1l13.3,7.7l-7.3,4.2l-14,8.1l-0.4-0.2L91,91.4
				l-23.4,13.5l-3-1.8l-26-15l23.4-13.5L13.8,46.8l21.3-12.3l122.8-13.3L185.2,37L112.2,79.1z"/>
		</g>
		<g id="XMLID_3169_">
			<polygon id="XMLID_3170_" class="st1" points="130.2,120.4 127.1,122 127.1,88 130.2,86.4 			"/>
		</g>
	</g>
</g>
</svg>
