<?xml version="1.0" encoding="utf-8"?>
<!-- Generator: Adobe Illustrator 22.0.0, SVG Export Plug-In . SVG Version: 6.00 Build 0)  -->
<svg version="1.1" id="Layer_1" xmlns="http://www.w3.org/2000/svg" xmlns:xlink="http://www.w3.org/1999/xlink" x="0px" y="0px"
	 viewBox="0 0 200 200" style="enable-background:new 0 0 200 200;" xml:space="preserve">
<style type="text/css">
	.st0{fill:#F68848;}
	.st1{fill:#16110D;}
	.st2{fill:#FFEECC;}
</style>
<g id="_x35_">
	<polygon id="XMLID_2797_" class="st0" points="47.4,128.7 83.3,148.4 83.3,174.4 47.4,154.7 	"/>
	<path id="XMLID_2793_" class="st0" d="M138.7,93.1l-21.6-4.3l-27.9,3.3c0.5,1.3,0.8,2.8,0.8,4.6c0,4.9-1.4,9.3-4.1,13.4
		c-2.7,4.1-6.6,7.6-11.7,10.5c-3.7,2.1-8,3.9-13.1,5.5c-5.1,1.5-9.6,2.4-13.7,2.6L76,144.5l7.2,4l23.5,5.3l35.8-34.1L138.7,93.1z"/>
	<path id="XMLID_2794_" class="st1" d="M107.2,155.1l-24.5-5.5l-36.6-20.1v-2l1.2-0.1c3.9-0.2,8.4-1,13.3-2.5
		c5-1.5,9.3-3.3,12.8-5.4c4.9-2.8,8.7-6.2,11.3-10.1c2.6-3.8,3.9-8.1,3.9-12.7c0-1.6-0.2-3-0.7-4.2L87.3,91l29.8-3.5l0.2,0l22.5,4.5
		l4.1,28L107.2,155.1z M83.7,147.2l22.7,5.1l34.8-33.2l-3.7-24.9L117,90.1l-26.2,3.1c0.3,1.1,0.4,2.3,0.4,3.6
		c0,5.1-1.5,9.8-4.3,14.1c-2.8,4.2-6.9,7.9-12.2,10.9c-3.7,2.2-8.2,4-13.4,5.6c-3.5,1.1-6.7,1.8-9.8,2.2L83.7,147.2z"/>
	<polygon id="XMLID_2789_" class="st0" points="52.9,38.9 88.8,58.7 146.8,25.2 110.9,5.5 	"/>
	<polygon id="XMLID_2785_" class="st0" points="49.1,103.1 52.9,38.9 88.8,58.7 85,122.8 	"/>
	<g id="XMLID_2780_">
		<polygon id="XMLID_2541_" class="st0" points="145.6,77.5 112.1,59.5 94.7,80.9 103.4,97.5 146.8,92.1 		"/>
		<path id="XMLID_2782_" class="st1" d="M102.7,98.8l-9.5-18.1l18.7-22.8l35,18.8l1.3,16.5L102.7,98.8z M96.2,81l7.9,15.1l41.3-5.1
			l-1-12.7l-31.9-17.1L96.2,81z"/>
	</g>
	<polygon id="XMLID_2540_" class="st2" points="52.9,47.9 88.8,67.6 146.8,34.2 110.9,14.4 	"/>
	<path id="XMLID_2572_" class="st2" d="M116.1,68.5l17.8,10.1l-19.6,8.1c0,0-8.7,1.8-8.7,1.2c0.1-0.6,1.4-18.7,1.4-18.7L116.1,68.5z
		"/>
	<path id="XMLID_2787_" class="st2" d="M65.4,128.8c-1,0.3-2,0.6-3,0.8l30.1,16.9l20.1-4.5l-34.7-18.5
		C74.4,125.5,70.2,127.3,65.4,128.8z"/>
	<path id="XMLID_2778_" class="st1" d="M150.8,81.3c-2.8-4.6-6.8-7.1-12-7.5c-4.9-0.4-10.5,1.1-16.6,4.6c-1.3,0.8-2.7,1.6-4.3,2.6
		c-1.2,0.8-3.1,2.1-5.5,4l1-12.6l34.7-20V24.5L110.8,4L51.7,38.2l-3.9,65.6l36.9,20.3l10.9,0l0.4-0.3c4.9-4.7,9.5-8.3,13.7-10.7
		c6.6-3.8,10-4,11.6-3.4c0.8,0.3,3.3,1.1,3.3,6.9c0,4.6-1.3,8.9-3.9,12.7c-2.6,3.9-6.4,7.3-11.3,10.1c-3.6,2.1-7.9,3.9-12.8,5.4
		c-4.8,1.5-9.2,2.3-13,2.5l-35.9-19.7l-1.6,0.1v28L83,175.7l1.6-0.1c7.5-0.4,17-4,28.4-10.5c14-8.1,24.6-17.8,31.5-28.9
		c6.9-11.1,10.4-23.5,10.4-36.8C154.9,91.8,153.5,85.7,150.8,81.3z M82,172.3l-33.4-18.3v-23.1L82,149.2V172.3z M110.9,6.9
		l33.3,18.3l-35.8,20.7L88.8,57.2L55.5,38.9L110.9,6.9z M84.1,116.8l-0.2,3.9l-33.4-18.4L54.1,41l33.4,18.4L84.1,116.8z"/>
	<path id="XMLID_4233_" class="st1" d="M96.6,194.4c0.6,0.4,0.6,1,0,1.3c-0.6,0.4-1.7,0.4-2.3,0c-0.6-0.4-0.6-1,0-1.3
		C94.9,194,95.9,194,96.6,194.4z"/>
	<path id="XMLID_4232_" class="st1" d="M102.6,190.9c0.6,0.4,0.6,1,0,1.3c-0.6,0.4-1.7,0.4-2.3,0c-0.6-0.4-0.6-1,0-1.3
		S102,190.5,102.6,190.9z"/>
	<path id="XMLID_4231_" class="st1" d="M108.7,187.4c0.6,0.4,0.6,1,0,1.3c-0.6,0.4-1.7,0.4-2.3,0c-0.6-0.4-0.6-1,0-1.3
		C107,187,108.1,187,108.7,187.4z"/>
	<ellipse id="XMLID_4230_" class="st1" cx="113.6" cy="184.5" rx="1.6" ry="0.9"/>
	<path id="XMLID_4229_" class="st1" d="M120.8,180.4c0.6,0.4,0.6,1,0,1.3c-0.6,0.4-1.7,0.4-2.3,0c-0.6-0.4-0.6-1,0-1.3
		C119.2,180,120.2,180,120.8,180.4z"/>
	<ellipse id="XMLID_4228_" class="st1" cx="125.7" cy="177.5" rx="1.6" ry="0.9"/>
	<ellipse id="XMLID_4227_" class="st1" cx="131.8" cy="174" rx="1.6" ry="0.9"/>
	<path id="XMLID_4226_" class="st1" d="M139,169.8c0.6,0.4,0.6,1,0,1.3c-0.6,0.4-1.7,0.4-2.3,0c-0.6-0.4-0.6-1,0-1.3
		C137.4,169.5,138.4,169.5,139,169.8z"/>
	<path id="XMLID_4225_" class="st1" d="M145.1,166.3c0.6,0.4,0.6,1,0,1.3c-0.6,0.4-1.7,0.4-2.3,0c-0.6-0.4-0.6-1,0-1.3
		C143.4,166,144.5,166,145.1,166.3z"/>
	<path id="XMLID_4224_" class="st1" d="M84.4,194.4c0.6,0.4,0.6,1,0,1.3c-0.6,0.4-1.7,0.4-2.3,0c-0.6-0.4-0.6-1,0-1.3
		C82.7,194,83.8,194,84.4,194.4z"/>
	<path id="XMLID_4223_" class="st1" d="M90.5,190.9c0.6,0.4,0.6,1,0,1.3c-0.6,0.4-1.7,0.4-2.3,0c-0.6-0.4-0.6-1,0-1.3
		C88.8,190.5,89.8,190.5,90.5,190.9z"/>
	<path id="XMLID_4222_" class="st1" d="M96.6,187.4c0.6,0.4,0.6,1,0,1.3c-0.6,0.4-1.7,0.4-2.3,0c-0.6-0.4-0.6-1,0-1.3
		C94.9,187,95.9,187,96.6,187.4z"/>
	<ellipse id="XMLID_4221_" class="st1" cx="101.5" cy="184.5" rx="1.6" ry="0.9"/>
	<path id="XMLID_4220_" class="st1" d="M108.7,180.4c0.6,0.4,0.6,1,0,1.3c-0.6,0.4-1.7,0.4-2.3,0c-0.6-0.4-0.6-1,0-1.3
		C107,180,108.1,180,108.7,180.4z"/>
	<ellipse id="XMLID_4219_" class="st1" cx="113.6" cy="177.5" rx="1.6" ry="0.9"/>
	<path id="XMLID_4218_" class="st1" d="M120.8,173.4c0.6,0.4,0.6,1,0,1.3c-0.6,0.4-1.7,0.4-2.3,0c-0.6-0.4-0.6-1,0-1.3
		C119.2,173,120.2,173,120.8,173.4z"/>
	<path id="XMLID_4217_" class="st1" d="M126.9,169.8c0.6,0.4,0.6,1,0,1.3c-0.6,0.4-1.7,0.4-2.3,0c-0.6-0.4-0.6-1,0-1.3
		C125.2,169.5,126.3,169.5,126.9,169.8z"/>
	<path id="XMLID_4216_" class="st1" d="M133,166.3c0.6,0.4,0.6,1,0,1.3c-0.6,0.4-1.7,0.4-2.3,0c-0.6-0.4-0.6-1,0-1.3
		C131.3,166,132.3,166,133,166.3z"/>
	<ellipse id="XMLID_4215_" class="st1" cx="137.9" cy="163.5" rx="1.6" ry="0.9"/>
	<ellipse id="XMLID_4214_" class="st1" cx="144" cy="160" rx="1.6" ry="0.9"/>
	<path id="XMLID_4213_" class="st1" d="M78.3,190.9c0.6,0.4,0.6,1,0,1.3c-0.6,0.4-1.7,0.4-2.3,0c-0.6-0.4-0.6-1,0-1.3
		C76.7,190.5,77.7,190.5,78.3,190.9z"/>
	<path id="XMLID_4212_" class="st1" d="M84.4,187.4c0.6,0.4,0.6,1,0,1.3c-0.6,0.4-1.7,0.4-2.3,0c-0.6-0.4-0.6-1,0-1.3
		C82.7,187,83.8,187,84.4,187.4z"/>
	<ellipse id="XMLID_4211_" class="st1" cx="89.3" cy="184.5" rx="1.6" ry="0.9"/>
	<path id="XMLID_4210_" class="st1" d="M96.6,180.4c0.6,0.4,0.6,1,0,1.3c-0.6,0.4-1.7,0.4-2.3,0c-0.6-0.4-0.6-1,0-1.3
		S95.9,180,96.6,180.4z"/>
	<path id="XMLID_4209_" class="st1" d="M102.6,176.9c0.6,0.4,0.6,1,0,1.3c-0.6,0.4-1.7,0.4-2.3,0c-0.6-0.4-0.6-1,0-1.3
		S102,176.5,102.6,176.9z"/>
	<ellipse id="XMLID_4208_" class="st1" cx="107.5" cy="174" rx="1.6" ry="0.9"/>
	<path id="XMLID_4207_" class="st1" d="M114.8,169.8c0.6,0.4,0.6,1,0,1.3c-0.6,0.4-1.7,0.4-2.3,0c-0.6-0.4-0.6-1,0-1.3
		C113.1,169.5,114.1,169.5,114.8,169.8z"/>
	<path id="XMLID_4206_" class="st1" d="M120.8,166.3c0.6,0.4,0.6,1,0,1.3c-0.6,0.4-1.7,0.4-2.3,0c-0.6-0.4-0.6-1,0-1.3
		C119.2,166,120.2,166,120.8,166.3z"/>
	<ellipse id="XMLID_4205_" class="st1" cx="125.7" cy="163.5" rx="1.6" ry="0.9"/>
	<ellipse id="XMLID_4204_" class="st1" cx="131.8" cy="160" rx="1.6" ry="0.9"/>
	<path id="XMLID_4203_" class="st1" d="M139,155.8c0.6,0.4,0.6,1,0,1.3c-0.6,0.4-1.7,0.4-2.3,0c-0.6-0.4-0.6-1,0-1.3
		C137.4,155.5,138.4,155.5,139,155.8z"/>
	<path id="XMLID_4202_" class="st1" d="M145.1,152.3c0.6,0.4,0.6,1,0,1.3c-0.6,0.4-1.7,0.4-2.3,0c-0.6-0.4-0.6-1,0-1.3
		C143.4,152,144.5,152,145.1,152.3z"/>
	<ellipse id="XMLID_4201_" class="st1" cx="71.1" cy="188" rx="1.6" ry="0.9"/>
	<ellipse id="XMLID_4200_" class="st1" cx="77.2" cy="184.5" rx="1.6" ry="0.9"/>
	<path id="XMLID_4199_" class="st1" d="M84.4,180.4c0.6,0.4,0.6,1,0,1.3c-0.6,0.4-1.7,0.4-2.3,0c-0.6-0.4-0.6-1,0-1.3
		C82.7,180,83.8,180,84.4,180.4z"/>
	<ellipse id="XMLID_4198_" class="st1" cx="89.3" cy="177.5" rx="1.6" ry="0.9"/>
	<ellipse id="XMLID_4197_" class="st1" cx="137.9" cy="149.5" rx="1.6" ry="0.9"/>
	<path id="XMLID_4196_" class="st1" d="M66.2,183.9c0.6,0.4,0.6,1,0,1.3c-0.6,0.4-1.7,0.4-2.3,0c-0.6-0.4-0.6-1,0-1.3
		C64.5,183.5,65.6,183.5,66.2,183.9z"/>
	<path id="XMLID_4195_" class="st1" d="M72.3,180.4c0.6,0.4,0.6,1,0,1.3c-0.6,0.4-1.7,0.4-2.3,0c-0.6-0.4-0.6-1,0-1.3
		S71.6,180,72.3,180.4z"/>
	<ellipse id="XMLID_4194_" class="st1" cx="77.2" cy="177.5" rx="1.6" ry="0.9"/>
	<ellipse id="XMLID_4193_" class="st1" cx="59" cy="181" rx="1.6" ry="0.9"/>
	<ellipse id="XMLID_2801_" class="st1" cx="65" cy="177.5" rx="1.6" ry="0.9"/>
	<ellipse id="XMLID_2800_" class="st1" cx="71.1" cy="174" rx="1.6" ry="0.9"/>
	<ellipse id="XMLID_2799_" class="st1" cx="52.9" cy="177.5" rx="1.6" ry="0.9"/>
	<path id="XMLID_2798_" class="st1" d="M60.1,173.4c0.6,0.4,0.6,1,0,1.3c-0.6,0.4-1.7,0.4-2.3,0c-0.6-0.4-0.6-1,0-1.3
		C58.4,173,59.5,173,60.1,173.4z"/>
	<path id="XMLID_2792_" class="st1" d="M66.2,169.8c0.6,0.4,0.6,1,0,1.3c-0.6,0.4-1.7,0.4-2.3,0c-0.6-0.4-0.6-1,0-1.3
		C64.5,169.5,65.6,169.5,66.2,169.8z"/>
	<path id="XMLID_2791_" class="st1" d="M48,173.4c0.6,0.4,0.6,1,0,1.3c-0.6,0.4-1.7,0.4-2.3,0c-0.6-0.4-0.6-1,0-1.3
		C46.3,173,47.3,173,48,173.4z"/>
	<ellipse id="XMLID_2790_" class="st1" cx="52.9" cy="170.5" rx="1.6" ry="0.9"/>
	<path id="XMLID_2788_" class="st1" d="M60.1,166.3c0.6,0.4,0.6,1,0,1.3c-0.6,0.4-1.7,0.4-2.3,0c-0.6-0.4-0.6-1,0-1.3
		C58.4,166,59.5,166,60.1,166.3z"/>
	<path id="XMLID_2786_" class="st1" d="M47.9,166.3c0.6,0.4,0.6,1,0,1.3c-0.6,0.4-1.7,0.4-2.3,0c-0.6-0.4-0.6-1,0-1.3
		C46.3,165.9,47.3,165.9,47.9,166.3z"/>
	<ellipse id="XMLID_2573_" class="st1" cx="52.8" cy="163.5" rx="1.6" ry="0.9"/>
	<path id="XMLID_2571_" class="st1" d="M47.9,159.3c0.6,0.4,0.6,1,0,1.3c-0.6,0.4-1.7,0.4-2.3,0c-0.6-0.4-0.6-1,0-1.3
		C46.3,158.9,47.3,158.9,47.9,159.3z"/>
</g>
</svg>
