<?xml version="1.0" encoding="utf-8"?>
<!-- Generator: Adobe Illustrator 22.0.0, SVG Export Plug-In . SVG Version: 6.00 Build 0)  -->
<svg version="1.1" id="Layer_1" xmlns="http://www.w3.org/2000/svg" xmlns:xlink="http://www.w3.org/1999/xlink" x="0px" y="0px"
	 viewBox="0 0 200 200" style="enable-background:new 0 0 200 200;" xml:space="preserve">
<style type="text/css">
	.st0{fill:#F68848;}
	.st1{fill:#16110D;}
	.st2{fill:#FFEECC;}
	.st3{fill:#FFBE2E;}
</style>
<g id="_x36_">
	<g id="XMLID_2907_">
		<rect id="XMLID_2483_" x="61" y="94.2" class="st0" width="37.2" height="48"/>
		<polygon id="XMLID_2485_" class="st1" points="71,125 88.9,114.1 84.2,105 74.4,100.2 69.5,102.1 67.9,110.9 		"/>
		<path id="XMLID_3064_" class="st2" d="M80.6,130.3c3.2,1.9,5.9,2,7.9,0.3c2-1.6,3-5.5,3-11.7c0-0.8-0.1-1.6-0.1-2.4l-15.4,9.9
			C77.4,128,78.9,129.3,80.6,130.3z"/>
		<path id="XMLID_4234_" class="st1" d="M60.1,48.7l-0.4,1c-9.1,24.5-8.9,24.9-8.6,25.5c0.2,0.5,2.2,6.1,3.4,9.5l0.3,0.4
			c2,2.2,4.8,4.7,6.6,4.7c0.1,0,0.1,0,0.2,0c0.6-0.1,1.1-0.4,1.4-0.9c0.6-1.1,2.5-4,3.4-5.4l12.7,4.9l0.5-0.2
			c4.5-2.1,15.1-7.2,15.7-10.6c0.6-3.1,3.6-20.1,3.6-20.1l0.2-1.3L60.1,48.7z"/>
		<g id="XMLID_3052_">
			<g id="XMLID_3053_">
				<path id="XMLID_3072_" class="st0" d="M104.1,48.7l8.5,1.5l15.2-8.9c1.8,0.8,3.7,1.8,5.7,3c6,3.5,11.6,7.3,16.7,11.3V28.1
					c-6.1-4.5-11.5-8.1-16-10.8c-12.8-7.4-23.6-11-32.4-10.7c-3.2,0.1-6.1,0.8-8.7,2c0,0,0,0,0,0l-0.1,0c-1.1,0.5-2.1,1.1-3.1,1.8
					l-37.6,22l11.1,9.2L76,43.8L104.1,48.7z"/>
				<path id="XMLID_3073_" class="st1" d="M151.5,56.3l-1.9,0.5l-0.2-0.2c-5.1-4-10.6-7.8-16.6-11.2c-1.6-0.9-3.3-1.8-5-2.6l-15,8.8
					l-50-8.7L51.2,31.7L89.3,9.4c1-0.7,2.1-1.4,3.2-1.9L93,7.2l0,0c2.7-1.1,5.7-1.7,8.8-1.8c8.9-0.3,20.1,3.4,33.1,10.9
					c4.6,2.7,10,6.3,16.1,10.8l0.5,0.4L151.5,56.3z M127.7,39.8l0.6,0.3c2.1,1,4,1.9,5.8,3c5.2,3,10.2,6.3,14.8,9.8V28.8
					c-5.8-4.3-11-7.8-15.4-10.3C121,11.2,110.5,7.6,101.9,7.9c-2.9,0.1-5.7,0.7-8.2,1.9l-0.3,0.1c-1,0.5-1.8,1-2.7,1.6L54.6,32.7
					l9.4,7.8l48.3,8.4L127.7,39.8z"/>
			</g>
			<g id="XMLID_3054_">
				<path id="XMLID_3070_" class="st3" d="M76.3,44.5L76,43.8c0,0.3,0,0.6-0.1,0.9L76.3,44.5z"/>
				<polygon id="XMLID_3071_" points="74.4,47 74.7,43.7 75.3,43.6 75.3,43.6 75.7,43.4 75.8,43.5 77.2,43.3 77.9,45.2 				"/>
			</g>
		</g>
		<g id="XMLID_2906_">
			<path id="XMLID_3066_" class="st0" d="M125.8,57.7c-6.7-3.8-12.1-4.8-16.4-3l-1.6,0.5l-5.1,3.1L76,74.3l-3.5,2.1v1l5.1,6.3
				c1.9,8.8,4.8,17.1,8.8,24.8c2.7,5.2,5.8,9.9,9.3,14.2l12.2,46l38.9-22.8c7-4.2,10.5-13.5,10.5-27.8c0-13.3-2.8-25.2-8.3-35.9
				C143.6,71.7,135.8,63.5,125.8,57.7z"/>
			<path id="XMLID_3067_" class="st1" d="M108.7,169.8l-14.2-46.5c-3.5-4.3-6.6-9.1-9.2-14.2c-4-7.6-7-16-8.9-24.8l-5.2-6.4v-2.2
				l36-21.6l1.9-0.6c4.6-1.9,10.5-0.9,17.4,3.1c10.2,5.9,18.2,14.3,23.8,25.1c5.6,10.8,8.4,23,8.4,36.5c0,14.7-3.7,24.4-11.1,28.9
				L108.7,169.8z M73.9,77.1l5,6.4c1.8,8.7,4.8,16.9,8.7,24.4c2.6,5,5.7,9.7,9.1,14l0.2,0.5l11.8,44.4l37.5-21.9
				c6.5-4,9.8-12.9,9.8-26.7c0-13-2.7-24.9-8.1-35.3c-5.4-10.4-13-18.5-22.8-24.1l0,0c-6.2-3.6-11.3-4.6-15.2-2.9l-1.7,0.5l-4.8,2.9
				L73.9,77.1z"/>
		</g>
		<path id="XMLID_3056_" class="st0" d="M37.5,82.3c0-18.1,2.2-31.5,6.7-40.2c4.5-8.6,11.1-13.1,19.9-13.4
			c8.8-0.3,19.6,3.3,32.4,10.7c4.6,2.6,9.9,6.2,16,10.8v27.5c-5.1-4.1-10.7-7.9-16.7-11.3c-10.2-5.9-17.7-7.7-22.7-5.4
			c-5,2.3-7.7,9.1-8.2,20.5l0.9,0.5c4.6-7.4,12-8.2,22.3-2.3c10,5.8,17.8,14,23.3,24.6c5.5,10.6,8.3,22.6,8.3,35.9
			c0,14.3-3.5,23.6-10.5,27.8c-7,4.2-16.7,2.7-29.3-4.5c-13.3-7.7-23.7-18.7-31.2-33S37.5,100.2,37.5,82.3z M79.3,135.3
			c3.2,1.9,5.9,2,7.9,0.3c2-1.6,3-5.5,3-11.7c0-10.6-3.5-17.9-10.6-22c-3.5-2-6.3-2.3-8.5-0.8c-2.2,1.5-3.3,4.2-3.3,8.1
			c0,5.7,1.1,11,3.2,15.8C73.1,129.9,75.9,133.3,79.3,135.3z"/>
		<polygon id="XMLID_31_" class="st1" points="117.5,119.1 154.9,97.9 157.3,114.2 156.1,133.3 148.3,145.4 112.9,165.6 
			118.4,153.1 119.7,133.9 		"/>
		<path id="XMLID_3055_" class="st2" d="M105.5,109.8c0.8,1.6,1.6,3.2,2.3,4.9l37.1-21.4c-0.7-1.7-1.4-3.3-2.3-4.9
			c-1.8-3.6-4-6.8-6.3-9.8L99.1,99.9C101.5,102.9,103.6,106.2,105.5,109.8z"/>
		<path id="XMLID_3050_" class="st2" d="M132.8,25.2c-12.8-7.4-23.6-11-32.4-10.7c-3.2,0.1-6.1,0.8-8.7,2c0,0,0,0,0,0l-0.1,0
			c-1.1,0.5-2.1,1.1-3.1,1.8L53.7,38.7c2.7-1.3,5.7-2,9.1-2.2c8.8-0.3,19.5,3.3,32.4,10.7c4.6,2.6,9.9,6.2,16,10.8l15.2-8.9
			l22.5-13.2C142.7,31.4,137.4,27.8,132.8,25.2z"/>
		<g id="XMLID_3051_">
			<path id="XMLID_3078_" class="st1" d="M78.7,136.4L78.7,136.4c1.9,1.1,3.7,1.7,5.3,1.7c1.5,0,2.9-0.5,4-1.5
				c2.4-1.9,3.5-6.1,3.5-12.7c0-11-3.8-18.8-11.3-23.1c-3.9-2.3-7.3-2.5-9.9-0.8c-2.5,1.7-3.8,4.8-3.8,9.1c0,5.8,1.1,11.3,3.3,16.4
				C72,130.6,75,134.3,78.7,136.4z M71.8,102.2c1.8-1.2,4.1-0.9,7.1,0.9c6.7,3.9,10,10.7,10,20.8c0,7.1-1.4,9.8-2.6,10.7
				c-0.6,0.5-2.3,1.9-6.4-0.4c-3.2-1.8-5.8-5.1-7.8-9.7c-2-4.7-3.1-9.8-3.1-15.3C69.1,105.8,70,103.4,71.8,102.2z"/>
			<path id="XMLID_2905_" class="st1" d="M88.8,78.6C79,73,71.5,73.1,66.4,79.1c0.7-9.4,3.1-15.1,7.3-17c4.6-2.1,11.8-0.3,21.5,5.3
				c5.7,3.3,17.3,11.8,17.3,11.8l39.1-22.9l0-28.9l-1.3-0.9l-37.6,22c-5.8-4.3-11-7.8-15.4-10.3c-13-7.5-24.2-11.1-33.1-10.9
				c-9.2,0.3-16.3,5-21,14.1c-4.6,8.8-6.9,22.5-6.9,40.8c0,18,3.8,34.5,11.4,48.9c7.6,14.4,18.2,25.7,31.7,33.5
				c8.1,4.7,15.1,7,21.1,7c3.6,0,6.7-0.8,9.5-2.5c7.4-4.5,11.1-14.2,11.1-28.9c0-13.4-2.8-25.7-8.4-36.5C107,93,99,84.5,88.8,78.6z
				 M108.6,166.9c-6.5,3.9-15.9,2.4-28-4.5c-13-7.5-23.4-18.4-30.7-32.4c-7.4-14-11.1-30.1-11.1-47.7c0-17.8,2.2-31.2,6.6-39.6
				c4.3-8.3,10.4-12.4,18.8-12.7c0.3,0,0.6,0,0.9,0c8.3,0,18.7,3.5,30.8,10.5c4.4,2.5,9.6,6,15.4,10.3V75c-4.6-3.5-9.6-6.8-14.8-9.8
				C85.9,59,78,57.3,72.6,59.8c-5.5,2.5-8.4,9.6-8.9,21.7l0,0.8l2.7,1.6l0.7-1.1c4.2-6.8,10.9-7.4,20.5-1.8
				c9.7,5.6,17.4,13.7,22.8,24.1c5.4,10.4,8.1,22.3,8.1,35.3C118.4,154,115.1,163,108.6,166.9z"/>
		</g>
	</g>
	<g id="XMLID_4295_">
		<path id="XMLID_4294_" class="st1" d="M113.9,193c0.7,0.4,0.7,1,0,1.4c-0.7,0.4-1.7,0.4-2.4,0c-0.7-0.4-0.7-1,0-1.4
			C112.2,192.6,113.3,192.6,113.9,193z"/>
		<path id="XMLID_4293_" class="st1" d="M120.1,189.5c0.7,0.4,0.7,1,0,1.4c-0.7,0.4-1.7,0.4-2.4,0c-0.7-0.4-0.7-1,0-1.4
			C118.4,189.1,119.4,189.1,120.1,189.5z"/>
		<ellipse id="XMLID_4292_" class="st1" cx="125.1" cy="186.6" rx="1.7" ry="1"/>
		<ellipse id="XMLID_4291_" class="st1" cx="131.2" cy="183" rx="1.7" ry="1"/>
		<ellipse id="XMLID_4290_" class="st1" cx="137.4" cy="179.5" rx="1.7" ry="1"/>
		<path id="XMLID_4289_" class="st1" d="M144.8,175.2c0.7,0.4,0.7,1,0,1.4c-0.7,0.4-1.7,0.4-2.4,0c-0.7-0.4-0.7-1,0-1.4
			C143,174.8,144.1,174.8,144.8,175.2z"/>
		<path id="XMLID_4288_" class="st1" d="M150.9,171.7c0.7,0.4,0.7,1,0,1.4c-0.7,0.4-1.7,0.4-2.4,0c-0.7-0.4-0.7-1,0-1.4
			C149.2,171.3,150.3,171.3,150.9,171.7z"/>
		<path id="XMLID_4287_" class="st1" d="M157.1,168.1c0.7,0.4,0.7,1,0,1.4c-0.7,0.4-1.7,0.4-2.4,0c-0.7-0.4-0.7-1,0-1.4
			C155.4,167.7,156.4,167.7,157.1,168.1z"/>
		<path id="XMLID_4286_" class="st1" d="M163.3,164.5c0.7,0.4,0.7,1,0,1.4c-0.7,0.4-1.7,0.4-2.4,0c-0.7-0.4-0.7-1,0-1.4
			C161.6,164.2,162.6,164.2,163.3,164.5z"/>
		<path id="XMLID_4285_" class="st1" d="M101.6,193c0.7,0.4,0.7,1,0,1.4c-0.7,0.4-1.7,0.4-2.4,0s-0.7-1,0-1.4
			C99.9,192.6,100.9,192.6,101.6,193z"/>
		<path id="XMLID_4284_" class="st1" d="M107.7,189.5c0.7,0.4,0.7,1,0,1.4c-0.7,0.4-1.7,0.4-2.4,0c-0.7-0.4-0.7-1,0-1.4
			C106,189.1,107.1,189.1,107.7,189.5z"/>
		<path id="XMLID_4283_" class="st1" d="M113.9,185.9c0.7,0.4,0.7,1,0,1.4c-0.7,0.4-1.7,0.4-2.4,0c-0.7-0.4-0.7-1,0-1.4
			C112.2,185.5,113.3,185.5,113.9,185.9z"/>
		<path id="XMLID_4282_" class="st1" d="M120.1,182.3c0.7,0.4,0.7,1,0,1.4c-0.7,0.4-1.7,0.4-2.4,0c-0.7-0.4-0.7-1,0-1.4
			C118.4,182,119.4,182,120.1,182.3z"/>
		<path id="XMLID_4281_" class="st1" d="M126.3,178.8c0.7,0.4,0.7,1,0,1.4c-0.7,0.4-1.7,0.4-2.4,0c-0.7-0.4-0.7-1,0-1.4
			C124.5,178.4,125.6,178.4,126.3,178.8z"/>
		<path id="XMLID_4280_" class="st1" d="M132.4,175.2c0.7,0.4,0.7,1,0,1.4c-0.7,0.4-1.7,0.4-2.4,0c-0.7-0.4-0.7-1,0-1.4
			C130.7,174.8,131.8,174.8,132.4,175.2z"/>
		<path id="XMLID_4279_" class="st1" d="M138.6,171.7c0.7,0.4,0.7,1,0,1.4c-0.7,0.4-1.7,0.4-2.4,0c-0.7-0.4-0.7-1,0-1.4
			C136.9,171.3,137.9,171.3,138.6,171.7z"/>
		<ellipse id="XMLID_4278_" class="st1" cx="143.6" cy="168.8" rx="1.7" ry="1"/>
		<ellipse id="XMLID_4277_" class="st1" cx="149.7" cy="165.2" rx="1.7" ry="1"/>
		<path id="XMLID_4276_" class="st1" d="M157.1,161c0.7,0.4,0.7,1,0,1.4c-0.7,0.4-1.7,0.4-2.4,0c-0.7-0.4-0.7-1,0-1.4
			C155.4,160.6,156.4,160.6,157.1,161z"/>
		<path id="XMLID_4275_" class="st1" d="M163.3,157.4c0.7,0.4,0.7,1,0,1.4c-0.7,0.4-1.7,0.4-2.4,0c-0.7-0.4-0.7-1,0-1.4
			C161.6,157,162.6,157,163.3,157.4z"/>
		<ellipse id="XMLID_4274_" class="st1" cx="94.2" cy="190.1" rx="1.7" ry="1"/>
		<ellipse id="XMLID_4273_" class="st1" cx="100.4" cy="186.6" rx="1.7" ry="1"/>
		<ellipse id="XMLID_4272_" class="st1" cx="106.6" cy="183" rx="1.7" ry="1"/>
		<path id="XMLID_4271_" class="st1" d="M113.9,178.8c0.7,0.4,0.7,1,0,1.4c-0.7,0.4-1.7,0.4-2.4,0c-0.7-0.4-0.7-1,0-1.4
			C112.2,178.4,113.3,178.4,113.9,178.8z"/>
		<ellipse id="XMLID_4270_" class="st1" cx="118.9" cy="175.9" rx="1.7" ry="1"/>
		<path id="XMLID_4269_" class="st1" d="M126.3,171.7c0.7,0.4,0.7,1,0,1.4c-0.7,0.4-1.7,0.4-2.4,0c-0.7-0.4-0.7-1,0-1.4
			C124.5,171.3,125.6,171.3,126.3,171.7z"/>
		<ellipse id="XMLID_4268_" class="st1" cx="131.2" cy="168.8" rx="1.7" ry="1"/>
		<path id="XMLID_4267_" class="st1" d="M138.6,164.5c0.7,0.4,0.7,1,0,1.4c-0.7,0.4-1.7,0.4-2.4,0c-0.7-0.4-0.7-1,0-1.4
			S137.9,164.2,138.6,164.5z"/>
		<ellipse id="XMLID_4266_" class="st1" cx="143.6" cy="161.7" rx="1.7" ry="1"/>
		<path id="XMLID_4265_" class="st1" d="M150.9,157.4c0.7,0.4,0.7,1,0,1.4c-0.7,0.4-1.7,0.4-2.4,0c-0.7-0.4-0.7-1,0-1.4
			C149.2,157,150.3,157,150.9,157.4z"/>
		<path id="XMLID_4264_" class="st1" d="M157.1,153.8c0.7,0.4,0.7,1,0,1.4c-0.7,0.4-1.7,0.4-2.4,0c-0.7-0.4-0.7-1,0-1.4
			C155.4,153.5,156.4,153.5,157.1,153.8z"/>
		<ellipse id="XMLID_4263_" class="st1" cx="162.1" cy="151" rx="1.7" ry="1"/>
		<ellipse id="XMLID_4262_" class="st1" cx="88.1" cy="186.6" rx="1.7" ry="1"/>
		<path id="XMLID_4261_" class="st1" d="M95.4,182.3c0.7,0.4,0.7,1,0,1.4c-0.7,0.4-1.7,0.4-2.4,0c-0.7-0.4-0.7-1,0-1.4
			C93.7,182,94.8,182,95.4,182.3z"/>
		<path id="XMLID_4260_" class="st1" d="M101.6,178.8c0.7,0.4,0.7,1,0,1.4c-0.7,0.4-1.7,0.4-2.4,0c-0.7-0.4-0.7-1,0-1.4
			C99.9,178.4,100.9,178.4,101.6,178.8z"/>
		<path id="XMLID_4259_" class="st1" d="M107.7,175.2c0.7,0.4,0.7,1,0,1.4c-0.7,0.4-1.7,0.4-2.4,0c-0.7-0.4-0.7-1,0-1.4
			C106,174.8,107.1,174.8,107.7,175.2z"/>
		<path id="XMLID_4258_" class="st1" d="M113.9,171.7c0.7,0.4,0.7,1,0,1.4c-0.7,0.4-1.7,0.4-2.4,0c-0.7-0.4-0.7-1,0-1.4
			C112.2,171.3,113.3,171.3,113.9,171.7z"/>
		<path id="XMLID_4257_" class="st1" d="M120.1,168.1c0.7,0.4,0.7,1,0,1.4c-0.7,0.4-1.7,0.4-2.4,0c-0.7-0.4-0.7-1,0-1.4
			C118.4,167.7,119.4,167.7,120.1,168.1z"/>
		<ellipse id="XMLID_4256_" class="st1" cx="125.1" cy="165.2" rx="1.7" ry="1"/>
		<path id="XMLID_4255_" class="st1" d="M132.4,161c0.7,0.4,0.7,1,0,1.4c-0.7,0.4-1.7,0.4-2.4,0c-0.7-0.4-0.7-1,0-1.4
			C130.7,160.6,131.8,160.6,132.4,161z"/>
		<ellipse id="XMLID_4254_" class="st1" cx="137.4" cy="158.1" rx="1.7" ry="1"/>
		<ellipse id="XMLID_4253_" class="st1" cx="143.6" cy="154.5" rx="1.7" ry="1"/>
		<path id="XMLID_4252_" class="st1" d="M150.9,150.3c0.7,0.4,0.7,1,0,1.4c-0.7,0.4-1.7,0.4-2.4,0c-0.7-0.4-0.7-1,0-1.4
			C149.2,149.9,150.3,149.9,150.9,150.3z"/>
		<path id="XMLID_4251_" class="st1" d="M157.1,146.7c0.7,0.4,0.7,1,0,1.4c-0.7,0.4-1.7,0.4-2.4,0c-0.7-0.4-0.7-1,0-1.4
			C155.4,146.4,156.4,146.4,157.1,146.7z"/>
		<path id="XMLID_4250_" class="st1" d="M163.3,143.2c0.7,0.4,0.7,1,0,1.4c-0.7,0.4-1.7,0.4-2.4,0c-0.7-0.4-0.7-1,0-1.4
			C161.6,142.8,162.6,142.8,163.3,143.2z"/>
		<ellipse id="XMLID_4249_" class="st1" cx="81.8" cy="183" rx="1.7" ry="1"/>
		<path id="XMLID_4248_" class="st1" d="M89.2,178.7c0.7,0.4,0.7,1,0,1.4c-0.7,0.4-1.7,0.4-2.4,0c-0.7-0.4-0.7-1,0-1.4
			C87.5,178.4,88.5,178.4,89.2,178.7z"/>
		<path id="XMLID_4247_" class="st1" d="M95.4,175.2c0.7,0.4,0.7,1,0,1.4c-0.7,0.4-1.7,0.4-2.4,0c-0.7-0.4-0.7-1,0-1.4
			C93.7,174.8,94.7,174.8,95.4,175.2z"/>
		<path id="XMLID_4246_" class="st1" d="M157,139.6c0.7,0.4,0.7,1,0,1.4c-0.7,0.4-1.7,0.4-2.4,0c-0.7-0.4-0.7-1,0-1.4
			C155.3,139.2,156.4,139.2,157,139.6z"/>
		<path id="XMLID_4245_" class="st1" d="M76.9,178.7c0.7,0.4,0.7,1,0,1.4c-0.7,0.4-1.7,0.4-2.4,0c-0.7-0.4-0.7-1,0-1.4
			C75.1,178.4,76.2,178.4,76.9,178.7z"/>
		<path id="XMLID_4244_" class="st1" d="M83,175.2c0.7,0.4,0.7,1,0,1.4c-0.7,0.4-1.7,0.4-2.4,0s-0.7-1,0-1.4
			C81.3,174.8,82.4,174.8,83,175.2z"/>
		<path id="XMLID_4243_" class="st1" d="M89.2,171.6c0.7,0.4,0.7,1,0,1.4c-0.7,0.4-1.7,0.4-2.4,0c-0.7-0.4-0.7-1,0-1.4
			C87.5,171.2,88.5,171.2,89.2,171.6z"/>
		<path id="XMLID_4242_" class="st1" d="M70.7,175.2c0.7,0.4,0.7,1,0,1.4c-0.7,0.4-1.7,0.4-2.4,0c-0.7-0.4-0.7-1,0-1.4
			C69,174.8,70,174.8,70.7,175.2z"/>
		<path id="XMLID_4241_" class="st1" d="M76.9,171.6c0.7,0.4,0.7,1,0,1.4c-0.7,0.4-1.7,0.4-2.4,0c-0.7-0.4-0.7-1,0-1.4
			C75.1,171.2,76.2,171.2,76.9,171.6z"/>
		<ellipse id="XMLID_4240_" class="st1" cx="81.8" cy="168.7" rx="1.7" ry="1"/>
		<path id="XMLID_4239_" class="st1" d="M64.5,171.6c0.7,0.4,0.7,1,0,1.4c-0.7,0.4-1.7,0.4-2.4,0c-0.7-0.4-0.7-1,0-1.4
			C62.8,171.2,63.9,171.2,64.5,171.6z"/>
		<ellipse id="XMLID_4238_" class="st1" cx="69.5" cy="168.7" rx="1.7" ry="1"/>
		<path id="XMLID_4237_" class="st1" d="M76.9,164.5c0.7,0.4,0.7,1,0,1.4c-0.7,0.4-1.7,0.4-2.4,0c-0.7-0.4-0.7-1,0-1.4
			C75.1,164.1,76.2,164.1,76.9,164.5z"/>
		<path id="XMLID_4236_" class="st1" d="M58.3,168.1c0.7,0.4,0.7,1,0,1.4c-0.7,0.4-1.7,0.4-2.4,0c-0.7-0.4-0.7-1,0-1.4
			C56.6,167.7,57.7,167.7,58.3,168.1z"/>
		<ellipse id="XMLID_4235_" class="st1" cx="63.3" cy="165.2" rx="1.7" ry="1"/>
		<ellipse id="XMLID_3080_" class="st1" cx="69.5" cy="161.6" rx="1.7" ry="1"/>
		<ellipse id="XMLID_3079_" class="st1" cx="51" cy="165.2" rx="1.7" ry="1"/>
		<ellipse id="XMLID_3065_" class="st1" cx="57.2" cy="161.6" rx="1.7" ry="1"/>
		<path id="XMLID_3063_" class="st1" d="M64.5,157.4c0.7,0.4,0.7,1,0,1.4c-0.7,0.4-1.7,0.4-2.4,0c-0.7-0.4-0.7-1,0-1.4
			C62.8,157,63.9,157,64.5,157.4z"/>
		<path id="XMLID_3062_" class="st1" d="M52.2,157.4c0.7,0.4,0.7,1,0,1.4c-0.7,0.4-1.7,0.4-2.4,0c-0.7-0.4-0.7-1,0-1.4
			C50.5,157,51.5,157,52.2,157.4z"/>
		<path id="XMLID_3061_" class="st1" d="M58.3,153.8c0.7,0.4,0.7,1,0,1.4c-0.7,0.4-1.7,0.4-2.4,0c-0.7-0.4-0.7-1,0-1.4
			C56.6,153.4,57.7,153.4,58.3,153.8z"/>
		<path id="XMLID_3059_" class="st1" d="M52.2,150.3c0.7,0.4,0.7,1,0,1.4c-0.7,0.4-1.7,0.4-2.4,0c-0.7-0.4-0.7-1,0-1.4
			C50.5,149.9,51.5,149.9,52.2,150.3z"/>
		<path id="XMLID_3049_" class="st1" d="M58.3,146.7c0.7,0.4,0.7,1,0,1.4c-0.7,0.4-1.7,0.4-2.4,0c-0.7-0.4-0.7-1,0-1.4
			C56.6,146.3,57.7,146.3,58.3,146.7z"/>
	</g>
</g>
</svg>
