<svg xmlns="http://www.w3.org/2000/svg" viewBox="0 0 341.98 433.08"><defs><style>.cls-1{fill:#27fb6b;}.cls-2{fill:#fff;}.cls-3{fill:#231f20;}.cls-4,.cls-5{fill:none;stroke-linecap:round;}.cls-4{stroke:#231f20;stroke-linejoin:round;}.cls-5{stroke:#fff;stroke-miterlimit:10;stroke-width:10px;}</style></defs><title>avatar</title><g id="Layer_7" data-name="Layer 7"><circle class="cls-1" cx="170.99" cy="251.84" r="170.99"/></g><g id="Layer_8" data-name="Layer 8"><polygon class="cls-2" points="196.03 208.83 251.36 233.5 258.64 273.1 274.57 268.77 285.61 271.53 290.2 279.2 290.82 292.4 290.07 302.56 288.22 310.31 284.63 317.55 278.01 325.7 272.33 330.29 263.69 334.65 251.19 339.15 192.69 404.23 130 411.57 66.03 408.57 55.44 366.48 56.28 360.57 57.11 349.48 56.94 318.4 58.28 291.23 63.78 266.98 71.94 241.98 79.61 221.82 101.03 202.15 111.03 201.19 196.03 208.83"/></g><g id="Layer_5" data-name="Layer 5"><path class="cls-3" d="M164.59,384.46a82.63,82.63,0,0,0,9.67,5.33,48.15,48.15,0,0,0,10,3.32,38.85,38.85,0,0,0,10.41.63,70.48,70.48,0,0,0,10.89-1.85.51.51,0,0,1,.62.37.52.52,0,0,1-.17.52,27.49,27.49,0,0,1-10.6,5.36,28.5,28.5,0,0,1-12.2.38,29.32,29.32,0,0,1-11.23-4.69,28.45,28.45,0,0,1-4.57-3.9,21.69,21.69,0,0,1-3.54-4.83.51.51,0,0,1,.74-.66Z" transform="translate(-66.31 -22.1)"/><path class="cls-3" d="M195.18,273.86a8.9,8.9,0,0,1,.92,2.34,22.3,22.3,0,0,1,.43,2.42,27.16,27.16,0,0,1,.27,4.95v.21a.08.08,0,0,1,0,.05h0c-2.06,6.85-4.32,13.63-6.59,20.39s-4.67,13.53-6.68,20.2c-.47,1.65-.84,3.35-1.18,5.07s-.65,3.45-.93,5.19c-.55,3.49-1,7-1.32,10.5a51,51,0,0,0-.27,5.11,1.82,1.82,0,0,0,0,.37s0,0,0,0l0,.08.06.18a7.83,7.83,0,0,0,.5.93,15.63,15.63,0,0,0,1.41,1.94,24.59,24.59,0,0,0,7.74,6.15,19.83,19.83,0,0,0,9.5,2.17,22.55,22.55,0,0,0,9.54-2.57A33.78,33.78,0,0,0,213,356.9l2-1.58,2-1.71c2.73-2.28,5.4-4.61,7.93-7,.62-.62,1.28-1.21,1.85-1.86a23.2,23.2,0,0,0,1.68-1.93c1-1.31,1.9-2.7,1.84-4a13.63,13.63,0,0,0-.49-2.38,12.17,12.17,0,0,1-.39-2.92,4.7,4.7,0,0,1,0-.81,2.31,2.31,0,0,1,.11-.55,1.83,1.83,0,0,1,.2-.4,1.36,1.36,0,0,1,.2-.25,1.36,1.36,0,0,1,1.69-.13,2.77,2.77,0,0,1,.45.37,5.63,5.63,0,0,1,.53.65,22.81,22.81,0,0,1,1.42,2.43c1.65,3.24,3,6.53,4.41,9.84s2.65,6.65,3.9,10a.5.5,0,0,1-.92.37c-1.42-3.27-2.92-6.51-4.4-9.75s-3-6.46-4.74-9.51a20.12,20.12,0,0,0-1.36-2.14,5,5,0,0,0-.33-.38l-.07-.05s0,0,.17.07a.82.82,0,0,0,.51-.06.56.56,0,0,0,.24-.16l.1-.11c.06-.11,0-.07.06-.1s0,0,0,.11a3.12,3.12,0,0,0,0,.52,9.3,9.3,0,0,0,.42,2.36,14,14,0,0,1,.67,2.84,6.35,6.35,0,0,1-.68,3.18,7.79,7.79,0,0,1-.73,1.3,9.47,9.47,0,0,1-.82,1.18,27.09,27.09,0,0,1-1.78,2.15c-.6.71-1.25,1.33-1.88,2-2.55,2.58-5.2,5-7.9,7.38l-2,1.78c-.71.58-1.42,1.18-2.15,1.75a35.89,35.89,0,0,1-4.7,3,27.51,27.51,0,0,1-5.24,2.2A23,23,0,0,1,188,363.17a28.08,28.08,0,0,1-9-7,21.48,21.48,0,0,1-1.75-2.38,12.71,12.71,0,0,1-.75-1.43l-.17-.45-.08-.23c0-.09-.05-.21-.07-.31a4.41,4.41,0,0,1-.09-1,50,50,0,0,1,.25-5.58c.31-3.61.76-7.18,1.31-10.76a84.31,84.31,0,0,1,2.23-10.69c1.05-3.54,2.27-6.88,3.54-10.24s2.55-6.68,3.89-10c2.69-6.63,5.48-13.21,8.53-19.69h0l0,.26a27.94,27.94,0,0,1-1.35-4.76,22.28,22.28,0,0,1-.37-2.43,9,9,0,0,1,.1-2.52.54.54,0,0,1,.64-.41A.54.54,0,0,1,195.18,273.86Z" transform="translate(-66.31 -22.1)"/><path class="cls-3" d="M245.34,363.79a12.93,12.93,0,0,1,1.26,3.36,17.8,17.8,0,0,1,.51,3.5,15.66,15.66,0,0,1-.19,3.6,9.72,9.72,0,0,1-.51,1.84,4.17,4.17,0,0,1-1.17,1.72.5.5,0,0,1-.7-.07.53.53,0,0,1-.11-.38l0-.17a16.1,16.1,0,0,0-.07-3.08c-.08-1.08-.2-2.18-.26-3.29s-.11-2.24-.09-3.38a20.08,20.08,0,0,1,.33-3.49h0a.52.52,0,0,1,.62-.41A.52.52,0,0,1,245.34,363.79Z" transform="translate(-66.31 -22.1)"/><path class="cls-3" d="M176.82,346.64a20.24,20.24,0,0,1-1.91,7.77,12.72,12.72,0,0,1-1.1,1.88l-.36.47-.44.48c-.17.18-.28.28-.39.38l-.35.32c-.92.84-1.83,1.68-2.71,2.53a53.83,53.83,0,0,0-5,5.31c-1.44,1.88-2.75,3.85-2.85,6.21V372a.5.5,0,0,1-1,.18,7.39,7.39,0,0,1-.27-4.24l.25-1c.11-.33.24-.65.36-1a17.85,17.85,0,0,1,.85-1.89,30.56,30.56,0,0,1,4.78-6.42c.91-1,1.86-1.87,2.84-2.73l.67-.59.22-.2.24-.27a16.33,16.33,0,0,0,1-1.3c1.34-1.94,2.61-4.14,4.18-6.24v0a.51.51,0,0,1,.93.33Z" transform="translate(-66.31 -22.1)"/><path class="cls-3" d="M332.53,292.92a19.49,19.49,0,0,1,5.85-3.41,18.06,18.06,0,0,1,7-1.21,13.75,13.75,0,0,1,7.31,2.3,15.15,15.15,0,0,1,5,5.82,26,26,0,0,1,2.27,6.79c.24,1.14.36,2.27.52,3.4s.21,2.26.23,3.38a56.65,56.65,0,0,1-.13,6.65,61.42,61.42,0,0,1-.84,6.62,45,45,0,0,1-11.84,23.64,42.92,42.92,0,0,1-10.56,7.91,40.28,40.28,0,0,1-12.28,4.3.5.5,0,0,1-.58-.41.49.49,0,0,1,.33-.55l0,0A46.19,46.19,0,0,0,345,344.3a39.34,39.34,0,0,0,3.49-4.94c.56-.84,1-1.76,1.5-2.63s.9-1.8,1.26-2.73.77-1.86,1.07-2.82c.16-.48.33-.95.48-1.43l.4-1.46a48.84,48.84,0,0,0,1.25-5.91,64.82,64.82,0,0,0,.52-12.14c0-1-.16-2-.23-3s-.27-1.95-.48-2.89a20,20,0,0,0-1.8-5.24,10.59,10.59,0,0,0-7.65-5.83c-3.52-.72-7.67-.27-11.83.5h0a.51.51,0,0,1-.6-.41A.52.52,0,0,1,332.53,292.92Z" transform="translate(-66.31 -22.1)"/><path class="cls-3" d="M331.26,306.63a13.47,13.47,0,0,1,7.25,1.23,12.57,12.57,0,0,1,3.27,2.17,9.9,9.9,0,0,1,2.46,3.57,8.16,8.16,0,0,1,.41,4.52,9.54,9.54,0,0,1-1.65,3.79,12.72,12.72,0,0,1-1.2,1.5c-.44.44-.89.86-1.36,1.25a16.49,16.49,0,0,1-3,2,.53.53,0,0,1-.69-.73h0a36.87,36.87,0,0,0,3-5.75,7.68,7.68,0,0,0,.55-2.59,4.64,4.64,0,0,0-.43-2.14,12.13,12.13,0,0,0-3.54-3.85c-1.59-1.27-3.42-2.47-5.27-4l0,0a.54.54,0,0,1-.09-.75A.51.51,0,0,1,331.26,306.63Z" transform="translate(-66.31 -22.1)"/><path class="cls-3" d="M332.8,301.28a11.66,11.66,0,0,1,4.86-3.12,13.34,13.34,0,0,1,5.92-.66,10.81,10.81,0,0,1,5.68,2.45c.39.35.77.71,1.11,1.08s.6.83.86,1.25a5.13,5.13,0,0,1,.65,1.33,13.85,13.85,0,0,1,.47,1.37.52.52,0,0,1-.36.63.51.51,0,0,1-.46-.09l0,0a17.59,17.59,0,0,0-4-2.85,12.22,12.22,0,0,0-4.28-1.12,31.52,31.52,0,0,0-4.71.17c-1.64.14-3.34.37-5.19.49h0a.52.52,0,0,1-.43-.88Z" transform="translate(-66.31 -22.1)"/><path class="cls-3" d="M204.22,253.25a17,17,0,0,1,4.74-1.93,18.82,18.82,0,0,1,5.15-.6,14,14,0,0,1,5.21,1.08,9.27,9.27,0,0,1,4.06,3.46.51.51,0,0,1-.69.71l0,0a17.54,17.54,0,0,0-4.19-1.77,24.19,24.19,0,0,0-4.45-.58,40.43,40.43,0,0,0-4.65.13c-1.57.12-3.18.29-4.8.45h0a.51.51,0,0,1-.56-.46A.51.51,0,0,1,204.22,253.25Z" transform="translate(-66.31 -22.1)"/><path class="cls-3" d="M169.4,279.18a11,11,0,0,1,2.87-5.13,14.57,14.57,0,0,1,4.88-3.33l1.38-.52a13.44,13.44,0,0,1,1.42-.37,17.51,17.51,0,0,1,2.87-.46c1-.09,1.92,0,2.87-.05s1.9.21,2.83.35a.5.5,0,0,1,.42.57.49.49,0,0,1-.44.42h-.05c-.92.1-1.83.15-2.73.2s-1.79.22-2.66.38a23.66,23.66,0,0,0-5,1.5,17.6,17.6,0,0,0-4.34,2.77,16,16,0,0,0-3.33,4l0,.06a.5.5,0,0,1-.92-.37Z" transform="translate(-66.31 -22.1)"/><path class="cls-3" d="M207.43,265.62a51,51,0,0,1,8.2.75,55.75,55.75,0,0,1,8,1.9,37.2,37.2,0,0,1,7.7,3.23,17.73,17.73,0,0,1,6.31,5.62.5.5,0,0,1-.16.7.51.51,0,0,1-.57,0h0a31.67,31.67,0,0,0-6.82-3.8c-1.17-.57-2.43-1-3.63-1.48s-2.48-.9-3.75-1.32c-.62-.21-1.25-.42-1.89-.61l-1.91-.6-3.85-1.13-7.77-2.22h0a.5.5,0,0,1-.35-.62A.54.54,0,0,1,207.43,265.62Z" transform="translate(-66.31 -22.1)"/><path class="cls-3" d="M209.72,359.74a9.39,9.39,0,0,1-3.33-1.16,6.23,6.23,0,0,1-2.81-3,4.24,4.24,0,0,1-.1-2.8,5.21,5.21,0,0,1,1.36-2.16,10.13,10.13,0,0,1,3.3-2.11,13,13,0,0,1,1.76-.64,9.09,9.09,0,0,1,2-.3,4.09,4.09,0,0,1,1.1,0,5.48,5.48,0,0,1,1.16.25,4.24,4.24,0,0,1,1.12.53,3.73,3.73,0,0,1,1,.8,4.18,4.18,0,0,1,.7,1,7.55,7.55,0,0,1,.42,1,6.73,6.73,0,0,1,.2,2,7.41,7.41,0,0,1-1.11,3.43.51.51,0,0,1-.71.16.52.52,0,0,1-.25-.41v0a11.24,11.24,0,0,0-.46-2.92c-.08-.21-.17-.4-.24-.59s-.2-.34-.28-.51a2.4,2.4,0,0,0-.67-.6,2.45,2.45,0,0,0-1.61-.1,9.79,9.79,0,0,0-1.12.29c-.4.19-.8.3-1.22.53a10.83,10.83,0,0,0-2.13,1.23,3.92,3.92,0,0,0-.46.45.42.42,0,0,0-.14.34,4.33,4.33,0,0,0,1,2c.56.79,1.29,1.55,2,2.38l0,0a.52.52,0,0,1-.47.86Z" transform="translate(-66.31 -22.1)"/><path class="cls-3" d="M144.89,292.89a51.25,51.25,0,0,1,8.87-3.72,69.68,69.68,0,0,1,9.35-2.29,60.81,60.81,0,0,1,9.63-.87,36.65,36.65,0,0,1,9.62,1.19.51.51,0,0,1,.35.62.51.51,0,0,1-.49.37h0a90.09,90.09,0,0,0-9.33.46c-3.08.36-6.15.83-9.21,1.38-6.12,1.15-12.2,2.58-18.42,3.8h0a.51.51,0,0,1-.59-.4A.52.52,0,0,1,144.89,292.89Z" transform="translate(-66.31 -22.1)"/><path class="cls-4" d="M150.42,291.59s25.79-4.7,33.68-2.68" transform="translate(-66.31 -22.1)"/><path class="cls-3" d="M151.44,292.87a71.13,71.13,0,0,1,8.41-2.39c2.84-.65,5.71-1.14,8.6-1.53a68.93,68.93,0,0,1,8.75-.65l2.21,0,2.22.19c.74.08,1.49.23,2.22.35s1.47.41,2.18.63a.5.5,0,0,1,.33.62.49.49,0,0,1-.49.35h-.05a69.12,69.12,0,0,0-8.47.57l-8.51,1c-2.84.34-5.69.71-8.55,1s-5.74.61-8.65.77h0a.52.52,0,0,1-.54-.48A.5.5,0,0,1,151.44,292.87Z" transform="translate(-66.31 -22.1)"/><path class="cls-3" d="M188.28,286.79A7.77,7.77,0,0,1,190,285.4a12.74,12.74,0,0,1,1.92-1,20.54,20.54,0,0,1,2-.75,12.35,12.35,0,0,1,2.14-.49.51.51,0,0,1,.58.45.47.47,0,0,1-.17.45,12.17,12.17,0,0,1-1.76,1.31,20.48,20.48,0,0,1-1.89,1,12.9,12.9,0,0,1-2,.84,8,8,0,0,1-2.18.41.55.55,0,0,1-.41-.91Z" transform="translate(-66.31 -22.1)"/><path class="cls-3" d="M216.38,286.74a82,82,0,0,1,10,.13c1.66.14,3.33.29,5,.5s3.33.46,5,.76a52.64,52.64,0,0,1,9.81,2.67,24.22,24.22,0,0,1,4.61,2.43,10.63,10.63,0,0,1,3.66,3.87.51.51,0,0,1-.77.63l0,0a16.81,16.81,0,0,0-4.09-2.25c-1.45-.59-3-1.08-4.49-1.54-3.07-.89-6.2-1.75-9.39-2.43s-6.41-1.33-9.65-1.92l-9.75-1.83a.5.5,0,0,1,.06-1Z" transform="translate(-66.31 -22.1)"/><path class="cls-3" d="M220.35,289.5a65,65,0,0,1,9.26.27,84,84,0,0,1,9.16,1.37,54.6,54.6,0,0,1,9,2.59,28.63,28.63,0,0,1,4.27,2.1,11.58,11.58,0,0,1,3.65,3.26.51.51,0,0,1-.7.7l0,0c-2.4-1.57-5.31-2.3-8.15-3.11s-5.81-1.41-8.75-2.08l-8.87-1.93c-3-.66-5.95-1.33-8.92-2.15h0a.51.51,0,0,1-.36-.62A.5.5,0,0,1,220.35,289.5Z" transform="translate(-66.31 -22.1)"/><path class="cls-3" d="M161.77,311.84c1.86.06,3.7.24,5.51.41s3.61.33,5.35.37a15.36,15.36,0,0,0,2.48-.13l2.69-.46a7.7,7.7,0,0,0,2.28-.66,1.66,1.66,0,0,0,.68-.63,3.73,3.73,0,0,0,.32-1.11v0a.51.51,0,0,1,.57-.43.5.5,0,0,1,.42.4,3.89,3.89,0,0,1,.05,1.64,3.09,3.09,0,0,1-1,1.57,7.76,7.76,0,0,1-2.81,1.44c-.92.31-1.83.53-2.73.76a13.25,13.25,0,0,1-3,.3,26.76,26.76,0,0,1-5.69-.69,27.12,27.12,0,0,1-5.38-1.77.51.51,0,0,1-.25-.67.5.5,0,0,1,.48-.3Z" transform="translate(-66.31 -22.1)"/><path class="cls-3" d="M211.29,308.13a9,9,0,0,1,1.43,1,8.75,8.75,0,0,1,1,.93l1,1c.33.4.72.77,1.14,1.34l0,.05a.6.6,0,0,1-.13.84l-.16.08a3.8,3.8,0,0,1-2.14,0,4.55,4.55,0,0,1-1.91-1,4,4,0,0,1-1.22-1.8,3.16,3.16,0,0,1,.05-2.26.59.59,0,0,1,.76-.31l.05,0Z" transform="translate(-66.31 -22.1)"/><path class="cls-3" d="M218,314.31a24.52,24.52,0,0,1,3.83,0c1.26.07,2.5.21,3.74.38s2.46.4,3.67.66,2.41.61,3.6,1l.05,0a.52.52,0,0,1,.33.65.53.53,0,0,1-.32.33,11.88,11.88,0,0,1-3.95.54,24.1,24.1,0,0,1-3.81-.36,31.28,31.28,0,0,1-3.72-.84,20.27,20.27,0,0,1-3.61-1.37.52.52,0,0,1,.19-1Z" transform="translate(-66.31 -22.1)"/><path class="cls-3" d="M216.37,296.9a42,42,0,0,1,7-.12c1.16.07,2.33.19,3.49.36a15.36,15.36,0,0,1,3.48.89.5.5,0,0,1-.2,1h0c-2.24,0-4.57-.07-6.86-.26a58.16,58.16,0,0,1-6.91-.84.5.5,0,0,1-.4-.59A.51.51,0,0,1,216.37,296.9Z" transform="translate(-66.31 -22.1)"/><path class="cls-3" d="M238,299a5.93,5.93,0,0,1,1.75.37,6.45,6.45,0,0,1,1.6.88,4.19,4.19,0,0,1,1.3,1.53,2.11,2.11,0,0,1-.19,2.21.56.56,0,0,1-.8.06l-.07-.07-.11-.14c-.39-.47-.63-.63-.86-.91a7.49,7.49,0,0,0-.79-.91c-.64-.65-1.44-1.31-2.2-2.09l0,0a.53.53,0,0,1,0-.75A.58.58,0,0,1,238,299Z" transform="translate(-66.31 -22.1)"/><path class="cls-3" d="M159,296.38a8,8,0,0,1,2-.62,12.8,12.8,0,0,1,2-.19,19.83,19.83,0,0,1,2,0c.67,0,1.35.11,2,.21h.08a.51.51,0,0,1,.43.59.52.52,0,0,1-.23.36,6.88,6.88,0,0,1-2.09.82,13.54,13.54,0,0,1-2.09.32,11.23,11.23,0,0,1-2.09,0,7,7,0,0,1-2.1-.51.54.54,0,0,1-.28-.72.53.53,0,0,1,.26-.27Z" transform="translate(-66.31 -22.1)"/><path class="cls-3" d="M171.54,295a11.71,11.71,0,0,1,2.8-.84,13.08,13.08,0,0,1,2.95-.2,7.68,7.68,0,0,1,3.13.76,3.6,3.6,0,0,1,1.37,1.27,2.34,2.34,0,0,1,.29,1.88.57.57,0,0,1-.72.36.51.51,0,0,1-.18-.09l-.08-.07a3,3,0,0,0-1-.55c-.28-.11-.56-.2-.88-.31a11.42,11.42,0,0,0-2.24-.57c-1.66-.28-3.47-.39-5.31-.65h0a.52.52,0,0,1-.44-.58A.52.52,0,0,1,171.54,295Z" transform="translate(-66.31 -22.1)"/><path class="cls-3" d="M158,301.31a.07.07,0,0,0,.06,0s0,0,0,0l-.07.07-.15.14c-.1.1-.19.21-.28.31a5,5,0,0,0-.48.66,2.56,2.56,0,0,0-.44,1.35,2.79,2.79,0,0,0,1.51,2.17,10.19,10.19,0,0,0,3,1.25,18.84,18.84,0,0,0,3.38.45,38.15,38.15,0,0,0,7-.28c1.17-.13,2.34-.29,3.48-.51.28-.06.57-.11.82-.18l.19,0,.07,0,.2-.1a8.82,8.82,0,0,0,1.25-.84,3.3,3.3,0,0,0,1.37-1.79.81.81,0,0,0-.17-.58,13,13,0,0,0-.95-1.26,4.64,4.64,0,0,0-.92-.82,2.6,2.6,0,0,0-1-.32,25.24,25.24,0,0,0-3.23.13A134.86,134.86,0,0,1,158,301.31Zm-.34-.94a132.37,132.37,0,0,1,14.43-2.49,18.57,18.57,0,0,1,4-.29,5.71,5.71,0,0,1,2.42.72,6.93,6.93,0,0,1,1.82,1.56,15.77,15.77,0,0,1,1.22,1.66,4.27,4.27,0,0,1,.67,2.86,5.08,5.08,0,0,1-1.09,2.46,9.09,9.09,0,0,1-1.61,1.56,10.68,10.68,0,0,1-1.82,1.12,3.4,3.4,0,0,1-.62.26l-.37.1-.26.05-1,.17c-1.26.19-2.49.32-3.74.41a38.84,38.84,0,0,1-7.54-.16,22.09,22.09,0,0,1-3.78-.84,11.62,11.62,0,0,1-3.52-1.92l-.76-.73a6.61,6.61,0,0,1-.64-.9,3.52,3.52,0,0,1-.45-2.28,4,4,0,0,1,.94-2,6,6,0,0,1,.72-.71l.38-.31.21-.14.1-.07.07,0A.65.65,0,0,1,157.64,300.37Z" transform="translate(-66.31 -22.1)"/><path class="cls-3" d="M215.38,307.92a.15.15,0,0,0,0-.07s0,0,0,0h0l.22.07.43.14.87.27,1.74.51c1.15.33,2.32.64,3.48.91a36.59,36.59,0,0,0,6.92,1.05c.57,0,1.11,0,1.67,0s1.07-.13,1.58-.21l.73-.2.37-.09.32-.16.65-.29.66-.44a5.64,5.64,0,0,0,1.89-1.94,1.54,1.54,0,0,0-.22-1.75,3.6,3.6,0,0,0-2.09-1.18l-1.83-.27-1.84-.34q-1.82-.35-3.6-.75l-1.76-.38-.73-.13a8.29,8.29,0,0,1-1.07-.16,20.71,20.71,0,0,0-3.4-.47,7,7,0,0,0-3.06.51,3.24,3.24,0,0,0-1.74,2.21,6.69,6.69,0,0,0-.22,1.64c0,.28,0,.57,0,.86A5.24,5.24,0,0,1,215.38,307.92Zm-.79.61a8.82,8.82,0,0,1-.33-1.13c-.06-.31-.13-.63-.17-.95a7.94,7.94,0,0,1,0-2,5.38,5.38,0,0,1,.69-2,4.93,4.93,0,0,1,1.59-1.59,8.31,8.31,0,0,1,4-1.12,19.82,19.82,0,0,1,3.88.21,4.09,4.09,0,0,0,.74.07c.47,0,.74.07,1.08.11l1.84.28,3.59.58,1.77.25,1.81.2a6.57,6.57,0,0,1,4.17,2.27,5.3,5.3,0,0,1,1.1,2.44,4.87,4.87,0,0,1-.4,2.67,8.08,8.08,0,0,1-3.05,3.31l-.88.55-1,.46-.52.22-.52.13-1,.25a20.47,20.47,0,0,1-2.05.17c-.66,0-1.34,0-2-.09a29.61,29.61,0,0,1-7.4-1.84c-1.18-.42-2.31-.94-3.44-1.47-.55-.27-1.11-.56-1.65-.85-.28-.14-.54-.3-.81-.46l-.4-.24-.2-.12-.17-.1A1.2,1.2,0,0,1,214.59,308.53Z" transform="translate(-66.31 -22.1)"/><path class="cls-3" d="M167.31,221.69c3-1,5.85-1.79,8.8-2.56s5.86-1.42,8.82-2a138.61,138.61,0,0,1,18-2.45c1.52-.07,3-.19,4.57-.2s3.1-.05,4.54,0l8.83.07c5.9.06,11.81.16,17.73.34,11.83.37,23.67,1,35.51,2.38,5.91.7,11.83,1.56,17.72,2.82,2.94.63,5.88,1.36,8.8,2.26a59.85,59.85,0,0,1,8.67,3.36l-2.53,5.17a52.43,52.43,0,0,0-7.83-2.87c-2.72-.79-5.51-1.43-8.33-2-5.64-1.11-11.41-1.84-17.19-2.42-11.58-1.13-23.27-1.56-35-1.71-5.86-.08-11.72-.07-17.59,0l-8.82.09c-1.5,0-2.86.08-4.29.11s-2.83.19-4.24.28A133.66,133.66,0,0,0,186.6,225c-2.8.63-5.59,1.32-8.35,2.1s-5.55,1.63-8.1,2.55Z" transform="translate(-66.31 -22.1)"/><polygon class="cls-3" points="192.3 179.32 187.78 83.33 153.75 131.33 78.76 0 111.82 206.15 130 212.33 151.57 217.6 178.54 217.6 192.3 179.32"/><polyline class="cls-5" points="129.68 225.95 110.3 91.83 150.04 156.83 173.58 127.83 182.32 185.83"/><polygon class="cls-3" points="241.73 206.15 308.82 151.33 255.82 153.83 295.32 53.33 232.82 111.33 217.32 85.33 162.97 218.72 180.82 218.72 207.18 215.67 241.73 206.15"/><polyline class="cls-5" points="170 230.04 217.57 121.83 224.07 144.83 254.82 112.33 230.32 167.33 264.84 165.33 207.18 215.67"/><path class="cls-3" d="M220.85,302.12s1,4.92,4.18,5,4.31-2.16,4.24-3.77S220.85,302.12,220.85,302.12Z" transform="translate(-66.31 -22.1)"/><path class="cls-3" d="M161.87,301.9s.15,3.3,2.36,3.32,5-.78,5-3.7S161.87,301.9,161.87,301.9Z" transform="translate(-66.31 -22.1)"/><path class="cls-3" d="M300.67,262.88c18.79,13.72,17.26,42.07,16.18,53.4s-42.61,79.83-42.61,79.83S261.3,425.23,250,395s-59.87-33.44-63.64-34-36.14,9.71-53.4,14S113,395.9,115.67,411s17.08,29.79,46.2,39.5,96.19,3.32,124.78-10.17,49.08-59.86,47.46-65.26-1.62-43.69,3.78-73.89,3.65-53.94-6.47-64.72-22.12-10.79-22.12-10.79L285,234.92,259.79,240S281.88,249.17,300.67,262.88ZM198.19,420.65l-14-5.67c-.27-22.11-18.34-13.21-21-10s-3,12.4-3,12.4-21.58-3.77-22.65-5.12-1.89-14.57-1.89-14.57c38,1.08,51.51-23.19,51.51-23.19.81,17,33.15,24.81,33.15,24.81C209.6,424.79,198.19,420.65,198.19,420.65Z" transform="translate(-66.31 -22.1)"/><path class="cls-3" d="M123.81,384.85a202.28,202.28,0,0,1-4.09-21.45,209.14,209.14,0,0,1-1.9-21.83,185.92,185.92,0,0,1,3.47-44,151.65,151.65,0,0,1,6-21.43,138.7,138.7,0,0,1,9.21-20.4,109.84,109.84,0,0,1,12.79-18.52,92.34,92.34,0,0,1,7.94-8.14c1.41-1.28,2.87-2.52,4.4-3.69.76-.6,1.54-1.17,2.35-1.73.4-.29.81-.56,1.24-.84s.8-.52,1.41-.86a4.15,4.15,0,0,1,4-.1l0,0c1.14.59,2.53,1.24,3.84,1.82s2.68,1.17,4,1.72c2.72,1.11,5.48,2.12,8.27,3.08a172.83,172.83,0,0,0,17,5,175.17,175.17,0,0,0,17.49,3.2,169.33,169.33,0,0,0,17.73,1.5,171.09,171.09,0,0,0,17.83-.38,160.55,160.55,0,0,0,17.74-2.29,169.84,169.84,0,0,0,34.44-10.32.5.5,0,0,1,.66.26.52.52,0,0,1-.23.64,151.64,151.64,0,0,1-16.58,7.62,154.75,154.75,0,0,1-17.45,5.59,157.89,157.89,0,0,1-36.45,4.8,172.48,172.48,0,0,1-18.46-.68,179.6,179.6,0,0,1-18.29-2.71,177.49,177.49,0,0,1-18-4.55q-4.44-1.38-8.79-3.05c-1.46-.55-2.9-1.13-4.35-1.74s-2.83-1.22-4.39-2l4-.07-.88.58-1,.7c-.66.48-1.32,1-2,1.52-1.31,1.05-2.59,2.18-3.83,3.35a84.73,84.73,0,0,0-7,7.52,111.78,111.78,0,0,0-11.59,17.19,129.82,129.82,0,0,0-8.45,19.1q-1.76,4.95-3.14,10c-.93,3.38-1.82,6.77-2.54,10.22A259.57,259.57,0,0,0,125,341.62c-.38,7.12-.52,14.27-.54,21.45s.18,14.39.32,21.64a.52.52,0,0,1-.5.52A.5.5,0,0,1,123.81,384.85Z" transform="translate(-66.31 -22.1)"/></g></svg>