<?xml version="1.0" encoding="utf-8"?>
<!-- Generator: Adobe Illustrator 22.0.0, SVG Export Plug-In . SVG Version: 6.00 Build 0)  -->
<svg version="1.1" id="Layer_1" xmlns="http://www.w3.org/2000/svg" xmlns:xlink="http://www.w3.org/1999/xlink" x="0px" y="0px"
	 viewBox="0 0 100 100" style="enable-background:new 0 0 100 100;" xml:space="preserve">
<style type="text/css">
	.st0{fill:#FFFBE9;}
	.st1{fill:#FFEC92;}
	.st2{fill:#ECCC00;}
	.st3{fill:#F7DF2A;}
	.st4{fill:#926037;}
</style>
<g>
	<path class="st0" d="M66.7,34.7c-0.4-3.2-1.3-6.1-2.3-9.1c-1.8-5.4-4.6-11.6-7.9-15.4c-0.8-1.2-1.6-2-2.4-3.1
		c-1.7-2.2-4-4.3-6.9-4.6c0,0-0.1,0-0.1,0c-1.6-0.8-3.4-1-5.1-0.2c-1.5,0.7-2,2.5-1.9,4c0.2,2.5,1.7,4.8,2.6,7.1
		c2,4.9,3.5,10.1,4.6,15.2c0.7,3.4,0.4,6.9,1,10.2c-0.2,0.2,0.3,4.3,0.2,4.6c-0.6,2.4-0.1,4.2-0.7,5.2c-0.1,0.4-0.9-0.7-0.9-0.2
		c0.1,0.6,0.3,1.1,0.7,1.4c-1.3,1.9,1.4,4.4,3.1,2.6c1.9-2,4.7-3.3,7.4-3.8c2.6-0.5,6-0.7,7.9-2.9c0,0,0.4-0.1,0.4-0.2
		c0.6-0.3,0.8-0.8,0.8-1.7C67.1,40.8,67.1,37.7,66.7,34.7z"/>
	<path class="st1" d="M78,39.6c-3-2-6.3-3.3-10-3.3c-0.6,0-1.2,0.7-1,1.3c0.7,2.2,0.4,4.7-0.1,6.8c-0.1,0.6,0,0.8,0.4,1
		c-0.6,0-1.2,0.1-1.8,0.1c-2.7,0.2-5.3,0.7-8,0.9c-1.8,0.2-3.5,0.5-5.1,1.1c-1.2,0.2-2.3,0.7-3.2,1.7c-0.8,0.8-1,3.1,0,2.5
		c0.7-0.4,2.5-1.7,3.2-1.9c0.7,1.2,1.7,2.3,2.5,3.5c1.2,1.7,2.1,4.6,2.2,6.6c0.2,3.8,0.9,7.2,0.6,11.3c-0.2,3,0.1,5.7-0.6,8.6
		c-0.5,2.1-1.7,4.8-1.1,7c0.4,1.6,1.5,1.8,2.9,1.4c1.6-0.5,3.2-1.9,4.3-3.2c2.1-2.4,4-5,5.6-7.9c0.8,0.2,1.6-0.9,1-1.7
		c0.3-0.6,0.6-1.1,0.9-1.7c1.4-2.7,2.4-5.4,3.3-8.3c0.1-0.5,0.3-0.9,0.4-1.4c0,0,0-0.1,0-0.1c1.1-4,2-8.4,1.1-12.5
		c-0.4-1.9-0.9-3.4-2.5-4.6c-1.2-0.9-3.2-1.4-4.7-1.4c0.2-0.1-0.5-0.1-0.4-0.4c0.1-0.3,1-0.8,1.1-1.1c0.2,0,0.5-0.1,0.7-0.3
		c2.2-2.1,4.7-2.9,7.7-2.1C78.3,41.7,78.9,40.2,78,39.6z"/>
	<path class="st2" d="M57.7,66.6c-0.1-2.6-0.3-5.9-1-8.4c-0.6-1.9-0.9-4-2.2-5.6c-0.6-0.7-1.4-1.4-2.2-0.9c-1.3,0.8-1.4,3.1-1.6,4.4
		c-0.3,2.6-1.2,5-2.4,7.3C47,66,45.6,68.5,44,70.9c-1.5,2.4-3.2,4.7-5.1,6.8c-2,2.3-4.5,4.2-6.8,6.2c-1.9,1.6-3.6,3.2-5.4,4.9
		c-1,0.9-2.1,2.1-3.3,2.9c-0.4,0.2-0.9,0.4-1.3,0.7c-0.5,0.2-0.9,0.3-1.4,0.4c-0.1,0-0.2,0.1-0.3,0.1c-0.5-0.4-1.2,0.3-0.7,0.7
		c0.3,0.3,0.5,0.5,0.7,0.8c0,0,0,0.1,0.1,0.1c0,0.1,0.1,0.1,0.1,0.2c0.5,0.8,0.9,1.7,1.5,2.5c0.8,1.1,2.8,0.5,4.1,0.7
		c3.1,0.4,4.9,0.8,7.8,0c3.3-0.9,8.5-2.9,11-5.2c2.9-2.7,5.2-3.7,7.7-6.8c1.4-1.7,2.9-2.4,4.1-4.3c0.4-0.1,0.4-3.3,0.6-3.6
		c0.3-0.7-0.1-1.2,0-1.9C57.8,73.2,57.9,69.9,57.7,66.6z"/>
	<path class="st2" d="M82,45.9c-0.2-3.2-4.7-7.2-7.8-5.1C74.1,40.9,74,40.9,74,41c-0.2-0.1-0.5-0.1-0.7-0.1c-0.7,0-0.5,0.6,0.1,0.7
		c2.3,0.1,4.3,3.7,3.8,6.1c-0.2,0.1-0.5,0.4-0.5,0.6c0,0,0,0.4,0,0.4c-0.3,0.6-0.4,0.9-1.2,1.2c-0.4,0.1-0.5,0.7-0.1,0.9
		c0.4,1.7,1,3.7,0.3,5.4c-0.2,0.5,0.2,1,0.7,0.7C80.1,55,82.2,49.9,82,45.9z"/>
	<path class="st3" d="M52.4,50.3c-0.4-1-2.4-1.3-3.4,0.8c-0.5,1-0.7-0.5-0.8,0.5c-1-4-1.4-8-4.1-11.3c0-0.2-0.1-0.4-0.2-0.6
		c-1.1-1.4-3.7-2.6-5.7-2.3c-2.6-0.4-5.9,0.1-7.9,1.8c-0.2,0.1-1,0.3-1,0.4c-5,2.1-8.4,6-8.9,11.5c0,0.1,0,0.1,0,0.2
		c-0.8,1.6-0.7,3.2-0.4,5.2c0.1,0.5,0,0.9,0.4,0.9c0,0,0.1,0,0.1,0c0.6,0,0.6-0.4,0.7-0.8c0-0.1,0.3-0.3,0.3-0.4
		c-0.1-0.5-0.1-0.9-0.1-1.3c0.3-0.1,0.5-0.3,0.6-0.7c0.2-1.1,0.9-2.1,1.2-3.1c0.9-1.1,1.1-2.1,2.2-3.1c0.4-0.4,0.9-0.9,0.7-1.3
		c2.1-1.4,4.1-2.9,6.6-3.5c0.2-0.1,0.4-0.1,0.5-0.2c1.9-0.3,3.8-0.4,5.6,0.2c3.2,1.9,5.3,4.7,6,8.5c0.8,4.6-2.2,8.7-3.6,12.9
		c0,0.1,0,0.1,0,0.2c-4,5.6-9,10.5-13.9,15.5c-2,2.1-4.2,4.6-5.9,7.2c-0.7,1.2-3,3.9-2.6,3.9c0.1,0,0.1,0.2,0.1,0.2
		C18.7,92.2,19,93,19.8,93c0.3,0,0.6-0.1,1-0.1c0.1,0,0.2,0,0.3-0.1c3.1-0.7,5.6-3.4,7.8-5.5c3.5-3.3,7.3-6.1,10.4-9.8
		c3.1-3.6,6.4-7.2,8.4-11.6c1.1-2.3,1.7-4.8,2.5-7.1c0.4-1.3,0.8-2.6,1.3-3.8c0.3-0.8,0.7-2.1,1.5-2.6
		C53.9,51.8,53.3,50.2,52.4,50.3z"/>
	<path class="st4" d="M80.7,42.1c-0.2-0.2-0.4-0.4-0.6-0.6c0-0.1,0-0.2-0.1-0.2c-3.4-3.4-7.7-6.3-12.7-5c-0.5-3.7-1.6-7.4-2.8-10.9
		c-2-6.1-4.8-12.1-9-17.1c-3-3.5-9-8.8-14-6.3c-2.1,1-2.3,3.6-1.8,5.6c0.4,1.8,1.2,3.5,2,5.1c0.9,2.1,1.9,4.2,2.7,6.4
		c2,5.1,2.9,10.8,3.3,16.2c0.1,1.9,0.2,3.8,0.2,5.7c0,1.6,0.3,5.6-0.1,7.5c-0.3-2.5-2-6.7-3.5-8.5c-3-3.4-7.6-3.5-11.6-2.2
		c-4.7,1.5-9.8,4.9-11.7,9.6c-0.8,1.9-1.2,3.8-1.3,5.8c-0.2,1.6-0.3,3.9,1.1,5c0.3,0.3,0.7-0.2,0.4-0.4c0,0,0,0-0.1,0
		c1.1-3.7,2.5-7.3,5.1-10.2c2.2-2.4,5.2-4.1,8.4-4.4c3.2-0.3,6.2,1.2,8,3.8c1.9,2.7,2.2,6,1.6,9.1c-1.3,6.3-5.9,11.8-10.1,16.5
		c-2.2,2.5-4.5,4.8-6.9,7.1c-1.3,1.2-2.5,2.5-3.6,3.9c-1.2,1.5-2.2,3.2-3.3,4.8c-0.7,1-1.6,2-2.5,2.8c-0.1,0.1-0.1,0.2-0.1,0.3
		c0,0.1,0,0.2,0.1,0.3c1.5,1.9,3.2,3.6,4.3,5.8c0,0.1,0.1,0.1,0.2,0.1c0,0.1,0.1,0.2,0.2,0.2c6.7,1.5,13.4,1.2,20.2-3.2
		c3.6-2.3,6.1-4.2,8.6-6.7c2.4-2.5,3.1-3.1,4.9-5.1c-0.1,0.5-0.4,1.7-0.5,2.2c-0.1,0.3-0.3,1.1,0.2,2c1.3,2.5,4,1,5.5-0.4
		c5.2-4.5,9.3-10.6,11.6-17.1c1.3-3.8,2.4-7.7,3-11.7c0-0.1,0-0.2,0-0.3c0,0,0,0,0,0C80.9,55.3,84.7,46.9,80.7,42.1z M67.4,36.8
		c4.1-1.1,7.8,0.9,10.8,3.6c-3.7-1.2-8.5,1.7-10.8,4.5C67.8,42.2,67.7,39.5,67.4,36.8z M72.7,41.8c3.9,0.3,5.6,5.3,2.7,7.8
		c-0.3-0.8-0.7-1.6-1.3-2.2c-1-1.3-2.7-2-4.3-2.1c-0.6-0.1-1.3-0.1-2-0.1c1.1-1.3,2.8-2.6,4.6-3.4C72.6,41.7,72.6,41.7,72.7,41.8z
		 M48.3,47.6c0.2-1.3,0.3-6,0.2-8.2c-0.1-3.5-0.3-7-0.9-10.4c-0.7-4.1-1.7-8.2-3.4-12.1c-0.7-1.7-1.5-3.4-2.3-5.1
		c-0.9-2-1.9-4.1-1.9-6.2c0-3.6,3.8-4.1,6.4-3.3c3.3,1,6.1,3.6,8.3,6c4.6,5.2,7.4,11.8,9.5,18.3c1.8,5.8,3.5,12.4,2.3,18.5
		c-2.7,0.2-5.4,0.8-8.1,1.1c-3.5,0.4-9.1-0.2-10.4,4.2c-0.1-0.3-0.1-0.7-0.2-1.2C48.1,48.9,48.3,48.2,48.3,47.6z M50.8,87.6
		c-2.2,2.2-5.1,4.3-7.3,5.9c-5.5,4.1-13.5,5.4-20.4,4c0,0,0,0,0,0c-0.1-2.7-2.6-4.1-3.9-6.2C19.1,91.1,19,91,18.9,91
		c2.4-2.4,3.9-5.6,6.1-8.2c2.3-2.8,5.1-5.2,7.6-7.8c4.2-4.5,8.4-9.3,10.9-14.9c2.2-5,2.4-11.1-1.8-15.2c-3.8-3.7-10-2.7-13.9,0.3
		c-3.9,3-5.7,7.4-7.2,11.9c-0.7-1.2-0.5-3.1-0.4-4.3c0.2-1.9,0.6-3.9,1.4-5.6c2-4.6,7-7.6,11.6-9c3.9-1.2,8-0.8,10.8,2.4
		c2.6,3,3.4,7.3,3.8,11c0,0.2,0.2,0.3,0.4,0.3c0.1,0,0.3,0,0.4-0.1c0.1,0.2,0.5,0.2,0.6-0.1c0.3-0.8,0.8-2.2,2-2
		c0.9,0.2,1.7,1.2,2.2,1.9c1.2,1.6,2.1,3.6,2.8,5.5c0.4,1.3,0.5,2.6,0.7,3.9c0.3,2.2,0.4,4.4,0.5,6.6c0.1,3.4-0.1,10.5-1,14.3
		C54.1,84.5,53.5,84.9,50.8,87.6z M73.4,66.2c-1.8,6.1-4.7,11.6-8.8,16.5c-1,1.2-2.1,2.3-3.2,3.3c-1,0.9-2.1,2-3.6,2
		c-3,0.1-1-5.7-0.7-7.1c0.7-3.1,0.8-6.4,0.9-9.6c0.1-3.6-0.1-7.2-0.6-10.7c-0.4-3.5-1.5-6.6-3.7-9.4c-0.7-0.9-1.6-1.9-2.8-2
		c-1.2-0.1-1.9,1.3-2.3,2.3c0.3-3.1,3.4-3.9,6.1-4.2c1.5-0.1,2.9-0.2,4.4-0.3c2.3-0.2,4.5-0.7,6.8-0.9c0.2,0,0.4,0,0.7-0.1
		c0.2,0,0.2,0,0.4,0c0,0,0.2,0,0.2,0c2.2-0.1,4.4,0,6.1,1.6c1.5,1.4,2,3.5,2.2,5.4C75.9,57.3,74.7,61.9,73.4,66.2z M76,57
		c0.2-2.2,0.3-4.6-0.4-6.8c0,0,0,0,0,0c3.4-2.7,1.7-8-2.2-8.9c2.2-0.8,4.6-0.9,6.4,0.8c2.2,2.1,2,5.7,1.2,8.4
		C80.3,53.1,78.5,55.6,76,57z"/>
	<path class="st4" d="M41.6,74.9c-4.8,6-10.9,10.7-16.7,15.6c-0.3,0.3,0.1,0.7,0.4,0.4C31.1,86,37.2,81.3,42,75.3
		C42.2,75,41.8,74.6,41.6,74.9z"/>
	<path class="st4" d="M51.7,56C49,61.9,46.8,68,43.1,73.3c-0.2,0.3,0.3,0.6,0.5,0.3c3.7-5.3,5.9-11.4,8.5-17.3
		C52.4,56,51.9,55.7,51.7,56z"/>
</g>
</svg>
