<?xml version="1.0" encoding="utf-8"?>
<!-- Generator: Adobe Illustrator 22.0.0, SVG Export Plug-In . SVG Version: 6.00 Build 0)  -->
<svg version="1.1" id="Layer_1" xmlns="http://www.w3.org/2000/svg" xmlns:xlink="http://www.w3.org/1999/xlink" x="0px" y="0px"
	 viewBox="0 0 300 300" style="enable-background:new 0 0 300 300;" xml:space="preserve">
<style type="text/css">
	.st0{fill-rule:evenodd;clip-rule:evenodd;fill:#EA6DB3;}
	.st1{fill-rule:evenodd;clip-rule:evenodd;fill:#FFA9C2;}
	.st2{fill-rule:evenodd;clip-rule:evenodd;fill:#A7E5DB;}
	.st3{fill-rule:evenodd;clip-rule:evenodd;fill:#1D262D;}
	.st4{fill-rule:evenodd;clip-rule:evenodd;fill:#FFDF00;}
	.st5{fill-rule:evenodd;clip-rule:evenodd;fill:#FF8B8D;}
</style>
<g>
	<g>
		<path class="st0" d="M232.1,251.8c-8.6-0.1-19.9-0.2-31.3-0.2c-14.2,0.1-28.2-1-42.2-3.2c-19.9-3.1-39.6-6.9-59.2-11.4
			c-4.4-1-8.7-2.7-13.2-3.8c-3-0.8-4.2-2.9-5-5.4c-0.3-0.8-0.1-2,0.4-2.8c1.2-2.4,3.1-3.9,6-4.3c8.7-1.2,17.5-1.3,26.2-1.2
			c20.9,0.1,41.8,0.2,62.6,2.2c9.9,1,19.7,2.8,29.4,4.7c15.8,3.1,31.6,6.4,47.3,9.8c4.5,1,8.8,2.6,13.1,3.9c1.8,0.6,3.1,1.7,4,3.4
			c0.8,1.6,0.6,3-0.5,4.4c-1.4,1.6-3.1,2.5-5.2,2.7c-3.8,0.4-7.5,0.9-11.3,1C247.2,251.8,241.1,251.7,232.1,251.8z"/>
		<path class="st1" d="M261.8,235.1c-11.4-2.4-22.9-5-34.3-7.2c-15-2.9-30-5.9-45.1-8.3c-8.4-1.3-17-1.5-25.6-1.9
			c-18.9-0.9-37.8-1.2-56.7-0.8c-0.8,0-1.6-0.1-2.4-0.1c0.1-1.8,1.7-1.7,2.6-1.9c5.6-1.3,11.2-2.8,16.9-3.5c17-2,34-3.4,51.2-3.8
			c21.9-0.6,43.2,2.8,63.9,10c9.6,3.3,18.6,8.1,26.8,14.1c1.1,0.8,2.1,1.8,3.1,2.7C262.1,234.6,261.9,234.8,261.8,235.1z"/>
		<path class="st1" d="M259.1,254.6c-3.8,3.6-8.1,5-12.5,6.4c-13.6,4.4-27.5,6.3-41.7,6.1c-5.6-0.1-11.1-0.1-16.7-0.6
			c-9.5-0.8-18.9-2.4-28.1-4.8c-6.7-1.8-13.5-3.2-20.2-5.1c-9.4-2.7-18.7-5.6-27.9-8.6c-5.5-1.8-10.8-4-15.7-7.1
			c-0.8-0.5-1.4-1.1-3.1-2.5c2.2,0.5,3.2,0.7,4.1,0.9c23.3,5.4,46.7,9.8,70.3,13c7.7,1,15.4,1.6,23.2,1.8
			c19.9,0.4,39.8,0.4,59.7,0.5C253.3,254.7,256.2,254.6,259.1,254.6z"/>
		<path class="st2" d="M66.8,213.5c-1.3-1.1-2-1.5-2.5-2.1c-6.5-8.3-9.7-17.6-9.4-28.1c0.1-3.2,0.9-6.3,2.7-9
			c0.6-0.9,1.6-1.6,2.4-2.3c2.1,0.7,2.3,2.4,2.6,3.9c0.7,3.5,1.4,7,1.8,10.5C65.3,195,65.9,203.7,66.8,213.5z"/>
		<path class="st2" d="M54.8,225.5c-6.2-0.6-10.5-2.5-14.4-5.1c-3.7-2.4-6.8-5.5-8.8-9.4c-0.6-1.2-0.9-2.6-1.2-3.9
			c-0.2-0.9,0.9-2,1.8-1.8c1.3,0.3,2.7,0.7,3.8,1.4C43.4,211.2,49.1,217.3,54.8,225.5z"/>
		<path class="st2" d="M30,244.6c2.6-3.5,6.4-4.1,11.5-4.8C37.6,243.4,33.8,244,30,244.6z"/>
		<path class="st2" d="M31.9,165.5c3.8,3.3,4.5,5.1,4.8,11.4c-2.1-1-2.8-2.9-3.6-4.6C32.2,170.3,31.1,168.1,31.9,165.5z"/>
		<path class="st2" d="M83.9,181.1c-0.3-3.2,0-5.2,2.3-6.4C86.6,177.5,86.6,177.5,83.9,181.1z"/>
		<path class="st3" d="M77.3,226.1c1.7-4.5,4.9-7,8.8-8.8C95,213,104.3,210,114,209c16.2-1.6,32.5-3.5,48.8-4.3
			c24.7-1.1,48.9,2.1,72.2,10.7c12.2,4.5,23.5,10.8,33.3,19.5c3.3,2.9,5.5,6.1,6.6,10.4c0.5,1.7,0.4,3.1-0.9,4.3
			c-2.2,2.3-4.6,4.3-7.4,5.9c-8.7,5.1-18.1,8.2-27.7,10.7c-12.7,3.3-25.5,4-38.5,3.7c-6.5-0.2-13.2,0-19.6-1.7
			c-0.4-0.1-0.8-0.2-1.2-0.2c-8.9,0.6-17.3-2-25.7-4.5c-12.2-3.5-24.4-7.2-36.6-11c-9-2.8-17.8-5.9-25.7-11.1
			c-2.8-1.9-5.6-3.8-8.3-5.9C79.7,232.9,79.1,231.7,77.3,226.1z M232.1,251.8c8.9,0,15.1,0,21.3-0.1c3.8-0.1,7.5-0.6,11.3-1
			c2-0.2,3.8-1.1,5.2-2.7c1.2-1.4,1.3-2.8,0.5-4.4c-0.9-1.7-2.2-2.9-4-3.4c-4.4-1.4-8.7-3-13.1-3.9c-15.7-3.4-31.5-6.7-47.3-9.8
			c-9.8-1.9-19.6-3.7-29.4-4.7c-20.8-2-41.7-2.2-62.6-2.2c-8.7,0-17.5,0-26.2,1.2c-2.9,0.4-4.7,1.9-6,4.3c-0.4,0.8-0.6,2-0.4,2.8
			c0.8,2.5,2,4.6,5,5.4c4.4,1.1,8.7,2.8,13.2,3.8c19.6,4.5,39.3,8.2,59.2,11.4c14,2.2,28,3.3,42.2,3.2
			C212.2,251.5,223.5,251.7,232.1,251.8z M261.8,235.1c0.1-0.3,0.3-0.5,0.4-0.8c-1-0.9-2-1.9-3.1-2.7c-8.3-6-17.2-10.8-26.8-14.1
			c-20.7-7.2-41.9-10.6-63.9-10c-17.1,0.5-34.2,1.8-51.2,3.8c-5.7,0.7-11.3,2.2-16.9,3.5c-0.9,0.2-2.5,0.1-2.6,1.9
			c0.8,0,1.6,0.1,2.4,0.1c18.9-0.4,37.8-0.1,56.7,0.8c8.5,0.4,17.1,0.6,25.6,1.9c15.1,2.4,30.1,5.4,45.1,8.3
			C238.9,230.1,250.4,232.7,261.8,235.1z M259.1,254.6c-2.9,0-5.8,0.1-8.7,0.1c-19.9-0.1-39.8-0.2-59.7-0.5
			c-7.7-0.1-15.5-0.7-23.2-1.8c-23.6-3.2-47.1-7.7-70.3-13c-0.9-0.2-1.9-0.4-4.1-0.9c1.7,1.4,2.4,2.1,3.1,2.5
			c4.9,3.1,10.2,5.3,15.7,7.1c9.3,3,18.6,5.9,27.9,8.6c6.7,1.9,13.5,3.3,20.2,5.1c9.2,2.4,18.6,4,28.1,4.8
			c5.5,0.5,11.1,0.5,16.7,0.6c14.2,0.3,28.2-1.7,41.7-6.1C251,259.6,255.3,258.2,259.1,254.6z"/>
		<path class="st3" d="M71.8,217.7c-2.2,1.6-4.3,1.6-6.2,0.2c-0.8-0.6-1.5-1.3-2.2-2c-8.2-9.4-12.4-20.2-12-32.7
			c0.1-3.2,0.8-6.3,2.4-9.1c0.8-1.5,1.9-3,3.2-4.2c2.9-2.6,6.2-1.9,7.7,1.6c0.9,2,1.5,4.1,1.8,6.3c0.9,6.1,1.7,12.2,2.2,18.3
			C69.3,203.2,69.7,210.6,71.8,217.7z M66.8,213.5c-0.8-9.8-1.5-18.5-2.4-27.1c-0.4-3.5-1.1-7.1-1.8-10.5c-0.3-1.4-0.5-3.2-2.6-3.9
			c-0.8,0.8-1.8,1.4-2.4,2.3c-1.8,2.7-2.6,5.8-2.7,9c-0.3,10.5,2.9,19.9,9.4,28.1C64.7,212,65.4,212.4,66.8,213.5z"/>
		<path class="st3" d="M59.2,224.9c-2,4.1-2.6,4.7-5.8,4.2c-9.6-1.5-17.7-5.8-23.4-13.9c-1.8-2.5-3-5.2-3.1-8.3
			c-0.2-3.3,1.8-5.2,5-5.3c2.3,0,4.3,0.9,6.1,2.1c4.6,2.8,8.7,6.3,12.2,10.4C53.2,217.5,56.1,221.1,59.2,224.9z M54.8,225.5
			c-5.6-8.2-11.4-14.3-18.7-18.9c-1.1-0.7-2.5-1-3.8-1.4c-1-0.2-2,0.8-1.8,1.8c0.3,1.3,0.6,2.7,1.2,3.9c2,4,5.1,7,8.8,9.4
			C44.3,223,48.6,224.9,54.8,225.5z"/>
		<path class="st3" d="M49.3,240.5c-0.6,0.7-0.7,1.2-1.1,1.3c-4.9,2-9.9,4.1-14.8,6c-1.4,0.5-3.1,0.6-4.7,0.7
			c-1.5,0.1-2.7-0.5-3.5-1.9c-0.8-1.4-0.3-2.9,0.7-3.8c1.4-1.4,2.9-2.7,4.6-3.7c4.1-2.3,8.6-2.9,13.2-2.8
			C46.4,236.4,48,238,49.3,240.5z M30,244.6c3.8-0.5,7.6-1.2,11.5-4.8C36.5,240.4,32.7,241,30,244.6z"/>
		<path class="st3" d="M41.1,178.8c0,1.7,0.7,4.1-1.6,4.9c-2,0.7-3.1-1.4-4.3-2.6c-3.5-3.4-5.9-7.5-6.8-12.3
			c-0.3-1.5-0.4-3.2-0.1-4.7c0.5-2.9,3.7-4.1,5.9-2.2c1.3,1.1,2.4,2.6,3.3,4.1C39.8,169.9,40.5,174.2,41.1,178.8z M31.9,165.5
			c-0.7,2.6,0.3,4.7,1.2,6.8c0.7,1.7,1.4,3.5,3.6,4.6C36.4,170.7,35.6,168.9,31.9,165.5z"/>
		<path class="st3" d="M79.9,181.2c-0.4-3.1,0.5-5.9,2.6-8.2c0.9-1,2.1-1.7,3.4-2.2c2.1-0.8,3.9,0.5,4.4,2.7c0.4,2,0.1,3.9-0.7,5.8
			c-1,2.4-2.3,4.5-4.5,6.1c-2.2,1.6-4.4,0.8-4.9-1.8C80,182.8,80,182,79.9,181.2z M83.9,181.1c2.6-3.6,2.6-3.6,2.3-6.4
			C83.9,175.9,83.6,177.8,83.9,181.1z"/>
	</g>
	<path class="st4" d="M141.5,47c0.3-1.9,1.1-3.3,3.2-3.8c0.9-0.2,1.8-0.7,2.7-1.1c0.6-0.3,0.5-1.8-0.1-2.1c-0.7-0.3-1.5-0.4-2.2-0.6
		c-0.5-0.2-1.1-0.4-1.9-0.8c0.7-1.3,1.1-2.6,2-3.6c2-2.5,6.1-1.8,7.3,1.1c0.3,0.7,0.5,1.5,0.7,2.3c0.6,2.6,2,4.6,4,6.4
		c2.7,2.6,5.2,5.5,7.5,8.4c1.9,2.3,3,5.1,3.8,8c3.2,12.1,5.7,24.4,8,36.7c1.7,9,3.9,17.9,6,26.8c2,8.2,5.6,15.8,10.7,22.5
		c6,7.7,11.9,15.4,18.3,22.9c2.9,3.5,6.6,6.3,10,9.3c3.2,2.7,6.5,5.2,9.8,7.8c2.9,2.4,4.9,5.2,4.2,9.3c-0.1,0.7-0.1,1.6,0.2,2.3
		c1.4,3,0.7,5.4-2.1,7.8c-4.9-0.4-10.2-0.8-15.5-1.5c-1.7-0.2-3.4-1-5.1-1.6c-4.3-1.6-8.6-3.2-12.8-5.1c-3.3-1.4-6.6-2.9-9.6-4.8
		c-11.9-7.5-22.1-16.9-30.8-28c-0.4-0.5-0.6-1.1-1.1-1.4c-0.6-0.3-1.7-0.6-2-0.3c-0.5,0.4-0.7,1.5-0.5,2.1c0.2,0.9,0.8,1.8,1.5,2.6
		c9.8,12,21.1,22.3,34.5,30c2.6,1.5,5.4,2.4,8.2,3.6c3.5,1.4,7,2.9,10.6,4.1c3.4,1.2,6.8,2.1,10.5,3.2c-1.2,0.5-2.2,1.2-3.4,1.3
		c-2.4,0.3-4.8,0.4-7.1,0.5c-3.4,0-6.8-0.1-10.2-0.1c-18.8-0.1-34.9-6.8-48.8-19.3c-20.1-18.2-29.6-41.5-31.9-68
		c-1.2-14.4,0-28.7,3.7-42.6c2.6-9.6,7.2-18.5,11.7-27.4c1.4-2.7,3.2-5,5.7-6.8c-4,9.3-5,19.2-6,29.1c0,0.2,0,0.5,0.1,0.6
		c0.5,0.5,0.9,1.2,1.5,1.5c0.2,0.1,1.2-0.5,1.3-0.9c0.5-1.9,0.8-3.9,1.1-5.8c1-7.5,1.8-15,4.9-22C145.2,47.5,144.5,46.9,141.5,47z
		 M157,127.5c-1.4,3.3-1.3,6.3-0.7,9.2c1.2,6,5.6,8.2,11.2,5.6c3.3-1.6,5.5-3.9,5.3-7.9c-0.1-1.8,0-3.6-0.3-5.3
		c-0.5-2.8-2.3-4-5.2-3.6C163.9,126,160.6,126.8,157,127.5z M155,117.2c-0.3-1.2-0.3-2.1-0.8-2.7c-0.7-0.9-1.6-1.8-2.6-2.2
		c-1.4-0.5-2.7,0.3-3.5,1.5c-1.8,2.6-1.6,5.7,0.5,8.1c1.3,1.4,3.6,1.4,4.5-0.2C154,120.2,154.5,118.5,155,117.2z M175.2,113.9
		c-0.2-0.4-0.6-1.9-1.4-3.2c-1.2-1.7-4.1-1.3-4.9,0.6c-1.2,2.6-1.2,5.3,0.3,7.9c0.8,1.4,2.8,1.6,4.1,0.5
		C174.8,118.6,175.3,117,175.2,113.9z"/>
	<path class="st0" d="M168.7,128.8c0.2,2.3,0.5,3.8,0.5,5.3c0,3-1.5,4.7-4.4,5.4c-2.5,0.7-4.2-0.3-4.9-2.8c-0.5-1.7-0.5-2.3,0.3-6.1
		C162.7,130.1,165.3,129.6,168.7,128.8z"/>
	<path class="st5" d="M146.2,126.9c-2.9,0-5.4,2.4-5.4,5.4c0,2.9,2.4,5.4,5.4,5.4c2.9,0,5.4-2.4,5.4-5.4
		C151.6,129.4,149.1,126.9,146.2,126.9z"/>
	<path class="st5" d="M182.9,125.3c0-0.1-0.1-0.1-0.1-0.2c-1.4-2-4.5-2.9-6.4-0.8c0,0.1-0.1,0.1-0.2,0.2c-2.5,2.1-1,6.3,1.9,7.1
		c1.5,0.4,3,0,4.1-1.1C183.7,129,183.7,127,182.9,125.3z"/>
	<path class="st3" d="M184.8,118.2c1.7-0.3,3.2-0.6,4.7-0.9c8-1.5,15.8-1.1,23.5,1.9c4.5,1.8,8.4,4.4,11.8,8.3
		c1.7-0.8,3.2-1.6,4.8-2.2c1-0.4,2.1-0.5,2.5,0.7c0.2,0.5-0.3,1.4-0.6,2c-0.3,0.5-0.9,0.8-1.6,1.4c0.8,0.6,1.5,1.2,2.2,1.7
		c2.7,1.9,2.8,2.1,0.1,4.6c-1.2,1.1-0.5,2.2-0.8,3.2c-0.2,0.5-0.6,1.1-1,1.2c-0.4,0.1-1.2-0.1-1.5-0.5c-0.8-0.8-1.5-1.8-2.5-2.9
		c-1.5,1.4-0.6,3.2-1.3,4.4c-0.3,0.4-1,1-1.3,0.9c-0.6-0.1-1.6-0.6-1.7-1.2c-0.4-1.3-0.4-2.7-0.5-3.9c-2.8-1.1-3.1,2.4-5.2,2.4
		c-1.8-1.6-2.1-2-1-3.1c2.6-2.5,3.3-5.7,4.1-8.9c-8.7-7.5-21.6-9.5-33.5-4.9c0.2,1.2,0.2,2.6,0.6,3.9c1.9,6.3,4.6,12.4,8.6,17.6
		c6.3,8.2,12.8,16.3,19.3,24.3c3.4,4.2,7.7,7.5,12.1,10.6c2.1,1.5,4.2,3.1,6.1,4.7c3.8,3.2,6.5,7,6.8,12.1c0,0.6,0.2,1.2,0.4,1.7
		c1.2,2.6,2,5.1,0.1,7.9c-2.2,3.2-4.4,6.1-8.6,6.7c-7.6,1.1-15,3.8-22.9,3.1c-0.3,0-0.6,0.4-0.9,0.6c4,6.8,4,6.8,5.4,16.2
		c1.6,0.2,3.3,0.3,5.1,0.5c2.2,0.3,4.2,1.1,5.8,2.7c1.9,2,1.2,4.8-1.4,5.7c-0.8,0.2-1.6,0.3-2.3,0.4c-3.6,0.3-6.5-0.4-11-2.8
		c-0.1-3.2-0.5-6.6-0.4-9.9c0.1-4.1-1.6-7.3-4.5-10c-1.1-1.1-2.3-2.2-3.5-3.2c-19.5-0.6-36.5-7.5-51.3-20.5c-0.8,1-1.6,1.9-2.3,2.8
		c-6,8.7-9.6,18.3-10.7,28.8c-0.2,1.6-0.1,2.9,0.9,4.4c1.5,2.2,0.5,4.7-2.1,5.7c-4.8,1.8-9.4,1.1-13.8-1.1c-0.7-0.3-1.2-1.6-1.2-2.4
		c-0.1-1.5,1.5-3.2,2.8-3.5c1-0.2,2-0.1,3-0.1c2,0,3.9,0,6.2,0c1.1-6.9,1.8-13.7,4.7-19.9c2.8-5.9,6-11.6,9.1-17.7
		c-0.5-1.9-2.3-2.9-3.6-4.3c-5.7-5.9-10.2-12.8-13.9-20c-4.2-8.3-7.2-17.2-9.4-26.4c-0.6-2.5-1-5.1-1.5-7.6c-0.3-1.5-0.8-3-1.2-4.5
		c-7.2,2.2-13.4,8.7-14.9,15.3c-0.6,2.7,0.7,5.4,3.4,7c0.9,0.5,1.8,0.7,2.7,1.2c0.7,0.4,1.3,0.9,1.8,1.5c0.7,0.8,0.9,1.9,0,2.6
		c-0.5,0.3-1.4,0.3-2.1,0.1c-0.7-0.2-1.2-0.7-2.1-1.3c1,4.9,1,4.9-0.4,6.7c-0.5-0.3-1-0.6-1.4-0.9c-0.5-0.3-0.9-0.6-1.5-1
		c-0.3,0.6-0.4,1.2-0.8,1.6c-1,1-2.5,1-3,0c-0.5-1.2-0.8-2.5-1.4-4.3c-0.8,0.7-1.5,1.1-1.8,1.7c-0.6,1-1,2.1-1.5,3
		c-2.2,0.1-2.9-1.1-2.5-2.6c0.4-1.5,1.2-2.9,2-4.7c-0.4-0.4-1.1-0.8-1.5-1.3c-0.7-1-0.5-2,0.5-2.5c0.8-0.5,1.9-0.5,2.8-1
		c1.4-0.8,2.6-1.8,2.8-3.6c1.5-10.3,7.9-16.6,16.8-20.9c0.5-0.3,1-0.6,1.8-1.1c0-1.7,0-3.4,0-5.2c-0.2-10.8,0.7-21.5,2.6-32.1
		c1.1-6.1,3-12,5.6-17.6c1.9-4,3.4-8.1,5.4-12c1.8-3.5,3.8-7,6.2-10.2c2.2-2.8,3.4-5.7,3.7-9.2c0.5-6,4.4-8.9,10.1-7.9
		c3,0.5,5.1,2.1,6,5.1c0.3,0.9,0.5,1.9,0.7,2.9c0.4,1.6,1.3,2.8,2.5,3.9c2.8,2.5,5.4,5.3,8,8.1c2.5,2.7,3.6,6.2,4.4,9.7
		c2.1,8.7,4.2,17.4,6.1,26.2c2.1,9.7,4,19.5,6,29.2C183.9,116.1,184.4,116.9,184.8,118.2z M141.5,47l-0.3,0.2
		c-2.5,1.8-4.3,4.1-5.7,6.8c-4.6,8.8-9.1,17.7-11.7,27.4c-3.8,14-5,28.3-3.7,42.6c2.3,26.5,11.8,49.8,31.9,68
		c13.8,12.6,30,19.2,48.8,19.3c3.4,0,6.8,0.1,10.2,0.1c2.4,0,4.8-0.1,7.1-0.5c1.1-0.2,2.2-0.8,3.4-1.3c-3.7-1.1-7.2-2.1-10.5-3.2
		c-3.6-1.2-7.1-2.7-10.6-4.1c-2.8-1.1-5.6-2.1-8.2-3.6c-13.4-7.8-24.7-18-34.5-30c-0.6-0.8-1.2-1.6-1.5-2.6c-0.2-0.7,0-1.7,0.5-2.1
		c0.3-0.3,1.4,0,2,0.3c0.5,0.2,0.7,0.9,1.1,1.4c8.7,11,18.9,20.5,30.8,28c3,1.9,6.3,3.4,9.6,4.8c4.2,1.8,8.5,3.4,12.8,5.1
		c1.7,0.6,3.4,1.4,5.1,1.6c5.3,0.6,10.6,1,15.5,1.5c2.8-2.4,3.6-4.8,2.1-7.8c-0.3-0.7-0.4-1.6-0.2-2.3c0.7-4.1-1.3-6.9-4.2-9.3
		c-3.2-2.6-6.6-5.1-9.8-7.8c-3.5-3-7.1-5.9-10-9.3c-6.3-7.4-12.3-15.2-18.3-22.9c-5.2-6.7-8.7-14.3-10.7-22.5
		c-2.2-8.9-4.4-17.8-6-26.8c-2.3-12.3-4.8-24.6-8-36.7c-0.8-3-1.9-5.7-3.8-8c-2.4-2.9-4.8-5.8-7.5-8.4c-2-1.9-3.4-3.8-4-6.4
		c-0.2-0.8-0.3-1.6-0.7-2.3c-1.2-2.9-5.3-3.6-7.3-1.1c-0.8,1-1.3,2.3-2,3.6c0.9,0.4,1.4,0.6,1.9,0.8c0.7,0.2,1.5,0.3,2.2,0.6
		c0.6,0.3,0.7,1.8,0.1,2.1c-0.9,0.4-1.8,0.9-2.7,1.1C142.7,43.7,141.8,45.1,141.5,47z"/>
	<path class="st3" d="M141.5,47c2.9-0.1,3.6,0.5,2.7,2.7c-3.1,7-3.9,14.5-4.9,22c-0.3,2-0.6,3.9-1.1,5.8c-0.1,0.4-1.1,1-1.3,0.9
		c-0.6-0.3-1.1-1-1.5-1.5c-0.1-0.1-0.1-0.4-0.1-0.6c1-9.9,2.1-19.8,6-29.1C141.3,47.2,141.5,47,141.5,47z"/>
	<path class="st3" d="M157,127.5c3.6-0.7,6.9-1.5,10.2-2c2.9-0.5,4.7,0.7,5.2,3.6c0.3,1.7,0.3,3.6,0.3,5.3c0.2,3.9-1.9,6.3-5.3,7.9
		c-5.6,2.6-9.9,0.5-11.2-5.6C155.7,133.8,155.6,130.8,157,127.5z M168.7,128.8c-3.4,0.8-6.1,1.3-8.5,1.9c-0.7,3.7-0.7,4.4-0.3,6.1
		c0.7,2.5,2.5,3.5,4.9,2.8c2.9-0.8,4.3-2.5,4.4-5.4C169.2,132.6,169,131,168.7,128.8z"/>
	<path class="st3" d="M155,117.2c-0.5,1.3-1,3-1.8,4.5c-0.9,1.7-3.2,1.7-4.5,0.2c-2.1-2.4-2.3-5.5-0.5-8.1c0.9-1.2,2.1-2,3.5-1.5
		c1,0.3,1.9,1.3,2.6,2.2C154.7,115.1,154.7,116,155,117.2z"/>
	<path class="st3" d="M175.2,113.9c0.1,3-0.4,4.6-1.9,5.8c-1.3,1.1-3.3,0.9-4.1-0.5c-1.5-2.6-1.5-5.3-0.3-7.9
		c0.8-1.9,3.7-2.3,4.9-0.6C174.7,112,175.1,113.5,175.2,113.9z"/>
</g>
</svg>
