<?xml version="1.0" encoding="utf-8"?>
<!-- Generator: Adobe Illustrator 22.0.0, SVG Export Plug-In . SVG Version: 6.00 Build 0)  -->
<svg version="1.1" xmlns="http://www.w3.org/2000/svg" xmlns:xlink="http://www.w3.org/1999/xlink" x="0px" y="0px"
	 viewBox="0 0 1000 1000" style="enable-background:new 0 0 1000 1000;" xml:space="preserve">
<style type="text/css">
	.st0{fill:#F68848;}
</style>
<g id="Layer_23">
	<g>
		<path class="st0" d="M784.2,446.2c-2.5,0-5.1,0.5-7.6,0.8c-0.7,0.1-1.4,0.5-2.7,0.9c1.1,0.8,1.7,1.4,2.4,1.7
			c1.1,0.4,2.2,0.7,3.3,0.9c5,0.8,10.1,0.6,15.2,0.5c1.8,0,3.2-0.6,4-2.3c0-0.4,0-0.9,0-1.3c-0.9-0.3-1.9-0.9-2.8-0.9
			C792.2,446.3,788.2,446.2,784.2,446.2z"/>
		<path class="st0" d="M226.6,424c3.2,0.5,6.5,0.8,9.7,1.5c11.5,2.5,23,5.2,34.4,7.8c2.5,0.6,5.1,1,7.7,1.4c0.1-0.3,0.1-0.5,0.2-0.8
			c-1.9-0.6-3.8-1.2-5.7-1.7c-12.7-3-25.3-5.9-38-8.8c-2.5-0.6-5.1-1.3-7.6-1.9c-1.3-0.3-2.6-0.6-3.9,0.3
			C224.5,423.5,225.1,423.8,226.6,424z"/>
		<path class="st0" d="M645.5,319.3c0.9-0.6,1.9-1.3,1.9-3c-1,0.4-2,0.5-2.7,1c-1.6,0.9-3.1,1.9-4.6,3c-2.2,1.6-4.5,3.3-6.6,5
			c-7.3,5.7-14.5,11.4-21.8,17.1c-0.7,0.5-1.3,1.1-1.9,1.7c0.1,0.1,0.3,0.3,0.4,0.4c1.2-0.8,2.4-1.5,3.6-2.4
			c7.6-5.5,15.1-11.1,22.7-16.6C639.4,323.3,642.5,321.3,645.5,319.3z"/>
		<path class="st0" d="M214.2,502c-2.9-1.5-5.9-2.9-8.7-4.5c-2.9-1.6-5.9-3.2-8.6-5.1c-2.7-1.9-6.2-2-8.6-4.4
			c-0.2-0.2-0.5-0.2-0.8-0.3c-1.5-0.7-3-1.4-4.5-2.2c-1.4-0.7-2.7-1.5-4.1-2.1c-0.4-0.2-0.9-0.1-1.6-0.2
			c4.1,3.5,39.8,22.6,43.7,23.1c-0.5-0.4-1-0.9-1.6-1.3C217.7,504.1,216,503,214.2,502z"/>
		<path class="st0" d="M645.1,425.6c2,0.1,3.1-0.7,4.3-1.4c8.4-5.4,16.9-10.9,25.3-16.4c0.5-0.4,1.1-0.8,1.5-1.2
			c0.3-0.3,0.5-0.8,1-1.7c-1.1,0.2-1.7,0.2-2.3,0.5c-0.8,0.4-1.6,0.8-2.2,1.4c-6.3,5.3-13.7,8.7-20.3,13.6c-0.3,0.2-0.6,0.4-0.9,0.6
			c-0.9,0.5-1.6,0.8-2.2,1.9c-0.4,0.8-1.8,0.9-2.8,1.5C646.1,424.4,645.8,424.9,645.1,425.6z"/>
		<path class="st0" d="M335.4,332.8c1.1-1.2,0.6-2.6,0.4-3.8c-0.3-1.9-0.8-3.7-1.2-5.5c-1.6-6.6-3.2-13.1-4.8-19.7
			c-0.3-1-0.7-2-1.1-3c-0.3,0.1-0.5,0.1-0.8,0.2c2.3,10.4,4.4,20.8,6.8,31.2C334.8,332.4,335.1,332.6,335.4,332.8z"/>
		<path class="st0" d="M757.2,359.8c0.2-0.2,0.3-0.5,0.5-0.8c-2-0.6-3.4,0.3-4.7,1.3c-2.2,1.6-4.2,3.3-6.3,5c-1.3,1-2.6,2.1-3.8,3.2
			c-0.7,0.6-1.3,1.3-1.1,2.8c0.6-0.2,1-0.3,1.3-0.5C747.8,367.1,752.5,363.4,757.2,359.8z"/>
		<path class="st0" d="M643.1,400.1c-0.4-0.1-0.9,0-1.3,0.2c-3.2,1.5-6.2,3.4-8.6,6.1c-0.1,0.1-0.1,0.4-0.3,0.9c0.5,0,0.8,0.1,1,0
			c2.6-1,5.2-1.9,7.7-3.1c1-0.4,1.8-1.2,2.6-1.9c0.3-0.3,0.5-1,0.3-1.3C644.2,400.6,643.6,400.3,643.1,400.1z"/>
		<path class="st0" d="M301.4,296.1c-0.1,0.2-0.3,0.4-0.3,0.5c0.3,2,7.3,22.4,8,23.3C309.5,316.9,303.7,298.8,301.4,296.1z"/>
		<path class="st0" d="M599.7,510.8c3.3,0.5,6.6,0.9,9.9,1.3c0.3,0,0.6-0.4,1.3-0.8c-4.2-1.5-8.1-2.2-12.7-1.5
			C599.1,510.3,599.4,510.7,599.7,510.8z"/>
		<path class="st0" d="M610.8,634.1c0.7,2.6,1.6,5.1,3.3,7.3c0.2,0.2,0.5,0.3,0.8,0.5c-0.9-3.2-1.1-6.6-3.7-9.6
			C611,633.2,610.7,633.7,610.8,634.1z"/>
		<path class="st0" d="M639,511.6c-0.9,0.3-1.2,1.1-1.1,2.1c2.1,0.9,4.4,0.6,6.2-1.2c-0.7-0.4-1.3-1.1-1.7-1
			c-0.8,0.1-1.4,0.8-1.9,1.1C639.9,512.1,639.3,511.5,639,511.6z"/>
		<path class="st0" d="M436.3,368.7c2.3-4.4,3.9-9.1,5.1-13.9C439.2,359.3,437.5,363.9,436.3,368.7z"/>
		<path class="st0" d="M286.9,436.2c-1.2-1.6-2.5-1.7-3.8-1.8c-1.1-0.1-2.4-0.3-3.7,1C282,436.5,284.2,436.6,286.9,436.2z"/>
		<path class="st0" d="M590.4,623c0.9-2.1,0.6-5-0.9-6.8C588.9,619.4,589.2,621.5,590.4,623z"/>
		<path class="st0" d="M759.3,368.1c2.2,0.6,3.4,0,4.1-2.2C760.9,365.5,759.8,366.1,759.3,368.1z"/>
		<path class="st0" d="M596.1,575.2c-0.8,1.5-0.6,2.9,0.5,4.3c1.3-0.6,1.6-1.6,1.4-2.6C597.8,575.9,597.4,575.1,596.1,575.2z"/>
		<path class="st0" d="M257.4,670.5c-2,0.9-4,1.7-5.3,3.6c-0.1,0.2,0.1,0.5,0.2,1.1C254.7,674.1,256,672.3,257.4,670.5z"/>
		<path class="st0" d="M603.1,621.7c0,2.2,0.5,3.1,2.6,3.9C605.8,623.7,605,622.5,603.1,621.7z"/>
		<path class="st0" d="M246.2,689.9c2.3-1.2,3.9-2.7,4.7-4.7C249.1,686.4,247.5,687.7,246.2,689.9z"/>
		<path class="st0" d="M612.8,511.8c1.3,0.2,2.7,0.4,4.3,0.6c-0.5-0.8-0.8-1.4-1.1-2c-1.1,0.3-2.2,0.6-3.3,0.9
			C612.8,511.4,612.8,511.6,612.8,511.8z"/>
		<path class="st0" d="M672.4,399.2c2.1,0.1,2.5-0.1,3.3-1.7C673.8,397,673.3,397.2,672.4,399.2z"/>
		<path class="st0" d="M228.9,494.7c-1.6,0.9-2.1,2.2-2.8,3.4C227.4,497.5,229,496.9,228.9,494.7z"/>
		<path class="st0" d="M202.7,367.2c-0.6-1.6-1.6-2.9-2.8-4.2c-0.1,0.1-0.3,0.2-0.4,0.3c0.9,1.4,1.8,2.8,2.8,4.1
			C202.4,367.4,202.5,367.3,202.7,367.2z"/>
		<path class="st0" d="M445.4,280.5c-1,1.2-0.8,2.2,0,3.3C445.7,282.8,446.5,281.7,445.4,280.5z"/>
		<path class="st0" d="M446,273.9c-0.2,1.5-0.4,3-0.6,4.5c0.2,0,0.4,0,0.6,0C446.5,277,446.8,275.5,446,273.9z"/>
		<path class="st0" d="M219.4,389.6c-0.1-1.3-0.6-2.3-2.2-2.9C217.5,388.2,218.2,389.1,219.4,389.6z"/>
		<path class="st0" d="M206.8,372.7c0.1-0.1,0.3-0.2,0.4-0.3c-0.8-1-1.6-2-2.5-3c-0.2,0.1-0.3,0.2-0.5,0.3
			C204.8,371,205.7,371.9,206.8,372.7z"/>
		<path class="st0" d="M261.9,661.8c-0.7,0.9-1.3,1.6-1.8,2.3C262.1,664,262.2,663.8,261.9,661.8z"/>
		<path class="st0" d="M626,361.7c0.4-0.8,0.6-1.3,1-2.2c-1,0.2-1.6,0.3-2.6,0.4C625.1,360.7,625.4,361.1,626,361.7z"/>
		<path class="st0" d="M229.1,557.7c-0.6-1.1-0.9-1.8-1.5-2.7C227.2,557.1,227.2,557.2,229.1,557.7z"/>
		<path class="st0" d="M599.4,583c0.8,1,1.4,1.7,2,2.4C601.3,583.6,601.3,583.6,599.4,583z"/>
		<path class="st0" d="M238.6,492.9c-0.4,0.1-0.8,0.4-0.9,0.8c-0.1,0.2,0.4,0.8,0.7,0.8c0.4,0,0.7-0.4,1.3-0.7
			C239.1,493.4,238.8,492.9,238.6,492.9z"/>
		<path class="st0" d="M604.9,578.4c0-1.5,0-1.5-1.6-1.8C603.4,577.6,603.7,578.3,604.9,578.4z"/>
		<path class="st0" d="M794.6,458.7c1.3,0.3,2.3,0.4,2.7-0.9C796.2,457.2,795.6,457.8,794.6,458.7z"/>
		<path class="st0" d="M591.4,601.4c0.4-1.7,0.4-1.7-0.9-2.2C590.8,600,591.1,600.7,591.4,601.4z"/>
		<path class="st0" d="M144.3,506c0.5-0.9,0.8-1.4,1.2-2C143.9,504,143.9,504,144.3,506z"/>
		<path class="st0" d="M159.3,653.1c1.6,0,1.6,0,1.2-1.9C160,652,159.7,652.5,159.3,653.1z"/>
		<path class="st0" d="M563.6,439.1c1.3,0,1.5-0.6,1.1-1.6C563.8,437.7,563.5,438.2,563.6,439.1z"/>
		<path class="st0" d="M791.2,475.6c0.3-0.5,0.5-1,0.9-1.7C790.6,474.1,790.6,474.1,791.2,475.6z"/>
		<path class="st0" d="M718.4,448.8c1-0.3,1.7-0.5,2-1.5C719.3,447.3,718.9,447.8,718.4,448.8z"/>
		<path class="st0" d="M644,517.8c0,0.1,0,0.3,0,0.4c0.7,0,1.4-0.1,2-0.1c0-0.2,0-0.3,0-0.5C645.3,517.7,644.7,517.8,644,517.8z"/>
		<path class="st0" d="M196.3,358.5c-0.3-0.6-0.7-1.2-1.2-2.1C194.6,357.8,195.2,358.3,196.3,358.5z"/>
		<path class="st0" d="M215.2,383.6c-0.1,0.1-0.3,0.2-0.4,0.3c0.4,0.5,0.7,1,1.3,1.8C216.3,384.4,215.8,384,215.2,383.6z"/>
		<path class="st0" d="M268.7,452.7c0.5,0.5,1.1,1,1.6,1.5c0.1-0.2,0.3-0.3,0.4-0.5c-0.6-0.5-1.2-0.9-1.8-1.4
			C268.9,452.4,268.8,452.6,268.7,452.7z"/>
		<path class="st0" d="M604.7,517.8c-0.5,0.1-1,0.1-1.5,0.2c0,0.2,0,0.4,0,0.6c0.2-0.1,0.5-0.1,0.7-0.2c0,0.1,0,0.1,0,0.2
			c0.6,0,1.2-0.1,1.7-0.1c0-0.1,0-0.3,0-0.4c-0.3,0-0.6,0-0.9,0.1C604.8,518.1,604.7,518,604.7,517.8z"/>
		<path class="st0" d="M622.9,524.4c0.5-0.1,1.1-0.2,1.6-0.4c0-0.2-0.1-0.3-0.1-0.5c-0.5,0.1-1.1,0.2-1.6,0.3
			C622.8,524,622.9,524.2,622.9,524.4z"/>
		<path class="st0" d="M636.6,517.8c0,0.1,0.1,0.3,0.1,0.4c0.5-0.1,1-0.1,1.4-0.2c0-0.2-0.1-0.4-0.1-0.6
			C637.5,517.5,637.1,517.7,636.6,517.8z"/>
		<path class="st0" d="M649.5,512.6c0,0.1,0,0.3,0,0.4c0.5,0,1-0.1,1.5-0.1c0-0.2,0-0.3-0.1-0.5C650.5,512.5,650,512.6,649.5,512.6z
			"/>
		<path class="st0" d="M622.6,512.7c0.7,0,1.3-0.1,2-0.1c0-0.2,0-0.3-0.1-0.5c-0.7,0-1.3,0.1-2,0.1
			C622.6,512.4,622.6,512.5,622.6,512.7z"/>
		<path class="st0" d="M642.8,507.4c-0.5,0.1-0.9,0.2-1.4,0.4c0,0.1,0.1,0.3,0.1,0.4c0.5-0.1,0.9-0.1,1.4-0.2
			C642.8,507.8,642.8,507.6,642.8,507.4z"/>
		<path class="st0" d="M647.2,513.8c-0.5,0.1-0.9,0.1-1.4,0.2c0,0.1,0,0.3,0,0.4c0.5,0,0.9-0.1,1.4-0.1
			C647.2,514.1,647.2,513.9,647.2,513.8z"/>
		<path class="st0" d="M759.8,410.1c-0.9,0.3-1.9,0.7-2.8,1.2c-1.6,0.8-3.5,1.4-4.2,3.3c-0.1,0.3-0.5,0.5-1.1,1
			c0.7,0.4,1.4,0.9,2.1,1.3c0-0.5-0.1-0.8-0.2-1c0-0.1,0.3-0.3,0.5-0.3c1.1-0.3,2.1-0.5,3.2-0.8c0.3-0.1,0.4-0.5,0.7-0.7
			c0.6-0.7,1.2-1.8,1.9-1.9c1.1-0.2,1.4-0.9,2-1.5c-0.1-0.3-0.2-0.6-0.3-0.8C761,409.9,760.3,409.9,759.8,410.1z"/>
		<path class="st0" d="M680.9,579.9c-0.8-0.2-1.8-0.1-2.6,0.1c-0.3,0.1-0.7,1-0.6,1.2c0.5,0.6,1.1,1.1,1.7,1.6
			c0.2,0.1,0.5,0.1,0.7,0.2c0.5-0.2,0.9-0.3,1.4-0.5c0.2-0.3,0.5-0.7,0.8-1.1C681.9,580.8,681.5,580.1,680.9,579.9z"/>
		<path class="st0" d="M366.6,279.1c-0.1-1,0-2.1-0.4-3c-0.3-0.8-1.1-1.8-1.7-1.9c-0.7,0-1.4,0.9-2.1,1.5c-0.2,0.2-0.1,0.6-0.2,1
			c-0.2,0.9-0.2,1.8-0.6,2.6c-1.3,3.4-2.6,6.8-2,10.5c0.5,3,1.6,4.7,4.7,4.1c0.7-0.5,1.5-0.9,2-1.6c2.7-4,2.7-8.1,0.4-12.3
			C366.7,279.8,366.6,279.4,366.6,279.1z M367.5,285.6c-0.7,6.6-2.3,8.7-5.4,7.6c-0.3-1.2-0.5-2.3-0.8-3.7c0.5,0.2,0.8,0.3,1.2,0.5
			c0.2-0.3,0.5-0.7,0.7-0.9c0.8,0.5,1.5,1,2.5,1.6c0.5-1.1,0.9-2,1.1-2.9C366.9,287,366.7,286.1,367.5,285.6z"/>
		<path class="st0" d="M583.3,335.1c0.6-0.7,1.4-1.4,1.8-2.2c0.4-0.8,0.7-1.9,0.3-2.5c-0.3-0.5-1.6-0.4-2.4-0.4
			c-0.3,0-0.6,0.3-0.8,0.5c-0.7,0.5-1.2,1.1-2,1.5c-2.3,1.3-4.8,2.4-7,3.9c-1.6,1-2.7,2.6-3.2,4.5c1.3-1,2.6-2,4.1-3.2
			c0.2-1.1,0.6-1.4,1.7-0.6c-1.7,1.1-1.9,2.2-0.4,3.6c0.1,0.1,0.3,0.3,0.4,0.4c0.2,0.3,0.3,0.7,0.4,1c0.4-0.2,0.9-0.4,1.2-0.6
			c0.8-0.6,1.6-1.2,2.3-2c0.4-0.5,0.6-1.2,0.9-1.7c0.2-0.3,0.4-0.5,0.6-0.8c0.2,0.3,0.5,0.8,0.4,0.9c-0.7,1.3-1.4,2.6-2.3,3.7
			c-0.7,0.9-1.8,1.5-2.7,2.2c3.1-1.7,5.6-4,6.3-7.7C583,335.5,583.2,335.2,583.3,335.1z"/>
		<path class="st0" d="M588,310.2c1.5-2.8,1-5.7,0.5-8.6c-0.3-1.7-2.3-2.4-3.8-1.4c-1,0.7-1.8,1.6-2.6,2.5c-2.3,2.3-2.9,5.1-2.2,7.8
			c0.8,2.4,2.8,3.5,4.5,2.8C586,312.8,587.2,311.8,588,310.2z M586.6,303.2c0.2,0.5,0.5,1.3,0.9,2.5c-1.1-0.6-2-1.1-2.9-1.6
			C585.1,303.8,585.8,303.6,586.6,303.2z M583.4,302.7c0.3,0.4,0.7,0.9,1,1.4c-0.5,0.1-0.9,0.1-1.4,0.2c0.1,0.3,0.2,0.6,0.3,0.9
			c-0.6,0.1-1.2,0.1-1.7,0.2c-0.1-0.1-0.1-0.2-0.2-0.3C582,304.4,582.7,303.6,583.4,302.7z M581.7,312.3c-2.2-1.7-1.7-3.9-0.5-6
			c1.2,1.2,1.3,2.5,0.6,3.7c0.7,0.4,1.3,0.8,1.7,1.1c1-0.2,1.9-0.4,3.2-0.7C585,312.4,582.9,313.3,581.7,312.3z"/>
		<path class="st0" d="M367.4,298.4c0.3,1.6,1.9,2.8,3.4,2.3c1.5-0.9,2.6-2.4,2.7-4.3c0.1-1.9,0-3.9-0.2-5.8
			c-0.1-0.6-0.8-1.2-1.3-1.5c-0.4-0.2-1.3,0.1-1.5,0.4C368.5,292.1,366.8,294.9,367.4,298.4z M372.2,293.2c0.2,0,0.5,0,0.7-0.1
			c0.1,1.1,0.2,2.2,0.3,3.2c-0.2,0-0.4,0.1-0.5,0.1C371,295.5,373.7,294.3,372.2,293.2z M368.6,296.5c0.7,0.2,1.3,0.4,2,0.6
			c-0.3,0.2-0.6,0.5-0.9,0.7c0,0.1,0.1,0.1,0.1,0.2c0.5-0.3,1-0.7,1.5-1c0.1-0.1,0.1-0.2,0.3-0.4c0.4,0.3,0.7,0.5,1.1,0.8
			c-0.8,1.9-2.2,3.2-3.2,2.9C367.3,299.4,368.8,297.8,368.6,296.5z"/>
		<path class="st0" d="M713.1,510.2c-0.1-0.2-0.2-0.4-0.3-0.5C712.9,509.9,713,510.1,713.1,510.2z"/>
		<path class="st0" d="M723.9,503.5c-1.9-0.1-3.9,0-5.8,0.3c-1.1,0.2-2.1,1-3.2,1.5c0.1,0.1,0.1,0.2,0.2,0.3
			c0.4-0.2,0.8-0.5,1.3-0.7c2.3-1.1,4.6-1.4,7-0.6c0.7,0.2,1,0.5,0.8,1.4c-0.4,1.9-1.7,3.2-2.5,4.8c-0.1,0.2-0.4,0.4-0.9,0.8
			c-0.2-0.7-0.3-1.1-0.3-1.5c-0.1-0.8,0-1.5-0.2-2.3c-0.3-1.3-1.7-2-2.7-1.3c-0.7,0.5-1.4,1.3-1.9,2c-0.2,0.4-0.1,1.3,0.2,1.7
			c0.5,0.6,1.3,1,2.1,1.4c0.2,0.1,0.6,0,0.9-0.1c0.3-0.1,0.7-0.2,1.3-0.4c-2.1,1.9-5.7,1.5-7.2-0.9c0.4,0.8,0.9,1.6,1.5,2
			c1.4,0.8,3.1,0.8,4.7,0.3c3-0.9,4.7-3.3,6.3-5.7C726.6,505.4,725.7,503.6,723.9,503.5z"/>
		<path class="st0" d="M423.9,348.1c2.4-0.8,5-4.4,5.1-7c0-1.1,0.3-2.2,0.4-3.2c0.1-1.3,0-2.6-0.1-3.9c0-0.2-0.5-0.5-0.6-0.5
			c-1.1,0.4-2.3,0.6-3.2,1.2c-1.1,0.7-1.9,1.8-2.8,2.8c-0.7,0.7-1.7,1.3-1.9,2.1c-0.6,1.8-1.1,3.8-1.1,5.7
			C419.7,347.6,421.9,348.8,423.9,348.1z M422.7,339.2c0.4-0.3,0.9-0.3,1.6-0.6c-0.4-1.5,1-1.9,2-2.4c0.6-0.3,1.6,0,2.2,0.1
			c0,0.8,0,1.2,0,1.6c-0.1,0.4-0.1,1.1-0.4,1.3c-1.3,0.9-1,1.9-0.6,3.2c0.2,0.7-0.2,1.7-0.6,2.4c-0.9,1.5-2,2.9-4,3
			c-1.2,0.1-2.2-0.5-2.3-1.7C420.4,343.5,420.5,341,422.7,339.2z"/>
		<path class="st0" d="M392.7,361.1c0.7-1.4,0.4-2.9,0.1-4.3c-0.1-0.6-0.6-1.4-0.9-1.5c-0.7,0-1.6,0.2-2,0.7
			c-1.3,1.4-2.5,2.9-3.8,4.4c0.8,0.8,1.5,1.4,2.2,2C389.4,363.5,391.9,362.7,392.7,361.1z"/>
		<path class="st0" d="M505.6,287.2c0.5-0.5,1.2-1,1.6-1.6c1.1-1.8,0.9-3.8,0.4-5.7c-0.3-1.2-1.8-1.6-2.7-0.5
			c-1.5,1.8-2.6,3.8-2,6.3C503.2,287,504.1,287.5,505.6,287.2z"/>
		<path class="st0" d="M451.9,303c0.8,1.2,2,1.5,2.9,0.9c1.5-1,1.9-3.2,1-5.2c-0.7-1.5-2.1-1.9-4-1.3c-1.9,0.6-2.3,1.8-1.3,3.4
			C451.1,301.6,451.5,302.3,451.9,303z M453.1,297.9c1.2,0,2,0.7,2.2,2.1c-1.6-1.7-2.5-1.8-4.1-0.5
			C451.3,298.6,452.1,297.9,453.1,297.9z"/>
		<path class="st0" d="M410,380c-2,0.7-2.5,1.7-1.8,3.6c0.9,2.5,2.1,3.4,3.8,2.8c1.7-0.6,2.7-3.1,2.1-5.1
			C413.6,379.7,412.2,379.3,410,380z M413.5,384.2c-0.7,1.5-2,2.2-3.1,1.8c-1.4-0.5-2.3-2.3-1.5-3.9c0.2,0.6,0.2,1.2,0.5,1.8
			c0.3,0.5,0.8,1.4,1.2,1.4c0.7,0,1.7-0.4,2.1-0.9c1.1-1.3,0.4-2.9-1.3-3.3c-0.3-0.1-0.7-0.1-1.2-0.2c0.7-1,1.5-1,2.3-0.6
			C413.7,380.9,414.2,382.8,413.5,384.2z"/>
		<path class="st0" d="M395.1,275.8c1.1-0.4,1.5-2,1-3.3c-0.7-1.7-2.7-3.1-3.8-2.6c-0.9,0.4-1.4,2.7-0.9,4.1
			C391.9,275.3,393.8,276.3,395.1,275.8z"/>
		<path class="st0" d="M365.8,263.3c0.3,0.5,1,1.1,1.3,1c0.5-0.2,1.2-0.9,1.3-1.4c0.2-1.8,0.1-3.6,0.1-5.5c-0.1,0-0.3,0-0.4,0
			c0-0.2,0-0.4-0.1-0.6c-0.3-0.4-0.6-0.7-0.9-1c-0.3,0.4-0.7,0.7-1,1.1c-0.3,0.5-0.4,1-0.6,1.5C365.1,260.2,364.7,261.8,365.8,263.3
			z"/>
		<path class="st0" d="M616,525c0.2,0.3,0.6,0.6,0.5,0.9c-0.1,1.2,0.6,1,1.2,0.7c1-0.4,1.9-0.9,2.9-1.4c0,0.1,0.1,0.2,0.1,0.3
			c0.1,0.1,0.1,0.2,0.2,0.3c0.5-1.7-0.4-3.5-2.1-4.4c-1.4-0.8-3.7,0-5.4,1.7c0.6-0.3,1-0.5,1.4-0.7c0,0.1,0.1,0.2,0.1,0.4
			c0.3,0.1,0.6,0.1,1,0.2C615.3,524.1,615.3,524.1,616,525z M618,521.6c0.7,0.1,1.5,0.3,1,1.7c-0.6-0.1-1-0.2-1.5-0.3
			c0-0.1,0-0.2,0-0.2c-0.1,0-0.2,0.1-0.3,0.1C617.4,522.6,617.7,522.2,618,521.6z"/>
		<path class="st0" d="M599,319.1c-0.8,0.3-1.5,0.6-2.2,1.1c-1.3,0.8-2.5,1.8-2.7,3.4c-0.1,0.4,0,1.1,0.3,1.3
			c0.3,0.3,0.9,0.2,1.1,0.2c1.8-0.7,4.6-3.9,4.8-5.3c0-0.2-0.1-0.6-0.2-0.6C599.7,319,599.3,319,599,319.1z"/>
		<path class="st0" d="M580.1,348c0.1-0.6,0.4-1.4,0.1-1.9c-0.2-0.4-1.1-0.8-1.6-0.8c-1.1,0.1-2.3,0.5-3.4,0.7
			c0.1,0.3,0.3,0.6,0.2,0.8c-0.5,0.7-1.2,1.2-1.6,1.9c-0.2,0.3-0.3,1-0.1,1.2c0.2,0.3,0.9,0.7,1.2,0.6c0.8-0.3,1.5-0.9,2.3-1.4
			c0.7-0.5,1.1-1.7,2.3-0.8C579.5,348.5,580.1,348.2,580.1,348z M577.5,346.3c1.4-0.6,1.5-0.6,2.2,0.5c-0.1,0.2-0.1,0.3-0.2,0.5
			C578.8,347,578.2,346.7,577.5,346.3z"/>
		<path class="st0" d="M670,557.3c-0.4-0.1-1,0.4-1.4,0.3c-1.1-0.1-2.6,0.7-2.5,1.7c0.1,0.7,0.6,1.4,1,2c0.1,0.1,0.8-0.2,1.2-0.2
			c0.5-0.1,0.9-0.1,1.6-0.2c-0.5,0.3-0.7,0.4-1,0.6c0.1,0.1,0.1,0.2,0.2,0.3c0.6-0.4,1.2-0.7,1.7-1.2
			C672.2,559.3,671.9,558,670,557.3z"/>
		<path class="st0" d="M542.8,346.4C542.8,346.4,542.8,346.3,542.8,346.4c-0.8,0.3-1.5,0.5-2.3,0.9c-0.8,0.4-1.5,2.1-1.1,2.7
			c0.6,0.9,1.6,1,2.8,0.1c1-0.7,1.8-1.6,2.7-2.5c0.2-0.2,0.2-0.9,0-1.1c-0.2-0.3-0.8-0.4-1.2-0.5C543.4,346,543.1,346.3,542.8,346.4
			z"/>
		<path class="st0" d="M381.2,392.2c-1.5,0.5-2.4,2.4-1.9,3.8c0.1,0.2,0.2,0.3,0.2,0.4c0,0-0.1,0-0.1,0c-0.2,0.1-0.3,0.5-0.2,0.6
			c0.3,0.5,0.7,0.8,1.2,1.4c0.3-0.5,0.3-0.9,0.2-1.2c0.2,0,0.5,0,0.7-0.1c1.6-0.6,2.5-2.5,1.8-4.1
			C382.9,392.1,382.2,391.8,381.2,392.2z"/>
		<path class="st0" d="M580.1,422.4c1.4-1,2.6-1.8,4.2-3c-1.3-0.1-2.3-0.1-3.2-0.4c-1.1-0.4-2.2-0.2-2.8,0.6c-0.7,0.9-1,2.2,0.2,3
			C579.2,422.5,579.8,422.4,580.1,422.4z"/>
		<path class="st0" d="M567.5,400.1c-1.1,0.1-1.6,1.5-1.2,2.9c0.4,0.8,1.1,1.4,2.1,1.1c1.1-0.3,2.4-2.5,1.9-3.7
			C569.7,399,568.5,400,567.5,400.1z"/>
		<path class="st0" d="M503.4,324.5c-0.3-1.3-1.2-1.4-2.3-1.2c-1.1,0.3-1.8,1.7-1.4,2.9c0.3,1.1,1.2,1.6,2.3,1.3
			C503.3,327.1,503.9,326,503.4,324.5z"/>
		<path class="st0" d="M504.4,353.5c-0.1-0.6-0.7-1.5-1.1-1.6c-0.6-0.1-1.5,0.4-1.8,1c-0.5,0.9-0.7,2-1,3c0.4,0.1,0.7,0.1,1.1,0.2
			C503.6,356.7,504.9,355.5,504.4,353.5z"/>
		<path class="st0" d="M609.8,385.2c-0.5-0.4-1.3-0.4-2.3-0.5c0.1-0.2,0.2-0.5,0.4-0.7c-0.9,0.2-1.4,0.3-2.3,0.4
			c0.4,0.5,0.7,0.8,1.1,1.2c-0.4,0.6-0.7,1.3-0.8,1.9c-0.1,1.2,1.1,1.1,1.9,1.2c0.3,0.1,0.5,0.3,0.7,0.4c0.2,0.1,0.5,0.1,0.7,0
			c0.1,0,0.3-0.4,0.2-0.4c-0.9-0.6,0.1-0.9,0.2-1.3C609.7,386.6,610.1,385.5,609.8,385.2z"/>
		<path class="st0" d="M639.5,562.9c-0.8,0.5-1.1,1.6-0.4,2.3c0.5,0.5,1.5,0.7,2.2,0.6c0.8-0.2,1.5-0.8,2.5-1.5
			c-0.9-0.8-1.5-1.5-2.2-1.7C641.1,562.4,640.1,562.5,639.5,562.9z"/>
		<path class="st0" d="M599.7,526.2c0.7,0.3,2.1,0,2.8-0.5c0.6-0.4,1.1-1.8,0.8-2.3c-1-2.1-2.3,0.5-3.7-0.2
			C599.9,524.4,598.2,525.5,599.7,526.2z"/>
		<path class="st0" d="M544.9,435.3c-1.2,0.2-2.2,1.3-2,2.2c0.3,1,1.5,1.5,2.8,1c1.1-0.4,2.1-1.1,1.7-2.4
			C547.1,434.8,545.9,435.2,544.9,435.3z"/>
		<path class="st0" d="M496.8,347.1c0.4,1.2,1.3,1.2,2.3,0.9c1.2-0.4,1.8-1.5,1.4-2.6c-0.4-1-1.1-1.4-2-1.2
			C497.1,344.7,496.4,345.9,496.8,347.1z"/>
		<path class="st0" d="M374.9,317.4c0.5,0,1.3-0.5,1.4-0.9c0.3-1.1,0.2-2.2,0.2-3.3c-0.6-1.1-1.4-1.4-1.7-0.7
			c-0.6,1.2-0.9,2.6-1.1,4C373.8,316.6,374.6,317.4,374.9,317.4z"/>
		<path class="st0" d="M588.9,418.9c0.4-1.5-1-2.7-2.7-2.6c-1.7,0.1-3.3,0.3-5,0.1c-2.4-0.2-3.8,1.1-5.3,2.5
			c0.6-0.2,1.1-0.6,1.6-0.9c2.8-1.6,5.8-0.9,8.7-0.7c1.2,0.1,2.1,0.6,2.2,1.9C588.6,419.1,588.8,419,588.9,418.9z"/>
		<path class="st0" d="M551.2,442.1c0.4-0.3,0.4-1,0.6-1.6c-0.5-0.2-1.1-0.3-1.6-0.5c-0.1,0.1-0.2,0.2-0.3,0.4
			c-0.6-1.3-1.5-1.2-2.4-0.5c-0.4,0.3-0.7,1.1-0.5,1.4c0.8,1.4,1.8,0.4,2.7,0.2C550.3,441.9,551,442.3,551.2,442.1z"/>
		<path class="st0" d="M588.3,419.3c0,0,0.1-0.1,0.1-0.1c0,0,0,0,0-0.1c0,0,0,0,0,0C588.4,419.2,588.3,419.3,588.3,419.3z"/>
		<path class="st0" d="M584.2,421.1c-0.3-0.1-1.1,0.6-1.1,1c-0.1,1.3-1.1,1.5-2,1.8c-1,0.4-2.1,0.6-3.4,0.9c2.5,0.2,4.7-0.5,6.6-1.8
			c1-0.7,2-1.5,2.9-2.3c0.4-0.4,0.7-0.9,1-1.4C587.1,420.2,586,421.5,584.2,421.1z"/>
		<path class="st0" d="M352.5,400c-0.4-0.8-1.2-1.7-2.1-1c-0.6,0.5-0.8,1.5-1.4,2.7c1,0.4,1.6,0.8,2.1,0.7
			C352.1,402.3,352.9,400.8,352.5,400z"/>
		<path class="st0" d="M583.2,294.9c1.2-0.6,2-2.2,1.6-3.1c-0.1-0.3-0.8-0.6-1.2-0.5c-1.3,0.3-2.2,1.5-1.8,2.4
			C582,294.2,582.7,294.5,583.2,294.9z"/>
		<path class="st0" d="M598.9,534.7c-0.8,0.3-1.7,0.7-1.3,1.9c0.4,1,1.2,1.1,2.6,1c0.3-0.7,1-1.5,0.9-2.1
			C600.9,534.5,599.8,534.4,598.9,534.7z"/>
		<path class="st0" d="M454.7,359.5c0.2,1,1.1,1.3,1.8,1c0.6-0.3,0.9-1.3,1.6-2.3c-1.1-0.4-1.9-1-2.5-0.9
			C454.5,357.5,454.5,358.6,454.7,359.5z"/>
		<path class="st0" d="M499,315.5c0.9-0.3,1.7-0.9,1.3-2.1c-0.3-1-1.1-1.2-2-0.9c-1,0.3-1.2,1.1-0.9,2.6
			C497.8,315.2,498.5,315.6,499,315.5z"/>
		<path class="st0" d="M624.5,549.3C624.5,549.3,624.5,549.3,624.5,549.3C624.5,549.3,624.5,549.3,624.5,549.3L624.5,549.3z"/>
		<path class="st0" d="M623.7,544.6c-1.3-0.3-2.7-0.2-4,0c-0.3,0.1-0.6,0.2-0.9,0.3c-0.3-0.2-0.5-0.3-0.8-0.3
			c-0.6,0-1.2,0.4-1.7,0.8c-0.2,0.2-0.3,0.8-0.2,1.1c0.1,0.2,0.4,0.3,0.7,0.4c-0.1,0.3-0.2,0.7-0.2,1c0.3-0.4,0.6-0.8,0.9-1.1
			c0.4-0.1,0.7-0.2,1-0.3c0.4-0.3,0.7-0.8,1.1-1.2c-0.1,0-0.2-0.1-0.3-0.2c0.6-0.3,1.4-0.3,2.7-0.3c2.8,0,3.8,1.5,2.6,4
			c0,0.1,0,0.2,0,0.3c0.5-0.9,1.4-1.9,1.3-2.8C625.8,545.8,624.5,544.8,623.7,544.6z"/>
		<path class="st0" d="M483.4,348.9c-0.2-0.1-0.7-0.5-1.2-0.8c-0.4,0.9-0.8,1.9-1.1,2.8c0,0.2,0.9,0.8,1.4,0.8
			C483.4,351.7,483.9,350.4,483.4,348.9z"/>
		<path class="st0" d="M726.6,497.7c0.6,0.3,1.3,0.6,2.2,1.1c0.5-0.9,0.9-1.6,1.2-2.2c-0.9-0.2-1.7-0.5-2.6-0.5
			C727.1,496.1,726.8,497.1,726.6,497.7z"/>
		<path class="st0" d="M485.6,305.6c1,0.5,1.6,0.7,2.1,1c0.3-0.8,0.8-1.5,0.8-2.3c0-0.4-0.9-0.8-1.3-1.2
			C486.8,303.8,486.3,304.5,485.6,305.6z"/>
		<path class="st0" d="M680.2,481.6c0.6,0.1,1.4,0.6,1.6,0.4c0.7-0.6,1.1-1.4,1.7-2.2c-0.6-0.2-1.2-0.4-2.1-0.6
			C680.9,480,680.5,480.8,680.2,481.6z"/>
		<path class="st0" d="M358.5,376c1-0.4,1.1-1.4,0.7-2.7c-0.2-0.1-0.8-0.5-1-0.3c-0.9,0.5-1.5,1.3-1.1,2.4
			C357.2,375.7,358.1,376.2,358.5,376z"/>
		<path class="st0" d="M381.8,378.5c0.4-0.1,0.7-1.2,0.6-1.5c-0.5-0.7-1.3-1.1-2-1.6c-0.2,0.1-0.4,0.2-0.6,0.3
			c0,0.3-0.1,0.6-0.1,0.9c-0.1,0-0.2,0-0.4,0.1c0,0.5,0.1,0.9,0.1,1.4c0.2,0,0.3,0,0.5,0c0-0.2-0.1-0.4-0.1-0.6
			C380.3,378.1,380.9,378.9,381.8,378.5z"/>
		<path class="st0" d="M456.9,205.5c-1.2,0.6-0.5,1.7-0.4,2.6c0.1,0.4,0.7,0.7,1,1c0.3-0.8,0.7-1.5,1.1-2.6
			C457.9,206.1,457.2,205.4,456.9,205.5z"/>
		<path class="st0" d="M382.7,236.6c-0.3-0.9-1-1.4-1.8-1c-0.4,0.2-0.5,1.1-0.9,2.1c0.9,0.3,1.5,0.8,2,0.7
			C382.9,238.2,383,237.4,382.7,236.6z"/>
		<path class="st0" d="M652.8,437.4c-0.1-0.3-0.8-0.5-1.5-0.9c-0.5,1-0.8,1.7-1.2,2.5c0.5,0.2,1,0.6,1.4,0.5
			C652.4,439.3,653.1,438.5,652.8,437.4z"/>
		<path class="st0" d="M400,270c0.2,0,0.6-0.6,0.6-0.8c-0.3-1-0.7-1.9-1.1-2.9c-0.3,0.1-0.6,0.2-0.8,0.3c0.2,1,0.2,2,0.5,2.9
			C399.2,269.7,399.7,270,400,270z"/>
		<path class="st0" d="M699.8,347c0.1-0.2-0.1-0.6-0.3-0.7c-0.2-0.1-0.7-0.2-0.8,0c-0.7,0.8-1.7,1.4-1.3,2.8
			C699,349.1,699.5,348.2,699.8,347z"/>
		<path class="st0" d="M626.9,534.6c-0.2,0.3-0.3,1.2-0.1,1.3c1.2,0.9,1.9,0,2.6-1C628.5,533.9,627.7,533.7,626.9,534.6z"/>
		<path class="st0" d="M416.9,377.9c0.1,0.4,1,0.9,1.4,0.8c0.4-0.1,0.6-0.9,1.1-1.6c-0.9-0.4-1.4-0.6-1.9-0.8
			C417.2,376.8,416.8,377.4,416.9,377.9z"/>
		<path class="st0" d="M426.1,349.1c-0.7-0.4-1.1-0.7-1.4-0.9c-0.2,0.7-0.6,1.5-0.6,2.2c0,0.3,0.8,0.6,1.2,0.9
			C425.5,350.7,425.8,350,426.1,349.1z"/>
		<path class="st0" d="M360.6,372.7c-0.4,0.3-0.7,1-0.8,1.5c0,0.3,0.6,0.6,0.9,1c0.4-0.5,0.9-0.9,1.3-1.4c0.1-0.1,0.1-0.1,0.1-0.2
			C361.7,373.1,361.6,372,360.6,372.7z"/>
		<path class="st0" d="M457.5,315.3c0,0.1,1,0.7,1.1,0.6c0.5-0.4,0.8-1,1.3-1.9c-0.8-0.3-1.4-0.6-1.5-0.5
			C458,314.1,457.7,314.7,457.5,315.3z"/>
		<path class="st0" d="M452.6,212.3c0.2,0,0.6-0.2,0.7-0.4c0.2-0.9,0.3-1.8,0.5-2.7c-0.3-0.1-0.6-0.1-0.9-0.2
			c-0.2,0.9-0.5,1.8-0.7,2.7C452,211.9,452.4,212.3,452.6,212.3z"/>
		<path class="st0" d="M408.2,343.1c0.3-0.5,0.8-1,0.8-1.5c0-0.4-0.8-0.7-1.5-1.2c-0.3,0.9-0.7,1.4-0.6,1.8
			C407.1,342.6,407.8,342.8,408.2,343.1z"/>
		<path class="st0" d="M557.8,381.9c0.4-0.2,1.1-0.3,1.2-0.7c0.3-0.6,0.2-1.4,0.3-2.1c-0.2-0.1-0.3-0.1-0.5-0.2
			c-0.4,0.5-1,1-1.2,1.5C557.4,380.9,557.7,381.4,557.8,381.9z"/>
		<path class="st0" d="M550.8,367.4c0,0.2,0.7,0.6,1.3,1.1c0.4-0.9,0.6-1.5,0.9-2.1c-0.5-0.2-1.1-0.6-1.4-0.4
			C551.2,366.2,550.9,366.8,550.8,367.4z"/>
		<path class="st0" d="M613.9,352c0.4-0.1,1-0.2,1.1-0.4c0.4-0.8,0.5-1.6,0.7-2.5c-0.2-0.1-0.3-0.2-0.5-0.3c-0.5,0.7-1.1,1.3-1.6,2
			C613.5,351.1,613.8,351.6,613.9,352z"/>
		<path class="st0" d="M494.1,309.7c0.3-0.5,0.5-1,1-1.9c-0.7-0.3-1.1-0.5-1.5-0.6c-0.2,0.6-0.5,1.3-0.5,1.9
			C493,309.3,493.7,309.5,494.1,309.7z"/>
		<path class="st0" d="M439.5,355c0.3-0.8,0.7-1.3,0.6-1.8c0-0.2-0.9-0.6-1.2-0.5c-0.4,0.2-0.8,0.8-0.8,1.3
			C438.1,354.2,438.8,354.5,439.5,355z"/>
		<path class="st0" d="M574.3,427.1c0.1,0.2,0.9,0.5,0.9,0.4c0.5-0.6,0.9-1.3,1.3-1.9c-0.3-0.1-0.7-0.2-1-0.3
			C574.5,425.6,574.1,426.2,574.3,427.1z"/>
		<path class="st0" d="M570.5,350.2c1.6-1.4,3.1-2.7,4.7-4.1C573,346.8,571.6,348.3,570.5,350.2z"/>
		<path class="st0" d="M575.2,346.1C575.2,346.1,575.2,346.1,575.2,346.1L575.2,346.1L575.2,346.1
			C575.2,346.1,575.2,346.1,575.2,346.1C575.2,346.1,575.2,346.1,575.2,346.1z"/>
		<path class="st0" d="M694.3,346.3c-0.1-0.2-0.2-0.3-0.3-0.5c-0.8,0.5-1.7,1-2.5,1.5c0.1,0.2,0.2,0.4,0.4,0.6
			C693.1,348.1,693.8,347.4,694.3,346.3z"/>
		<path class="st0" d="M430.9,296.2c0.4-0.5,0.7-1,1.2-1.8c-0.6-0.3-1.2-0.5-1.2-0.5c-0.3,0.6-0.6,1.2-0.8,1.9
			C430,295.8,430.8,296.3,430.9,296.2z"/>
		<path class="st0" d="M572.7,326.8c-0.8-0.2-1.3-0.5-1.6-0.3c-0.4,0.2-0.6,0.8-0.9,1.2c0.4,0.2,1,0.7,1.2,0.6
			C571.9,328.1,572.2,327.5,572.7,326.8z"/>
		<path class="st0" d="M477.8,393.8c-0.4,0.1-0.7,0.8-0.7,1.2c0,0.2,0.6,0.5,1.1,0.9c0.4-0.7,0.7-1.2,1-1.6
			C478.7,394.1,478.2,393.7,477.8,393.8z"/>
		<path class="st0" d="M652.7,527.8c0.5,0.3,1,0.6,1.6,0.7c0.1,0,0.6-0.7,0.5-0.8c-0.4-0.4-0.9-0.8-1.6-1.3
			C653,527.1,652.7,527.7,652.7,527.8z"/>
		<path class="st0" d="M587.8,258.3c0.3,0.1,0.7,0.3,0.9,0.2c0.9-0.5,1.1-1.3,0.6-2.2c-0.2-0.1-0.4-0.1-0.6-0.2
			C588.3,256.9,588.1,257.6,587.8,258.3z"/>
		<path class="st0" d="M652.9,446.3c1.3,0.4,1.3-0.7,1.7-1.6c-1.1-0.7-1.6,0-2,0.7C652.5,445.6,652.7,446.2,652.9,446.3z"/>
		<path class="st0" d="M417.6,329.5c0.2-0.4,0.5-0.8,0.8-1.4c-0.6-0.2-1.1-0.6-1.4-0.5c-0.3,0.1-0.7,0.8-0.6,1.1
			C416.7,329.1,417.2,329.3,417.6,329.5z"/>
		<path class="st0" d="M426.7,377c-0.3,0.1-0.5,0.8-0.5,1.2c0,0.2,0.7,0.6,1,0.5c0.4-0.1,0.6-0.6,1.2-1.3
			C427.6,377.2,427,376.9,426.7,377z"/>
		<path class="st0" d="M399,295.2c0.3,0.3,0.8,0.5,1.3,0.6c0.1,0,0.4-0.5,0.8-1c-0.8-0.3-1.3-0.5-1.7-0.7
			C399.2,294.5,398.9,295.1,399,295.2z"/>
		<path class="st0" d="M567.2,297.2c-0.3,0.2-0.6,0.7-0.7,1.1c0,0.2,0.5,0.5,0.8,0.7c0.2,0,0.4,0,0.6,0.1c0.1-0.5,0.3-1,0.3-1.5
			C568.2,297.4,567.4,297.1,567.2,297.2z"/>
		<path class="st0" d="M509.6,289.7c-0.6-0.2-1.1-0.4-1.3-0.3c-0.3,0.3-0.5,0.8-0.7,1.2c0.4,0.2,0.9,0.5,1.2,0.5
			C509.2,291,509.3,290.4,509.6,289.7z"/>
		<path class="st0" d="M694.6,513.4c0.2,0.3,0.7,0.5,1.1,0.5c0.2,0,0.4-0.6,0.7-0.9c-0.4-0.3-0.8-0.6-1.5-1
			C694.7,512.6,694.4,513.1,694.6,513.4z"/>
		<path class="st0" d="M546,347.8c0.3,0.2,0.8,0.6,0.9,0.5c0.4-0.3,0.7-0.8,1.2-1.5c-0.7-0.2-1.2-0.4-1.3-0.3
			C546.4,346.8,546.2,347.3,546,347.8z"/>
		<path class="st0" d="M617.5,392.3c0.6-0.2,1.2-0.5,1.7-0.7c-0.1-0.3-0.3-0.6-0.4-0.9c-0.6,0.3-1.1,0.6-1.7,0.8
			C617.2,391.8,617.5,392.3,617.5,392.3z"/>
		<path class="st0" d="M377.1,280.8c0.1-0.4,0.5-0.8,0.4-1.1c-0.1-0.4-0.6-0.6-1.2-1.2c-0.1,0.8-0.4,1.3-0.2,1.5
			C376.2,280.4,376.7,280.6,377.1,280.8z"/>
		<path class="st0" d="M704.8,408.1c0.6-0.4,1.2-0.8,1.8-1.3c-0.2-0.2-0.3-0.4-0.5-0.7c-0.6,0.4-1.2,0.8-1.7,1.3
			C704.5,407.5,704.7,407.9,704.8,408.1z"/>
		<path class="st0" d="M396.8,334.8c0.3-0.5,0.5-0.9,0.8-1.4c0-0.2,0.1-0.5,0.1-0.7c-0.3,0-0.8-0.1-1,0.1c-0.3,0.4-0.5,1-0.6,1.5
			C396,334.4,396.5,334.7,396.8,334.8z"/>
		<path class="st0" d="M362.4,369.1c0.2-0.1,0.3-0.2,0.5-0.3c-0.4-0.6-0.7-1.2-1.1-1.8C361.2,368.1,361.4,368.8,362.4,369.1z"/>
		<path class="st0" d="M391.7,285.6c-0.3-0.6-0.5-1.2-0.8-1.8c-0.3,0.1-0.5,0.2-0.8,0.3c0.2,0.6,0.5,1.2,0.8,1.8
			C390.9,285.9,391.4,285.7,391.7,285.6z"/>
		<path class="st0" d="M755.7,475.5c0.1,0.3,0.2,0.5,0.2,0.8c0.7-0.2,1.3-0.5,2-0.7c-0.1-0.2-0.1-0.4-0.2-0.6
			C757,475.1,756.3,475.3,755.7,475.5z"/>
		<path class="st0" d="M424.9,382.2c-0.2,0.4-0.4,0.8-0.4,1.2c0,0.2,0.5,0.5,1,1c0.1-0.7,0.3-1.2,0.2-1.5
			C425.6,382.6,425.2,382.4,424.9,382.2z"/>
		<path class="st0" d="M388.2,332.5c-0.3-0.5-0.7-1-1.1-1.4c-0.2,0.2-0.4,0.4-0.6,0.5c0.4,0.5,0.8,1,1.2,1.4
			C387.8,332.9,388.2,332.6,388.2,332.5z"/>
		<path class="st0" d="M624.5,549.3C624.5,549.3,624.5,549.3,624.5,549.3C624.5,549.4,624.4,549.4,624.5,549.3
			C624.4,549.4,624.5,549.4,624.5,549.3z"/>
		<path class="st0" d="M618.8,551.5c2.4,0.7,4.6-0.2,5.6-2C622.8,550.8,621.2,552.1,618.8,551.5z"/>
		<path class="st0" d="M548.9,433.1c-0.1-0.3-0.1-0.6-0.2-0.9c-0.6,0.1-1.1,0.3-1.7,0.4c0.1,0.3,0.2,0.8,0.3,0.8
			C547.8,433.3,548.4,433.2,548.9,433.1z"/>
		<path class="st0" d="M522.9,270.4c0.1,0.3,0.6,0.4,1,0.6c0.2-0.3,0.6-0.7,0.5-1c0-0.3-0.5-0.5-1-1
			C523.2,269.7,522.8,270.2,522.9,270.4z"/>
		<path class="st0" d="M452.7,357.6c0,0.1,0.5,0.3,0.7,0.5c0.2-0.5,0.5-0.9,0.6-1.4c0-0.1-0.4-0.4-0.9-0.8
			C452.9,356.6,452.7,357.1,452.7,357.6z"/>
		<path class="st0" d="M521.2,258.8c1.5-0.8,1.3-1.5,0.8-2.2c-0.2,0-0.4,0-0.6,0C521.3,257.2,521.2,257.9,521.2,258.8z"/>
		<path class="st0" d="M423.2,345.1c1,0.5,1.8,0.3,2.3-0.9c0.3-0.8,0.7-1.6,1.2-2.6c-1-1.2-0.3-2.2,0.9-3.2c-2.2,0.8-4.7,1-5.6,3.7
			C421.5,343.3,421.7,344.4,423.2,345.1z"/>
		<path class="st0" d="M319.3,414.7c-0.5-0.9-1.4-1.4-2-1.2c-0.2,0.1-0.4,0.4-0.6,0.6c-0.1,0.1,0.1,0.5,0.2,0.5
			C317.7,414.9,318.5,415.4,319.3,414.7z"/>
		<path class="st0" d="M546.7,446.9c0.6,0.3,1.3,0.6,2.1,0.2c-0.3-1-1-1.2-1.7-1.3c-0.2,0-0.5,0.3-0.6,0.5
			C546.4,446.5,546.6,446.9,546.7,446.9z"/>
		<path class="st0" d="M362.3,402.5c-0.1,0.2,0.1,0.6,0.3,0.7c0.5,0.2,1.1,0.3,1.8,0.5c-0.1-1.2-0.7-1.5-1.4-1.6
			C362.8,402.1,362.4,402.3,362.3,402.5z"/>
		<path class="st0" d="M345.8,408.8c0-0.8,0-1.3-0.8-1.5C344.8,408,345,408.4,345.8,408.8z"/>
		<path class="st0" d="M553.9,443.4c0.1-0.6-0.1-1-0.7-1C553.2,443.1,553.2,443.1,553.9,443.4z"/>
		<path class="st0" d="M476.4,397.7c0.3,0.1,0.7,0.1,1,0.2c0-0.1,0.1-0.3,0.1-0.4c-0.3-0.1-0.7-0.2-1-0.3
			C476.5,397.3,476.4,397.5,476.4,397.7z"/>
		<path class="st0" d="M531.9,448.6c-0.2-0.7-0.6-0.9-1.3-0.7C530.9,448.6,531.3,448.7,531.9,448.6z"/>
		<path class="st0" d="M532.1,450.5c-0.2-0.6-0.2-0.9-0.3-1.2c-0.1,0-0.3,0.1-0.4,0.1C531.1,449.9,531.4,450.2,532.1,450.5z"/>
		<path class="st0" d="M539.4,444.5c0.1,0,0-0.2,0.1-0.5c-0.4,0.1-0.7,0.1-1.1,0.2C538.7,444.8,539,444.7,539.4,444.5z"/>
		<path class="st0" d="M415.8,390.9c0.2,0,0.5,0,0.7,0c0-0.1,0-0.3,0-0.4c-0.2,0.1-0.5,0.1-0.7,0.2
			C415.7,390.7,415.8,390.8,415.8,390.9z"/>
		<path class="st0" d="M417.6,355.1c-0.1,1,0.6,1.9,1.6,1.9c0.6,0,1.2-0.1,1.8-0.2c-0.2-0.5-0.4-0.9-0.4-1.3c0-1.1-0.7-1.6-1.6-1.9
			c-0.4,0.1-0.8,0.3-1.2,0.4C417.8,354.3,417.7,354.7,417.6,355.1z"/>
		<path class="st0" d="M429,355.3c-0.5-1.4-1.9-2.2-3.2-1.7c-1.3,0.4-2,1.8-1.6,3.1c0.4,1.4,1.8,2.2,3.2,1.8
			C428.7,358.1,429.5,356.7,429,355.3z"/>
		<path class="st0" d="M365.2,390.2c0.8-0.3,1.5-1.8,1.2-2.7c-0.2-0.5-1.9-1.1-2.7-0.9c-0.9,0.3-1.4,1.3-1.1,2.2
			C363,389.8,364.2,390.5,365.2,390.2z"/>
		<path class="st0" d="M285.5,441.4c0.1,0.2,0.5,0.2,0.8,0.2c0.2,0,0.4-0.4,0.3-0.6c-0.2-0.7-0.3-1.6-1.3-2.1
			C284.7,439.9,285,440.7,285.5,441.4z"/>
		<path class="st0" d="M270.1,458.5c0.2,0.1,0.5,0.2,0.7,0.1c0.1,0,0.3-0.3,0.4-0.4c0.1-0.6-0.8-1.6-1.6-1.8
			C269.4,457.3,269.6,458.1,270.1,458.5z"/>
		<path class="st0" d="M240.3,504.1c0,0.2,0.4,0.4,0.6,0.5c0.1,0,0.5-0.3,0.5-0.4c0.1-0.7,0.4-1.4-0.3-2
			C240.3,502.7,240.2,503.4,240.3,504.1z"/>
		<path class="st0" d="M534.2,131.1c1.3,0,2.8-0.8,3.8-1.7c3.6-3.4,5.9-7.8,7.2-12.4c1.6-5.4,2.3-11.1,2.7-16.7
			c0.4-5.4,1.5-10.4,4.7-14.9c1.4-2,2.3-4.4,3.1-6.7c0.5-1.5,0.6-3.3,0.3-4.8c-0.4-2.2-2.4-2.8-4.9-1.5c-0.2,0.2-1,0.7-1.3,1.4
			c-1.7,3.6-3,7.3-4,11.2c-0.9,3.6-2.5,7.2-4.3,10.5c-3.2,6-7,11.8-8.3,18.7c-0.3,1.9-0.9,3.8-1,5.8c-0.2,2.8-0.3,5.6,0,8.4
			C532.4,129.3,533.6,131.1,534.2,131.1z M541.9,122c-1.4,4.3-3.7,7.1-6.2,7.8C537.7,127.3,539.6,124.8,541.9,122z"/>
		<path class="st0" d="M675.5,459.7c-1.4-0.9-2,0.3-2.8,0.6c-2.5,1-5.3-0.4-7.9,2c-2.7,2.6-4.3,4.2-3.4,7.8c0.8,3.2,4.9,4.4,8.5,2.5
			c2.9-1.5,6.7-5.5,7.6-8C678.2,462.4,677.4,461,675.5,459.7z"/>
		<path class="st0" d="M587.7,93.6c0.3-0.2,0.8-0.7,1.3-1.3c3.1-3.3,4.6-7.3,5.5-11.7c0.4-1.9,0.4-4,2.4-5.3c0.5-0.3,0.8-1.1,1-1.7
			c0.4-1.4,0.8-3-1-3.7c-1.6-0.6-2.7,0.1-3.6,1.7c-1.4,2.6-3.2,5-4.7,7.4c-2.3,3.8-4.9,7.4-4.9,12.2
			C583.6,93.7,585.2,94.8,587.7,93.6z"/>
		<path class="st0" d="M468.1,273.1c0.3,1.7,1.2,2.5,2.8,1.9c0.5-0.2,1-0.6,1.4-1.1c2.4-2.7,3.1-13.4,1.1-16.4
			c-0.8-1.2-2.7-1.2-3.4,0.2c-0.4,0.7-0.5,1.6-0.7,2.4c-0.4,1.5-0.6,3.2-1.3,4.6C466.5,267.7,465.1,270.5,468.1,273.1z"/>
		<path class="st0" d="M634.4,172.4c1.2-1.2,2.4-2.1,3.1-3.3c1.8-3.1,3.3-6.3,4.9-9.5c0.2-0.4,0.2-1.2-0.1-1.5
			c-0.4-0.3-1.2-0.6-1.6-0.4c-0.7,0.2-1.2,0.9-1.7,1.4c-1.6,1.7-3.3,3.3-4.7,5.1c-1.2,1.6-2.2,3.4-3,5.2c-0.3,0.7,0.2,2,0.8,2.6
			C632.4,172.5,633.5,172.3,634.4,172.4z"/>
		<path class="st0" d="M550.6,247.9c-1.9,2.2-4.1,4.2-4.2,7.5c0,2,1.1,3,3.3,2.2c0.1-0.1,0.5-0.3,0.8-0.7c1.6-2.5,3.1-5,4.6-7.5
			c0.5-0.9,1.1-1.9,1.2-2.8c0.1-0.8-0.4-1.7-0.6-2.6c-1,0.4-2.1,0.7-2.9,1.4C551.9,246,551.3,247.1,550.6,247.9z"/>
		<path class="st0" d="M691.8,397c-2.4,1.4-4.5,3.2-5.5,5.9c-0.4,1.2-0.3,3.1,0.4,3.9s2.5,0.5,3.5,0.7c2.9-2.5,4.5-5,4.8-8.3
			C695.3,396.9,693.8,395.9,691.8,397z"/>
		<path class="st0" d="M595.1,126.4c-0.2,2.1,1.3,3,3.2,2c0.2-0.1,0.6-0.3,0.8-0.6c2.7-3.2,2.8-7.2,3.5-11c0.1-0.4-1-1.3-1.7-1.5
			c-0.5-0.1-1.5,0.4-1.8,1c-1,1.6-1.8,3.3-2.5,5C596,122.9,595.3,124.6,595.1,126.4z"/>
		<path class="st0" d="M683.2,190c0.5,0.3,1.4,0.1,1.9-0.2c4.3-3.3,5.1-8.1,6.1-12.9c-0.2-0.2-0.4-0.4-0.6-0.6
			c-0.7,0.4-1.5,0.7-2,1.3c-1.2,1.3-2.5,2.7-3.3,4.2c-1.1,2.1-1.9,4.3-2.7,6.6C682.3,188.8,682.8,189.7,683.2,190z"/>
		<path class="st0" d="M565.6,226.8c-2.3,1.6-4.5,3.4-5,6.4c-0.1,0.6,0.1,1.6,0.5,1.9c0.5,0.4,1.4,0.3,1.8,0.4
			c1.6-0.9,4.8-6.8,4.4-7.9C567.2,227.2,565.9,226.6,565.6,226.8z"/>
		<path class="st0" d="M677.5,184.6c1-2.3,2-4.7,2.8-7.1c0-0.1-1.9-1.2-2.1-1c-1.7,1.9-3.9,3.5-3.8,6.4c0,0.6,0.2,1.5,0.6,1.7
			C675.5,184.9,676.3,184.7,677.5,184.6z"/>
		<path class="st0" d="M657.4,369.3c-0.1,0.2,0.5,1.2,0.7,1.1c1.3-0.2,2.6-0.5,3.9-0.9c0.1,0,0.1-0.1,0.2-0.1c1-0.8,2.7-1.7,1.7-3.1
			c-0.6-0.8-2.5-0.6-4.1-0.8C658.8,367,658,368.1,657.4,369.3z"/>
		<path class="st0" d="M486.4,381c1.5-0.8,2.2-2.2,1.8-3.8c-0.4-1.4-2.2-1.7-4-0.8c-1.7,0.7-2.4,1.7-1.5,3.4
			C483.4,381.4,484.7,381.9,486.4,381z"/>
		<path class="st0" d="M701,137.8c0.7-0.2,1.7-0.1,2.2-0.5c1.3-1.1,2.4-2.4,3.5-3.8c0.4-0.5,0.3-1.2,0.5-1.9c-0.7-0.1-1.3-0.2-2-0.3
			c-1.4,1.4-2.8,2.6-3.9,4C700.8,135.9,701.1,137,701,137.8z"/>
		<path class="st0" d="M592.3,397c-2,0.7-2.7,2.4-1.6,3.8c0.6,0.8,1.9,1,2.9,1.4c1.7-1.4,2.5-3.5,1.5-4.6
			C594.5,397.1,593.1,396.8,592.3,397z"/>
		<path class="st0" d="M590.2,207.7c-1.4,0.3-3.7,3.8-3.4,5.3c0.1,0.6,1,1,1.9,1.9c1.4-2.3,2.5-3.9,3.3-5.7
			C592.5,207.9,591.2,207.5,590.2,207.7z"/>
		<path class="st0" d="M442,348.1c0.3,0.2,1.4-0.2,1.5-0.5c0.3-1.4,0.5-2.8,0.7-4.3c-1.1-0.7-1.8-1.2-2.5-1.6
			c-0.5,0.8-1.1,1.5-1.4,2.3C439.9,345.7,440.5,347.2,442,348.1z"/>
		<path class="st0" d="M662.8,250.6c1.5-1,2.9-2.4,4.2-3.7c0.2-0.2,0.1-0.8,0.2-1.2c-0.6-0.1-1.2-0.3-1.6-0.1
			c-1.1,0.5-2.1,1.1-3,1.9c-1.2,1-2.3,2.2-3.4,3.2c0.2,0.3,0.3,0.5,0.5,0.8C660.7,251.3,661.9,251.2,662.8,250.6z"/>
		<path class="st0" d="M528.6,258.2c2-0.8,2.7-4.7,0.7-6.8c-0.9,2-1.8,3.6-2.4,5.3C526.5,257.8,527.2,258.7,528.6,258.2z"/>
		<path class="st0" d="M500.8,360.9c0.3-0.1,0.6-0.3,1-0.4c0.2-1,0.7-2.2,0.4-3.1c-0.3-1.2-1.6-1.6-2.8-0.9
			c-1.2,0.7-1.8,1.9-0.9,3.1C499,360.2,500,360.5,500.8,360.9z"/>
		<path class="st0" d="M460.5,285.7c0.3-1,0.6-1.9,1-3.3c-1.2-0.3-1.9-0.5-2.5-0.7c-0.2,1-0.6,2.1-0.5,3.1
			C458.6,285.2,459.8,285.4,460.5,285.7z"/>
		<path class="st0" d="M647.1,564.7c-0.2,0.8-0.7,1.8-0.4,2.4c0.4,0.6,1.5,0.8,2.7,1.3c0.3-1.2,0.8-2.4,0.5-2.6
			C649.1,565.2,648,565,647.1,564.7z"/>
		<path class="st0" d="M486,226.5c0.2-1.2,0.4-2.4,0.4-3.6c0-0.3-0.6-0.7-1-1.1c-0.3,0.1-0.5,0.1-0.8,0.2c-0.1,1.2-0.3,2.5-0.2,3.7
			C484.5,226.1,485.4,226.3,486,226.5z"/>
		<path class="st0" d="M673.9,321.9c0.2-0.4,0.5-0.8,0.7-1.1c0.2-0.7,0.4-1.4,0.5-2.2c-1-0.2-2-0.5-3-0.4c-0.2,0-0.7,1.5-0.4,2
			C672.2,320.9,673.2,321.3,673.9,321.9z"/>
		<path class="st0" d="M530.5,281.4c2.6-0.5,3.3-2.1,2.1-4.2C530.7,277.9,529.4,278.9,530.5,281.4z"/>
		<path class="st0" d="M515.9,287.8c-1.6,0.7-1.6,2.1-1.1,3.8c2.2-0.1,2.5-1.5,2.4-3C517.1,288.3,516.2,287.7,515.9,287.8z"/>
		<path class="st0" d="M457.2,188.2c0-0.3-0.9-1-1.3-0.9c-1.8,0.4-1.5,1.7-1.1,3.1C456.5,190.6,457.2,189.7,457.2,188.2z"/>
		<path class="st0" d="M480.7,387.4c0.4-0.1,0.6-1.1,1.2-2.1c-1.3-0.1-2.1-0.4-2.8-0.1c-0.4,0.1-0.4,1.2-0.5,1.8
			C479.3,387.2,480.1,387.6,480.7,387.4z"/>
		<path class="st0" d="M571.7,241.3c-0.2,0.9-0.5,1.8-0.8,3.1c2.4-0.1,2.9-1,2.5-2.3C573.3,241.7,572.3,241.5,571.7,241.3z"/>
		<path class="st0" d="M461.4,362.2c0.2-1,0.6-1.9,0.4-2.2c-0.4-0.5-1.2-0.5-1.8-0.8c-0.1,0.6-0.5,1.3-0.3,1.8
			C459.8,361.5,460.5,361.7,461.4,362.2z"/>
		<path class="st0" d="M558.6,426.5c0.9-0.3,1.7-0.6,2.6-0.9c-0.1-0.4-0.2-0.8-0.3-1.2c-0.8,0.2-1.6,0.3-2.3,0.6
			C558.4,425.1,558.6,426,558.6,426.5z"/>
		<path class="st0" d="M576.5,352c0.5,0.2,0.9,0.5,1.4,0.7c0.3-0.8,0.7-1.7,1-2.5c-0.3-0.2-0.7-0.3-1-0.5
			C577.5,350.5,577,351.2,576.5,352z"/>
		<path class="st0" d="M443.1,320.9c-0.2-1.1-0.4-2.1-0.6-3.2c-0.4,0.1-0.7,0.1-1.1,0.2c0.2,1.1,0.3,2.1,0.5,3.2
			C442.3,321,442.7,321,443.1,320.9z"/>
		<path class="st0" d="M447.2,343.3c0.3-0.9,0.6-1.7,1-2.6c-0.4-0.2-0.8-0.4-1.2-0.6c-0.3,0.8-0.7,1.5-0.9,2.3
			C446.1,342.6,446.8,343,447.2,343.3z"/>
		<path class="st0" d="M746.1,460.2c-2.2,0-4.4,0.4-6.7,0.7c-0.6,0.1-1.3,0.4-2.3,0.8c1,0.7,1.5,1.2,2.1,1.5
			c0.9,0.4,1.9,0.6,2.9,0.8c4.4,0.7,8.9,0.6,13.4,0.5c1.6,0,2.8-0.5,3.5-2c0-0.4,0-0.8,0-1.2c-0.8-0.3-1.6-0.8-2.5-0.8
			C753.1,460.3,749.6,460.1,746.1,460.2z"/>
		<path class="st0" d="M625.7,345.8c-0.9,0.3-1.7,0.5-2.4,0.9c-1.4,0.8-2.7,1.7-4,2.6c-2,1.4-3.9,2.9-5.8,4.4
			c-6.4,5-12.8,10-19.2,15.1c-0.6,0.5-1.1,1-1.7,1.5c0.1,0.1,0.2,0.2,0.3,0.3c1.1-0.7,2.1-1.4,3.2-2.1c6.7-4.9,13.3-9.8,20-14.6
			c2.6-1.9,5.3-3.6,7.9-5.4C624.9,348,625.8,347.4,625.7,345.8z"/>
		<path class="st0" d="M351.2,360.4c1-1.1,0.6-2.3,0.4-3.3c-0.3-1.6-0.7-3.2-1.1-4.9c-1.4-5.8-2.8-11.6-4.2-17.3
			c-0.2-0.9-0.6-1.7-1-2.6c-0.2,0.1-0.5,0.1-0.7,0.2c2.1,9.1,3.8,18.3,6,27.4C350.7,360.1,350.9,360.2,351.2,360.4z"/>
		<path class="st0" d="M713.1,388.9c-1.1,0.9-2.3,1.9-3.4,2.8c-0.6,0.5-1.2,1.2-1,2.4c0.5-0.2,0.9-0.3,1.2-0.5
			c4.2-3.2,8.3-6.4,12.5-9.6c0.2-0.1,0.2-0.4,0.4-0.7c-1.7-0.5-3,0.3-4.1,1.2C716.8,386,714.9,387.5,713.1,388.9z"/>
		<path class="st0" d="M321.3,328.1c-0.1,0.2-0.3,0.3-0.3,0.5c0.3,1.8,6.4,19.7,7,20.5C328.4,346.4,323.3,330.5,321.3,328.1z"/>
		<path class="st0" d="M593.5,625.5c0.6,2.3,1.4,4.5,2.9,6.4c0.2,0.2,0.5,0.3,0.7,0.4c-0.8-2.8-1-5.8-3.2-8.4
			C593.7,624.7,593.4,625.2,593.5,625.5z"/>
		<path class="st0" d="M619.7,518.5c-0.5-0.3-1-0.9-1.3-0.8c-0.8,0.2-1.1,1-0.9,1.8c1.9,0.8,3.8,0.5,5.5-1.1c-0.6-0.4-1.1-1-1.5-0.9
			C620.7,517.7,620.1,518.3,619.7,518.5z"/>
		<path class="st0" d="M724.3,391.5c1.9,0.5,3,0,3.6-1.9C725.6,389.2,724.7,389.7,724.3,391.5z"/>
		<path class="st0" d="M586.8,614.6c0,2,0.5,2.8,2.3,3.4C589.1,616.4,588.4,615.3,586.8,614.6z"/>
		<path class="st0" d="M650.6,417.3c-1.6-0.5-2-0.3-2.9,1.5C649.6,419,650,418.8,650.6,417.3z"/>
		<path class="st0" d="M234.4,390.7c-0.6-1.4-1.4-2.6-2.5-3.7c-0.1,0.1-0.2,0.2-0.4,0.3c0.8,1.2,1.6,2.4,2.4,3.6
			C234.2,390.9,234.3,390.8,234.4,390.7z"/>
		<path class="st0" d="M448,314.4c-0.9,1-0.7,2,0,2.9C448.3,316.4,449,315.4,448,314.4z"/>
		<path class="st0" d="M448.5,308.5c-0.2,1.3-0.3,2.6-0.5,4c0.2,0,0.3,0,0.5,0C449,311.3,449.2,310,448.5,308.5z"/>
		<path class="st0" d="M249.1,410.4c-0.1-1.1-0.5-2-1.9-2.6C247.5,409.2,248.1,409.9,249.1,410.4z"/>
		<path class="st0" d="M238,395.5c0.1-0.1,0.2-0.2,0.4-0.3c-0.7-0.9-1.4-1.8-2.2-2.7c-0.1,0.1-0.3,0.2-0.4,0.3
			C236.3,394,237.1,394.8,238,395.5z"/>
		<path class="st0" d="M588.3,576.5c0-1.3,0-1.3-1.4-1.6C587,575.8,587.3,576.4,588.3,576.5z"/>
		<path class="st0" d="M757.7,470.3c-1-0.5-1.5,0-2.4,0.8C756.4,471.4,757.3,471.6,757.7,470.3z"/>
		<path class="st0" d="M183.1,512.8c0.5-0.8,0.7-1.2,1-1.7C182.7,511.1,182.7,511.1,183.1,512.8z"/>
		<path class="st0" d="M196.3,642.2c1.4,0,1.4,0,1-1.7C196.9,641.3,196.6,641.7,196.3,642.2z"/>
		<path class="st0" d="M752.3,486c0.2-0.4,0.5-0.9,0.8-1.5C751.7,484.8,751.7,484.8,752.3,486z"/>
		<path class="st0" d="M688.2,462.5c0.9-0.3,1.5-0.4,1.7-1.3C689,461.2,688.6,461.6,688.2,462.5z"/>
		<path class="st0" d="M622.8,523.6c0.6,0,1.2-0.1,1.8-0.1c0-0.2,0-0.3,0-0.5c-0.6,0.1-1.2,0.1-1.8,0.2
			C622.8,523.4,622.8,523.5,622.8,523.6z"/>
		<path class="st0" d="M228.8,383c-0.3-0.5-0.6-1.1-1-1.9C227.3,382.4,227.8,382.8,228.8,383z"/>
		<path class="st0" d="M245.4,405.1c-0.1,0.1-0.2,0.2-0.4,0.3c0.3,0.4,0.6,0.9,1.1,1.6C246.5,405.8,246,405.4,245.4,405.1z"/>
		<path class="st0" d="M604.2,529c0.5-0.1,0.9-0.2,1.4-0.3c0-0.1-0.1-0.3-0.1-0.4c-0.5,0.1-0.9,0.2-1.4,0.2
			C604.1,528.6,604.1,528.8,604.2,529z"/>
		<path class="st0" d="M628.9,518.4c-0.4,0.1-0.9,0.1-1.3,0.2c0,0.1,0,0.2,0,0.4c0.4,0,0.9-0.1,1.3-0.1
			C628.9,518.7,628.9,518.6,628.9,518.4z"/>
		<path class="st0" d="M620.5,514.7c0.4-0.1,0.8-0.1,1.2-0.2c0-0.2,0-0.3-0.1-0.5c-0.4,0.1-0.8,0.2-1.2,0.3
			C620.5,514.4,620.5,514.6,620.5,514.7z"/>
		<path class="st0" d="M625.6,519.6c-0.4,0.1-0.8,0.1-1.2,0.2c0,0.1,0,0.2,0,0.3c0.4,0,0.8-0.1,1.2-0.1
			C625.6,519.9,625.6,519.8,625.6,519.6z"/>
		<path class="st0" d="M602,125.5c-16.7,19.1-33.5,38.2-50,57.2c-0.2-0.5-1.4-3.6-2.7-7c-22.8,17.2-22.1,36.4-0.5,47.2
			c0.4-0.8,0.9-1.6,1.3-2.3c-0.1,1,0.1,2.3,0.7,3c0.4,0.5,1.9,0.2,3.2,0.3c1.1-1.7,2.5-3.1,3.2-4.9c0.5-1.3,0.8-3.4-1-4.2
			c-1.1-0.5-2.1-0.3-2.9,0.2c6.4-11.6,12.7-23.1,19.4-34.4c-0.2,1.7,0.3,3.1,1.9,4c1.7,0.9,3.4,0.5,4.6-0.8c2-2.1,4.4-4.2,5.6-6.7
			c2.2-4.5,3.7-9.4,5.3-14.2c0.3-0.9-0.1-2-0.3-3.1c-0.3-1.6-1.6-2-2.8-1.9c0.9-0.7,1.9-1.1,2.9-1.2c24.4-2.1,10.1-19.7,16.7-28.2
			C605,127.5,603.5,126.5,602,125.5z M578.4,183.4c-3,1.9-4.1,1.3-5.2-2c-0.1-0.4-0.3-0.7-0.5-1c0.5-0.9,1.1-1.9,1.6-2.9
			c0,1.7,0.1,3.4,0.1,5.1c3.4,2.1,4.7-1.5,6.8-2.8c0.1,0.2,0.3,0.3,0.4,0.5C580.6,181.3,579.7,182.6,578.4,183.4z"/>
		<path class="st0" d="M687.4,385.7c-11.3,6.1-22.6,12.2-33.8,18.4c-3.5,1.9-7.3,3.3-11.1,4.5c-2.8,0.9-5.5,1.9-8.1,3.1
			c-1.2,0.5-2.3,1.5-3.5,2.2c-0.8,0.5-1.6,1.1-2.7,0.5c-0.1-1.1-0.1-2.1-0.2-3.1c-3,0.4-5.4,2.5-5.7,5.1c-0.2,1.6-0.9,2.6-2.2,3.3
			c-1.8,1-3.6,1.9-5.4,2.9c-3,1.6-5.9,3.2-8.3,5.6c-1.2,1.2-2.5,2.3-3.9,3.3c0.2-3.9,0.4-8.3,0.7-14c-15.2,16.3-30.6,27.8-49.1,31.9
			c1.2-1.3,3.1-1.4,4.3-2.8c-1.1,0.1-2,0.1-2.7,0.3c-2.9,0.9-5.8,1.8-8.6,3c-0.9,0.4-1.7,0.7-2.6,0.9c-4.9,0.4-10,0.3-15.4-0.4
			c-0.6-1-1-2.1-1.1-3.3c6.8-6.1,13.3-12,19.7-17.8c0,0,0,0,0,0c0.4-0.1,0.8-0.5,0.9-0.8c0.5-0.4,0.9-0.8,1.4-1.2
			c0.4,0.2,1,0.4,1.3,0.2c0.5-0.2,0.6-1.1,1.2-2.2c-0.1,0-0.1,0-0.2,0c4-3.6,7.9-7.1,11.9-10.7c-0.7-0.4-1.5-0.8-2.2-1.2
			c-6.6,2.4-13.3,4.9-19.9,7.3c8.4-9.6,16.8-19.2,25.2-28.8c1.1-1,2.3-2,3.4-2.9c3.7-3.2,7.6-6.2,11.4-9.2c0,0.3,0,0.6,0.1,0.8
			c0.4,1,1.9,1.6,3,1.2c1.8-0.6,2.7-2.9,2-4.8c-0.1-0.3-0.4-0.5-0.7-0.7c0.4-0.3,0.8-0.6,1.1-1c0.4-0.5,0.7-1.1,1-1.6
			c-1-0.8-1.7-0.4-2.3,0c-1.2,0.9-2.4,1.9-3.6,2.8c-2.2,1.7-4.4,3.5-6.6,5.2c28.9-33.1,57.9-66.2,86.8-99.3c-0.5-0.5-1.1-1-1.6-1.5
			c-31.6,28.4-63.2,56.8-94.8,85.1c0.1-0.3,0.2-0.7,0.3-1c-0.6-0.1-1.1-0.1-1.8-0.2c-0.8,0.7-1.7,1.2-2.3,1.9
			c-0.2,0.3-0.1,1.2,0.2,1.4c0.2,0.2,0.7,0.3,1,0.3c-0.6,0.6-1.3,1.1-1.9,1.7c3.7,0.4,7.5,0.8,11.2,1.3c-4.2,3.7-8.7,7-13.4,10.1
			c-2.2,1.5-4.4,3-6.6,4.5c-3.1-1.6-6.5-3.3-10.8-5.4c0.1,1.8-0.1-1.5-0.5-7.6c-1.3,0.9-2.5,1.7-3.6,2.5c0.3-0.4,0.5-1,0.8-1.5
			c-0.1-0.3-0.3-0.6-0.4-0.9c-1.3-0.1-2.6-0.3-3.9-0.3c4-5,7.9-10,11.9-14.9c1,0.3,2.1,0.3,3-0.3c1-0.7,1.9-2.3,1.9-3.6
			c0-0.4-0.4-0.7-1-1c0.3-0.4,0.6-0.8,0.9-1.2c-0.9-1.2-1.8-2.3-2.7-3.5c-7.6,4.2-15.1,8.5-27.6,15.5c1.7-9.1,1.5-15.3,4-20.2
			c5.1-9.9,11.3-19.2,15.3-25.5c0.3,0.4,1.4,0.6,2.5,1c0.6-1.5,1.1-2.5,1.6-3.6c-0.2,0-0.5-0.1-0.7-0.1c8-4.8,15.9-7.5,17.9-12.5
			c6.4-16.7,14.1-29.5,34.4-28.7c0.7,0,1.5-2.9,2.2-4.5c-7.7-0.9-13.7-1.6-21.3-2.6c6.6-12.3,11.9-22.3,17.2-32.2
			c-0.8-0.5-1.6-1.1-2.4-1.6c-19.7,26.4-39.4,52.8-57.8,77.4c-34.1-8.1-32.4,5.8-24.7,24.2c-0.2,0.6-0.3,1.3-0.1,1.9
			c0.2,0.6,0.7,1.1,1.2,1.4c0,0-0.1,0-0.1,0c-1.2,0.4-1.8,1.6-1.7,3c-2.6-1.7-4.3-2.9-5.9-4c3.6,6.7,4.9,12,4.3,16.4
			c-0.2,1.5-0.5,2.8-1.1,4.1c-0.5,1.3-1.3,2.4-2.1,3.5c-0.8,1-1.7,1.9-2.6,2.7c-0.5,0.5-1.1,0.9-1.7,1.3c-0.8,0.6-1.7,1.2-2.6,1.7
			c-0.1-0.2-0.2-0.5-0.2-0.8c-0.1-1,0.4-2.1,0.2-3.1c-0.2-1-0.6-2.4-1.4-2.7c-1.5-0.6-3.6-1.2-4.8-0.5c-1.5,0.8-2.2,0.6-3.5-0.2
			c0.9-1.2,1.7-2.2,2.7-3.5c-0.3,0-0.5,0-0.8,0c10.5-12.3,7.3-24.5,5.8-39.8c1.2-2.1,2.6-5.7,2.2-6.5c-0.1-0.3-0.8-0.5-1.2-0.5
			c-0.4,0-0.8,0.4-1.2,0.4c-0.1,0-0.2,0-0.3,0c0-0.1,0-0.2,0-0.3c-0.1,0.1-0.2,0.2-0.3,0.3c-2.7,0.2-4.3,1.3-4.6,4
			c0,0.4,0,0.9,0.1,1.3c-2.2,2.6-4.2,5.1-6.1,7.4c-1.4-0.2-3,0.8-3.4,2.2c-0.1,0.6-0.1,1.2,0.2,1.7c-1,1.2-2,2.4-2.9,3.5
			c-0.1-0.4-0.2-0.9-0.3-1.3c0.2,0.1,0.4,0.3,0.6,0.4c0.3-0.8,0.6-1.3,0.6-1.7c0-0.2-0.9-0.7-1.1-0.5c-0.2,0.2-0.4,0.4-0.5,0.6
			c-0.3-1-0.6-1.9-1-2.9c0.3,0.3,0.8,0.5,1.2,0.8c0.2-0.1,0.4-0.1,0.6-0.2c0.2-0.8,0.7-1.6,0.6-2.3c-0.1-0.4-1.1-0.6-1.6-0.9
			c-0.3,0.6-0.8,1.3-0.9,1.9c-0.1-0.2-0.2-0.4-0.2-0.6c-0.9-2-1.6-3.7-0.8-6c1-3-1.4-7.7-3.9-7.7c-1.7,0-3.4-0.5-5.2-0.3
			c-0.6-0.7-1.4-1.1-2.1-0.9c-0.9,0.3-1.6,1.4-1.8,2.5c-0.9,0.7-1.5,1.7-1.7,3c-0.5,2.9-0.6,5.8-1.1,8.7c-0.4,2.4-0.7,4.9-1.8,7
			c-1.3,2.5-1.6,4.9-0.9,7.6c0.2-2.1,0.4-4.2,0.7-6.3c0.3,0,0.7,0,1-0.1c0.3,0.8,0.8,1.5,0.9,2.3c0.2,1.9,0.5,3.9,0.2,5.8
			c-0.1,0.9-1.5,1.5-2.3,2.3c-0.2-1.4-0.3-2.7-0.5-4.1c-0.6,4.5,1.4,8.4,3.1,12.4c0.5,1.2,0.3,2.8,0.5,4.2c0.1,1.2,0.3,2.4,0.4,3.6
			c0.2,0,0.4-0.1,0.6-0.1c0-1.1,0-2.2,0.1-3.2c0.2,0,0.4,0,0.6-0.1c0.3,1.2,0.7,2.4,1.1,3.8c1.7-1.7,0.5-3.7,0.7-5.7
			c1,0.1,1.9,0.2,2.8,0.3c0.2,0,0.4,0,0.6,0c0,0.1,0,0.2-0.1,0.3c0,0.2,0.7,0.4,1,0.7c0.2-0.3,0.3-0.6,0.5-0.9
			c0.9,0,1.8,0.1,2.7,0.1c1.3,1.5,2.6,3,3.9,4.4c0.4,0.5,1.1,1.2,1.5,1.2c0.6-0.2,1.2-0.8,1.5-1.4c0,0,0,0,0,0c0.3,0,0.5,0,0.8-0.1
			c1.2-0.5,2-2.2,1.5-3.5c-0.1-0.2-0.3-0.5-0.5-0.7c1-2.8,2.5-5.5,1.4-8.6c-0.3-0.9-0.7-1.7-1.1-2.6c-0.3-0.7-0.7-1.3-1.1-2
			c0-0.6,0-1.1,0-1.7c2.9-2,5.8-4.1,9.2-6.4c-0.3,1.2-0.1,2.1,0.6,2.7c0,0.2,0,0.3,0.1,0.5c0.2,0.6,0.8,1.1,1.5,1.3
			c0.3,2,0.3,3.8,0.1,5.6c-0.4-0.3-0.8-0.5-1.2-0.6c0-0.6-0.1-1.1-0.1-1.4c-1.4,0-2.7-0.3-3.8,0c-3.8,1.2-3.9,1.7-2.3,5.5
			c0.2,0.6,0.4,1.1,0.6,1.7c0.6,2,2.3,3.3,4.4,3.3c-0.5,0.9-1,1.8-1.6,2.6c-0.2-0.1-0.5-0.2-0.7-0.2c-0.6-0.1-2,1.2-1.9,1.7
			c0.1,0.6,0.1,1.1,0,1.5c-2.9,2.6-6.4,4.1-9.8,3.9c-9.8-0.4-12.8,3.2-14.3,7.1c-1.1-1.2-2.2-2.5-3.3-3.7c-0.8-0.9-1.5-1.9-3-1.3
			c-1.6,0.7-3.2,1.9-3,3.6c0.3,2.5-0.6,4.7-1.1,7c-0.3,1.1,0,2,0.7,2.7c-0.8,0.4-1.4,1-1.6,1.8c-0.2,0.8,0.1,2,0.6,2.7
			c0.7,1,1.8,1.3,3.3,1c0.6-0.7,1.1-1.4,1.7-2c0.1-0.1,0.2-0.2,0.3-0.3c0.6,0.2,1.1,0.2,1.6,0.1c0.4,0.2,0.9,0.5,1.1,0.3
			c0.3-0.2,0.5-0.5,0.8-1c1-0.5,1.9-1,2.9-1.3c1,0.8,1.9,1.5,2.7,2.1c-0.3,0.6-0.4,1.2-0.2,1.8c0.3,0.9,1.2,1.4,2.3,1.3
			c-1.3,2.7-2.7,5.3-4.1,7.9c-0.6,0.1-1.1,0.1-1.7,0.2c-0.1-1.1-0.6-2.2-1.5-3.5c-0.2-0.3-0.7-0.8-1-0.8c-1.2,0.2-2.5,0.3-3.5,1
			c0-0.1,0-0.1,0-0.2c-0.1-0.3-0.8-0.4-1.2-0.4c-0.2,0-0.5,0.7-0.4,1c0.1,0.2,0.3,0.3,0.6,0.5c-0.2,0.2-0.3,0.5-0.5,0.8
			c-1.6,3.6,1.4,4.9,3.2,6.8c0.3,0.3,1.5-0.3,2.3-0.5c0,0,0,0,0,0l0,0.1c0,0,0,0,0,0c0,0,0,0,0-0.1c0.2-0.3,0.4-0.5,0.6-0.8
			c0.1,0.1,0.3,0.2,0.5,0.3c-0.1,0.2-0.2,0.4-0.4,0.6c-0.3,0-0.5,0-0.8-0.1c0,0.5,0,1,0,1.5c-0.1,0.2-0.3,0.5-0.4,0.7
			c-4.4,0.3-3.9,2.9-3.1,5.4c0,0.1-0.1,0.2-0.1,0.2c-0.5,0.1-0.8,0.4-0.8,0.8c-0.6-0.2-1.1-0.3-1.5-0.1c-0.5,0.2-0.8,0.5-1.2,0.9
			c0,0,0,0,0,0c-0.7-1.5-1.4-3.1-2.1-4.6c0.1-0.3,0.2-0.5,0.3-0.7c0.6,0.1,1.3,0.2,2.1,0.4c-0.2-1.3-0.2-2.3-0.6-3
			c-0.4-0.6-1.5-1-2.2-0.9c-0.2,0-0.5,0.2-0.8,0.4c-0.5-2.8-1-5.7-1.5-8.7c0.2-0.6,0-1.2-0.2-1.8c0-0.1-0.1-0.1-0.1-0.2
			c-0.2-1.3-0.4-2.5-0.7-3.8c0.1-0.3,0.2-0.6,0.3-0.9c-0.1,0.2-0.2,0.4-0.3,0.6c-0.5-2.9-1-6-1.6-9.2c-1.1,1.6-2.2,3.2-3.3,4.8
			c-0.1-0.6-0.2-1.2-0.3-1.8c0-0.2-0.1-0.3-0.1-0.5c0.2,0.2,0.4,0.4,0.7,0.6c0.2-0.7,0.6-1.2,0.5-1.6c-0.1-0.3-0.6-0.4-0.9-0.7
			c-0.1,0.3-0.3,0.6-0.4,0.9c-0.1-0.4-0.2-0.9-0.2-1.3c-0.7,0.4-1.7,0.7-2.1,1.3c-1,1.4-0.2,2.4,1.6,3.1c-0.6,0.8-1.2,1.6-1.6,2.4
			c-0.3,0.7-0.5,1.5-0.5,2.3c-1.6,2.4-3.2,4.7-4.8,7c-0.8-0.7-1.1-1.7-0.8-2.9c0.3-1.3,0.3-2.7,0.4-4.1c0-0.4-0.2-0.9-0.3-1.3
			c-0.5,0.4-0.8,0.8-0.8,1.3c-0.1,2-0.2,4.1-0.3,6.1c0,0.7-0.1,1.4,0.1,1.9c0.1,0.3,0.3,0.6,0.5,0.8c-0.8,1.1-1.6,2.3-2.3,3.4
			c-0.7-0.5-1.1-1.1-1.4-1.8c1.1-0.5,1.4-1.5,0.9-2.8c-0.4-1-1.3-1.6-2-1.6c-0.1-0.9-0.3-1.8-0.4-2.7c-0.2,0-0.3-0.1-0.5-0.1
			c-0.7,0.9-1.3,1.8-2,2.7c0.6,0.5,1,1,1.2,1.5c-0.1,0-0.2-0.1-0.3-0.1c-0.1,0.1-0.1,0.3-0.1,0.4c0.2,0.3,0.4,0.4,0.6,0.4
			c0,0.3,0,0.7,0.1,1c0,0.1,0.1,0.2,0.2,0.3c0,0.3,0,0.6,0,1c0,0.2,0,0.4-0.1,0.6c-0.3-0.5-0.8-0.6-1.3-0.5c-0.2,0-0.4,0.5-0.7,0.9
			c0.7,0,1.2,0.3,1.7,0.2c-0.2,0.3-0.4,0.5-0.8,0.7c-2.4,0.9-4.8,2-7.3,0.3c-0.1-0.1-0.4,0.1-0.8,0.1c0.1,0.4,0.1,0.8,0.3,1
			c0.3,0.3,0.6,0.7,0.9,1c-2.6-0.3-4.7-0.8-6.3-1.5c0,0,0-0.1,0-0.1c0.2-0.6,0.3-1.2,0.2-1.7c0-0.3-1.3-0.5-2-0.8
			c-0.1,0.4-0.2,0.9-0.3,1.4c-3.4-2.7-2.4-7.4,1.6-14.6c3.6-6.4,4.7-14.3,6.2-21.9c0.3,0.1,0.5,0.2,0.6,0.2c0.5-0.1,0.8-0.5,0.6-1
			c-0.1-0.3-0.6-0.6-0.9-0.5c0,0-0.1,0-0.1,0.1c0.3-1.4,0.6-2.8,0.9-4.2c-1.5-0.3-3-0.7-4.5-1c-6.5,9.9-12.4,20.2-19.6,29.6
			c-6.2,8.2-9.2,15-8.8,22c-2.6-1.1-4.8-2.9-6.2-5.8c-0.7-1.5-1.9-2.8-3.3-4c0.3-0.1,0.7-0.2,1.1-0.4c1.4,1,2.1,1.1,3,0.4
			c0.4-0.3,0.7-0.8,0.9-1.3c0.4,0.1,0.8,0,1.4-0.2c0.2-0.3,1-0.7,1.1-1.3c0.3-1.4,0.3-2.9,0.3-4.3c0-0.1-1.1-0.5-1.4-0.3
			c-1.2,0.8-2.1,1.9-2.4,3.2c-0.5-0.2-1-0.2-1.9-0.2c-0.2-0.2-0.3-0.3-0.5-0.5c1.6-2.9,3-5.9,3.2-8.9c0.3-4.6-4.1-9.5-6.5-14.2
			c-1,1.5-1.9,3.1-2.9,4.6c-0.1,0.7-0.1,1.4-0.2,2.1c-0.1-0.3-0.3-0.7-0.5-1c-1.2-2-2-2.1-3.7-0.4c-0.1,0.1-0.3,0.3-0.5,0.3
			c-1.6,0.9-2.5,2.2-2.7,4c0,0,0,0,0,0c0,0,0,0,0,0l0,0v0l0-0.1c0.1,0.9,0.2,1.7,0.4,2.6c0.2,1.3,0.5,2.5,1.9,3.1
			c1.4,0.6,2.6,0.2,3.7-0.9c0.3-0.3,0.5-0.6,0.7-0.9c-0.5,5.1-1.1,10.2-1.6,15.4c1.5,0.6,3,1.3,4.5,1.9c0.3-0.7,0.6-1.3,1-1.9
			c0,0,0,0.1,0,0.1c-0.1,1.6-0.2,3.2-0.2,4.8c-1.2,1.2-1.7,3.1-0.8,4.7c-1.9-0.5-3-0.2-3.7,1.1c-0.1,0-0.1,0-0.2-0.1
			c0,0.1-0.1,0.3-0.1,0.3c0,0,0.1,0.1,0.2,0.1c-0.2,0.4-0.3,0.9-0.4,1.4c-0.1,0.8-0.3,1.6-0.6,2.4c-0.1,0.2-0.1,0.4-0.2,0.5
			c-2.4,0.9-4.8,0.5-6.6-1c-0.3-1.1-0.5-2.1-0.8-3.1c-1.3-4.9-2.7-9.7-4.1-14.6c-0.3-1.1-0.8-2.1-1.2-3.1c-0.2,0.1-0.4,0.1-0.6,0.2
			c0.7,3,1.4,6.1,2.1,9.1c-0.1-0.1-0.3-0.3-0.4-0.4c-0.1,0.1-0.3,0.1-0.4,0.2c0.1,1.1,0.2,2.2,0.4,3.3c0.1,0.4,0.1,0.8,0.2,1.2
			c-0.1,0-0.2,0-0.3,0c0.1,0.2,0.2,0.3,0.3,0.4c0.3,1.6,0.6,3.3,0.8,4.9c0.2,1.6-0.1,1.9-1.5,2.1c-2.1,0.4-4.2,1.1-6.3,0.1
			c-0.5,0.5-0.9,0.9-1.4,1.3c-0.9,0.7-2,1.1-3.1,1.3c0.1-3.5-3.2-6.1-10.8-12.3c3.4-2.8,6.7-5.6,9.7-8.1c-0.1,0.7-0.2,1.5-0.3,2.2
			c-0.3,1.5-0.4,2.5,1.9,2.5c0.5,0,1,0,1.4-0.1c0.7,2.4,1.4,4.8,2.1,7.2c0-2.7-0.1-5.4-0.5-8c0.3-0.3,0.6-0.8,0.7-1.4
			c0.2-1.1,0.2-2.3,0.3-3.7c-0.9-0.7-1.6-1.8-2.6-2.1c-0.3-1.3-0.7-2.5-1-3.8c-1.1-4.3-2.4-8.5-3.6-12.7c-0.1-0.9-0.2-1.7-0.2-2.6
			c-0.1-8,1.7-15.9,2.7-23.9c-2.2-0.2-4.4-0.4-6.7-0.7c-5.3,22.9-10.6,45.8-15.5,67.2c1.9,1.4,3.6,2.6,5.1,3.8
			c-0.7-0.1-1.5-0.3-2.2-0.7c-2.1-1-4.2-2-6.1-3.3c-1.3-0.9-2.6-1.8-3.8-2.7c1-6.1,3.3-12.3,2.2-18c-1-5.3-5.8-10.6-10.3-14.1
			c-1.3-1-7.6,4.6-11.5,7.2c4.1,4.5,8.2,9.1,14.5,16c-0.6,1.1-1.2,2.2-1.9,3.5c-3.1-2.1-6.5-3.4-9.8-5.3c-0.3-0.2-0.7-0.1-1.5-0.2
			c0.7,1.1,1.1,1.9,1.7,2.4c1.5,1.2,3.1,2.4,4.8,3.4c1.2,0.7,2.4,1.4,3.5,2.1c-1.9,3.6-4,7.6-6.3,11.8c4.8,0.7,9.4,1.3,14.8,2.1
			c-0.2-3.4-0.6-5.9-0.5-8.3c0.2,0.2,0.5,0.4,0.7,0.5c2.2,1.6,4.3,3.5,7,4.3c0.5,0.1,1,0.9,1.1,1.4c0.2,0.8,0,1.9-0.4,2.8
			c-1.5-0.8-3.1-1.5-4.6-2.3c-0.2-0.1-0.6-0.1-1.4-0.2c0.7,0.9,1,1.7,1.5,2.1c1,0.8,2,1.5,3.1,2.2c-0.1,0.1-0.3,0.2-0.5,0.3
			c-0.7,0.3-1.4,0.6-2.1,1c-0.3-0.5-0.9-0.8-1.5-0.6c-0.7,0.2-1.2,1-1,1.8c0,0.1,0.1,0.1,0.1,0.2c-1.6,1-3.3,2-5.1,2.6
			c-1.6,0.6-3.2,1.4-4.7,2.2c-1.8,1-3.5,2.1-5.2,3.3c-0.4,0.3-0.8,0.6-1.2,1c-0.2-0.1-0.3-0.2-0.6-0.3c0,0.4,0,0.6,0.1,0.8
			c-0.9,0.9-1.6,2-2,3.4c-0.2,0.6-0.7,1.4-1.3,1.6c-2.4,0.9-3.9,2.8-5.4,4.6c-1.2,1.4-2.5,2.7-3.8,3.9c-8-1.9-16-3.7-24-5.6
			c-2.2-0.5-4.5-1.1-6.7-1.7c-1.1-0.3-2.3-0.5-3.5,0.2c1.1,1.4,1.6,1.7,2.9,1.9c2.8,0.4,5.7,0.7,8.5,1.3c7.2,1.6,14.3,3.2,21.5,4.9
			c-1.2,1-2.5,1.9-3.7,2.8c-2.5,1.7-4.6,3.7-6.7,5.9c-2.5,2.6-5.1,5-7.6,7.5c-1.3,1.4-2.7,2.8-3.5,4.4c-1.7,3.4-3.8,6.3-6.2,9.2
			c-1.4,1.7-2.6,3.6-3.4,5.5c-1.2,2.9-1.4,6.3-3.6,8.8c0,0.1-0.1,0.1-0.1,0.2c-0.1,1.8-1.3,3-2.3,4.4c-0.7,0.9-1.4,1.9-2.1,2.8
			c-1.6,2.1-2.2,4.6-2,7.2c0.1,1.2,0.1,2.5,0.2,3.7c0,0,0,0,0,0c-2.5-1.3-5.2-2.5-7.7-3.9c-2.6-1.4-5.2-2.8-7.6-4.5
			c-2.4-1.7-5.5-1.8-7.6-3.9c-0.2-0.2-0.5-0.2-0.7-0.3c-1.3-0.6-2.6-1.3-3.9-1.9c-1.2-0.6-2.4-1.3-3.6-1.9c-0.3-0.2-0.8-0.1-1.4-0.2
			c2.8,2.4,22.2,13,32.5,17.9c0,0.4,0,0.8,0,1.2c0,1-0.2,2-0.6,3c-1,2.4-2.1,2.8-4.5,1.8c-1.7-0.8-3.4-1.7-5.1-2.6
			c-1.4-0.7-2.7-1.4-4.1-2c-0.4-0.2-0.9-0.2-1.3-0.3c-0.1,0.1-0.1,0.3-0.2,0.4c0.9,0.5,1.8,1.1,2.7,1.6c0.9,0.5,2.1,0.8,2.8,1.6
			c1.2,1.3,2.7,2,4.2,2.7c0.8,0.4,1.5,0.8,2.3,1.2c1,0.5,1.3,1.3,0.9,2.4c-0.7,2.1-1.3,4.2-2.1,6.2c-0.8,2.1-1.2,4.3-1.2,6.6
			c0.1,3.2,0.1,6.4,0.2,9.6c0.5,8.6,1.1,17.1,1.5,25.7c0.4,6.9,1.4,13.7,3.7,20.3c1.9,5.4,3.8,10.9,4.7,16.6
			c0.1,0.6,0.3,1.3,0.7,1.8c1,1.1,1.3,2.4,1.5,3.8c0.6,4.7,2.2,9,4.2,13.3c0.5,1.1,1,2.3,1.4,3.4c0.3,0.9,0.7,1.9-0.2,2.9
			c-0.2,0.3-0.1,1,0,1.4c0.9,3.2,1.8,6.5,2.7,9.7c1,3.1,2.1,6.2,4,8.9c0.5,0.8,1,1.6,1.2,2.5c0.5,1.9,1.4,3.5,2.8,4.8
			c0.8,0.7,0.7,1.5,0,2.3c-0.5,0.5-1,1-1.5,1.6c0.5,0.1,0.9,0,1.3-0.2c1.3-0.4,1.7-0.2,2.1,1.1c0.6,1.9,0.6,3.7-0.8,5.3
			c-0.6,0.7-1.2,1.5-1.9,2.1c-3.3,2.8-6.7,5.6-10.1,8.4c-1.2,1-2.4,1.9-2.9,3.6c0.9-0.3,1.6-0.6,2.3-1.2c2.8-2.1,5.5-4.3,8.2-6.5
			c2.1-1.7,4.2-3.3,6.4-4.9c0.8-0.6,1.8-1.1,2.7-1.3c0.6-0.1,1.5,0.1,1.9,0.6c0.3,0.4,0.4,1.1,0.3,1.6c-0.9,0.7-1.7,1.6-2.4,2.7
			c-0.2,0.1-0.3,0.2-0.5,0.3c-0.7,0.3-1.4,0.7-2,1c2.8,0.2,5.6,0.2,8-1c1.3-0.6,2.1-0.3,2.8,0.6c1.6,2.2,3.2,4.5,4.6,6.9
			c1,1.7,0.8,2-0.6,3.6c-0.5,0.5-0.9,1.1-1.3,1.7c-1.2,2.1-2.2,4.2-3.4,6.3c-1.9,3.3-3.7,6.7-5.8,10c-2.2,3.4-5.1,6.1-8.7,8.1
			c-1.2,0.7-2.3,1.6-3.3,2.5c-0.4,0.4-0.7,1.3-0.5,1.7c0.2,0.4,1,0.8,1.6,0.8c1.6,0,2.9-0.7,3.9-2c1-1.2,2.1-2.2,3.2-3.3
			c1.3-1.3,2.7-2.5,3.8-3.9c2-2.5,4.3-4.6,7.1-6.1c2.1-1.1,4.2-2.2,6.4-3.3c0,0,0.1,0,0.1,0c1.4,0,2.5-0.6,3.5-1.7c0,0,0,0,0.1-0.1
			c0.8-0.4,1.6-0.8,2.5-1.2c1.2-0.6,2.6-1.1,3.8-1.5c0.8-0.3,1.7-0.6,2.4,0.2c0.7,0.7,0.5,1.6,0.2,2.5c-0.5,1.4-1,2.7-1.6,4
			c-0.9,1.7-1.9,3.3-2.8,4.9c-0.6,1.2-1.4,2.4-1.2,4.2c2.6-1.8,2.6-5.3,5.4-6.6c1.4,0.8,1.7,2.2,2.1,3.5c1.8,5.5,0.9,10.8-1.1,16
			c-0.2,0.6-0.7,1.1-1.1,1.5c-1.3,1.1-1.9,2.4-1.9,4c0,1-0.4,1.6-0.8,2.4c-1.2,2-2.4,4-3.5,6c-0.4,0.7-0.4,1.5-0.6,2.2
			c0.1,0.1,0.3,0.2,0.4,0.2c0.4-0.5,0.9-0.9,1.2-1.4c0.6-0.9,1-1.9,1.5-2.9c0.6-1,1.1-2.2,2-2.8c1.6-1,2.3-2.5,3.1-4.1
			c1.5-3.3,3.1-6.6,4.7-9.8c1.1-2.3,2.9-3.5,5.6-3.3c1.3,0.1,2.2,0.5,2.8,1.1c-0.3,0.6-0.3,1.2-0.5,1.8c0.1,0.1,0.3,0.1,0.4,0.2
			c0.3-0.3,0.6-0.6,0.8-0.9c0.2,0.6,0.2,1.2,0.2,2c-0.1,1.1-0.4,2.3-0.8,3.4c-1,2.9-1.3,5.8-1.4,8.8c0,0.5,0.2,1,0.3,1.9
			c1.1-1.3,1.3-2.6,1.5-3.9c0.3-1.9,1.1-3.7,2.5-5c2.3-2,4.7-3.9,7.2-5.7c1.4-1,2.8-0.6,3.7,1c0.4,0.7,0.7,1.5,0.7,2.2
			c0,1.4-0.2,2.9-0.4,4.3c-0.1,0.7-0.3,1.3-0.6,2.4c2.8-1.3,2.9-4,4.9-5.8c0.4,0.9,0.8,1.6,1,2.3c0.3,1,0.4,2,0.6,3
			c0.1,0.5,0.4,1.1,0.8,1.2c0.4,0.2,1-0.1,1.7-0.2c-0.8,3.2,0.9,5.2,3.1,6.9c2.3,1.8,4.6,3.6,6.9,5.3c0.7,0.5,1.5,0.9,2.2,1.3
			c2.3-2.2,2.8-5.2,4.5-7.6c1.1,1,2.2,1.9,3.5,3c1.3-1.7,2.4-0.9,3.5,0c3.3,2.9,5.9,6.4,8.4,10c1.1,1.7,0.2,2.6-1.4,3.4l8.9-2.5
			c1.3-2,1.1-2.5-0.9-3.7c-0.5-0.3-1.2-0.9-1.1-1.2c0.2-0.5,0.7-1,1.2-1.3c1.5-0.9,2.7-0.1,4.2,0.9c0.4-0.9,0.9-1.6,1.1-2.4
			c0.3-1,1-1.5,1.9-1.9c1-0.4,1.9-1,3-1.6c1.5,0.9,1.9,1.4,2.4,3.6c0.4,1.8,0.6,2,2.5,1.7c1.7-0.2,3.3-0.7,4.9-0.9
			c6-0.5,11.9,0,17.7,1.5c1.1,0.3,2.3,0.5,3.4,0.6c7,0.6,14.1,1.2,21.1,1.8c2.3,0.2,4.6,0.4,6.9,0.6c0.3,0.7,0.5,1.3,0.8,1.9
			c1.4-2.7,4.5-3.3,7.9-1.5c0.1-2.9,2.4-2.7,4.3-3c2.7-0.5,5.5-0.8,8.1-1.6c6.8-2,13.6-4.3,20.4-6.3c8-2.4,14.9-7.2,22.5-10.6
			c5.8-2.6,11.1-6.3,16.2-10.2c0.8-0.6,1.7-1.2,2.5-1.7c1.7-1,3.4-1.9,5.3-3c0.3-1.8,1.9-2.9,3.2-4.2c5.7-5.6,11.5-11.1,17.3-16.7
			c0.8-0.7,1.5-1,2.5-0.9c1.6,0.3,3.3,0.5,5,0.6c1,0.1,1.8,0,2.2-1.3c0.2-0.7,1-1.4,1.6-2c0.3-0.4,1-0.5,1.1-0.9
			c0.4-1.2,1.4-1.6,2.3-2.2c0.5-0.3,1-0.7,1.5-1c-1.1-0.2-2-0.1-3,0c-1.9,0.1-2.4-0.3-2.1-2.3c0.2-1.6,0.7-3.1,1-4.7
			c0.1-0.8,0.4-1.6,0.2-2.3c-0.3-1.6,0.2-2.8,1-4.1c1.3-2.1,2.7-4.2,3.9-6.3c1-1.6,1.8-3.4,1.7-5.3c0-0.4,0.1-0.9,0.4-1.2
			c1.3-1.2,1.5-2.8,2-4.3c0.5-1.3,0.7-2.7,1.4-3.9c1.6-2.4,2.2-5.1,2.1-7.9c-0.1-3,0.4-5.9,1.4-8.8c0.6-1.7,1.1-3.5,0.5-5.3
			c-0.3-0.8,0-1.6,0.8-2.1c0.4-0.2,0.7-0.4,1.1-0.7c-0.6-0.9-1.1-1.4-1.3-2c-0.2-0.5-0.3-1.2,0-1.6c0.2-0.3,1-0.2,1.5-0.2
			c0.4,0,0.8,0.2,1.3,0.4c0.5-0.7,1-1.4,1.3-2.1c1.3-2.7,2.1-5.5,1.8-8.5c0,0,0.1-0.1,0.1-0.1c1.9,0.3,2.9,1.3,3.5,3.4
			c-0.6-0.2-1.1-0.3-1.8-0.5c0,0.6-0.1,1-0.1,1.5c0,1,2.3,6.5,3.1,7.6c0.1-0.2,0.2-0.3,0.2-0.5c0-1,0-2,0-2.9c0.3,1.1,0.7,2.1,2,2.6
			c0.1-0.3,0.3-0.5,0.3-0.7c-0.6-2.9-1.2-5.8-1.8-8.7c-0.1-0.3-0.4-0.6-0.8-1.1c-0.2,0.6-0.4,1.2-0.5,1.7c-0.1-0.6-0.3-1.2-0.5-1.7
			c-1.3-4.1-1.5-8.3-1.5-12.5c0-0.3,0.2-0.6,0.5-1.2c1.1,1.5,2,2.8,3.2,4.5c0.2-1.6-0.3-2.6-0.9-3.5c-0.9-1.5-1.1-2.9-0.6-4.7
			c0-0.1,0-0.2,0.1-0.3c0.5,1.8,1.4,3.5,2.8,5c0.1,0.1,0.3,0,0.6,0c0-0.6,0.1-1.2,0.1-1.9c0-0.7,0-1.4,1-1.7
			c0.2,1.4,0.2,2.7,0.6,3.9c0.3,1.3,0.8,2.5,1.3,3.7c-0.7-0.2-1.2-0.4-1.6-0.4c-0.2,0-0.6,0.9-0.5,1.1c-1.1,0.4-1.4,1.1-1.6,2.9
			c-0.2,2.8-0.2,5.7-0.1,8.5c0,0.9,0.6,1.7,1.2,2.5c0.2,0.3,1,0.5,1.3,0.4c0.3-0.1,0.6-0.8,0.6-1.2c0-0.6-0.1-1.2-0.2-1.9
			c2.8,1.1,2.4,4.5,4.2,6.2c0.2,0,0.3-0.1,0.5-0.1c0.1-1.2,0.3-2.4,0.4-3.6c2.9,0,4.4,1.2,5.1,3.9c-0.7-0.2-1.3-0.4-2.1-0.6
			c0,0.7-0.1,1.2-0.1,1.7c0.1,1.1,2.7,7.4,3.6,8.6c0.1-0.2,0.3-0.4,0.3-0.5c0.2-4.2-0.1-8.4-1.4-12.3c-1.5-4.7-1.8-9.4-1.7-14.2
			c0-0.4,0.3-0.7,0.5-1.4c1.3,1.7,2.3,3.2,3.7,5.1c0.2-1.8-0.4-2.9-1-4c-1-1.7-1.3-3.3-0.7-5.4c1-3.1-1.6-6.4-4.7-6.7
			c-1.1-0.1-2.3-0.4-3.4-0.8c-2.2-0.8-2.2-0.8-3.6,1c-0.2,0.3-0.3,0.6-0.5,0.9c-0.2-0.1-0.4-0.1-0.5-0.2c-0.4-0.9-0.7-1.9-1.1-2.7
			c-0.4-0.7-0.8-1.6-1.4-1.7c-1.1-0.2-1.5,0.9-2,1.7c-0.1,0.2-0.2,0.6-0.3,0.9c-0.8-1.3-2.1-2.2-3.7-2.4c-0.1,0-0.3-0.1-0.4-0.1
			c-0.2-0.1-0.3-0.2-0.6-0.4c1-0.6,2.3-1,1.6-2.6c-2.1-0.5-2.4-0.8-2.5-3c-0.1-1.2-0.1-2.5,0.1-3.7c0.2-2.8,1.4-4.9,4.3-5.6
			c0.4-0.1,0.8-0.4,1.2-0.5c3.8-1.2,5.1-4.1,5.4-7.6c0.1-1.5-0.1-1.8-1.5-2.2c-0.6-0.1-1.1-0.2-1.7-0.3c-2.5-0.5-3.5-1.8-3.3-4.3
			c0.1-1.3,0.3-2.5,0.8-3.6c2.1-1,4.4-2.4,7.1-4.4c0,0.2,0,0.4,0,0.5c0.1,0.2,0.5,0.3,0.7,0.4c0.5-0.1,1-0.2,1.4-0.4
			c0.4-0.2,0.6-0.7,0.9-1c-0.3-0.1-0.5-0.3-0.8-0.5c0.5-0.1,1.1-0.2,1.6-0.3c2.2-0.4,4.5-0.6,6.7-1c0.8-0.1,1.6-0.4,1.6-1.5
			c-0.1-1.2-1-1.1-1.8-1.1c-1.2,0-2.5,0.1-3.7,0.2c-1,0.1-2,0.2-3,0.2c-0.5,0-1.3-0.2-1.6-0.5c-0.6-0.7-1.3-0.9-2.1-1
			c-0.3,0-0.6-0.4-1.1-0.8c2.1-0.9,4,0.4,5.9-0.1c-0.2-0.2-0.2-0.4-0.3-0.5c-0.4-0.1-0.8-0.3-1.2-0.4c-0.5-0.1-1-0.2-1.5-0.4
			c-0.2-0.3-0.3-0.5-0.4-0.6c-1.2-1.1-2.6-1.8-4.3-2c-0.7-0.1-1.5-0.3-2.2-0.5c-1-0.3-2-0.9-3.1-1.1c-0.5-0.1-0.9-0.2-1.4-0.3
			c0.9-1.3,1.8-2.6,2.7-3.9c4.4,0.6,8.8,1.6,13,3c0,0,0.1,0.1,0.1,0.1c0,0,0.1,0,0.1-0.1c0.1,0,0.3,0.1,0.4,0.1
			c3.6,1.2,7.4,1.9,11.2,2.8c0.6,0.2,1.4,0,2.3,0c-0.4-0.7-0.6-1.1-0.8-1.4c-1.4-1.2-3-2.1-4.9-2.2c-0.9-0.1-1.7-0.3-2.5-0.5
			c-1.2-0.4-2.3-1-3.5-1.2c-3.8-0.8-7.6-1.4-11.3-2.2c-0.8-0.2-1.7-0.4-2.5-0.6c1.7-2.4,3.5-5,5.5-7.9c3.1,0.3,6.2,0.7,9.5,1
			c-1.2-0.9-4.8-1.7-7.8-1.8c0.4-0.2,0.8-0.5,1.3-0.8c-0.6-0.2-1.2-0.3-1.8-0.2c0.4-0.6,0.8-1.1,1.2-1.7c-0.5,0.1-1,0.1-1.6,0.2
			c0,0,0-0.1,0-0.1c0.7-0.1,1.3-0.3,1.9-0.6c-0.5-1.1-1.4-1.3-2.3-1.1c-0.2,0-0.3,0.1-0.5,0.1c0,0,0,0,0,0c0,0-0.1,0-0.1,0
			c-0.1,0-0.2,0.1-0.3,0.1c-0.8,0.2-1.7,0.5-2.5,0.7c0,0,0,0,0,0.1c-0.6,0.2-1.2,0.3-1.7,0.5c-0.1-0.1-0.1-0.2-0.1-0.3
			c0.1-0.1,0.2-0.1,0.3-0.2c-0.1,0-0.3-0.1-0.4-0.1c-0.1-0.2-0.2-0.3-0.2-0.5c-0.1,0.1-0.2,0.2-0.3,0.3c-1.8-0.6-3.6-1-5.4-1.2
			c-0.2-0.6-0.8-1.3-1.1-1.9c3,0.1,6.1,0.3,9.1,0.5c1.3,0.1,2.7,0,3.9,0.3c3.1,0.9,6.2,0.3,9.3,0.2c0.2,0,0.4-0.1,0.6-0.1
			c2.2,0.1,4.3,0.2,6.5,0.2c-0.9,0.1-1.7,0.2-2.2,0.5c4.4,0.5,8.8,0.9,13.6,1.4c-1.5-1.2-6-2-9.6-2c0.1,0,0.1,0,0.2,0
			c-0.4-0.4-0.7-0.5-1.1-0.5c-2.8-0.4-5.6-0.8-8.4-1.1c-5.7-0.5-11.4-1.9-17.2-1.4c-0.5,0-1.1,0-1.4-0.3c-0.1-0.1-0.3-0.2-0.4-0.4
			c0.1,0,0.1,0,0.2,0c2.3-0.4,4.6-0.8,6.9-1.3c0.4-0.1,0.8-0.4,1.3-0.6c-1-1.8-2.9-0.9-4.2-1.8c0.6-0.4,1.1-0.7,1.7-0.7
			c1.7-0.1,3.4-0.2,5-0.1c4.1,0.3,8.1,0.8,12.2,1c8.1,0.4,16.3,0.6,24.4,0.9c0.5,0,1-0.1,1.5-0.1c-0.4-0.4-0.8-0.5-1.2-0.6
			c-3.2-0.4-6.3-0.9-9.5-1.2c-6.5-0.6-12.9-2.1-19.5-1.6c-0.5,0-1.3-0.1-1.6-0.4c-2.1-2-4.5-2-7.1-1.5c-0.3,0.1-0.8,0.1-0.8-0.1
			c-0.5-1.2-1.6-0.7-2.5-0.8c0.1-0.7,0.2-1.4,0.4-2c0,0,0.1-0.1,0.1-0.1c3.1-2.2,6.6-3.2,10.4-3.6c0.2,0,0.5,0.1,0.7,0.2
			c0.1,0.5,0.2,1,0.3,1.5c1.5,0.5,2.8,0,4.1-0.6c1.3-0.6,2.6-1.5,4-1.7c3.3-0.6,6.4-1.9,9.6-2.7c3.1-0.9,6.4-1.5,9.5-2.2
			c0.7-0.2,1.5-0.5,2.1-0.7c-0.6-0.7-1.4-1.1-1.4-1.6c0-0.9,1-0.8,1.6-1c0.5-0.2,1.1-0.3,1.6-0.5c0.6-0.3,1.1-0.8,1.8-1.3
			c0,0,0,0-0.1-0.1c1.3-0.4,2.5-0.8,3.8-1.2c0,0.1,0.1,0.2,0.1,0.4c0.2,0.5,1.2,0.6,2.1,1.1c0.6-1,1-1.8,1.3-2.5
			c3.3-0.9,6.6-1.5,9.9-2.3c0.8-0.2,1.6-0.5,2.4-0.8c-0.7-0.7-1.6-1.3-1.6-1.8c0-1,1.1-0.9,1.8-1.1c0.6-0.2,1.3-0.3,1.8-0.6
			c0.7-0.4,1.2-0.9,2-1.5c-1-1-2-1.4-3-1.3c0.1-0.3,0.1-0.5,0-0.7c-0.6-1.2-1.7-0.5-2.6-0.3c-1,0.3-1.9,1.4-1.8,2.2
			c-3.6,1.1-7.3,2.2-10.9,3.4c-2.5,0.8-4.9,1.7-7.4,2.6c-1.9,0.7-3.8,1.4-5.7,2c-0.6,0.2-1.2,0.1-2.1,0.2c-0.2-1.4-0.3-2.6-0.4-3.8
			c-0.1-1.3,0.6-2.1,1.7-2.8c6.7-3.8,13.4-7.6,20.1-11.3c0.7-0.3,1.5-0.6,2.2-1c0.7-0.3,1.2-0.7,1.6-1.2c7.8-4.4,15.6-8.8,24-12.2
			c1.1-0.5,2-1.3,2.4-2.4c0.2-0.5,0.2-1.2-0.1-1.6c-0.1-0.2-1-0.3-1.4-0.1c-1.6,0.6-3.2,1.3-4.8,2.1c-3.5,1.7-6.8,3.6-10.3,5.2
			c-3.8,1.6-7.4,3.5-10.8,5.7c-2.7,1.8-5.6,3.1-8.6,4.2c-1.7,0.7-3.4,1.4-5.1,2.2c2.2-2.1,4.3-4.5,6.5-7.1c-3-0.6-6.1-0.1-9.1,0.6
			c1.1-0.7,2.1-1.5,3.2-2.4c1.2-1,2.6-1.9,3.8-2.9c0.4-0.3,0.9-0.6,1.1-1c0.2-0.4,0.3-1,0.2-1.4c-0.1-0.2-0.8-0.3-1.2-0.2
			c-0.5,0.1-0.9,0.4-1.4,0.7c-3.9,2.4-7.6,5.2-10.8,8.5c-6.6,1.7-12.9,2.8-18.5-4.9c2.7-2.6,5.3-5.5,9.1-6.6
			c1.3-1.3,3.2-1.5,4.9-2.2c1.6-0.6,3.4-1.1,4.7-2.1c2.9-2.3,6.1-4,9.4-5.6c3.1-1.6,6.3-3.1,9.5-4.7c0.6-0.3,1.1-0.6,1.7-1
			c-0.1-0.1-0.1-0.3-0.2-0.4c-1.1,0.4-2.2,0.7-3.2,1.2c-3.9,1.8-7.8,3.6-11.7,5.4c-1.2,0.6-2.4,1.1-3.7,1.4c3-2.9,5.9-6.1,10.2-7.4
			c1.5-1.5,3.6-1.8,5.5-2.5c1.8-0.7,3.8-1.2,5.3-2.4c1-0.8,2-1.5,3-2.1c-0.9,6.9-1.8,13.1-2.6,19.3c0.1,0,0.1,0,0.2,0
			c-0.3,0.3-0.7,0.6-1,1c-1.2,1.2-2.1,2.5-3.2,3.8c0.2,0.2,0.3,0.4,0.5,0.6c0.8-0.6,1.6-1.1,2.4-1.7c1.5-1.1,2.8-2.5,4.3-3.3
			c0.2-0.1,0.4-0.2,0.5-0.3c21.5-0.8,62.6-23.6,68.7-41.7c-4.3,3.9-8.6,7.9-9.7,8.9c-25.3-6.2-40.3,16.4-59,12.6
			c2.1-1.3,4.2-2.4,6.4-3.5c3.6-1.8,7.2-3.5,10.8-5.3c0.6-0.3,1.3-0.7,1.9-1.1c-0.1-0.2-0.2-0.3-0.3-0.5c-1.2,0.4-2.5,0.8-3.6,1.3
			c-4.4,2-8.9,4.1-13.3,6.1c-2.1,1-4.1,2-6.4,2c-2.2,0-4.2,0.5-6.2,1.2c-1.5,0.5-3,1.1-4.4,1.7c1.4-0.9,2.7-1.8,4.1-2.6
			c0.5-0.3,0.9-0.7,1.3-1.1c0.3-0.3,0.4-0.7,0.9-1.5c-1,0.2-1.5,0.2-2,0.4c-0.7,0.3-1.4,0.7-2,1.2c-3.4,2.8-7.1,5.1-10.9,7.4
			c-4.7,2.3-9.2,4.8-13.6,7.6c-1.2,0.7-2.3,1.6-3.3,2.5c-1.3,1.3-2.8,1.5-4.6,1.4c-1.7-0.2-3.4-0.2-5.1,0.1
			c4.3-2.1,8.5-4.3,12.8-6.4c0.8-0.4,1.5-0.9,1.3-2.2c-0.8,0.3-1.5,0.4-2.1,0.7c-1.8,0.8-3.6,1.6-5.4,2.5c-3.8,1.9-7.6,3.9-11.5,5.8
			c-1,0.5-2,1.1-3.1,1.3c-0.1-0.2-0.2-0.3-0.2-0.3c0-0.2,0.1-0.4,0.2-0.5c1.2-2,2.7-3.7,4.4-5.3c9.3-4.7,18.5-9.4,27.8-14
			c0.7,0.3,1.4,0.9,1.9,0.7c0.7-0.3,1-1.2,1.5-1.9c-0.1-0.2-0.1-0.3-0.2-0.5c2.2-1.1,4.4-2.2,6.7-3.3c0.9-0.5,1.7-1,1.5-2.5
			c-0.8,0.3-1.5,0.5-2.1,0.7c3.1-1.8,6.2-3.5,9.3-5.2c0.8-0.4,1.7-0.9,2.5-0.9c1.5,0,2.6-0.6,3.8-1.3c3.5-2.2,7-4.4,10.6-6.6
			c1.6-1,3.1-2.2,4.8-2.8c3-1.1,5.5-3,8.1-4.8c3.7-2.5,7.5-4.9,11.3-7.3c1.4-0.9,2.9-1.7,4.3-2.6c0.4-0.3,0.8-0.6,1.1-1
			c0.4-0.5,0.1-1.2-0.5-1.3c-0.5,0-1,0.1-1.5,0.3c-1.1,0.6-2.3,1.2-3.4,1.9c-2.4,1.5-4.8,2.9-7.2,4.4c1.9-1.7,3.8-3.5,5.7-5.2
			c1.7-1,3.3-2.1,5-3.1c1.8-1.1,3.5-2.5,5.4-3.2c3.4-1.3,6.2-3.5,9.2-5.4c4.2-2.8,8.5-5.5,12.8-8.3c1.6-1,3.2-1.9,4.8-2.9
			c0.5-0.3,0.9-0.7,1.3-1.2c0.5-0.6,0.1-1.4-0.6-1.4c-0.6,0-1.2,0.1-1.7,0.3c-1.3,0.6-2.6,1.4-3.8,2.1c-4.8,3-9.7,5.9-14.5,8.9
			c-2.6,1.7-5.3,3.3-7.9,5c21.6-19.6,42.2-38.3,64.1-58.1C739.1,318.4,692.6,357.1,687.4,385.7z M459.3,343.5
			c0.6,2.1,3.1,3.3,1.2,5.4c-2.7-1.8-2.2-5.4-3.7-7.9c2.7-0.5,4.1,0.9,5,3.9C460.8,344.4,460.3,344.1,459.3,343.5z M470.8,352.3
			C470.8,352.3,470.8,352.3,470.8,352.3C470.8,352.3,470.8,352.3,470.8,352.3C470.7,352.3,470.7,352.3,470.8,352.3
			C470.7,352.3,470.7,352.3,470.8,352.3c-0.8-0.3-1.6-0.5-2.3-0.7c0-0.1,0.1-0.1,0.1-0.2c0-0.3,0-0.7,0-1c-0.5,0-1.2-0.1-1.4,0.1
			c-0.1,0.2-0.2,0.4-0.3,0.6c-1-0.3-2.1-0.6-3.1-1c0.1-0.3,0.2-0.6,0.3-0.9c3.4,0.7,7.2-0.5,9.7,2.6c0.2,0.9,0.4,1.8,0.5,2.7
			C473.2,353.9,472,353.1,470.8,352.3z M479.5,348.9c-0.3,0.9-0.7,1.8-1,2.7c-0.5-0.2-1.1-0.2-1.6-0.1c0.6-1,1.2-2,1.8-3
			C479,348.6,479.2,348.8,479.5,348.9z M364.4,374.2c-0.3-0.9-0.6-1.8-0.9-2.6c0,0,0.4-0.2,0.9-0.4
			C363.6,372.3,365.8,373,364.4,374.2z M342.7,392.5c0.1-1.2,0.2-2.4,0.3-3.5c0.3-0.2,0.6-0.5,0.8-0.7c-0.3,1.4-0.5,2.8-0.8,4.2
			C342.9,392.5,342.8,392.5,342.7,392.5z M596.5,504.6c2.5-0.6,5-0.8,7.5,1.6c-2.8-0.4-5.2-0.7-7.6-1
			C596.4,505,596.5,504.8,596.5,504.6z M625.2,475.9c-7.2,3.8-14.8,6.7-21.7,11c-2.7,1.7-5.3,0.6-7.8-0.9c-0.9-0.5-0.9-1.3-0.4-2.1
			c0.4-0.6,0.8-1.2,1.4-1.7c2-2,4.4-3.6,7.2-4.5c1.1-0.4,2.2-0.8,3.2-1.4c0.9-0.5,1.3-1.3,1.3-2.4c-0.1-2.5-2.3-4.3-4.7-3.9
			c-0.6,0.1-1.1,0.3-1.7,0.4c-1.9,0.2-3.7,0.4-5.6,0.6c-0.4,0-0.9-0.3-1.5-0.5c0.8-1.3,1.9-1.9,2.9-2.6c1-0.7,2-1.5,3-2.2
			c1.9-0.9,3.7-2,5.5-2.9C613,472.6,619.3,476.2,625.2,475.9z M591.8,518.1c-0.3,0.2-0.5,0.4-0.8,0.5c-1,0.4-2,0.6-3.1,0.8
			c-0.7,0.1-1.5,0.1-2.2,0.1c-0.1,0-0.3,0-0.4,0c0.2-0.5,0.2-0.8,0.4-0.9c0.4-0.4,0.9-0.8,1.3-1.2
			C588.5,517.7,590.1,517.9,591.8,518.1z M420.6,400.5c1,1.4,0.8,2.5-0.8,3.2c-1.1,0.5-2.2,0.8-3.3,0.9c-0.9,0.1-1.7,0.2-2.6,0.3
			c1.6-1.8,3.4-3.8,5.3-5.9C419.7,399.5,420.2,400,420.6,400.5z M459.4,390.3c0,0.1,0.1,0.1,0.1,0.2c-0.1,0-0.1,0-0.2,0
			C459.4,390.5,459.4,390.4,459.4,390.3z M592.7,471.1c0,0,0.1-0.1,0.1-0.1c0.1,0.4-0.2,0.7-0.7,0.9c-0.2,0.1-0.5,0.2-0.7,0.3
			C591.9,471.8,592.3,471.4,592.7,471.1z M471.1,402c-0.9,0.2-1.8,0.3-2.7,0.4c0.3-0.7,0.5-1.4,0.7-2.1c1,1.3,1,1.4,2,1.4
			c0,0,0,0,0.1,0C471.1,401.8,471.1,401.9,471.1,402z M575.9,466.7c-0.7,0.6-1.5,1.1-2.3,1.7c0-0.4-0.1-0.6-0.1-0.7
			c0.2-0.4,0.5-0.9,0.8-1.3c0.1-0.1,0.2-0.2,0.3-0.4c0.3-0.1,0.6-0.1,0.9-0.1c0.3,0,0.8,0.1,1.1,0.3
			C576.4,466.4,576.1,466.6,575.9,466.7z M582.8,443.1c-0.7,0.4-1.4,0.7-2,1.1c-1.4,0.8-2.8,1.5-4.1,2.4c-0.8,0.6-1.6,1.1-2.4,1.5
			C576.1,445.2,578.9,443.4,582.8,443.1z M561.4,385.6c2.5-1.6,4.6-3.6,6.6-5.6c1.2-1.2,2.4-2.4,3.6-3.6c-4.1,4.2-8.2,8.5-12.3,12.7
			c-0.5-0.3-1.1-0.5-1.6-0.8C558.9,387.3,560.1,386.4,561.4,385.6z M534,375.1c0.7,1.2,1.9,1.6,3.1,1.2c-2.5,1.7-4.7,3.3-6.8,4.8
			c-0.2,0.1-0.3,0.2-0.5,0.3c0.2-0.9,0.3-1.9,0.2-2.6c1.3-1.7,2.7-3.4,4-5.1C534,374.2,533.9,374.8,534,375.1z M512.6,342.5
			c0.3,0.7,0.7,1.5,1,2.2c-0.6-0.4-1.3-0.8-1.8-1.2C512.1,343.2,512.3,342.9,512.6,342.5z M479.2,368.6c0.9-1.7,1.8-3.3,2.9-4.8
			c0.5,0.2,1.5,0,2.1-0.3c0.9-0.5,1.7-1.3,2.9-2.2c0.2,1.7,0.3,3,0.3,3.8c-1.8,0.4-3.2,0.3-4.2,0.9c-1.3,0.8-1.2,3.7,0,4.6
			c1.5,1.2,2.8,0.4,4.1-0.6c0.6-0.4,1.4-1.1,1.9-1c1,0.3,1.9,0.7,2.9,1.2c-0.4,0.6-0.7,1.3-1,2c-0.3,0.7-0.6,1.4-0.9,2.1
			c-0.4,1-0.7,2.1-1.1,3.1c-0.3,0.8-0.5,1.7-0.7,2.5c-0.6,0.3-1.2,0.6-1.6,1c-0.5,0.5-0.6,1.5-0.5,2.2c0,0.2,0.5,0.4,1,0.6
			c-0.2,0.6-0.4,1.2-0.5,1.8c-0.3,0.9-0.5,1.7-0.8,2.6c-0.4,1.3-0.9,2.5-1.5,3.6c0,0,0,0,0,0c0,0,0,0-0.1-0.1
			c-0.3,0.1-0.7,0.3-1,0.4c0,0.5-0.1,1.2-0.1,1.8c0,0,0,0.1-0.1,0.1c-0.7,1.1-1.5,2.1-2.4,3c-0.9,0.9-1.9,1.7-3,2.4
			c-0.6-0.5-1.3-0.8-2.1-1.1c0-0.6-0.3-1-0.6-1.5c-0.1-0.1-0.5-0.2-0.7-0.1c-0.1,0-0.4,0.3-0.3,0.4c0.1,0.2,0.1,0.5,0.2,0.7
			c-0.6-0.2-1.3-0.4-1.9-0.7c-0.4,1-0.7,2-0.9,2.9c-0.7,0-1.5,0-2.3,0.1c0.8-2.4,1.6-4.9,2.2-7.4c0.4-0.7,0.7-1.5,0.6-2.3
			c0.1-0.4,0.2-0.8,0.3-1.2c0.1,0,0.2-0.1,0.3-0.1c1.3,2.4,3.5,1.2,5.3,1.3c0.2,0,1.1-1.8,0.8-2.3c-1.4-2.7-3.3-3.3-5-2.1
			c-0.2-0.1-0.3-0.3-0.5-0.4c0.1-0.3,0.2-0.7,0.3-1c0.2,0.2,0.4,0.5,0.6,0.8c1.2-1.5,1.2-2.3,0.1-3.3c0.2-0.6,0.3-1.1,0.5-1.7
			c0.3,0.2,0.7,0.6,1,1c0.6-0.6,1.1-1.1,1.7-1.7c0,0,0.1,0,0.1,0c0,0,0-0.1,0-0.1c0.1-0.1,0.2-0.2,0.3-0.3c-0.1,0-0.3-0.1-0.4-0.1
			c0-0.2,0-0.5-0.1-0.7c-0.7,0-1.4,0-2.1,0c0.5-1.6,1-3.2,1.6-4.7C477.7,372,478.4,370.3,479.2,368.6z M458.7,393.2
			c0,0,0.1,0,0.1,0.1c0,0,0,0.1,0,0.1C458.7,393.3,458.7,393.2,458.7,393.2z M451.9,405.1c0,0.1-0.1,0.1-0.1,0.2
			c-0.1-0.1-0.2-0.1-0.3-0.2C451.7,405,451.8,405,451.9,405.1C452,405,452,405,451.9,405.1C451.9,405.1,451.9,405.1,451.9,405.1z
			 M367.9,406.5c0.2-0.6,0.7-1.1,1.4-1.6c-0.3,0.6-0.5,1.3-0.5,1.9c-0.3,0.2-0.5,0.4-0.8,0.5c-0.1,0.1-0.3,0.2-0.4,0.2
			C367.7,407.2,367.8,406.8,367.9,406.5z M279.9,701c0.1-0.7,0.1-1,0.2-1.2c1.9-3.6,3.9-7.2,7.1-9.9c1.1-1,2.5-1.7,3.9-2.4
			c1.3-0.6,2.4-0.1,3.1,0.9c0.6,0.8,0.6,1.7-0.1,2.7c-1.2,1.1-2.5,2.1-4,2.9c-1,0.6-2,1.4-2.9,2.2c-0.2,0.2-0.3,0.5-0.4,0.8
			c-1.6,1.1-3.3,2.2-4.9,3.3C281.4,700.6,280.8,700.7,279.9,701z M305.5,709.6c-0.3-0.5-0.7-1-1-1.5c0.1-0.1,0.3-0.2,0.4-0.3
			c0.4,0.5,0.8,1,1.2,1.4C305.9,709.3,305.7,709.5,305.5,709.6z M351.4,732.8c-0.2,0.6-0.5,1.2-0.9,1.6c-0.1,0.1-1-0.2-1.2-0.5
			c-0.9-1.2-1.7-2.4-3.2-3.2c-1.1-0.5-0.8-1.9-0.5-3.3c0.6,0.2,1.1,0.1,1.4,0.4c1.4,1.4,2.7,2.8,4.1,4.2
			C351.3,732.2,351.5,732.6,351.4,732.8z M372.1,745.2c0.5,0.2,1,0.4,1.9,0.8C372.5,747,372.2,746.4,372.1,745.2z M598.8,518.4
			c-0.5,0.1-1.1,0.1-1.6,0.2c0.5-0.1,0.9-0.2,1.4-0.2C598.7,518.3,598.8,518.3,598.8,518.4z M624.6,489c-2.2,0.7-4.4,1.5-6.5,2.3
			c-1.7,0.6-3.4,1.2-5.1,1.8c-0.3,0.1-0.6,0.1-1,0.1c0.7-0.4,1.4-0.8,2-1.3c3.5-2.5,7.6-3.7,11.8-4.1c0.3,0,0.5,0.1,0.8,0.2
			c0,0.1,0,0.2,0,0.3C626,488.6,625.3,488.8,624.6,489z M686.9,392c-1.8,1.1-3.6,2.2-5.4,3.3c-3.7,2.3-7.4,4.8-11.2,7.1
			c-0.4,0.2-0.8,0.5-1.2,0.6c-2.2,1-4.5,1.8-6.6,3c-10.5,5.6-20.9,11.3-31.4,17.1c-2.7,1.5-5.6,2.6-8.5,3.5c2.2-2.9,5-5.2,8.2-7
			c3-1.7,6.1-3.1,9-4.8c6.1-3.3,12-6.9,18.2-9.9c3.3-1.6,6.4-3.4,9.5-5.2c3.6-2.2,7.3-4.2,11-6.2c0.9-0.5,1.9-1,2.8-1
			c1.7,0,3-0.6,4.3-1.4c0.4-0.2,0.7-0.5,1.1-0.7C686.9,390.9,686.9,391.5,686.9,392z"/>
		<path class="st0" d="M492.1,275.2c10.9-18.9,20.8-36,32.8-56.6c-22.1,2.7-20.3,20.9-28,29.2c-6-0.7-10.6-1.2-15.2-1.7
			c1.4,4.6,2.6,9.2,4.2,13.7C487.5,264.4,489.4,268.9,492.1,275.2z"/>
		<path class="st0" d="M624.1,380.9c1.3,1,2.6,2,3.9,2.9c14.4-19.1,28.8-38.2,44.9-59.7C639.1,332.2,633.8,358.2,624.1,380.9z"/>
		<path class="st0" d="M803.9,194.3c1.5,1.6,3,3.1,4.4,4.7c12.7-14.2,25.3-28.3,38-42.5C822.5,159.7,816.1,179.8,803.9,194.3z"/>
		<path class="st0" d="M521.9,194.6c-24.1-2.8-28.6,4.7-25.2,34.3C506,216.4,513.9,205.5,521.9,194.6z"/>
		<path class="st0" d="M366,226.7c-22.1-1.6-22,13.6-25.3,25.8c1.7,1.4,3.4,2.7,5.1,4.1C352.2,247.3,358.5,237.9,366,226.7z"/>
		<path class="st0" d="M358.5,356.9c4.5-1.4,8.3-2.7,11.5-4.1c-0.1,0.5-0.4,0.9-0.9,1.2c-0.5,0.3-0.7,1.3-0.8,1.9
			c-0.1,0.5,0.1,1.3,0.5,1.5c0.4,0.2,1.1-0.1,1.9-0.1c0.7,1.5,2.2,2.4,4,2.3c1.6-0.1,2.9-1,3.4-2.4c1.2-3.3,1.3-6.1-0.9-8.6
			c6.9-5.5,7.2-13,3.8-27.2C373.1,333.9,366.8,343.9,358.5,356.9z M376.9,350.8c0.7,1.8,0.7,3.6,0,5.4c-0.5,1.2-1.6,1.6-2.7,1.7
			c-1.3,0-2.1-1-2.4-2.9c1.1,0.9,2.1,2.1,3.6,1.1c1.3-0.8,1.6-2.3,1.1-3.9c-0.4-1.1-0.8-1.7-1.4-2.1c0.3-0.2,0.6-0.4,0.9-0.6
			C376.4,349.8,376.7,350.2,376.9,350.8z"/>
		<path class="st0" d="M362.1,294.3c-16.3,10.8-21.6,14.7-17,21.5c0,0.1-0.1,0.1-0.1,0.2c-0.3,1.2-0.6,2.3-0.5,3.5
			c0,0.5,1,1.3,1.6,1.3c0.6,0,1.5-0.7,1.7-1.2c0-0.1,0.1-0.3,0.1-0.4c2.4,2.6,5.9,5.6,10.3,9.4C359.7,315.5,360.8,305.8,362.1,294.3
			z"/>
	</g>
</g>
<g id="oko_1_copy">
	<path d="M313.7,564c-4.5-1.8-8.6-3.6-12.5-5.4l-11.5-5.3c-7.5-3.4-14.6-6.5-21.5-8.3c-3.4-0.9-6.8-1.6-10.1-2
		c-3.3-0.3-6.6-0.2-10.1,0.2c-1.8,0.2-3.5,0.7-5.4,1c-0.9,0.3-1.8,0.6-2.8,0.8c-1,0.2-1.9,0.6-2.8,1c-1,0.4-2,0.7-2.9,1.1
		c-1,0.4-1.9,0.9-3,1.3c-1,0.4-2,0.9-3.1,1.4c-1,0.5-2.1,1-3.3,1.5c1.1-4.7,3.1-9.2,6.2-13.1c1.4-2,3.3-3.8,5.1-5.5
		c1-0.8,2-1.6,3.1-2.3l0.8-0.6c0.3-0.2,0.6-0.3,0.8-0.5c0.6-0.3,1.2-0.6,1.7-1c4.7-2.5,10-4,15.4-4.4c5.4-0.4,10.7,0.3,15.6,1.7
		c9.9,2.8,18.3,8.2,25.1,14.7c3.4,3.3,6.4,6.9,9,10.8c1.3,2,2.5,4,3.5,6.1C312.2,559.5,313.1,561.7,313.7,564z"/>
	<path d="M309.7,566c0.1,2.3-1,4.9-3,6.7c-1,0.9-2.2,1.7-3.5,2.3c-0.6,0.3-1.3,0.5-2,0.7l-0.9,0.6l-4.7,3c-1.7,1.1-3.5,2.1-5.3,3.2
		c-3.7,2-7.8,3.8-12.3,5.2c-1.1,0.3-2.3,0.6-3.4,0.9c-1.2,0.2-2.3,0.5-3.5,0.6c-1.2,0.1-2.4,0.3-3.7,0.4c-1.2,0.1-2.6,0.1-3.6,0.1
		c-4.3,0-8.7-0.4-13.2-1.2c-4.4-0.8-8.9-2.1-13.3-4.3c-4.3-2.1-8.6-5.2-11.6-9.5c-1.5-2.1-2.6-4.5-3.1-7c-0.5-2.4-0.4-4.9,0.3-7.1
		c1.5,1.8,3,3.2,4.5,4.3c1.6,1.1,3.1,1.8,4.7,2.4c3.2,1.1,6.4,1.5,9.9,1.8c6.9,0.5,14.2,0.4,21.9,0.5c1,0,1.8,0,2.6,0
		c0.8,0,1.6-0.1,2.4-0.1c0.8,0,1.7-0.1,2.5-0.2l2.6-0.3c3.5-0.4,7.3-1,11.2-1.5c2-0.3,4.1-0.5,6.2-0.7c2.2-0.2,4.4-0.3,7.1-0.2
		c0.7,0,1.4,0.1,2.1,0.2c0.3,0.1,0.7,0.3,1.1,0.4c0.8,0.3,1.5,0.4,2.3,0.4C305.9,567.9,307.9,567.4,309.7,566z"/>
	<path d="M213.6,582.7c1.5,0.3,2.7,0.6,3.8,0.9c1.1,0.3,2.1,0.6,3.1,0.9c1.9,0.6,3.5,1.3,5.1,2c0.4,0.2,0.8,0.4,1.2,0.6
		c0.4,0.2,0.8,0.5,1.2,0.7c0.4,0.2,0.8,0.5,1.2,0.7c0.4,0.2,0.8,0.5,1.2,0.8c0.8,0.6,1.7,1.2,2.6,2c0.9,0.8,1.9,1.5,2.9,2.7
		c-0.6,0.5-1.1,0.9-1.7,1.3c-0.6,0.4-1.2,0.7-1.8,0.9c-1.2,0.4-2.5,0.8-3.8,0.8c-0.6,0-1.3,0-1.9,0c-0.6-0.1-1.3-0.2-1.9-0.3
		c-0.6-0.1-1.2-0.3-1.8-0.5c-0.6-0.2-1.2-0.4-1.8-0.7c-2.3-1.1-4.3-2.9-5.8-5c-0.7-1.1-1.3-2.3-1.6-3.6
		C213.4,585.6,213.2,584.2,213.6,582.7z"/>
	<path d="M299.1,568.4c-0.6-2.3-1-3.6-1.2-4.6c-0.3-1-0.4-1.7-0.3-2.2c0.1-0.6,0.5-1,1.1-1.9c0.4-0.4,0.7-0.9,1.2-1.5
		c0.5-0.6,0.9-1.3,1.7-2.3c2.3,0.2,3.9,1.2,4.9,2.7c1,1.4,1.3,3.3,1,5c-0.3,1.7-1.3,3.3-2.7,4.2
		C303.2,568.6,301.3,569.1,299.1,568.4z"/>
	<g>
		<path d="M263,544c-12.7,0-22.9,10.3-22.9,22.9c0,3.8,0.9,7.4,2.6,10.6c7.5,1.8,15.8,2.2,22.4,2.2c6.6,0,13.1-1.5,18.8-3.3
			c1.3-2.9,2-6.1,2-9.4C285.9,554.3,275.6,544,263,544z"/>
	</g>
	<path d="M285.9,502c0,0,2.4-6.7,16.9,0c14.6,6.7,21.2,1.4,20.6-3s-4.6-12.4,0-17c4.6-4.7,7.5-29.3-20.6-19.3
		c-28.1,10-68.1,18-79.8,14c-11.7-4-45.7,9.7-46.3,28.5c-0.7,18.8-4.7,21.5,0,24.2c4.7,2.7-1.3-6,5.3-14.7
		c6.7-8.7,14.7-19.3,24.7-13.3s24,8.7,33.3-1.3C249.4,490,279.1,496.7,285.9,502z"/>
</g>
<g id="oko_2_copy">
	<path d="M415.7,561.9c0.3-0.9,0.9-1.8,1.5-2.6c0.6-0.8,1.3-1.5,1.9-2.3c0.7-0.7,1.4-1.4,2.1-2c0.7-0.6,1.5-1.3,2.2-1.9l-2.1,1.8
		c0.3-1.1,0.7-2.2,1.1-3.3c0.4-1,0.8-2,1.3-3c0.9-2,1.9-3.9,3.1-5.7c2.3-3.7,5.1-7,8.3-10.1c3.2-3,6.9-5.8,11-7.9
		c4.1-2.2,8.7-3.8,13.6-4.5c4.9-0.7,10-0.5,14.7,0.7c1.2,0.3,2.4,0.6,3.5,1.1c1.1,0.5,2.2,0.9,3.3,1.4c1.1,0.6,2.1,1.1,3.1,1.7
		c1,0.6,1.9,1.3,2.9,2c3.7,2.8,6.7,6.1,9,9.7c2.4,3.6,4.1,7.5,5.1,11.7c-2.1-0.8-3.9-1.7-5.7-2.5c-0.9-0.4-1.8-0.8-2.7-1.2
		c-0.9-0.4-1.8-0.8-2.6-1.1c-3.4-1.5-6.8-2.6-10-3.4c-3.2-0.9-6.2-1.2-9-1.3c-2.8-0.1-5.6,0.2-8.3,0.8c-5.5,1.2-11.1,3.7-17,7.1
		c-2.9,1.7-5.8,3.6-8.8,5.6c-1.5,1-2.9,2.1-4.4,3.1c-0.7,0.5-1.5,1.1-2.2,1.6c-0.7,0.5-1.4,1.1-2.1,1.6l-2.1,1.8l-2.7,0.1
		c-0.9,0.1-1.8,0.1-2.7,0.2c-0.9,0-1.8,0.1-2.7,0.2C417.6,561.6,416.7,561.6,415.7,561.9z"/>
	<path d="M414.1,565c2.3,0.3,4.5,0.5,6.5,0.5c2,0,3.9-0.2,5.6-0.6c0.4-0.1,0.8-0.2,1.2-0.3c0,0,0.3,0,0.5,0l0.6,0l1.3,0
		c0.7,0,1.4,0.1,2.1,0.1c0.7,0.1,1.2,0.1,1.8,0.2c0.6,0.1,1.2,0.2,1.7,0.3l1.6,0.3l3,0.5c7.8,1.4,14.3,2.1,20.9,1.6
		c0.8,0,1.7-0.2,2.5-0.2l1.2-0.1c0.4,0,0.8-0.1,1.2-0.2c0.8-0.1,1.7-0.3,2.5-0.4c0.8-0.2,1.7-0.4,2.5-0.5l1.3-0.2l1.4-0.3
		c0.9-0.2,1.8-0.4,2.7-0.6l2.7-0.7c0.9-0.2,1.8-0.5,2.7-0.7c3.6-1,7.1-2,10.6-3.5l1.3-0.5c0.4-0.2,0.8-0.4,1.3-0.6
		c0.5-0.2,0.9-0.4,1.3-0.7c0.4-0.2,0.9-0.5,1.3-0.7c1.7-1,3.5-2.2,5.1-3.8c0.5,2.3,0.1,4.8-0.6,7.2c-0.7,2.3-1.9,4.6-3.2,6.6
		c-2.7,4.1-6.3,7.4-10.1,10.2c-1.9,1.4-3.9,2.6-5.9,3.7c-1,0.5-2,1-3.1,1.5c-0.5,0.2-1,0.5-1.6,0.7l-1.7,0.6
		c-1.1,0.4-2.3,0.8-3.4,1.2c-1.2,0.3-2.4,0.6-3.6,0.9c-0.6,0.1-1.2,0.3-1.8,0.4l-1.8,0.3c-1.2,0.1-2.5,0.4-3.7,0.4
		c-5,0.4-10-0.2-14.8-1.4c-4.7-1.2-9.1-3.2-13-5.5c-1-0.6-1.8-1.1-2.8-1.7l-1.3-0.8l-1.2-0.8l-1.1-0.8c-0.3-0.2-0.6-0.4-0.9-0.7
		l-0.3-0.3l-0.2-0.1c-0.1,0,0-0.1-0.2-0.2c-0.6-0.2-1.3-0.4-1.9-0.7c-2.4-1-4.5-2.4-6.3-4C416.6,569,415.1,567.2,414.1,565z"/>
	<path d="M422.9,556c1.8,1.3,2.9,2.1,3.6,2.7c0.8,0.6,1.1,1.1,1.3,1.5c0.1,0.4-0.1,0.8-0.5,1.6c-0.4,0.8-0.9,1.9-1.3,4.2
		c-1.9,1.2-3.8,1-5.2,0.3c-1.4-0.8-2.4-2.1-2.7-3.5c-0.3-1.4-0.2-2.8,0.6-4C419.5,557.6,420.7,556.5,422.9,556z"/>
	<g>
		<path d="M461.7,544.9c-10.7,0-19.3,9-19.3,20.1c0,4.1,1.2,7.8,3.2,11c7.9,2.1,17.9,3,30-1.2c1.3-0.4,2.5-0.9,3.7-1.3
			c1.2-2.6,1.8-5.4,1.8-8.5C481.1,553.9,472.4,544.9,461.7,544.9z"/>
	</g>
	<path d="M418.7,585.7c4,0.3,7.3,1.3,10.5,2.4c3.2,1.1,6.2,2.5,9.1,3.9c2.9,1.4,5.6,3,8.4,4.7c2.8,1.7,5.4,3.5,8.7,5.7
		c-0.8,0.5-1.8,0.9-2.7,1.2c-0.9,0.3-1.9,0.4-2.8,0.6c-1,0.2-1.9,0.2-2.9,0.2c-1,0-1.9,0-2.8-0.2c-3.7-0.4-7.2-1.7-10.4-3.3
		c-3.2-1.6-6.1-3.7-8.7-6.2C422.6,592.2,420.2,589.4,418.7,585.7z"/>
	<path d="M399.7,501c0,0-21-23.5-4.5-33s26-3.5,36-2.5s48-4.5,57,1.5s24.5,20,34.5,21s30.5,19,31,27.5c0.5,8.5-4,11-13.5,0
		c-9.5-11-16.5-20.9-29.5-20.4c-13,0.4-30.8-15.6-39.4-10.1C462.7,490.5,410.3,520.4,399.7,501z"/>
</g>
<g id="nos_copy">
	<path d="M304.6,648c0.6,1.9,0.9,3.7,1.1,5.5c0.2,1.8,0.3,3.6,0.3,5.4c0,3.5-0.3,7-1,10.5c-0.2,0.9-0.4,1.7-0.6,2.6
		c-0.1,0.4-0.3,0.9-0.4,1.3l-0.2,0.6l-0.1,0.5l-1.1,4.1c-0.7,2.7-1.4,5.3-1.9,7.7c-0.1,0.6-0.3,1.2-0.3,1.7l-0.1,0.8
		c0,0.3-0.1,0.5-0.1,0.8c-0.1,1-0.2,1.9-0.3,2.7l-0.1,1.9c0,0.6,0,1.1,0.3,1.8c0.4,1.4,2.2,3.2,4.7,4.8l0.9,0.6
		c0.3,0.2,0.7,0.4,1,0.6c0.7,0.4,1.4,0.8,2.2,1.2c1.5,0.8,3.1,1.6,4.8,2.6c-1.5,1.2-3.2,2.2-4.9,2.9c-0.9,0.4-1.8,0.7-2.7,1
		c-0.5,0.2-0.9,0.3-1.4,0.4l-1.5,0.3c-0.5,0.1-1,0.2-1.5,0.2l-1.6,0.1c-1,0.1-2.1,0-3.2-0.2c-0.5,0-1.1-0.2-1.7-0.3
		c-0.6-0.1-1.1-0.3-1.7-0.5c-1.1-0.4-2.3-0.9-3.4-1.6c-2.3-1.3-4.4-3.3-5.9-5.6c-1.5-2.3-2.6-4.8-3.2-7.3c-1.1-4.9-0.8-9.3,0-13.2
		c0.8-4,2.2-7.5,3.9-10.8c0.8-1.7,1.8-3.2,2.8-4.7l0.4-0.6l0.3-0.5c0.2-0.3,0.4-0.6,0.7-0.9l1.4-1.8c1.9-2.5,4-5,6.2-7.5
		c1.1-1.3,2.3-2.5,3.6-3.8C301.8,650.5,303.1,649.3,304.6,648z"/>
	<path d="M427.1,667c1.5,0.6,2.8,1.4,4,2.2c1.2,0.9,2.3,1.8,3.3,2.9c2,2.1,3.7,4.5,4.8,7.3c1.2,2.7,2,5.8,2.1,9.1
		c0.1,3.3-0.5,7-2.1,10.5c-1.6,3.5-4.3,6.6-7.4,8.7c-1.5,1.1-3.2,1.8-4.8,2.5c-0.8,0.3-1.6,0.5-2.4,0.7c-0.8,0.2-1.6,0.3-2.4,0.4
		c-3.2,0.4-6.2,0-9-0.8c-1.4-0.5-2.8-1-4.1-1.7c-1.3-0.7-2.6-1.6-3.8-2.6c1.2-1.2,2.3-2.1,3.4-2.9c1.1-0.9,2.1-1.7,3.1-2.5l1.4-1.2
		c0.4-0.4,0.9-0.7,1.3-1.1c0.8-0.7,1.6-1.4,2.2-2c0.7-0.6,1.2-1.3,1.8-1.8c0.4-0.6,0.9-1.1,1.2-1.6c0.6-1,1-1.7,1.4-2.6
		c0.4-0.9,0.9-2,1.3-3.4c0.5-1.4,0.9-3.2,1.3-5.2l1.4-6.7C425.7,672.8,426.2,670.1,427.1,667z"/>
	<path d="M313.7,696c-0.3-1.3-0.2-2.6,0.2-4.1c0.4-1.4,1.4-2.8,2.9-3.8c1.4-1.1,3.2-1.5,4.9-1.7c1.7-0.2,3.3,0,4.8,0.3
		c3,0.6,5.6,1.6,8.1,2.8c0.6,0.3,1.2,0.6,1.8,0.9c0.3,0.2,0.5,0.3,0.8,0.4l0.7,0.3c0.9,0.4,1.9,0.9,2.8,1.3
		c3.7,1.6,7.3,2.7,10.7,3.3c3.4,0.6,6.7,0.7,10,0.2c3.3-0.5,6.6-1.4,10.1-2.8l1.3-0.6c0.2-0.1,0.5-0.2,0.8-0.4l0.9-0.4
		c1.1-0.5,2.3-1,3.5-1.5c2.4-0.9,4.8-1.8,7.3-2.5c5-1.4,10.2-2.2,15.8-1.8c2.8,0.3,5.7,0.8,8.3,2.3c1.3,0.7,2.5,1.7,3.4,2.9
		c0.9,1.2,1.4,2.5,1.5,3.8c-2.2-1.5-4.3-1.6-6.2-1.2c-1.9,0.4-3.8,1.1-5.6,2c-3.7,1.8-7.3,4.1-10.8,6.5c-1.8,1.2-3.5,2.4-5.3,3.7
		l-2.6,1.9l-0.7,0.5c-0.2,0.2-0.4,0.3-0.7,0.5l-1.8,1.1c-4.8,3-10.4,5.1-16.4,5.9c-1.5,0.2-3,0.3-4.5,0.3c-0.7,0-1.5,0-2.3,0
		c-0.8,0-1.5,0-2.2-0.1c-3-0.4-5.9-0.9-8.7-1.9c-5.6-1.9-10.4-4.9-14.5-8.6c-1-0.9-1.9-1.9-2.9-2.8l-0.7-0.7
		c-0.2-0.2-0.5-0.5-0.6-0.7l-1-1.2c-1.3-1.6-2.6-3.1-3.9-4.3c-0.6-0.6-1.3-1.1-1.9-1.6c-0.6-0.4-1.2-0.8-2-0.9
		c-0.7-0.1-1.6,0-2.5,0.5C315.5,694.3,314.5,695,313.7,696z"/>
	<ellipse cx="320.1" cy="696" rx="6.4" ry="4.8"/>
	<ellipse cx="407.8" cy="695.9" rx="6.4" ry="4.8"/>
	<path d="M339.3,548.8c1.4,1,2.5,2.3,3.5,3.6c1,1.3,1.8,2.7,2.5,4.1c0.3,0.7,0.6,1.4,1,2.2c0.3,0.7,0.5,1.5,0.8,2.2
		c0.2,0.7,0.5,1.5,0.6,2.2c0.2,0.7,0.3,1.5,0.4,2.3c1.1,6.1,0.5,12.2-1.1,18c-0.9,2.8-2,5.7-3.5,8.3c-0.4,0.7-0.7,1.3-1.1,1.9
		c-0.4,0.6-0.8,1.3-1.2,1.9c-0.9,1.2-1.8,2.4-2.8,3.5c-0.5,0.6-1,1.1-1.5,1.7c-0.6,0.5-1.1,1-1.7,1.5c-1.1,1-2.3,1.9-3.6,2.8
		c-1.3,0.9-2.6,1.6-4.1,2.3c-1.4,0.7-2.9,1.3-4.6,1.8c-0.3-3.5,0-6.4,0.2-9.3c0.1-1.4,0.2-2.8,0.4-4.1c0.2-1.3,0.4-2.6,0.6-3.9
		c0.2-1.3,0.5-2.5,0.7-3.7c0.3-1.2,0.5-2.4,0.8-3.6c0.7-2.3,1.1-4.6,1.9-6.9c1.3-4.5,2.8-8.9,4.7-13.5l1.4-3.5l1.6-3.7
		c0.3-0.6,0.6-1.3,0.9-1.9l0.9-2C337.9,551.7,338.5,550.3,339.3,548.8z"/>
</g>
<g id="usta_copy">
	<path d="M288.4,773.7c15.3-5.2,16.2-3.5,24.8-8c7.9-4.1,23.5-11.3,35.5-7.7c12,3.7,20.3,6,29,2c8.7-4,18.1-2.7,31.7,1.3
		c20.7,6.2,46.6,8.2,42.7,10c-3.9,1.8-18.1,5.7-33.4,4s-35.6-2.1-44,0.3c-8.3,2.4-24.3-2.3-30.7-2.6
		C337.7,772.7,286.2,778.1,288.4,773.7z"/>
	<path d="M294.2,781.5c6.7,2,13.1,4.3,19.4,6.7l9.3,3.7c0.7,0.3,1.5,0.6,2.2,0.8c0.7,0.3,1.5,0.6,2.2,0.8l2.2,0.7
		c0.7,0.2,1.4,0.4,2.1,0.6c2.8,0.8,5.4,1.2,7.7,1.3c1.2,0,2.3,0,3.5-0.2c1.2-0.2,2.5-0.4,4.1-0.7c0.7-0.1,1.7-0.3,2.6-0.4l2.7-0.4
		c1.8-0.2,3.6-0.4,5.3-0.6c3.6-0.3,7.2-0.4,11.1-0.2c1.9,0.1,3.9,0.3,6.2,0.7c1.1,0.2,2.3,0.5,3.7,0.9l1.1,0.4l0.6,0.2l0.3,0.1l0,0
		c0,0,0,0,0,0c0,0-0.1,0,0,0c0.1,0,0.3,0.1,0.4,0.1l0.7,0.1c0.2,0.1,0.5,0.1,0.8,0.1c0.3,0,0.6,0.1,0.9,0.1c1.2,0.1,2.6,0.1,4,0.2
		c2.8,0,5.8-0.2,8.5-0.5c0.7-0.1,1.3-0.2,1.9-0.3l0.8-0.1c0.2,0,0.3-0.1,0.5-0.1l0.8-0.3c0.3-0.1,0.7-0.3,1-0.4
		c0.7-0.3,1.5-0.6,2.2-0.9c6-2.6,12.3-5.2,18.7-7.5c3.2-1.1,6.5-2.2,9.8-3.1c1.7-0.5,3.4-0.9,5.1-1.3c0.9-0.2,1.7-0.4,2.6-0.5
		c0.4-0.1,0.9-0.1,1.3-0.2l1.3-0.1c-0.7,0.5-1.3,1.1-2,1.7c-0.6,0.6-1.3,1.2-1.9,1.7l-3.8,3.5c-2.5,2.3-5,4.5-7.6,6.8
		c-5.1,4.4-10.3,8.6-15.9,12.7c-0.7,0.5-1.4,1-2.2,1.5c-0.4,0.3-0.7,0.5-1.2,0.8l-1.4,0.9c-0.6,0.3-1.3,0.6-1.8,0.9l-1.6,0.6
		c-1,0.4-2,0.7-2.9,1c-1.9,0.6-3.8,1-5.6,1.4c-1.9,0.4-3.7,0.7-5.6,0.9c-1.9,0.2-3.9,0.3-6,0.3c-0.5,0-1.1,0-1.6,0
		c-0.6,0-1.1,0-1.7-0.1l-1.8-0.2c-0.7-0.1-1.4-0.3-2-0.4c-0.3-0.1-0.8-0.2-1.2-0.3l-1.2-0.4l-0.3-0.1c0,0,0,0,0,0l0,0c0,0,0,0-0.1,0
		c-0.3,0-0.6-0.1-1.2-0.2c-1-0.2-2.4-0.3-3.8-0.4c-2.8-0.2-5.9-0.1-8.9-0.1c-1.5,0-3.1,0.1-4.6,0.2l-2.3,0.1l-2.4,0.2
		c-1.7,0.1-3.7,0.3-5.9,0.2c-2.2,0-4.4-0.3-6.5-0.7c-4.3-0.9-8.1-2.5-11.4-4.3c-0.8-0.5-1.6-0.9-2.4-1.4l-2.3-1.5
		c-1.5-1-3-2.1-4.4-3.2c-1.4-1.1-2.7-2.2-4-3.3c-1.3-1.1-2.6-2.2-3.8-3.4c-2.5-2.3-5-4.7-7.4-7.2
		C298.6,786.9,296.3,784.4,294.2,781.5z"/>
</g>
<g id="Layer_6">
	<ellipse cx="227.2" cy="559.7" rx="4.2" ry="6.9"/>
	<ellipse cx="498.6" cy="553.9" rx="4.2" ry="6.9"/>
</g>
</svg>
