<svg id="Layer_1" data-name="Layer 1" xmlns="http://www.w3.org/2000/svg" viewBox="0 0 983.14 91.77"><defs><style>.cls-1{fill:#484a47;}</style></defs><title>dusanstvo</title><path class="cls-1" d="M13.46,31.08h41.7q14.39,0,25,3.8A35.33,35.33,0,0,1,97.26,47.69q6.52,9,6.53,22.48V83.5q0,20.93-14.12,30.46-12.93,8.63-34.51,8.63H13.46a3.38,3.38,0,0,1-2.48-1,3.36,3.36,0,0,1-1.05-2.48V34.61a3.59,3.59,0,0,1,3.53-3.53Zm30.46,25.5V97.1h11.9q6.13,0,9.74-2.94a10.14,10.14,0,0,0,3.59-8.3v-18a10.12,10.12,0,0,0-3.59-8.3q-3.6-2.94-9.74-2.94Z" transform="translate(-9.93 -30.95)"/><path class="cls-1" d="M201.5,113.3q-12.87,9.42-34.83,9.42t-34.84-9.42Q119,103.88,119,83.87V34.57a3.32,3.32,0,0,1,1-2.45,3.41,3.41,0,0,1,2.48-1H149.8a3.46,3.46,0,0,1,2.49,1,3.34,3.34,0,0,1,1,2.44V85.66a9.67,9.67,0,0,0,3.6,8.09q3.58,2.82,9.74,2.83t9.74-2.83A9.69,9.69,0,0,0,180,85.66V34.55a3.31,3.31,0,0,1,1.05-2.44,3.42,3.42,0,0,1,2.48-1h27.32a3.39,3.39,0,0,1,2.48,1,3.32,3.32,0,0,1,1,2.45v49.3Q214.38,103.88,201.5,113.3Z" transform="translate(-9.93 -30.95)"/><path class="cls-1" d="M315.49,74.05q9.09,6.51,9.09,19.51t-13.21,21.08q-13.2,8.08-35,8.08t-33.92-8q-12.09-8-12.09-19.63,0-2.85,3-2.85h26.8a6.24,6.24,0,0,1,4.45,1.61q3.65,3.35,12.68,3.34,12.4,0,12.41-3.66c0-1.52-1.3-2.72-3.92-3.6s-7.8-1.75-15.55-2.59q-37-4.29-37-27.39,0-13,11.9-21t31.83-8q19.94,0,32.22,8.63t12.29,18.21a2.7,2.7,0,0,1-.85,2.08,3.3,3.3,0,0,1-2.29.77H290.2a6,6,0,0,1-4.06-1.48q-3.13-2.71-9.41-2.72Q268,56.44,268,60c0,1.26,1.14,2.25,3.4,3s6.8,1.45,13.6,2.21Q306.4,67.55,315.49,74.05Z" transform="translate(-9.93 -30.95)"/><path class="cls-1" d="M364.18,122.59h-24.7a2.76,2.76,0,0,1-2-.85,2.39,2.39,0,0,1-.85-1.63,3.87,3.87,0,0,1,.13-1.18l28.5-83.53q1.17-4.32,5.88-4.32h36.34q4.71,0,5.88,4.32l28.5,83.53a3.87,3.87,0,0,1,.13,1.18,2.39,2.39,0,0,1-.85,1.63,2.75,2.75,0,0,1-2,.85H414.38q-4.19,0-5.88-4.45L405.23,109h-31.9l-3.26,9.15Q368.36,122.6,364.18,122.59ZM398.56,83.5l-9.28-27.19L380,83.5Z" transform="translate(-9.93 -30.95)"/><path class="cls-1" d="M516.6,31.08h24.32a3.59,3.59,0,0,1,3.53,3.53v84.45a3.59,3.59,0,0,1-3.53,3.53h-21a6.34,6.34,0,0,1-5.23-2.75L486.14,83.5v35.56a3.57,3.57,0,0,1-3.53,3.53H458.3a3.59,3.59,0,0,1-3.53-3.53V34.61a3.59,3.59,0,0,1,3.53-3.53h21.18a6.11,6.11,0,0,1,5.1,2.62l28.49,39.35V34.61a3.59,3.59,0,0,1,3.53-3.53Z" transform="translate(-9.93 -30.95)"/><path class="cls-1" d="M648.82,74.05q9.09,6.51,9.09,19.51t-13.2,21.08q-13.22,8.08-35,8.08t-33.92-8q-12.09-8-12.09-19.63c0-1.9,1-2.85,3-2.85h26.79a6.22,6.22,0,0,1,4.45,1.61q3.66,3.35,12.68,3.34,12.42,0,12.42-3.66,0-2.28-3.92-3.6t-15.56-2.59q-37-4.29-37-27.39,0-13,11.89-21t31.83-8q19.93,0,32.22,8.63t12.29,18.21a2.67,2.67,0,0,1-.85,2.08,3.3,3.3,0,0,1-2.29.77h-28.1a5.94,5.94,0,0,1-4-1.48q-3.13-2.71-9.41-2.72-8.76,0-8.76,3.54,0,1.89,3.4,3t13.59,2.21Q639.74,67.55,648.82,74.05Z" transform="translate(-9.93 -30.95)"/><path class="cls-1" d="M677.12,31.08h90.2a3.57,3.57,0,0,1,3.53,3.53v21a3.57,3.57,0,0,1-3.53,3.53h-28.1v59.87a3.59,3.59,0,0,1-3.53,3.53H708.76a3.59,3.59,0,0,1-3.53-3.53V59.19H677.12a3.59,3.59,0,0,1-3.53-3.53v-21a3.59,3.59,0,0,1,3.53-3.53Z" transform="translate(-9.93 -30.95)"/><path class="cls-1" d="M854.25,31.08h27.58a2.8,2.8,0,0,1,2,.85,2.45,2.45,0,0,1,.85,1.64,6,6,0,0,1-.13,1.31l-30.07,83.4a5.72,5.72,0,0,1-5.88,4.31H818.17a5.59,5.59,0,0,1-5.75-3.92L782.09,34.88a5.41,5.41,0,0,1-.13-1.31,2.41,2.41,0,0,1,.85-1.64,2.8,2.8,0,0,1,2-.85h27.58a5.46,5.46,0,0,1,3.85,1.38,6.93,6.93,0,0,1,2,2.94l15,50.06,15-50.06Q849.54,31.08,854.25,31.08Z" transform="translate(-9.93 -30.95)"/><path class="cls-1" d="M993.07,69.06V84.61q0,13.13-6.53,21.93A35.33,35.33,0,0,1,969.41,119q-10.59,3.7-25,3.7t-25-3.7a35.33,35.33,0,0,1-17.13-12.48q-6.54-8.81-6.53-22.18v-15q0-19.24,13.53-28.81T944.44,31q21.57,0,35.1,9.56T993.07,69.06Zm-62-2.11V86.72a9.17,9.17,0,0,0,3.6,7.79q3.59,2.71,9.73,2.72t9.74-2.78a9.35,9.35,0,0,0,3.6-7.85V67.07a9.33,9.33,0,0,0-3.6-7.84q-3.58-2.79-9.74-2.79t-9.73,2.72A9.19,9.19,0,0,0,931.11,67Z" transform="translate(-9.93 -30.95)"/></svg>