<svg id="Layer_1" data-name="Layer 1" xmlns="http://www.w3.org/2000/svg" viewBox="0 0 981.57 167.8"><defs><style>.cls-1{fill:#484a47;}</style></defs><title>dusanstvo</title><path class="cls-1" d="M25.9,144.24l-5.38-5.38a10.14,10.14,0,0,1-4.45-4c-.1-.61-.18-1.28-.23-2s-.08-1.69-.08-2.92q0-12,12.6-13.07a2.05,2.05,0,0,1,.16-.92,2.91,2.91,0,0,0,.15-.92,3,3,0,0,1,.15-.92,1.08,1.08,0,0,1,.08-.46,1.08,1.08,0,0,0,.08-.46,4.81,4.81,0,0,1,.15-1.39L33.28,81.7a13.83,13.83,0,0,1-2.38.38c-.77,0-1.46.08-2.08.08q-5.37,0-8.3-2.92L15,73.71Q9,70.94,9,61.26a42.26,42.26,0,0,1,1.08-9.37l.3-.62Q19.29,31,41.27,28.68L80.91,29l3.69.46,5.84.92,2.46.77v.16l1.23.3h1.23l10.29,4.77,5.07,3.69,4.15,4,2.46,3.23L122.25,52l3.69,4.61.15.77,1.38,1.69a15.76,15.76,0,0,0,2,4.92l.31.61q1.23,4.45,2,8.84a49.38,49.38,0,0,1,.77,8.68q0,13.68-6.6,29.5-11.39,23.21-37.19,32.27l-3.23.61h-.15l-3.54,1.08a7,7,0,0,0-1.46.15c-.46.11-.94.21-1.45.31l-1.39.15H28.67a10.43,10.43,0,0,1-2.77-2,4.45,4.45,0,0,1-.92-.77Zm.62-73.61q10.76-8.91,6.3-20l.61-.77A15.46,15.46,0,0,1,41.27,49l-.16.92a12.71,12.71,0,0,1-.46,5.38l-8,57.47c-.2,1.33-.41,2.56-.61,3.68s-.41,2.1-.62,2.92l-.92.93q-13.22.3-10.91,13.21a4.53,4.53,0,0,0,2.15,2H69.39l2.15-.31a9.33,9.33,0,0,1,2.15-.31l3.53-1.07,3.23-.62q24-8.29,35-30.58,10.14-23.81,3.84-44.4l-.46-.93a11.47,11.47,0,0,1-2-4.6l-1.08-1.39-.15-.61-4-4.92-3.07-2.92L104,39.44l-9.37-4.3h-.77l-2.15-.62-2-.61A37.48,37.48,0,0,1,84.45,33l-3.84-.46-39-.31q-20.14,2.14-28,20.44Q8.54,75.23,26.52,70.63Zm48.71,44.72Q64.78,119.34,56,118L66,49.58q28-.77,30.27,26.74Q97.2,104,75.23,115.35ZM92.74,78.47V76.63a29,29,0,0,0-4-13.37A28.14,28.14,0,0,0,76.3,60.34l-7.83,53.32c.92-.21,1.81-.44,2.69-.69s1.81-.59,2.84-1Q92.73,102.28,92.74,78.47Z" transform="translate(-9 -27.61)"/><path class="cls-1" d="M134.23,52Q143.92,30.68,168,29.45h32.57a17.24,17.24,0,0,1,6.46,5.84l3.68,3.84c.21-.82.44-1.63.7-2.46s.53-1.63.84-2.45L213.52,33a1.08,1.08,0,0,1,.31-.23,1.2,1.2,0,0,0,.3-.23c.72-.52,1.44-1.05,2.16-1.62a11.51,11.51,0,0,1,2.45-1.46h33.35a18.32,18.32,0,0,1,3.15,1.85,19.3,19.3,0,0,1,3.15,3.07l-.16.61,6.92,6.92.15.15a.47.47,0,0,1,.31.16l-1.38,11.67q-5.53,4.92-11.53,5.54l-.46,1.07-7.37,50.4-.46.92-.31,2.31-1.23,2.76-.62,3.08a5.66,5.66,0,0,0-.3.77,7.82,7.82,0,0,1-.31.76l-.15.31-1.16,2.31-1,2-.46.93q-13.83,21-37.8,21.05a9.51,9.51,0,0,1-1.3-.08,9.67,9.67,0,0,0-1.31-.08,11.34,11.34,0,0,1-2,.16h-2q-12.45,0-20.75-8.3l-4-3.84q-7.84-5.69-13.06-17.83l-1.08-5.22v-4c0-.51,0-1.07-.08-1.69a15.71,15.71,0,0,0-.23-1.69l.16-2.15v-1.07l2.76-20a13.27,13.27,0,0,1-3.22.77c-1,.1-2,.15-2.92.15-3.38,0-6-.92-7.84-2.76l-5.53-5.53q-5.85-2.77-5.84-12.45c0-1.43.08-3,.23-4.69a36.42,36.42,0,0,1,.84-5.14ZM150.52,71.4q10.75-8.91,6.15-20a21.71,21.71,0,0,1,8.91-2l.61,2L159,102.29l.15,1.07-.3,2.15a18.6,18.6,0,0,1,.3,4.61v2l1.08,5.53q8.76,21.67,30.27,19.52,24.28,1.38,38.11-19.52l.46-.92a18.83,18.83,0,0,0,1.38-2.69l1.39-3.3.61-2.61.92-2.16.31-2.3.46-1.08,7.38-50.4L243,48.81a16,16,0,0,0,10.61-4.15l1.07-9.21A7.53,7.53,0,0,0,251.32,33H219.51a11.34,11.34,0,0,0-2.15,1.38l-1.84,1.54q-4.77,12.6,7.68,12.6l.77,2-.15.93a12.35,12.35,0,0,1-.16,5.22l-5.84,42.1c-.2,1.34-.41,2.54-.61,3.61s-.41,2-.62,2.85l-.46,1.07-.61,2.15-.92,2Q200.16,126,186,115.66a14.91,14.91,0,0,1-2.77-6.77v-5.22l7.68-54.24a2.71,2.71,0,0,1,1.85-1.23q12.14-.15,10.75-12A8.58,8.58,0,0,0,200,33H168.19q-22,.91-30.73,20.43Q132.39,77.09,150.52,71.4ZM194,115.81a11.61,11.61,0,0,0,3.38.46q6.6,0,14.29-8l.61-1.08v-.15l.62-2,.3-.92V104a10.63,10.63,0,0,0,.23-1.23c.05-.41.13-.87.23-1.39a1.35,1.35,0,0,0,.16-.61,3,3,0,0,1,.15-.92V100a2.65,2.65,0,0,1,.15-1.07v.15a2.14,2.14,0,0,1,.16-.92l5.84-42.57-5.53-5.68c-.11,0-.26-.1-.47-.31Q212.6,58.49,201.38,59L194,111.81Z" transform="translate(-9 -27.61)"/><path class="cls-1" d="M295,28.68c.82-.1,1.64-.17,2.46-.23s1.69-.07,2.61-.07a40.82,40.82,0,0,1,16.29,3.38,12.42,12.42,0,0,1,8.29-3.54,17.36,17.36,0,0,1,6.77,1.69,13.29,13.29,0,0,1,.92,1.31c.2.36.41.69.61,1l6,5.84a17.42,17.42,0,0,1,1.46,2.23c.36.66.75,1.35,1.16,2.07v2.15c0,.82,0,1.56-.08,2.23s-.13,1.41-.23,2.23v1.84l.15,1.85-.3,1.84.15.61L340.9,60c0,.82,0,1.56-.07,2.23s-.13,1.41-.23,2.23a6.35,6.35,0,0,0,.07.84,9.67,9.67,0,0,1,.08,1.31,13.49,13.49,0,0,1-.46,3.84l.15,1.08c-.21,1.43-.46,2.81-.77,4.14a22.45,22.45,0,0,1-1.23,3.85,14.59,14.59,0,0,1-10.14,4.3,8.73,8.73,0,0,1-.92-.08,9.16,9.16,0,0,0-1.08-.08,19,19,0,0,1-2.61-1.07l.46.46L328,86.77a30.1,30.1,0,0,1,9.06,22.12,47.47,47.47,0,0,1-3.53,17.21Q320,148.39,299.41,148.38a48.66,48.66,0,0,1-17.82-3.68,14.46,14.46,0,0,1-9.07,3.22,19.64,19.64,0,0,1-5.84-1.07l-6.91-6.92a2.37,2.37,0,0,1-.92-.3L255.62,135a6.68,6.68,0,0,1-.15-1.54v-3.69a11.42,11.42,0,0,1,.15-1.84v-3.84a8,8,0,0,1-.15-1.54v-2.46a7.24,7.24,0,0,1,.15-1.38l-.15-5.53v-.77a4.21,4.21,0,0,1-.16-1.08v-1.69a1.12,1.12,0,0,1,.08-.46,1.05,1.05,0,0,0,.08-.46v-.46a.32.32,0,0,1,.07-.23.28.28,0,0,0,.08-.23v-2.31l1.08-7.37c3.27-3.59,7.07-5.38,11.37-5.38a16.24,16.24,0,0,1,1.84.08,10.63,10.63,0,0,1,1.23.23h.31a15,15,0,0,1,5.07,5.07l5.22,5.07a12.23,12.23,0,0,1,2.31,3.23,38,38,0,0,0,2.15,9.22,10.48,10.48,0,0,0,4.3.76,18,18,0,0,0,2.15-.15,26.39,26.39,0,0,0,2.62-.46,7.76,7.76,0,0,0,2.3-2.46,10.08,10.08,0,0,0,.77-3.53,7.09,7.09,0,0,0-.62-2.92l-10-7.38-.31-.15c-.31-.21-.72-.51-1.23-.92l-1.54-1.23-.92-.93c-.21-.2-.46-.43-.77-.69s-.56-.48-.77-.69L279.13,92c-.41-.31-.84-.66-1.3-1.07s-.85-.77-1.16-1.08l-.92-.92a22.24,22.24,0,0,1-4-4.15l-3.23-4.15A31.48,31.48,0,0,1,265.15,66a42.88,42.88,0,0,1,.54-6.76,43.68,43.68,0,0,1,1.76-7.07V52Q274.52,33.46,295,28.68Zm-23.2,50.4,2.76,3.54a16,16,0,0,0,3.38,3.53L279,87.23a21,21,0,0,0,1.69,1.3c.51.36.92.65,1.23.85l11.68,8.45.61.62,1.84,1.69a20.71,20.71,0,0,1,2.85,2.45,26.25,26.25,0,0,1,1.92,2.31,12.68,12.68,0,0,1,.15,9.68,25.31,25.31,0,0,1-2.15,2.69,14.79,14.79,0,0,1-2.15,1.92Q277,124.11,273.29,99.52a7,7,0,0,0-2.76-2.92,10.6,10.6,0,0,0-10.45,3.23l-.92,6.14v1.85c-.11.82-.18,1.61-.24,2.38a4.32,4.32,0,0,0,.24,1.92l-.16,1.23.16,5.53a34.07,34.07,0,0,0,0,4.77v4.61a26.76,26.76,0,0,0,0,5.83l1.69,2.46q6.91,2.31,12.29-3.22,31.8,13.51,49.78-15.83Q334,88.76,309.25,74.63,285.9,61.27,294.19,51.27q18-6.6,21.2,19.36A15.94,15.94,0,0,0,317.32,72a12.13,12.13,0,0,0,1.76.92A11.14,11.14,0,0,0,328.15,70a24.39,24.39,0,0,0,1-3.07,23.66,23.66,0,0,0,.54-3.08l-.16-1.53a26.37,26.37,0,0,0,.39-3,8.63,8.63,0,0,0-.23-2.54,24.91,24.91,0,0,0,.46-4.45l.3-4.61-.15-.92.31-2-.16-1.38V41.28a32.23,32.23,0,0,0,.31-5.83,9.47,9.47,0,0,0-.69-1.39c-.26-.41-.54-.82-.85-1.23q-7.37-3.22-12.13,3.23a37.41,37.41,0,0,0-21.82-3.84q-18,4.31-24.44,21.05Q265.91,68.33,271.76,79.08ZM303.1,66.64q1.69,1.23,3.61,2.46t4.23,2.46a1.59,1.59,0,0,0,1.07.61,46.14,46.14,0,0,0-2.76-11.52h-.62a15.59,15.59,0,0,0-4.91.92,4.91,4.91,0,0,0-.93,2.76A13.38,13.38,0,0,0,303.1,66.64Zm2.46,3.53a5.52,5.52,0,0,0,1.08,1.08Z" transform="translate(-9 -27.61)"/><path class="cls-1" d="M389.46,38.83a14.42,14.42,0,0,1,6.76-6.77,12.08,12.08,0,0,1,1.3-.23c.47,0,1.16-.07,2.08-.07a10.67,10.67,0,0,1,5.45,1.38A18.31,18.31,0,0,1,409.59,37l.15.62,6,6h-.15l.31.15a1.66,1.66,0,0,0,.3.46,2,2,0,0,1,.31.46l.31.16L432,110.74a206.29,206.29,0,0,0,9.76,29,106.57,106.57,0,0,0,11,20.06,27.53,27.53,0,0,0,6.46,4.22,20.79,20.79,0,0,0,6.76,1.77h1.69q8.76,0,18.59-6.76a16.73,16.73,0,0,1-2.3-7.69q0-7.83,10-13.06a15.66,15.66,0,0,1,3.76-1.23,20.66,20.66,0,0,1,3.46-.3q6.45,0,10.91,6.45l5.07,5.07a21.37,21.37,0,0,1,4,6.15v1.84q0,9.06-6.45,18.75a43.79,43.79,0,0,1-10.3,10l-1.07.76L493.64,191l-6.15,2.15a62.59,62.59,0,0,1-15.83,2.3q-21.2,0-37.64-16.44l-2.31-2.3q-16.74-13.07-29-41.8a30.49,30.49,0,0,1-2.15-5.91q-1.38-4.69-3.53-12.53H383.93L378.85,124l3.23,3.08a.47.47,0,0,0-.31-.16l-.15-.15.46.31a7.9,7.9,0,0,1,2.15,5.84c0,2.45-.92,5.43-2.76,8.91a32.84,32.84,0,0,1-2.85,1.69,17.12,17.12,0,0,1-3,1.23H350.12a15,15,0,0,1-6.61-3.54l-5.22-5.07a11.53,11.53,0,0,1-4.76-4.91l1.07-8.3q3.38-5.84,9.07-6.46l44.56-75.6Zm1.84,3.84-44.71,75.9-1.69,1.23a8,8,0,0,0-6.77,4l-.92,6.76c.72,1.44,2.51,2.56,5.38,3.38h24.89a15.17,15.17,0,0,0,3.85-1.84q6.14-11.68-5.23-12.6l.77-2.15,7.68-11.68h23.2l.31.61q7.06,26.13,7.84,27.2Q432.18,194,478,182.81l6.91-2.46,9.22-4.92.77-.62a40,40,0,0,0,9.68-9.22q6.3-9.53,5.84-18.28-4.62-10.14-14.91-5.84-13.22,6.45-4.45,18.59-12.15,9.84-25,9.22-26.58-1.84-44.56-65.46L406.36,38.67a8.91,8.91,0,0,0-9.07-3.07,10.27,10.27,0,0,0-4.76,5.22Zm.92,33.65.16,1.23L393,79.7l2.77,8.76-1.23.3H383.62l.77-.92,1.69-3.22.61-.93,4.92-8.91Zm124.47,71.6-.31-.3Z" transform="translate(-9 -27.61)"/><path class="cls-1" d="M446.16,56.19q6.29-24.73,34.42-26h16.13l3.69,1.23a7.93,7.93,0,0,1,.77,1l1.07,1.61,5.69,5.53a98.24,98.24,0,0,1,5.6,8.22q4.38,6.84,11.61,19.29c.71,1.23,1.38,2.38,2,3.46s1.23,2.12,1.85,3.15l2.46-17.83-5.23-5.22a8,8,0,0,1-4.76-7.53v-.92a3.74,3.74,0,0,1,.31-1.39q.6-5.68,10.6-10.75l30.73.15A12.65,12.65,0,0,1,569.24,35v.47l5.68,5.68A19.69,19.69,0,0,1,576.46,43c.1.83.2,1.59.31,2.31a13.66,13.66,0,0,1,.15,1.84q0,11.84-13.21,12.76l-.31.15-10.91,77.29a15.18,15.18,0,0,1-4.46,8.3,13.32,13.32,0,0,1-3.3.77q-1.62.15-3.15.15c-.72,0-1.49,0-2.31-.08a18.14,18.14,0,0,1-3.07-.53L529.13,139a1.18,1.18,0,0,0-.46-.15l-.31-.16a21.78,21.78,0,0,1-4.15-5.53l-.15-.15q-7.38-12-13.21-21.36T500.71,95.37l-3.54,23.82a8.16,8.16,0,0,1,.85,1,10,10,0,0,1,.69,1.15l5.84,5.69c1.53,1.53,2.3,3.79,2.3,6.76a15.58,15.58,0,0,1-.31,3c-.2,1.08-.51,2.34-.92,3.77a17,17,0,0,1-7.07,5.07H471.2a4.84,4.84,0,0,0-.92.08,5.7,5.7,0,0,1-.92.07c-.62,0-1.23,0-1.85-.07a6.05,6.05,0,0,1-1.69-.39h-1.69l-7.22-7.22h-.61q-4.92-4.46-4.92-9.53a12.71,12.71,0,0,1,1.15-5,19.89,19.89,0,0,1,3.92-5.61,37.09,37.09,0,0,1,8.76-1.69l4.61-33.34a14,14,0,0,1-2.46.38c-.82,0-1.59.08-2.3.08a10.81,10.81,0,0,1-8-2.92l-5.54-5.53q-6-2.77-6-12.6A39,39,0,0,1,446,56.5Zm17.36,15.37q10.14-9.07,5.53-19.52,5.07-2.31,8.76-.15l-9.37,67.61a55.25,55.25,0,0,0-5.84.53,22.59,22.59,0,0,0-4.15,1q-6.92,7.69-.62,13.53h.93a10.94,10.94,0,0,0,2.3.38,12.66,12.66,0,0,0,2.46-.08h26.74a11.72,11.72,0,0,0,4.91-3.53q3.69-11.67-7.07-11.53l-2.76-.15L492,73.71l.46.76q.3.78,8.76,14.53t25,40.48l1.08,1.85a11.38,11.38,0,0,0,2.76,4.15,18.15,18.15,0,0,0,8.76-.31,10.11,10.11,0,0,0,2.92-6L553,49.89c.61-.2,1.15-.36,1.61-.46a11.26,11.26,0,0,0,1.15-.31q12-.61,10.15-12.75a6.74,6.74,0,0,0-3.38-2.62l-29.2-.15q-7.68,3.84-8,7.84-1.85,6.77,10.6,8.3l-5.07,37.49c-.2-.31-.38-.62-.54-.92a2.83,2.83,0,0,0-.53-.77q-.32-.32-3.92-6.46T514.84,61q-7.07-12-11.14-18.51a86.36,86.36,0,0,0-5.15-7.76l-2.61-.93H480.73Q455.38,35,449.54,57.11,446.47,76.94,463.52,71.56Z" transform="translate(-9 -27.61)"/><path class="cls-1" d="M607.5,28.68c.82-.1,1.63-.17,2.45-.23s1.69-.07,2.62-.07a40.82,40.82,0,0,1,16.29,3.38,12.4,12.4,0,0,1,8.29-3.54,17.27,17.27,0,0,1,6.76,1.69,12.06,12.06,0,0,1,.93,1.31c.2.36.4.69.61,1l6,5.84a17.42,17.42,0,0,1,1.46,2.23c.36.66.74,1.35,1.16,2.07v2.15c0,.82,0,1.56-.08,2.23s-.13,1.41-.23,2.23v1.84l.15,1.85-.31,1.84.16.61L653.44,60c0,.82,0,1.56-.08,2.23s-.13,1.41-.23,2.23a6.72,6.72,0,0,0,.08.84,9.67,9.67,0,0,1,.08,1.31,13.86,13.86,0,0,1-.46,3.84l.15,1.08c-.21,1.43-.46,2.81-.77,4.14A24.35,24.35,0,0,1,651,79.55a14.59,14.59,0,0,1-10.14,4.3,8.52,8.52,0,0,1-.92-.08,9.16,9.16,0,0,0-1.08-.08,19,19,0,0,1-2.61-1.07l.46.46,3.84,3.69a30.07,30.07,0,0,1,9.07,22.12,47.29,47.29,0,0,1-3.54,17.21Q632.54,148.39,612,148.38a48.66,48.66,0,0,1-17.82-3.68,14.46,14.46,0,0,1-9.07,3.22,19.59,19.59,0,0,1-5.84-1.07l-6.91-6.92a2.32,2.32,0,0,1-.92-.3L568.16,135a6.68,6.68,0,0,1-.15-1.54v-3.69a11.42,11.42,0,0,1,.15-1.84v-3.84a8,8,0,0,1-.15-1.54v-2.46a7.24,7.24,0,0,1,.15-1.38L568,113.2v-.77a4.21,4.21,0,0,1-.16-1.08v-1.69a1.12,1.12,0,0,1,.08-.46,1.05,1.05,0,0,0,.08-.46v-.46a.32.32,0,0,1,.07-.23.32.32,0,0,0,.08-.23v-2.31l1.07-7.37q4.92-5.39,11.38-5.38a16.37,16.37,0,0,1,1.84.08,10.63,10.63,0,0,1,1.23.23H584a15,15,0,0,1,5.07,5.07l5.22,5.07a12.46,12.46,0,0,1,2.31,3.23,37.52,37.52,0,0,0,2.15,9.22,10.45,10.45,0,0,0,4.3.76,18,18,0,0,0,2.15-.15,25.72,25.72,0,0,0,2.61-.46,7.67,7.67,0,0,0,2.31-2.46,10.08,10.08,0,0,0,.77-3.53,7.09,7.09,0,0,0-.62-2.92l-10-7.38-.3-.15c-.31-.21-.72-.51-1.23-.92l-1.54-1.23-.92-.93c-.21-.2-.46-.43-.77-.69a9.6,9.6,0,0,1-.77-.69L591.67,92c-.41-.31-.85-.66-1.31-1.07s-.84-.77-1.15-1.08l-.92-.92a22.57,22.57,0,0,1-4-4.15l-3.22-4.15A31.48,31.48,0,0,1,577.69,66a42.86,42.86,0,0,1,.53-6.76A44.83,44.83,0,0,1,580,52.19V52Q587.06,33.46,607.5,28.68Zm-23.21,50.4,2.77,3.54a16,16,0,0,0,3.38,3.53l1.08,1.08a21,21,0,0,0,1.69,1.3c.51.36.92.65,1.23.85l11.67,8.45.62.62,1.84,1.69a20,20,0,0,1,2.84,2.45,24.83,24.83,0,0,1,1.93,2.31,12.68,12.68,0,0,1,.15,9.68,26.64,26.64,0,0,1-2.15,2.69,14.79,14.79,0,0,1-2.15,1.92q-19.68,4.92-23.36-19.67a7,7,0,0,0-2.77-2.92,10.59,10.59,0,0,0-10.44,3.23l-.93,6.14v1.85c-.1.82-.18,1.61-.23,2.38a4.48,4.48,0,0,0,.23,1.92l-.15,1.23.15,5.53a37.47,37.47,0,0,0,0,4.77v4.61a28.09,28.09,0,0,0,0,5.83l1.69,2.46q6.92,2.31,12.3-3.22,31.8,13.51,49.78-15.83,11.07-28.74-13.67-42.87-23.37-13.36-15.06-23.36,18-6.6,21.2,19.36A16.66,16.66,0,0,0,629.85,72a12.72,12.72,0,0,0,1.77.92A11.14,11.14,0,0,0,640.69,70a24.39,24.39,0,0,0,1-3.07,22.05,22.05,0,0,0,.53-3.08l-.15-1.53a26.14,26.14,0,0,0,.38-3,8.31,8.31,0,0,0-.23-2.54,24,24,0,0,0,.46-4.45l.31-4.61-.15-.92.31-2L643,43.44V41.28a32.23,32.23,0,0,0,.31-5.83,9.47,9.47,0,0,0-.69-1.39c-.26-.41-.54-.82-.85-1.23q-7.37-3.22-12.14,3.23a37.38,37.38,0,0,0-21.82-3.84q-18,4.31-24.43,21.05Q578.45,68.33,584.29,79.08Zm31.35-12.44q1.7,1.23,3.61,2.46t4.23,2.46a1.59,1.59,0,0,0,1.07.61,46.14,46.14,0,0,0-2.76-11.52h-.62a15.69,15.69,0,0,0-4.92.92,5,5,0,0,0-.92,2.76A12.45,12.45,0,0,0,615.64,66.64Zm2.46,3.53a5.47,5.47,0,0,0,1.07,1.08Z" transform="translate(-9 -27.61)"/><path class="cls-1" d="M663,34.52c.81-1.33,2.56-2.71,5.22-4.15h74.37c2.66,0,5.23,1.39,7.68,4.15l.16.77,7.07,7.07.61,3.69v2.76L757.16,56a4.86,4.86,0,0,0-.31,1.53v2.31a5.83,5.83,0,0,1-.15,1.38L755.16,72l-1.23,3.53a31.24,31.24,0,0,1-3.15,2.3,11.12,11.12,0,0,1-3.3,1.39,5.83,5.83,0,0,1-1.38.15h-1.39a11.31,11.31,0,0,1-4.15-.77A19,19,0,0,1,736.11,76L730,70l-1-.69a8.16,8.16,0,0,1-1-.85c-.2-.82-.38-1.64-.53-2.46s-.34-1.63-.54-2.46l-8,56.24a9.57,9.57,0,0,1,1.84,2.16l5.84,5.68a8.72,8.72,0,0,1,2.46,6.45,18.32,18.32,0,0,1-1.38,6.15,12.51,12.51,0,0,1-5.53,5.23H679a16.84,16.84,0,0,1-1.69-1.39l-5.84-5.84h-.31a14.21,14.21,0,0,1-5.07-6.6v-1.39q0-6.14,5.38-12.14a24.36,24.36,0,0,1,3.92-1.15,35.07,35.07,0,0,1,4.22-.54h.16l.15-.3V116L686,71.09c-.21.72-.42,1.59-.62,2.62a12.36,12.36,0,0,1-1.69,2.15l-2,2a18,18,0,0,1-7.22,1.7,20.52,20.52,0,0,1-4-.47c-.42-.3-.8-.61-1.16-.92s-.74-.66-1.15-1.07L663,72l-.16-.16a21.35,21.35,0,0,1-3-2.61,29.4,29.4,0,0,1-2.54-3.07l2.61-19.06a14,14,0,0,0,.54-2.38c.15-1,.33-1.92.54-2.84a2.75,2.75,0,0,1,.15-1.08,1.12,1.12,0,0,1,.08-.46.67.67,0,0,0,.08-.3,28.3,28.3,0,0,1,1.38-4.92Zm2.3,4.07a12.82,12.82,0,0,0-.46,2.08c-.21,1.33-.41,2.53-.61,3.61s-.42,2-.62,2.84L661,65.26a11.18,11.18,0,0,0,2.92,3.22,13.48,13.48,0,0,0,8.3-.77c.51-.51,1-1,1.46-1.53s.89-1,1.3-1.54q3.84-16.14,17.52-12.91L683.25,117l-.62,1.84-2.3,1.08c-1.44.1-2.72.23-3.84.38a13.83,13.83,0,0,0-3.23.85,13.05,13.05,0,0,0-3.69,9.68,8.32,8.32,0,0,0,2.77,3.84h41.18a9.46,9.46,0,0,0,3.69-3.53q4.6-11.07-9.68-11.84l-.16-1.69,9.38-65.92a17.7,17.7,0,0,1,10.91.93l1.23,1.53.46,1.38a12.38,12.38,0,0,1,.77,3.54,33.56,33.56,0,0,0,.92,7.37,9.59,9.59,0,0,0,8.14,2,7.53,7.53,0,0,0,2.38-.92,16.06,16.06,0,0,0,1.92-1.38l.93-2.62L745.94,53a12.79,12.79,0,0,0,.16-2.3,10.37,10.37,0,0,1,.15-2.15l1.08-7.84V38.83l-.47-2.92a6,6,0,0,0-4.91-2H669.11a9.73,9.73,0,0,0-3.22,2.76C665.68,37.29,665.48,37.93,665.27,38.59Zm53.63,81.52.31.31A.28.28,0,0,0,718.9,120.11Z" transform="translate(-9 -27.61)"/><path class="cls-1" d="M752.24,63.26q2.16-30.12,33.35-33.81h37.64a3.47,3.47,0,0,0,.62.92c.2.42.3.57.3.47l.16-.16a1.35,1.35,0,0,1,.77.39c.3.25,1.17,1.1,2.61,2.53a.92.92,0,0,0,.08.46,1.14,1.14,0,0,1,.07.46l7.07,6.92a20.83,20.83,0,0,1,.62,5.07q0,9.52-9.53,11.83.76,2.61,1.92,6.68t2.53,9.92l11.68-23.67-.77-.92q-5.07-2.46-5.07-8.91a20.8,20.8,0,0,1,2.15-8.3,24.44,24.44,0,0,1,5.69-3.69h30.58a14.65,14.65,0,0,1,5.84,5.84L885,39.75c.51.51,1,1,1.46,1.61a15,15,0,0,1,1.31,1.92l-1.38,10q-4.15,5.22-9.38,5.38l-.15.15-35.65,69.3-.46,1.38a1.93,1.93,0,0,0-.46.77l-5.23,9.84L834,142.85l-2.61,2.77a34.35,34.35,0,0,1-8,1.07h-3.08a2.19,2.19,0,0,0-.46-.38,2.19,2.19,0,0,1-.46-.38l-6.45-6.46h-.46c-2.87-2.46-4.41-4.91-4.61-7.37L789.12,66.64a43.55,43.55,0,0,1-.85,4.3,16.82,16.82,0,0,1-1.76,4.3q-7.38,8.3-13.83,8.3a9.75,9.75,0,0,1-7.38-3.07l-5.53-5.38q-4.46-2.76-7.37-10.45Zm24,2.61q4.15-8,1.08-14.75,5.69-2.61,10.45-1.69l.92,2,22.74,80.21a6,6,0,0,0,2.31,4.3,25.07,25.07,0,0,0,8.14-.62l1.84-2,.93-2.31,4.91-9.37a2.41,2.41,0,0,1,.39-.92,3.69,3.69,0,0,1,.38-.46l.46-1.23,36-69.92,1.69-1.23a9.31,9.31,0,0,0,7.37-3.69l1.08-8A8.54,8.54,0,0,0,873.79,33h-29a15.74,15.74,0,0,0-3.38,2.15q-5.07,12,6.3,13.37L826.31,91.22q-.63-.91-5.84-20.74-2.46-10.14-4-15.6a53.16,53.16,0,0,0-2.15-6.68q12.6-1.23,10-13.06a12.64,12.64,0,0,0-1.54-1.31q-.76-.54-1.23-.84H785.89q-28.27,3.38-30.11,30.42Q762.53,80.93,776.21,65.87Z" transform="translate(-9 -27.61)"/><path class="cls-1" d="M930.79,28.07c1.85-.2,3.43-.33,4.77-.38s2.56-.08,3.68-.08q22.74,0,33.81,14.75l4.15,4.15Q988.72,58,990.57,82.46q-3.08,52.56-49.79,65.16h-14a37.52,37.52,0,0,1-24.13-10.91l-4-3.84a47.34,47.34,0,0,1-8.07-8.23,51.09,51.09,0,0,1-6.38-11.14A64.42,64.42,0,0,1,881.31,94q0-15.52,7.23-33V60.8Q902.52,34.52,930.79,28.07Zm-43.18,84.51q10,22.44,31.81,24.28h13.52q44.1-12,46.87-62.08Q976.27,27,932,31.45q-27.35,6.15-40.26,30.89Q880.39,89.39,887.61,112.58Zm39.49,7.69q-21-3.08-16.44-35.5,4.15-32.88,26.28-36.72,21.81,3.84,16.29,36.11Q949.54,116.73,927.1,120.27Zm22.59-36.88a59.16,59.16,0,0,0,.85-6.07c.15-1.9.23-3.61.23-5.15A25.67,25.67,0,0,0,948.16,60a16,16,0,0,0-1.69-.54c-.62-.15-1.29-.33-2-.54q-19.37,3.69-23.05,34c-.31,2-.51,3.79-.62,5.54s-.15,3.33-.15,4.76a34.24,34.24,0,0,0,1.84,12.14,23,23,0,0,0,4.46,1.38q19.21-3.23,22.74-32.88Z" transform="translate(-9 -27.61)"/></svg>