<?xml version="1.0" encoding="utf-8"?>
<!-- Generator: Adobe Illustrator 22.0.0, SVG Export Plug-In . SVG Version: 6.00 Build 0)  -->
<svg version="1.1" xmlns="http://www.w3.org/2000/svg" xmlns:xlink="http://www.w3.org/1999/xlink" x="0px" y="0px"
	 viewBox="0 0 368.4 368.4" style="enable-background:new 0 0 368.4 368.4;" xml:space="preserve">
<style type="text/css">
	.st0{fill:#FFFFFF;}
</style>
<g id="Layer_2">
	<polygon class="st0" points="95,52.7 51,75.3 32.3,106.7 11.7,160.7 11.7,209.3 25,270 45.7,296.7 91.7,318 137,322 171.7,318.7 
		195.7,309.2 201,270 211,256 217.7,238 224.3,206.7 238.3,187.3 245,150.7 343,147.3 358.3,119.3 355,96 333.7,83.3 227,77.3 
		178.3,76.7 170.3,59.3 147,49.3 	"/>
</g>
<g id="Capa_1">
	<g>
		<path d="M136.6,59.3c3,0,6,0,9,0.1c15.7,0.4,25,14,25,25h-28.8c-3.6,0-4,2.5-4,3.3s0.4,3.2,4,3.2c3.5,0,182.1,0,182.1,0
			c13.5,0,24.5,11,24.5,24.5c0,12.4-9.4,24.2-21.2,24.2c0,0-0.2,0-0.7,0c-8.4,0-90.3-0.1-111.3-0.1c0,0-0.1,0-0.1,0h-4.6
			c-2.2,0-4,1.8-4,4s1.8,4,4,4h1.2c13.3,0.2,24.1,11.1,24.1,24.5c0,13.5-11,24.5-24.5,24.5l-17.7,0c-2.2,0-3.9,1.8-3.9,3.9
			c0,2.2,1.8,3.9,3.9,3.9l1,0c12.3,0,20.9,12,20.9,24.3c0,13.5-11,24.4-24.5,24.4l-17.9,0c-2.1,0-3.8,1.7-3.8,3.8
			c0,2.1,1.7,3.8,3.8,3.8l1.4,0c11.2,0,19.8,12.1,19.8,24c0,13.5-11,24.5-24.5,24.5l-45,0.1C83,309.2,20,292.9,20,192.8
			C20,79,75,59.3,136.6,59.3 M136.6,39.3c-26.6,0-65.4,3-94.7,29.2C13.7,93.6,0,134.3,0,192.8c0,50.7,14.9,88.2,44.3,111.4
			c20.7,16.3,48.5,25,80.5,25l45-0.1c24.5,0,44.4-20,44.4-44.5c0-5.6-1.1-11.2-3.1-16.5c14.4-7.4,24.3-22.3,24.3-39.6
			c0-6.2-1.2-12-3.3-17.3c14-7.5,23.6-22.3,23.6-39.2c0-4.3-0.6-8.4-1.7-12.4c5,0,10.2,0,15.3,0c26.4,0,52.6,0,57.2,0
			c0.2,0,0.5,0,0.7,0v0c22.3,0,41.2-20.3,41.2-44.2c0-24.5-20-44.5-44.5-44.5H188.4c-5.5-16.4-20.6-30.8-42.2-31.4
			C142.9,39.3,139.7,39.3,136.6,39.3L136.6,39.3z"/>
	</g>
</g>
</svg>
