<?xml version="1.0" encoding="utf-8"?>
<!-- Generator: Adobe Illustrator 22.0.0, SVG Export Plug-In . SVG Version: 6.00 Build 0)  -->
<svg version="1.1" xmlns="http://www.w3.org/2000/svg" xmlns:xlink="http://www.w3.org/1999/xlink" x="0px" y="0px"
	 viewBox="0 0 100 100" style="enable-background:new 0 0 100 100;" xml:space="preserve">
<style type="text/css">
	.st0{display:none;}
	.st1{display:inline;}
	.st2{fill:#27FB6B;}
	.st3{fill:#494949;}
</style>
<g id="Layer_1" class="st0">
	<g class="st1">
		<path class="st2" d="M51.6,55.9c0.6-1.3,1-2.3,1.4-3.2c3.6-8.9,7.1-17.8,10.6-26.7c0.6-1.4,1.3-2,2.9-2c5.3,0.1,10.6,0,16.7,0
			c-1.1,1.3-1.6,2.2-2.4,2.8c-3.4,2.4-4.3,5.6-4.2,9.7c0.3,9.1,0.3,18.2,0,27.2c-0.1,4,0.7,7.1,4,9.5c0.8,0.5,1.3,1.4,2.4,2.6
			c-9.1,0-17.6,0-26.6,0c0.8-1,1.2-1.9,2-2.4c3.5-2.4,4.4-5.7,4.2-9.9c-0.3-7.2-0.1-14.5-0.1-21.7c0-0.6,0-1.2,0-1.9
			c-0.1,0-0.3-0.1-0.4-0.1c-2.2,5.5-4.3,10.9-6.5,16.4c-2.4,6-4.7,11.9-7.1,17.9c-0.3,0.7-1,1.3-1.6,2c-0.7-0.6-1.6-1.1-1.9-1.9
			C40,63.1,34.9,52.1,29.9,41c-0.2-0.4-0.4-0.8-1.1-1.1c0,5,0.4,10.1-0.1,15.1c-0.8,7.2,1,13.2,6.5,18.1c0.7,0.6,1.1,1.5,1.9,2.7
			c-7,0-13.4,0-20.3,0c0.7-1.1,1.1-2.1,1.8-2.7c5.4-4.7,7-10.6,6.4-17.6c-0.5-6.4,0-12.8-0.2-19.2c0-1.6-0.8-3.3-1.7-4.7
			c-1.6-2.4-3.6-4.5-5.8-7.1c1.4-0.2,2-0.3,2.6-0.3c5,0,10,0.1,15,0c1.6,0,2.3,0.5,3,1.9c4.1,9.1,8.2,18.2,12.4,27.3
			C50.6,54,51,54.8,51.6,55.9z"/>
	</g>
</g>
<g id="Layer_2">
	<g>
		<path id="Goodreads" class="st3" d="M49.9,60.6c5.7,0,9.7-2.9,12.1-8.5h0.1v8.6c0,0.6,0,1.6-0.1,3c-0.2,1.4-0.6,2.9-1.4,4.5
			c-0.7,1.5-1.9,2.8-3.6,3.9c-1.6,1.2-3.9,1.8-6.9,1.8c-2.8,0-5.2-0.7-7.2-2.2c-2-1.4-3.2-3.8-3.5-7H37c0.3,4.2,1.6,7.2,4,9
			c2.4,1.7,5.4,2.6,9.1,2.6c3.6,0,6.4-0.7,8.4-2c2-1.3,3.4-2.9,4.3-4.9c0.9-1.9,1.4-3.8,1.6-5.6c0.1-1.8,0.2-3,0.2-3.8V24.5h-2.5
			v7.8H62c-1-2.9-2.5-5-4.8-6.5c-2.2-1.4-4.7-2.2-7.4-2.2c-4.7,0.1-8.3,1.9-10.7,5.4c-2.5,3.5-3.8,7.8-3.8,13
			c0,5.3,1.2,9.7,3.6,13.1C41.4,58.8,45,60.6,49.9,60.6z M40.9,31.1c2-3.2,4.9-4.9,9-5c4.1,0.1,7.2,1.7,9.2,4.8c2,3.1,3,6.8,3,11.2
			c0,4.4-1,8.1-3,11.1c-2,3.3-5.1,4.9-9.2,5c-3.9-0.1-6.9-1.7-8.9-4.8c-2.1-3.1-3.1-6.8-3.1-11.3C37.8,38,38.8,34.3,40.9,31.1z"/>
	</g>
</g>
<g id="Layer_3" class="st0">
	<g class="st1">
		<path id="LinkedIn__x28_alt_x29_" class="st2" d="M71.4,24.9H28.6c-2.1,0-3.7,1.6-3.7,3.6v43.1c0,2,1.7,3.6,3.7,3.6h42.8
			c2.1,0,3.7-1.6,3.7-3.6V28.5C75.1,26.5,73.5,24.9,71.4,24.9z M40.1,66.9h-7.6V44.2h7.6V66.9z M36.3,41.1L36.3,41.1
			c-2.6,0-4.2-1.7-4.2-3.9c0-2.2,1.7-3.9,4.3-3.9c2.6,0,4.2,1.7,4.2,3.9C40.6,39.4,39,41.1,36.3,41.1z M67.5,66.9h-7.6V54.8
			c0-3.1-1.1-5.1-3.8-5.1c-2.1,0-3.3,1.4-3.9,2.8c-0.2,0.5-0.3,1.2-0.3,1.8v12.7h-7.6c0,0,0.1-20.6,0-22.7h7.6v3.2
			c1-1.5,2.8-3.8,6.8-3.8c5,0,8.7,3.2,8.7,10.2V66.9L67.5,66.9z M51.8,47.5C51.9,47.5,51.9,47.5,51.8,47.5L51.8,47.5L51.8,47.5z"/>
	</g>
</g>
</svg>
