<?xml version="1.0" encoding="utf-8"?>
<!-- Generator: Adobe Illustrator 22.0.0, SVG Export Plug-In . SVG Version: 6.00 Build 0)  -->
<svg version="1.1" xmlns="http://www.w3.org/2000/svg" xmlns:xlink="http://www.w3.org/1999/xlink" x="0px" y="0px"
	 viewBox="0 0 512 512" style="enable-background:new 0 0 512 512;" xml:space="preserve">
<style type="text/css">
	.st0{fill:#FFFFFF;}
</style>
<g id="Layer_3">
	<circle cx="256" cy="256" r="256"/>
</g>
<g id="Layer_4">
	<g>
		<path id="Goodreads" class="st0" d="M255.3,310.6c29.2-0.2,50-14.9,62.4-43.9h0.6V311c0,3.3-0.2,8.4-0.6,15.4
			c-0.9,7.2-3.2,14.9-7,23.2c-3.8,7.8-10,14.4-18.5,19.9c-8.4,6-20.1,9.1-35.2,9.3c-14.5,0-26.8-3.8-36.8-11.3
			c-10.3-7.4-16.3-19.5-18-36.2h-12.8c1.3,21.7,8.2,37.2,20.8,46.4c12.2,8.9,27.7,13.3,46.5,13.3c18.5,0,33-3.5,43.4-10.4
			c10.3-6.7,17.6-15.1,22.1-25c4.5-10,7.1-19.5,8-28.5c0.7-9,1-15.5,1-19.4V125.3h-12.8v40.2h-0.6c-4.9-14.7-13-25.9-24.4-33.4
			c-11.5-7.4-24.1-11.1-38-11.1c-24.1,0.5-42.4,9.8-55,28c-12.9,18-19.3,40.3-19.3,66.7c0,27.2,6.1,49.6,18.3,67.4
			C211.6,301.2,230.3,310.4,255.3,310.6z M209.1,158.8c10-16.5,25.4-25,46.2-25.6c21.3,0.6,37,8.9,47.3,24.9
			c10.3,16,15.4,35.2,15.4,57.6c0,22.4-5.1,41.5-15.4,57.2c-10.3,16.7-26,25.2-47.3,25.6c-20.1-0.4-35.4-8.7-45.8-24.9
			c-10.6-15.7-15.9-35-15.9-57.9C193.6,194.2,198.8,175.2,209.1,158.8z"/>
	</g>
</g>
</svg>
