<?xml version="1.0" encoding="utf-8"?>
<!-- Generator: Adobe Illustrator 22.0.0, SVG Export Plug-In . SVG Version: 6.00 Build 0)  -->
<svg version="1.1" id="Layer_1" xmlns="http://www.w3.org/2000/svg" xmlns:xlink="http://www.w3.org/1999/xlink" x="0px" y="0px"
	 viewBox="0 0 50 50" style="enable-background:new 0 0 50 50;" xml:space="preserve">
<style type="text/css">
	.st0{fill:#FFFFFF;}
</style>
<polygon class="st0" points="6.8,12.6 6.8,38.1 42.5,38.1 42.5,12.1 "/>
<path d="M40.6,9.4H9.4c-2.7,0-4.9,2.1-4.9,4.7v21.8c0,2.6,2.2,4.7,4.9,4.7h31.2c2.7,0,4.9-2.1,4.9-4.7V14.1
	C45.5,11.5,43.3,9.4,40.6,9.4z M40.6,36.4H9.4c-0.4,0-0.7-0.3-0.7-0.5V17l14.1,11.9c0.3,0.2,0.7,0.4,1,0.4l2.4,0
	c0.4,0,0.7-0.1,1-0.4L41.4,17v18.9C41.4,36.2,41,36.4,40.6,36.4z M25,25.2L11.3,13.6h27.5L25,25.2z"/>
</svg>
