<?xml version="1.0" encoding="utf-8"?>
<!-- Generator: Adobe Illustrator 22.0.0, SVG Export Plug-In . SVG Version: 6.00 Build 0)  -->
<svg version="1.1" xmlns="http://www.w3.org/2000/svg" xmlns:xlink="http://www.w3.org/1999/xlink" x="0px" y="0px"
	 viewBox="0 0 512 512" style="enable-background:new 0 0 512 512;" xml:space="preserve">
<style type="text/css">
	.st0{fill:#F68848;}
	.st1{fill:#FFFFFF;}
</style>
<g id="Layer_3">
	<circle class="st0" cx="256" cy="256" r="256"/>
</g>
<g id="Layer_4">
	<g>
		<path class="st1" d="M428.8,163.4h-19.1c-5,0-18,5.4-18,10v166.8c0,4.6,13,8.4,18,8.4h19.1v37H305.4v-37h24.7V175.8h-4.3
			l-59.4,209.8h-46l-58.7-209.8h-4.4v172.8h24.7v37H83.2v-37h13.7c5.4,0,11-3.8,11-8.4V173.4c0-4.6-5.6-10-11-10H83.2v-37h128
			l41.8,148.1h1.1l42.2-148.1h132.5V163.4z"/>
	</g>
</g>
</svg>
