<?xml version="1.0" encoding="utf-8"?>
<!-- Generator: Adobe Illustrator 22.0.0, SVG Export Plug-In . SVG Version: 6.00 Build 0)  -->
<svg version="1.1" id="Layer_1" xmlns="http://www.w3.org/2000/svg" xmlns:xlink="http://www.w3.org/1999/xlink" x="0px" y="0px"
	 viewBox="0 0 512 512" style="enable-background:new 0 0 512 512;" xml:space="preserve">
<style type="text/css">
	.st0{fill:#F68848;}
</style>
<g>
	<path class="st0" d="M267.5,183.7c-42,1.8-94.2,4.1-157.9,35.7c-7.5,3.7-14.4,8.1-20.6,13c-6.2-26.5-16.5-81.8-8.7-133.3
		c3.8-25.3-0.6-48.4-12.8-66.6C57.5,17.5,43.7,8.3,34.2,4.8C26.6,2,18.2,3,11.5,7.5l-0.4,0.3C4.1,12.4-0.1,20.2,0,28.6
		c0.1,8.6,4.4,16.5,11.7,21.2c16.2,10.5,22.4,28.9,18.4,54.6c-9.3,59.4-1.8,109.6,6.2,141.3c5.3,21.1,11.4,36.9,15.5,46.1
		c-9.3,36.2-5.4,81.9,11.7,136.2c13.4,42.8,30.1,74.5,30.8,75.9c1.5,2.8,4.4,4.5,7.5,4.5H137c4.3,0,7.9-3.2,8.4-7.5l14.3-122.8
		c0,0,58.5-9.5,78.2-10.4c20-0.9,30.3,16.7,32,41.3c3,42.6,0,90.3-0.1,90.7c-0.2,2.3,0.7,4.6,2.3,6.4c1.6,1.7,3.9,2.7,6.2,2.7h47.1
		c3.6,0,6.8-2.2,8-5.6c0.6-1.5,47.4-131.1,84.8-236.9c10.4-4.9,20.8-11.7,30.2-20.7c19.8-19.1,31.7-45.2,35-76.1
		c7.7-2.3,14.5-6.8,19.7-13.1c6.7-8.3,9.8-18.7,8.7-29.3c-1.1-10.6-6.3-20.1-14.6-26.8c-8.2-6.7-18.5-9.7-29-8.7
		c-4.5-7.3-9.9-13.9-16.2-19.9c-20-19.2-47.6-29.7-77.6-29.7c-30,0-57.6,10.5-77.6,29.7c-6.3,6-11.7,12.7-16.2,19.9
		c-10.5-1-20.8,2-29,8.7c-8.3,6.7-13.5,16.2-14.6,26.8s2,21,8.7,29.3c5.1,6.3,11.9,10.9,19.6,13.1
		C265.9,174.3,266.6,179.1,267.5,183.7L267.5,183.7z M259,145.5c-3.8-4.8-5.6-10.7-5-16.8c0.6-6.1,3.6-11.6,8.4-15.4
		c2.9-2.3,6.2-3.9,9.7-4.6c-4.9,12.7-7.5,26.7-7.6,41.7C262.5,149.1,260.6,147.5,259,145.5z M97.7,276.6
		c-2.3,26.2-13.5,50.2-33.4,71.4c-1.4-20.5-0.1-40.6,5.7-58.7c5.3-16.5,14.1-30.1,26.3-40.8C97.6,254.8,98.8,264.7,97.7,276.6z
		 M19.7,37.5c-3.1-2-4.9-5.3-5-9c0-3.5,1.7-6.6,4.6-8.6l0.4-0.3c2.8-1.8,6.3-2.2,9.4-1.1c7.4,2.7,18.1,10,26.3,22.2
		C65.7,56.2,69.2,75.1,65.9,97c-9.2,60.6,4.9,124.2,10.9,147c-7.1,7.8-12.9,16.7-17.5,26.6c-11.1-31.1-26.1-90.5-14.6-163.9
		C50.8,66.9,34.5,47.1,19.7,37.5z M129.4,491.5h-4.3l-3.7-76.1c-0.5-14.7,4.7-23.7,20.5-30.9C141.9,384.5,129.4,491.5,129.4,491.5z
		 M271.9,200.5c17.4,50.6,64,75.8,97.4,76.4c7.6,0.1,19.2-1,28.3-3.3c-32,90.4-69.1,193.3-78.1,218.1h-4.8l23.8-121.6
		c0.9-4.6-2.1-9.1-6.7-10c-4.6-0.9-9.1,2.1-10,6.7l-24.5,124.9h-10.1c0.8-16.1,1.9-51.1-0.4-84c-2.3-32.7-20.5-56.2-47.4-57
		c-18.9-0.6-56.6,6.1-75,9.9c-31.4,6.5-61.3,17.3-60,55.4l3.6,75.4h-1.2c-7.8-15.9-33.2-71-40.8-127.4c0.1,0-0.1,0,0,0
		c30.7-30.8,43-58.3,46.4-86.9c2.2-18.5-1.6-32.6-3.1-38.1c2.5-1.5,5.1-3,7.8-4.3C177.6,204.6,229.7,202.4,271.9,200.5L271.9,200.5z
		 M281.5,151.7C281.5,151.6,281.5,151.7,281.5,151.7c2.9-54.6,38.2-92.9,92.9-92.9c54.7,0,94.8,43.9,92.9,98.6
		c-1,29.3-12.6,58.5-30.7,75.9c-21.4,20.6-48.5,27.8-66.7,26.7C335.1,257.8,281.5,227.6,281.5,151.7L281.5,151.7z M489.9,145.5
		c-1.6,2-3.5,3.6-5.6,4.9c-0.1-15-2.7-29-7.6-41.8c9.5,2,17.1,9.9,18.2,20C495.5,134.8,493.8,140.8,489.9,145.5L489.9,145.5z"/>
	<path class="st0" d="M456.2,131.8c0-24.5-21.3-44.4-47.6-44.4c-13,0-25.3,5-34.2,13.5c-8.9-8.5-21.2-13.5-34.2-13.5
		c-26.2,0-47.6,19.9-47.6,44.4c0,14.1,7.1,27.1,18.7,35.3c-5.4,7-8.2,14.9-8.2,23c0,27.4,31.3,48.9,71.3,48.9s71.3-21.5,71.3-48.9
		c0-8.1-2.9-16-8.2-23C449.1,158.8,456.2,145.9,456.2,131.8L456.2,131.8z M420.5,157c-2.8,1.1-4.9,3.6-5.4,6.6c-0.5,3,0.7,6,3.1,7.9
		c4.8,3.9,10.5,10.2,10.5,18.6c0,17.3-24.9,31.9-54.3,31.9c-29.4,0-54.3-14.6-54.3-31.9c0-8.3,5.7-14.7,10.5-18.6
		c2.4-1.9,3.5-4.9,3.1-7.9c-0.5-3-2.5-5.5-5.4-6.6c-11.3-4.3-18.7-14.2-18.7-25.3c0-15.1,13.7-27.4,30.6-27.4
		c11.2,0,21.5,5.5,26.9,14.4c1.5,2.5,4.3,4.1,7.3,4.1c3,0,5.7-1.6,7.3-4.1c5.4-8.9,15.7-14.4,26.9-14.4c16.9,0,30.6,12.3,30.6,27.4
		C439.2,142.8,431.8,152.7,420.5,157L420.5,157z"/>
	<path class="st0" d="M408.2,123.5c-1.5,0-3,0.6-4,1.7c-1.1,1.1-1.7,2.5-1.7,4c0,1.5,0.6,2.9,1.7,4c1.1,1.1,2.5,1.7,4,1.7
		c1.5,0,2.9-0.6,4-1.7c1.1-1.1,1.7-2.5,1.7-4c0-1.5-0.6-3-1.7-4C411.2,124.1,409.7,123.5,408.2,123.5z"/>
	<path class="st0" d="M340.6,123.5c-1.5,0-3,0.6-4,1.7c-1.1,1.1-1.7,2.5-1.7,4c0,1.5,0.6,2.9,1.7,4c1.1,1.1,2.5,1.7,4,1.7
		c1.5,0,3-0.6,4-1.7c1.1-1.1,1.7-2.5,1.7-4c0-1.5-0.6-3-1.7-4C343.6,124.1,342.1,123.5,340.6,123.5z"/>
	<path class="st0" d="M384.1,155.3c-1.2,0-2.4,0.5-3.2,1.3c-0.8,0.8-1.3,2-1.3,3.2c0,1.2,0.5,2.4,1.3,3.2c0.8,0.8,2,1.3,3.2,1.3
		c1.2,0,2.4-0.5,3.2-1.3c0.8-0.8,1.3-2,1.3-3.2c0-1.2-0.5-2.4-1.3-3.2C386.4,155.7,385.3,155.3,384.1,155.3z"/>
	<path class="st0" d="M368,163c0.8-0.8,1.3-2,1.3-3.2s-0.5-2.4-1.3-3.2c-0.8-0.8-2-1.3-3.2-1.3c-1.2,0-2.4,0.5-3.2,1.3
		c-0.8,0.8-1.3,2-1.3,3.2c0,1.2,0.5,2.4,1.3,3.2c0.8,0.8,2,1.3,3.2,1.3C366,164.3,367.1,163.8,368,163z"/>
	<path class="st0" d="M380.1,202.4v-22.5c0-3.1-2.5-5.7-5.7-5.7c-3.1,0-5.7,2.5-5.7,5.7v22.5c-3.1,0-5.6,2.5-5.6,5.7
		c0,3.1,2.5,5.7,5.7,5.7h11.3c3.1,0,5.7-2.5,5.7-5.7C385.7,205,383.2,202.4,380.1,202.4z"/>
</g>
</svg>
