<svg id="BACKGROUND" xmlns="http://www.w3.org/2000/svg" xmlns:xlink="http://www.w3.org/1999/xlink" viewBox="0 0 1575.85 1169.35"><defs><style>.cls-1,.cls-10,.cls-11,.cls-12,.cls-13,.cls-14,.cls-15,.cls-16,.cls-17,.cls-18,.cls-19,.cls-20,.cls-21,.cls-22,.cls-23,.cls-24,.cls-25,.cls-26,.cls-27,.cls-28,.cls-29,.cls-30,.cls-31,.cls-32,.cls-33,.cls-34,.cls-35,.cls-36,.cls-5,.cls-6,.cls-7,.cls-8,.cls-9{fill:none;}.cls-2{clip-path:url(#clip-path);}.cls-3{fill:#363d4f;}.cls-4{fill:#efe1d7;}.cls-5{stroke:#dacfc8;stroke-width:3.67px;}.cls-10,.cls-11,.cls-12,.cls-13,.cls-14,.cls-15,.cls-16,.cls-17,.cls-18,.cls-19,.cls-20,.cls-21,.cls-22,.cls-23,.cls-24,.cls-25,.cls-26,.cls-27,.cls-28,.cls-29,.cls-30,.cls-31,.cls-32,.cls-33,.cls-34,.cls-35,.cls-36,.cls-5,.cls-6,.cls-7,.cls-8,.cls-9{stroke-miterlimit:10;}.cls-6{stroke:#c6bdb9;stroke-width:3.33px;}.cls-29,.cls-7{stroke:#b1aaaa;}.cls-7{stroke-width:3px;}.cls-8{stroke:#9d989b;stroke-width:2.67px;}.cls-9{stroke:#88868b;stroke-width:2.33px;}.cls-10,.cls-33{stroke:#73747c;}.cls-10{stroke-width:2px;}.cls-11{stroke:#5f626d;stroke-width:1.67px;}.cls-12{stroke:#4a505e;stroke-width:1.33px;}.cls-13,.cls-28{stroke:#c1b8b5;}.cls-13{stroke-width:3.25px;}.cls-14,.cls-31{stroke:#928f93;}.cls-14{stroke-width:2.5px;}.cls-15,.cls-34{stroke:#646671;}.cls-15{stroke-width:1.75px;}.cls-16{stroke:#ded2cb;stroke-width:3.73px;}.cls-17{stroke:#cdc3be;stroke-width:3.45px;}.cls-18{stroke:#bcb4b2;stroke-width:3.18px;}.cls-19{stroke:#aca6a6;stroke-width:2.91px;}.cls-20{stroke:#9b9799;stroke-width:2.64px;}.cls-21{stroke:#8a888d;stroke-width:2.36px;}.cls-22{stroke:#797980;stroke-width:2.09px;}.cls-23{stroke:#686a74;stroke-width:1.82px;}.cls-24{stroke:#575b68;stroke-width:1.55px;}.cls-25{stroke:#464c5b;stroke-width:1.27px;}.cls-26{stroke:#e0d3cc;stroke-width:3.75px;}.cls-27{stroke:#d0c6c0;stroke-width:3.5px;}.cls-28{stroke-width:3.25px;}.cls-29{stroke-width:3px;}.cls-30{stroke:#a29d9e;stroke-width:2.75px;}.cls-31{stroke-width:2.5px;}.cls-32{stroke:#838288;stroke-width:2.25px;}.cls-33{stroke-width:2px;}.cls-34{stroke-width:1.75px;}.cls-35{stroke:#555966;stroke-width:1.5px;}.cls-36{stroke:#454b5a;stroke-width:1.25px;}</style><clipPath id="clip-path" transform="translate(-794.36 121.51)"><rect class="cls-1" x="981.36" width="1200" height="800"/></clipPath></defs><title>wave</title><g class="cls-2"><rect class="cls-3" x="187" y="121.51" width="1200" height="800"/><path class="cls-3" d="M1383.81-12.94C1860.74,185.69,1907-91.21,2223.23,41.47V16.24c-390.33-284.86-657.56,58.93-839.42-43.65Z" transform="translate(-794.36 121.51)"/><path class="cls-4" d="M2223.11,16.4l-11.37-7.73C2208,6.08,2204.2,3.46,2200.32,1l-11.56-7.44c-1.91-1.26-3.88-2.43-5.83-3.62l-5.87-3.58-5.86-3.58L2168.27-19l-3-1.7-11.93-6.79c-2-1.15-4-2.22-6-3.28l-6.07-3.21c-4.05-2.11-8-4.35-12.17-6.32l-12.3-6.09c-4.13-1.94-8.31-3.8-12.47-5.71-2.08-.93-4.15-1.92-6.25-2.81l-6.33-2.64-6.33-2.63-3.17-1.32c-1.06-.42-2.13-.81-3.2-1.22-17-6.7-34.38-12.44-51.94-17.49-4.42-1.17-8.78-2.53-13.22-3.62L2000.54-87l-13.42-2.83c-1.12-.23-2.24-.48-3.36-.69l-3.38-.59-6.76-1.19c-2.25-.37-4.5-.84-6.76-1.13l-6.8-1-6.8-1-6.82-.75c-4.55-.48-9.1-1-13.67-1.28l-6.85-.5-3.43-.25-3.43-.14c-36.6-1.8-73.35,1-109.45,7.11S1738-76,1702.86-65.62,1633.07-43.26,1598-32.35q-13.15,4.08-26.4,7.88c-4.42,1.26-8.86,2.47-13.29,3.69L1551.65-19c-2.23.58-4.46,1.14-6.7,1.66-17.88,4.31-36,8-54.34,9.77-4.57.54-9.18.8-13.79,1.06-2.3.15-4.61.12-6.91.19s-4.61.11-6.92,0l-6.92-.17-6.9-.51c-2.3-.12-4.59-.44-6.88-.73l-3.43-.43-1.72-.22-1.7-.31L1428.63-10c-2.26-.45-4.48-1.08-6.72-1.61l-3.35-.84-3.3-1-3.3-1c-1.1-.35-2.21-.65-3.27-1.1a157.55,157.55,0,0,1-25-11.64l.2-.35,6.15,3.07c1,.5,2,1.06,3.08,1.5l3.16,1.33,3.15,1.35c1,.45,2.1.9,3.19,1.25l6.46,2.27c1.07.41,2.18.68,3.28,1l3.29.93,3.3.92,3.34.74c2.23.46,4.44,1,6.69,1.42l6.75,1.08c18.06,2.54,36.43,2.15,54.53,0s36-5.9,53.74-10.41,35.25-9.79,52.72-15.3,34.91-11.18,52.4-16.72,35-11,52.66-16.08c35.27-10.21,71.11-18.8,107.47-24.14a579.45,579.45,0,0,1,109.85-6.23C1955.79-98,1992.45-93,2028-83.38c2.21.61,4.46,1.13,6.65,1.81l6.61,2c4.41,1.32,8.83,2.61,13.16,4.16s8.72,3,13,4.51l12.88,5c1.07.42,2.15.81,3.21,1.25l3.18,1.35,6.35,2.7,6.34,2.7c2.11.92,4.18,1.93,6.27,2.89,4.16,1.95,8.35,3.85,12.49,5.84L2130.47-43c4.13,2,8.14,4.26,12.16,6.49l6,3.34c2,1.1,4,2.22,6,3.42l11.84,7,3,1.76,2.91,1.85,5.81,3.7,5.81,3.7c1.94,1.23,3.88,2.46,5.75,3.79l11.35,7.8c3.81,2.56,7.49,5.3,11.19,8l11.08,8.17Z" transform="translate(-794.36 121.51)"/><path class="cls-5" d="M2223.23,19.05c-382.1-267.95-624.77,68.4-839.42-44.86" transform="translate(-794.36 121.51)"/><path class="cls-6" d="M2223.23,21.85c-373.87-251-592,77.88-839.42-46" transform="translate(-794.36 121.51)"/><path class="cls-7" d="M2223.23,24.65C1857.59-209.48,1664,112,1383.81-22.59" transform="translate(-794.36 121.51)"/><path class="cls-8" d="M2223.23,27.46c-357.4-217.23-526.42,96.83-839.42-48.44" transform="translate(-794.36 121.51)"/><path class="cls-9" d="M2223.23,30.26c-349.17-200.32-493.63,106.31-839.42-49.63" transform="translate(-794.36 121.51)"/><path class="cls-10" d="M2223.23,33.06c-340.94-183.4-460.85,115.79-839.42-50.83" transform="translate(-794.36 121.51)"/><path class="cls-11" d="M2223.23,35.87c-332.71-166.5-428.06,125.26-839.42-52" transform="translate(-794.36 121.51)"/><path class="cls-12" d="M2223.23,38.67C1898.75-110.92,1828,173.41,1383.81-14.55" transform="translate(-794.36 121.51)"/><path class="cls-3" d="M2223.21,41.52c-33.17-13.63-67.47-24.78-102.78-31.15A367,367,0,0,0,2067,4.58a388.18,388.18,0,0,0-53.69,1.87c-35.7,3.69-70.69,12.19-105.38,21.25-17.37,4.49-34.7,9.17-52.12,13.46s-35,8.18-52.62,11.37a561.23,561.23,0,0,1-107.15,9.37c-18-.18-35.9-1.22-53.77-3s-35.64-4.47-53.3-7.7l-6.61-1.24c-2.21-.41-4.42-.82-6.61-1.3l-13.18-2.78c-4.38-1-8.74-2-13.11-3-2.19-.52-4.38-1-6.55-1.56l-6.52-1.7c-17.4-4.4-34.61-9.55-51.72-14.94-34.19-11-67.82-23.59-100.9-37.52l0-.09C1417,.62,1450.7,13.1,1484.9,23.93c17.13,5.32,34.34,10.39,51.75,14.71l6.52,1.66c2.17.54,4.36,1,6.54,1.55,4.37,1,8.72,2.08,13.1,3L1576,47.68c2.18.48,4.39.89,6.59,1.3l6.61,1.24c17.63,3.24,35.38,5.87,53.22,7.72s35.75,2.86,53.68,3.05,35.86-.46,53.73-2,35.65-3.92,53.31-7c35.35-6.22,70.07-15.44,104.74-24.66s69.64-17.82,105.4-21.64c2.23-.28,4.47-.43,6.7-.65s4.47-.42,6.71-.57c4.49-.25,9-.64,13.45-.73l6.73-.23,6.74,0c4.49-.09,9,.13,13.47.24a368.2,368.2,0,0,1,53.5,6,444.28,444.28,0,0,1,52.22,13c17.14,5.36,33.94,11.72,50.48,18.69Z" transform="translate(-794.36 121.51)"/><path class="cls-3" d="M1042-6.6c240.68-103.29,486.72,158.87,630.91,10.87l-.69-29C1458.63,16.35,1231.48-233.52,1042-53.26Z" transform="translate(-794.36 121.51)"/><path class="cls-4" d="M1672.26-24.51l-10.16,2L1651.85-21c-3.44.37-6.87.79-10.32,1.12s-6.9.5-10.35.68a309.11,309.11,0,0,1-41.5-1c-3.44-.38-6.9-.65-10.33-1.1s-6.87-.83-10.29-1.38q-10.27-1.55-20.45-3.57c-13.58-2.67-27-6-40.31-9.79s-26.43-8.07-39.5-12.5L1459-51.89l-9.76-3.44-19.5-6.92c-26-9.21-52-18.4-78.3-26.67s-52.82-15.73-79.77-21.09A389.36,389.36,0,0,0,1231-116a289.67,289.67,0,0,0-41-.94c-27.29,1.34-54.42,7.27-79.45,18.42s-47.92,26.92-68.37,45.36l-.27-.28,7.48-7.17c1.23-1.21,2.56-2.32,3.85-3.46l3.91-3.41c2.56-2.32,5.33-4.39,8-6.58,1.36-1.06,2.68-2.2,4.09-3.19l4.21-3a223.11,223.11,0,0,1,35.8-21.08,214.36,214.36,0,0,1,39.28-13.79,227,227,0,0,1,41.24-6c3.47-.16,7-.23,10.42-.34s6.95,0,10.42.09,6.94.23,10.41.46l5.19.39c1.73.13,3.46.26,5.18.46a391.75,391.75,0,0,1,41.07,6.41c27.12,5.64,53.6,13.75,79.7,22.7s52,18.54,78,27.53q9.78,3.34,19.6,6.58l9.84,3.16,9.86,3.09c13.17,4.07,26.4,7.91,39.7,11.41s26.66,6.77,40.12,9.53q10.1,2.07,20.27,3.68c3.39.58,6.8,1,10.19,1.51s6.82.82,10.23,1.24c27.28,3,55,2.86,82.2-1.63Z" transform="translate(-794.36 121.51)"/><path class="cls-13" d="M1672.4-17.46C1476.15,50.33,1244.28-202.61,1042-41.59" transform="translate(-794.36 121.51)"/><path class="cls-14" d="M1672.57-10.22C1493.68,84.31,1257.08-171.71,1042-29.93" transform="translate(-794.36 121.51)"/><path class="cls-15" d="M1672.75-3C1511.2,118.29,1269.89-140.8,1042-18.26" transform="translate(-794.36 121.51)"/><path class="cls-3" d="M1673,4.3a156,156,0,0,1-32,25.63,143.84,143.84,0,0,1-18.33,9.28c-1.59.66-3.21,1.23-4.81,1.85s-3.18,1.27-4.83,1.73c-3.28,1-6.53,2.14-9.87,2.9a174.17,174.17,0,0,1-40.7,5.4,263.92,263.92,0,0,1-41-2.65c-13.58-1.85-27-4.56-40.36-7.68s-26.55-6.72-39.7-10.53c-26.29-7.64-52.4-15.9-78.57-23.92s-52.5-15.54-79.12-21.87-53.59-11.29-80.84-13.68S1148.12-31.58,1121-28a312.4,312.4,0,0,0-79,21.47l0-.09a305.45,305.45,0,0,1,38.69-13.72,309.28,309.28,0,0,1,40.21-8.37,342.49,342.49,0,0,1,41-3.08,391,391,0,0,1,41.07,1.59c27.31,2.42,54.32,7.42,81,13.77S1336.81-2.3,1363,5.79L1402.16,18c13.06,4.08,26.15,8.11,39.32,11.83s26.39,7.26,39.72,10.33,26.77,5.71,40.33,7.49a276.81,276.81,0,0,0,40.88,2.54A173.75,173.75,0,0,0,1603,45c3.33-.75,6.56-1.86,9.83-2.84,1.65-.46,3.22-1.14,4.83-1.72s3.21-1.16,4.79-1.81a144.09,144.09,0,0,0,18.3-9.17,158.36,158.36,0,0,0,32.17-25.26Z" transform="translate(-794.36 121.51)"/><path class="cls-3" d="M1219.37,58.56C1696.3,257.19,1742.54-19.71,2058.79,113V87.74c-390.33-284.86-657.55,58.93-839.42-43.65Z" transform="translate(-794.36 121.51)"/><path class="cls-4" d="M2058.67,87.9l-11.37-7.72c-3.78-2.6-7.54-5.22-11.42-7.65l-11.56-7.44c-1.91-1.26-3.88-2.43-5.83-3.62l-5.87-3.58-5.86-3.58-2.93-1.77-3-1.7-11.93-6.79c-2-1.15-4-2.22-6-3.28l-6.07-3.21c-4-2.11-8-4.35-12.17-6.32l-12.3-6.09c-4.13-1.94-8.31-3.8-12.47-5.71-2.08-.93-4.15-1.92-6.25-2.81L1927.29,14,1921,11.36,1917.79,10c-1.06-.42-2.13-.81-3.2-1.22-17-6.7-34.38-12.44-51.94-17.49-4.42-1.17-8.78-2.53-13.22-3.62l-13.33-3.25-13.42-2.83c-1.12-.23-2.24-.48-3.36-.69l-3.38-.59-6.76-1.19c-2.25-.37-4.49-.84-6.76-1.13l-6.8-1-6.8-1-6.82-.75c-4.55-.48-9.1-1-13.67-1.28l-6.85-.5-3.43-.25-3.43-.14c-36.6-1.8-73.35,1-109.44,7.11S1573.53-4.52,1538.42,5.88s-69.79,22.36-104.85,33.27q-13.15,4.08-26.4,7.88c-4.42,1.26-8.85,2.47-13.29,3.69l-6.67,1.73c-2.23.58-4.46,1.14-6.7,1.66-17.88,4.31-36,8-54.34,9.78-4.57.53-9.18.79-13.79,1-2.3.15-4.61.12-6.91.19s-4.61.11-6.92,0l-6.92-.17-6.9-.51c-2.3-.12-4.59-.44-6.88-.73l-3.43-.43-1.72-.22-1.7-.31-6.81-1.24c-2.26-.45-4.48-1.08-6.72-1.61l-3.35-.84-3.3-1-3.3-1c-1.1-.36-2.21-.66-3.27-1.11a157,157,0,0,1-25-11.64l.19-.35,6.15,3.07c1,.5,2,1.06,3.08,1.5l3.16,1.33,3.15,1.35c1,.45,2.1.9,3.19,1.25l6.46,2.27c1.07.41,2.18.68,3.28,1l3.29.93,3.3.92,3.34.74c2.23.46,4.44,1,6.69,1.42l6.75,1.08c18.06,2.54,36.43,2.15,54.53,0s36-5.89,53.74-10.41,35.25-9.79,52.72-15.29,34.91-11.19,52.4-16.73,35-11,52.66-16.08c35.27-10.21,71.11-18.79,107.47-24.14a579.49,579.49,0,0,1,109.85-6.23c36.67,1.55,73.33,6.55,108.86,16.22,2.21.61,4.46,1.13,6.65,1.81l6.61,2c4.41,1.32,8.83,2.61,13.16,4.16s8.72,3,13,4.51l12.88,5c1.07.42,2.15.82,3.21,1.25l3.18,1.35,6.35,2.7,6.34,2.7c2.11.92,4.18,1.93,6.27,2.89,4.16,1.95,8.35,3.85,12.49,5.84L1966,28.51c4.13,2,8.14,4.27,12.16,6.49l6,3.34c2,1.1,4,2.22,6,3.42l11.84,7,3,1.76,2.91,1.85,5.81,3.7,5.81,3.7c1.94,1.23,3.88,2.46,5.75,3.79l11.35,7.8c3.81,2.56,7.49,5.3,11.2,8l11.07,8.17Z" transform="translate(-794.36 121.51)"/><path class="cls-5" d="M2058.79,90.55C1676.69-177.4,1434,159,1219.37,45.69" transform="translate(-794.36 121.51)"/><path class="cls-6" d="M2058.79,93.35c-373.87-251-592,77.88-839.42-46" transform="translate(-794.36 121.51)"/><path class="cls-7" d="M2058.79,96.15c-365.64-234.13-559.2,87.36-839.42-47.24" transform="translate(-794.36 121.51)"/><path class="cls-8" d="M2058.79,99c-357.4-217.23-526.41,96.83-839.42-48.44" transform="translate(-794.36 121.51)"/><path class="cls-9" d="M2058.79,101.76c-349.17-200.32-493.63,106.31-839.42-49.63" transform="translate(-794.36 121.51)"/><path class="cls-10" d="M2058.79,104.56C1717.85-78.84,1598,220.35,1219.37,53.73" transform="translate(-794.36 121.51)"/><path class="cls-11" d="M2058.79,107.37c-332.71-166.5-428.06,125.26-839.42-52" transform="translate(-794.36 121.51)"/><path class="cls-12" d="M2058.79,110.17C1734.31-39.42,1663.52,244.91,1219.37,57" transform="translate(-794.36 121.51)"/><path class="cls-3" d="M2058.77,113C2025.6,99.39,1991.3,88.24,1956,81.87a367,367,0,0,0-53.41-5.79A388.18,388.18,0,0,0,1848.89,78c-35.7,3.69-70.69,12.19-105.38,21.25-17.37,4.49-34.69,9.17-52.12,13.46s-35,8.18-52.62,11.37a561.23,561.23,0,0,1-107.15,9.37c-18-.18-35.9-1.22-53.77-3s-35.64-4.47-53.29-7.7l-6.62-1.24c-2.21-.41-4.42-.82-6.61-1.3l-13.17-2.78c-4.39-1-8.75-2-13.12-3-2.19-.52-4.37-1-6.55-1.56l-6.52-1.7c-17.4-4.4-34.61-9.55-51.72-14.94-34.19-11-67.82-23.59-100.9-37.52l0-.09c33.2,13.61,66.87,26.09,101.07,36.92,17.13,5.32,34.34,10.39,51.75,14.71l6.52,1.66c2.17.54,4.36,1,6.54,1.55,4.37,1,8.72,2.08,13.1,3l13.16,2.79c2.19.48,4.39.89,6.59,1.3l6.61,1.24c17.64,3.24,35.38,5.87,53.22,7.72s35.75,2.86,53.68,3.05,35.86-.46,53.73-2,35.65-3.92,53.31-7c35.35-6.22,70.07-15.44,104.74-24.66S1813.05,81,1848.81,77.2c2.23-.29,4.47-.44,6.7-.66s4.47-.42,6.71-.57c4.49-.25,9-.64,13.45-.73l6.74-.23,6.73,0c4.49-.09,9,.13,13.47.24a368.2,368.2,0,0,1,53.5,6,442.35,442.35,0,0,1,52.22,13c17.14,5.35,33.94,11.71,50.48,18.68Z" transform="translate(-794.36 121.51)"/><path class="cls-3" d="M2241.07,117.74c-5.94-364.29-348,84.16-661.19-37,318.7,207,659.74-52.17,662.69,129Z" transform="translate(-794.36 121.51)"/><path class="cls-4" d="M1580,80.52a335.32,335.32,0,0,0,96.14,19.39c8.18.45,16.37.6,24.56.52s16.38-.4,24.55-1,16.32-1.39,24.45-2.38,16.25-2.21,24.33-3.6c16.18-2.69,32.24-6.18,48.16-10.21s31.7-8.67,47.31-13.85c31.21-10.37,61.73-22.73,92-35.66,15.13-6.45,30.18-13.1,45.33-19.53s30.31-12.86,45.68-18.82,30.89-11.61,46.78-16.26c7.93-2.33,16-4.37,24.13-5.95A172.61,172.61,0,0,1,2148.11-30c4.17-.16,8.36-.15,12.56.08a97.61,97.61,0,0,1,12.5,1.63A69.18,69.18,0,0,1,2196.68-19,69.13,69.13,0,0,1,2215-1.74a100.23,100.23,0,0,1,12.08,21.92A156.26,156.26,0,0,1,2234.41,44a247.42,247.42,0,0,1,4.21,24.43,393.29,393.29,0,0,1,2.65,49.34h-.4c-.34-8.22-.78-16.43-1.44-24.62s-1.62-16.35-2.81-24.46c-2.42-16.2-6.13-32.27-12.41-47.29a96.47,96.47,0,0,0-12-21,65.26,65.26,0,0,0-17.59-16.13,67.42,67.42,0,0,0-22.27-8.5,93.53,93.53,0,0,0-11.95-1.47c-4-.2-8.07-.18-12.11,0-16.19.84-32.23,4.43-47.95,8.86s-31.23,9.93-46.58,15.76c-30.68,11.72-61,24.63-91.52,36.86S1901,60,1869.86,70.62q-11.67,4-23.47,7.7c-7.85,2.49-15.74,4.87-23.68,7.08-15.88,4.41-31.92,8.3-48.15,11.33a417.63,417.63,0,0,1-49.12,6.24,368.92,368.92,0,0,1-49.54,0c-8.25-.57-16.46-1.48-24.64-2.67s-16.3-2.7-24.35-4.53a295.28,295.28,0,0,1-47.1-14.92Z" transform="translate(-794.36 121.51)"/><path class="cls-16" d="M1579.88,80.7c313.69,129,655.66-302.24,661.33,45.4" transform="translate(-794.36 121.51)"/><path class="cls-17" d="M1579.88,80.7c314.19,136.79,656.07-277.23,661.46,53.76" transform="translate(-794.36 121.51)"/><path class="cls-18" d="M1579.88,80.7c314.69,144.59,656.47-252.23,661.6,62.11" transform="translate(-794.36 121.51)"/><path class="cls-19" d="M1579.88,80.7c315.19,152.39,656.88-227.22,661.74,70.47" transform="translate(-794.36 121.51)"/><path class="cls-20" d="M1579.88,80.7c315.69,160.19,657.29-202.21,661.87,78.83" transform="translate(-794.36 121.51)"/><path class="cls-21" d="M1579.88,80.7c316.19,168,657.7-177.21,662,87.18" transform="translate(-794.36 121.51)"/><path class="cls-22" d="M1579.88,80.7C1896.57,256.48,2238-71.5,2242,176.24" transform="translate(-794.36 121.51)"/><path class="cls-23" d="M1579.88,80.7c317.19,183.58,658.51-127.19,662.28,103.9" transform="translate(-794.36 121.51)"/><path class="cls-24" d="M1579.88,80.7C1897.57,272.08,2238.8-21.49,2242.3,193" transform="translate(-794.36 121.51)"/><path class="cls-25" d="M1579.88,80.7c318.2,199.17,659.33-77.18,662.55,120.61" transform="translate(-794.36 121.51)"/><path class="cls-3" d="M1579.91,80.66a531.29,531.29,0,0,0,79.63,42.09c3.44,1.5,7,2.86,10.42,4.29s7,2.75,10.53,4c7,2.64,14.14,5.06,21.29,7.38s14.35,4.44,21.58,6.49,14.52,3.86,21.83,5.58a580.85,580.85,0,0,0,89.08,13.43c15,1.15,30,1.67,45,1.75s30.07-.29,45.08-1c30-1.51,60-4.61,89.79-8.29s59.59-8.12,89.47-11.68c14.93-1.74,29.92-3.29,45-3.86,7.53-.29,15.07-.33,22.59,0a141,141,0,0,1,22.42,2.78,74.27,74.27,0,0,1,21.2,7.75,49.72,49.72,0,0,1,16.62,15.14,60.63,60.63,0,0,1,8.73,20.73,108.22,108.22,0,0,1,2.44,22.4h-.1a108.24,108.24,0,0,0-2.65-22.34,61,61,0,0,0-8.83-20.52,49.12,49.12,0,0,0-16.51-14.89,73.74,73.74,0,0,0-21.05-7.57,140.37,140.37,0,0,0-22.31-2.65c-7.49-.33-15-.25-22.51.07-15,.66-30,2.12-44.89,3.88-29.85,3.54-59.6,8-89.46,11.62s-59.83,6.53-89.88,7.92a768.79,768.79,0,0,1-90.19-.87A580.41,580.41,0,0,1,1745,151.25c-14.66-3.39-29.2-7.31-43.51-12-7.15-2.35-14.26-4.8-21.29-7.47-3.54-1.29-7-2.71-10.53-4.07s-7-2.82-10.42-4.34c-13.85-5.89-27.41-12.44-40.67-19.54s-26.15-14.88-38.75-23.1Z" transform="translate(-794.36 121.51)"/><path class="cls-3" d="M796.08,389.07c210-478.91,639-16.2,1278-178.89V158.94c-670.3,0-1068-478.91-1278,0Z" transform="translate(-794.36 121.51)"/><path class="cls-4" d="M2074.09,159.14a1373.84,1373.84,0,0,1-175-9.33,1608.59,1608.59,0,0,1-172.74-29.95q-42.7-9.89-85-21.59-21.14-5.8-42.15-12t-42-12.51c-14-4.24-27.9-8.66-41.84-13S1487.56,52,1473.66,47.5l-83.38-26.93Q1348.6,7.13,1306.75-5.76c-27.92-8.51-56-16.61-84.23-23.77s-56.8-13.26-85.63-17.29-58-6.06-86.92-4.27c-7.24.47-14.46,1.15-21.65,2.1s-14.33,2.17-21.4,3.75-14.11,3.33-21,5.53-13.75,4.55-20.43,7.35a240.76,240.76,0,0,0-72.56,47.11,314.28,314.28,0,0,0-29.7,31.87A386.77,386.77,0,0,0,837.63,82q-11.82,18.39-22.09,37.73c-6.86,12.88-13.24,26-19.28,39.3l-.36-.16q8.57-20.16,18.5-39.73c6.63-13,13.75-25.82,21.52-38.22A387.35,387.35,0,0,1,861.18,45a300.69,300.69,0,0,1,29.61-32.51A244.29,244.29,0,0,1,964-35.92c27.14-11.52,56.39-17.54,85.7-19.43,7.33-.43,14.68-.72,22-.68,3.67,0,7.34.1,11,.15s7.34.23,11,.47l5.49.32,5.49.42c3.66.25,7.3.66,11,1,7.29.77,14.57,1.66,21.82,2.73,29,4.2,57.63,10.53,86,17.78s56.36,15.63,84.24,24.37,55.58,18,83.28,27.29l41.54,13.92,20.77,6.94,20.82,6.82q20.82,6.78,41.69,13.41c13.92,4.43,27.89,8.66,41.87,12.86s28,8.29,42,12.25,28.15,7.75,42.27,11.43q42.36,11.09,85.12,20.49c57,12.54,114.45,23.08,172.38,30.16a1577.16,1577.16,0,0,0,174.61,12Z" transform="translate(-794.36 121.51)"/><path class="cls-26" d="M2074.09,163.21c-667.69,13.56-1068-464-1278,14.91" transform="translate(-794.36 121.51)"/><path class="cls-27" d="M2074.09,167.48c-665.08,27.12-1068-449.09-1278,29.82" transform="translate(-794.36 121.51)"/><path class="cls-28" d="M2074.09,171.75c-662.47,40.67-1068-434.19-1278,44.72" transform="translate(-794.36 121.51)"/><path class="cls-29" d="M2074.09,176c-659.87,54.23-1068-419.28-1278,59.63" transform="translate(-794.36 121.51)"/><path class="cls-30" d="M2074.09,180.29c-657.26,67.79-1068-404.37-1278,74.54" transform="translate(-794.36 121.51)"/><path class="cls-31" d="M2074.09,184.56c-654.65,81.35-1068-389.46-1278,89.45" transform="translate(-794.36 121.51)"/><path class="cls-32" d="M2074.09,188.83c-652,94.9-1068-374.56-1278,104.35" transform="translate(-794.36 121.51)"/><path class="cls-33" d="M2074.09,193.1c-649.43,108.46-1068-359.65-1278,119.26" transform="translate(-794.36 121.51)"/><path class="cls-34" d="M2074.09,197.37c-646.83,122-1068-344.74-1278,134.17" transform="translate(-794.36 121.51)"/><path class="cls-35" d="M2074.09,201.64c-644.22,135.58-1068-329.84-1278,149.07" transform="translate(-794.36 121.51)"/><path class="cls-36" d="M2074.09,205.91c-641.61,149.13-1068-314.93-1278,164" transform="translate(-794.36 121.51)"/><path class="cls-3" d="M2074.11,210.22l-21.05,5.13c-3.51.83-7,1.76-10.54,2.52l-10.58,2.29-10.59,2.28c-3.53.77-7.06,1.55-10.61,2.19l-21.29,4c-3.54.7-7.12,1.24-10.68,1.82l-10.69,1.73-10.7,1.73-10.73,1.48-10.73,1.47c-3.58.46-7.15,1-10.75,1.39l-21.53,2.41q-43.11,4.32-86.46,5.82c-28.88.86-57.78.68-86.65-.3s-57.71-2.94-86.47-5.61-57.45-6.08-86.06-10.06-57.14-8.54-85.61-13.4-56.88-10.07-85.27-15.35c-56.8-10.49-113.56-21.39-170.81-28.94a865.35,865.35,0,0,0-86.26-7.26,457.7,457.7,0,0,0-86.27,5l-2.68.39c-.89.15-1.77.34-2.65.51l-5.31,1-5.31,1-2.65.52-2.63.64-10.5,2.6c-.87.22-1.75.41-2.62.66l-2.58.78-5.18,1.57c-6.95,1.92-13.66,4.58-20.44,7l-1.27.46-1.25.53-2.48,1.07-5,2.13-5,2.13c-1.66.7-3.24,1.58-4.86,2.36l-9.67,4.84c-3.15,1.74-6.25,3.58-9.38,5.37l-4.68,2.7c-1.52,1-3,2-4.52,3l-9,6-8.65,6.49-4.33,3.24c-1.41,1.12-2.76,2.32-4.14,3.48l-8.25,7c-.7.57-1.35,1.19-2,1.82l-1.95,1.86-3.92,3.74L887,249.19c-.65.63-1.32,1.23-1.94,1.88l-1.85,2-7.39,7.9-1.85,2-.93,1-.87,1-3.47,4.14-7,8.29c-2.25,2.82-4.37,5.74-6.56,8.6l-3.26,4.32c-1.07,1.46-2.23,2.84-3.21,4.36l-6.09,8.94-3,4.48c-.5.75-1,1.48-1.51,2.24l-1.42,2.3a578.47,578.47,0,0,0-40.52,76.47l-.1,0c11.61-26.45,24.73-52.28,40.2-76.69l1.42-2.31c.48-.76,1-1.5,1.5-2.25l3-4.49,6.08-9c1-1.52,2.14-2.91,3.2-4.37l3.25-4.34c2.19-2.87,4.31-5.8,6.55-8.63l7-8.32,3.47-4.16.87-1,.93-1,1.84-2,7.39-7.94,1.85-2c.62-.65,1.29-1.26,1.94-1.89l3.91-3.75,3.91-3.76,2-1.88c.64-.63,1.3-1.25,2-1.82l8.25-7c1.38-1.16,2.73-2.37,4.15-3.5l4.32-3.27,8.67-6.52,9-6c1.51-1,3-2,4.53-3l4.69-2.72c3.13-1.8,6.24-3.66,9.39-5.42l9.7-4.88c1.62-.79,3.2-1.67,4.87-2.38l5-2.15,5-2.15,2.49-1.07,1.25-.54,1.27-.46c6.81-2.43,13.55-5.1,20.52-7l5.2-1.57,2.59-.78c.87-.25,1.75-.44,2.63-.67l10.53-2.59,2.64-.65,2.66-.52,5.32-1,5.32-1c.89-.17,1.78-.36,2.67-.51l2.68-.4a459,459,0,0,1,86.46-5,863.27,863.27,0,0,1,86.34,7.29c28.65,3.75,57.16,8.47,85.6,13.53s56.81,10.45,85.2,15.79,56.78,10.58,85.24,15.5,57,9.52,85.59,13.4,57.3,7.26,86.06,9.87,57.58,4.54,86.44,5.43,57.74,1,86.61.19q43.27-1.4,86.41-5.64l21.53-2.37c3.59-.35,7.16-.91,10.74-1.37l10.73-1.44,10.73-1.45,10.69-1.71,10.69-1.71c3.57-.57,7.14-1.11,10.68-1.8l21.29-3.95c3.56-.61,7.09-1.38,10.62-2.12l10.6-2.24,10.59-2.23c3.54-.74,7-1.64,10.55-2.46l21.07-5Z" transform="translate(-794.36 121.51)"/><path class="cls-3" d="M1780.77,211.56C1303.84,410.2,1257.6,133.3,941.35,266V240.75c390.33-284.86,657.56,58.93,839.42-43.66Z" transform="translate(-794.36 121.51)"/><path class="cls-4" d="M941.23,240.59l11.07-8.17c3.71-2.71,7.39-5.45,11.2-8l11.35-7.81c1.87-1.32,3.81-2.56,5.75-3.78l5.81-3.7,5.81-3.71,2.91-1.84,3-1.76,11.84-7.05c2-1.2,4-2.31,6-3.41l6-3.34c4-2.23,8-4.47,12.16-6.5l12.31-6.21c4.14-2,8.33-3.9,12.49-5.85,2.09-.95,4.16-2,6.27-2.88l6.34-2.7,6.35-2.7,3.18-1.35c1.06-.44,2.14-.84,3.21-1.26l12.88-5c4.32-1.56,8.69-3,13-4.51s8.75-2.84,13.16-4.16l6.61-2c2.19-.69,4.44-1.2,6.65-1.81,35.53-9.68,72.19-14.68,108.86-16.22a579.45,579.45,0,0,1,109.85,6.23c36.36,5.34,72.2,13.93,107.47,24.13,17.64,5.1,35.18,10.54,52.66,16.09s34.91,11.27,52.4,16.72,35,10.77,52.72,15.3,35.61,8.37,53.74,10.4,36.47,2.54,54.53,0l6.75-1.09c2.25-.4,4.46-.95,6.69-1.41l3.34-.74,3.3-.93,3.29-.93c1.1-.31,2.21-.58,3.28-1l6.46-2.27a33.54,33.54,0,0,0,3.19-1.26l3.15-1.34,3.16-1.34c1.06-.43,2-1,3.08-1.49l6.15-3.07.2.35a157.55,157.55,0,0,1-25,11.64c-1.06.44-2.17.75-3.27,1.1l-3.3,1-3.3,1-3.35.85c-2.24.53-4.46,1.15-6.72,1.6l-6.81,1.25-1.7.31-1.72.21-3.43.44c-2.29.29-4.58.6-6.88.73l-6.9.5-6.92.18c-2.31.1-4.61,0-6.92,0s-4.61,0-6.91-.19c-4.61-.27-9.22-.53-13.79-1.06-18.36-1.82-36.46-5.46-54.34-9.77-2.24-.52-4.47-1.09-6.7-1.67l-6.67-1.72c-4.44-1.22-8.87-2.43-13.29-3.69q-13.24-3.81-26.4-7.88c-35.06-10.91-69.72-22.88-104.85-33.27s-70.63-19.5-106.75-25.59-72.85-8.91-109.45-7.1l-3.43.14-3.43.25-6.85.49c-4.57.27-9.12.81-13.67,1.29l-6.82.75-6.8,1-6.8,1c-2.26.29-4.51.76-6.76,1.13l-6.76,1.18-3.38.6c-1.12.21-2.24.46-3.36.69L1164,137.46l-13.33,3.26c-4.44,1.08-8.8,2.45-13.22,3.62-17.56,5-34.93,10.79-51.94,17.49-1.07.41-2.14.8-3.2,1.22l-3.17,1.32-6.33,2.63-6.33,2.64c-2.1.89-4.17,1.88-6.25,2.81-4.16,1.91-8.34,3.76-12.47,5.71l-12.3,6.09c-4.13,2-8.12,4.21-12.17,6.32l-6.07,3.21c-2,1.06-4,2.12-6,3.28l-11.93,6.79-3,1.69-2.93,1.78-5.86,3.58-5.87,3.57c-1.95,1.2-3.92,2.37-5.83,3.63l-11.56,7.44c-3.88,2.43-7.64,5.05-11.42,7.64l-11.37,7.73Z" transform="translate(-794.36 121.51)"/><path class="cls-5" d="M941.35,243.55C1323.45-24.4,1566.12,312,1780.77,198.7" transform="translate(-794.36 121.51)"/><path class="cls-6" d="M941.35,246.36c373.87-251,592,77.88,839.42-46.05" transform="translate(-794.36 121.51)"/><path class="cls-7" d="M941.35,249.16C1307,15,1500.55,336.52,1780.77,201.92" transform="translate(-794.36 121.51)"/><path class="cls-8" d="M941.35,252c357.4-217.22,526.42,96.84,839.42-48.43" transform="translate(-794.36 121.51)"/><path class="cls-9" d="M941.35,254.77C1290.52,54.45,1435,361.08,1780.77,205.13" transform="translate(-794.36 121.51)"/><path class="cls-10" d="M941.35,257.57c340.94-183.41,460.85,115.79,839.42-50.83" transform="translate(-794.36 121.51)"/><path class="cls-11" d="M941.35,260.37c332.71-166.49,428.06,125.27,839.42-52" transform="translate(-794.36 121.51)"/><path class="cls-12" d="M941.35,263.18c324.48-149.59,395.28,134.74,839.42-53.22" transform="translate(-794.36 121.51)"/><path class="cls-3" d="M941.33,265.93c16.54-7,33.34-13.32,50.48-18.68a442.31,442.31,0,0,1,52.22-13,368.2,368.2,0,0,1,53.5-6c4.49-.11,9-.33,13.47-.24l6.73,0,6.74.23c4.49.1,9,.49,13.45.74,2.24.15,4.47.38,6.71.57s4.47.37,6.7.65c35.76,3.81,70.74,12.46,105.4,21.64s69.39,18.43,104.74,24.65c17.66,3.12,35.44,5.55,53.31,7s35.81,2.14,53.73,2,35.84-1.23,53.68-3,35.59-4.48,53.22-7.72l6.61-1.25c2.2-.41,4.41-.81,6.59-1.3l13.16-2.78c4.38-1,8.73-2,13.1-3,2.18-.52,4.37-1,6.54-1.54l6.52-1.67c17.41-4.32,34.62-9.39,51.75-14.7,34.2-10.83,67.87-23.31,101.07-36.92l0,.09c-33.08,13.93-66.71,26.54-100.9,37.52-17.11,5.39-34.32,10.54-51.72,14.94l-6.52,1.69c-2.17.55-4.36,1.05-6.55,1.57-4.37,1-8.73,2.07-13.11,3l-13.18,2.78c-2.19.48-4.4.89-6.61,1.3l-6.61,1.23c-17.66,3.24-35.44,5.86-53.3,7.71s-35.81,2.84-53.77,3A561.24,561.24,0,0,1,1361.37,277c-17.66-3.19-35.2-7-52.62-11.36s-34.75-9-52.12-13.47c-34.69-9-69.68-17.55-105.38-21.24a388.19,388.19,0,0,0-53.69-1.88,368.4,368.4,0,0,0-53.41,5.8c-35.31,6.37-69.61,17.52-102.78,31.15Z" transform="translate(-794.36 121.51)"/><path class="cls-3" d="M2122.57,217.91c-240.68-103.3-486.72,158.87-630.91,10.86l.69-29C1706,240.86,1933.1-9,2122.57,171.25Z" transform="translate(-794.36 121.51)"/><path class="cls-4" d="M1492.39,199.61c27.22,4.49,54.92,4.64,82.2,1.63,3.41-.42,6.83-.74,10.23-1.24s6.8-.93,10.18-1.51c6.79-1.07,13.54-2.31,20.28-3.68,13.45-2.77,26.82-6,40.12-9.54s26.53-7.33,39.7-11.4l9.86-3.09,9.84-3.16q9.83-3.24,19.6-6.59c26.08-9,51.93-18.59,78-27.52s52.58-17.07,79.7-22.7a391.75,391.75,0,0,1,41.07-6.41c1.72-.21,3.45-.33,5.18-.46l5.19-.39c3.46-.23,6.94-.3,10.41-.46s7-.06,10.42-.09,6.95.18,10.42.34a227.83,227.83,0,0,1,41.24,6,214.39,214.39,0,0,1,39.28,13.8,222.37,222.37,0,0,1,35.8,21.08l4.21,3c1.41,1,2.73,2.13,4.09,3.2,2.68,2.18,5.45,4.25,8,6.58l3.91,3.41c1.29,1.14,2.62,2.25,3.85,3.46l7.48,7.16-.27.29C2102,152.94,2079.18,137,2054.07,126c-25-11.15-52.16-17.09-79.45-18.43a291.17,291.17,0,0,0-41,1,386.72,386.72,0,0,0-40.7,6c-27,5.36-53.47,12.88-79.77,21.09s-52.3,17.46-78.3,26.67l-19.5,6.91-9.76,3.44-9.79,3.37c-13.07,4.44-26.22,8.68-39.5,12.5s-26.73,7.13-40.31,9.8q-10.18,2-20.45,3.57c-3.42.55-6.86.91-10.29,1.38s-6.89.72-10.33,1.09a305.83,305.83,0,0,1-41.5,1c-3.45-.17-6.91-.42-10.35-.67s-6.88-.75-10.32-1.13L1502.48,202l-10.17-2Z" transform="translate(-794.36 121.51)"/><path class="cls-13" d="M1492.18,207.05c196.25,67.79,428.12-185.15,630.39-24.14" transform="translate(-794.36 121.51)"/><path class="cls-14" d="M1492,214.29c178.89,94.53,415.49-161.49,630.56-19.71" transform="translate(-794.36 121.51)"/><path class="cls-15" d="M1491.83,221.53c161.55,121.27,402.86-137.82,630.74-15.29" transform="translate(-794.36 121.51)"/><path class="cls-3" d="M1491.7,228.74A158.36,158.36,0,0,0,1523.87,254a144.76,144.76,0,0,0,18.3,9.17c1.58.64,3.2,1.2,4.79,1.81s3.18,1.25,4.83,1.71c3.26,1,6.5,2.1,9.83,2.85a173.74,173.74,0,0,0,40.55,5.19,276.8,276.8,0,0,0,40.88-2.53c13.56-1.79,27-4.44,40.33-7.5s26.56-6.59,39.72-10.33,26.26-7.75,39.32-11.82l39.2-12.25c26.15-8.1,52.41-15.91,79.07-22.24s53.65-11.35,81-13.77a391,391,0,0,1,41.07-1.59,342.48,342.48,0,0,1,41,3.07,311,311,0,0,1,40.21,8.38,305.4,305.4,0,0,1,38.69,13.71l0,.1a312,312,0,0,0-79-21.47c-27.13-3.56-54.62-3.61-81.85-1.23s-54.23,7.36-80.84,13.68-52.94,13.9-79.12,21.88-52.28,16.27-78.57,23.92c-13.15,3.8-26.37,7.39-39.7,10.53s-26.78,5.83-40.36,7.68a263.92,263.92,0,0,1-41,2.65,174.17,174.17,0,0,1-40.7-5.4c-3.34-.76-6.59-1.89-9.87-2.9-1.65-.47-3.22-1.15-4.84-1.74s-3.21-1.18-4.8-1.84a145.16,145.16,0,0,1-18.33-9.28,156,156,0,0,1-32-25.63Z" transform="translate(-794.36 121.51)"/><path class="cls-3" d="M1945.21,283.06C1468.28,481.7,1422,204.8,1105.79,337.48V312.25c390.33-284.86,657.55,58.93,839.42-43.66Z" transform="translate(-794.36 121.51)"/><path class="cls-4" d="M1105.67,312.09l11.07-8.17c3.71-2.71,7.39-5.45,11.2-8l11.35-7.81c1.87-1.32,3.81-2.55,5.75-3.78l5.81-3.7,5.81-3.71,2.91-1.84,3-1.76,11.84-7.05c2-1.2,4-2.31,6-3.41l6-3.34c4-2.23,8-4.47,12.17-6.5l12.31-6.21c4.14-2,8.33-3.9,12.49-5.85,2.09-.95,4.16-2,6.27-2.88l6.34-2.7,6.35-2.7,3.18-1.35c1.06-.44,2.14-.84,3.21-1.26l12.88-5c4.32-1.56,8.69-3,13-4.51s8.75-2.84,13.16-4.16l6.6-2c2.2-.69,4.45-1.2,6.66-1.81,35.53-9.68,72.19-14.68,108.86-16.22a579.49,579.49,0,0,1,109.85,6.23c36.36,5.34,72.2,13.93,107.47,24.14,17.64,5.09,35.18,10.53,52.66,16.08s34.91,11.27,52.4,16.72,35,10.77,52.72,15.3,35.61,8.37,53.74,10.4,36.47,2.54,54.53,0l6.75-1.09c2.25-.4,4.46-.95,6.69-1.41l3.34-.74,3.3-.93,3.29-.92c1.1-.32,2.21-.59,3.27-1l6.47-2.27a32.34,32.34,0,0,0,3.18-1.26l3.16-1.34,3.16-1.34c1.06-.43,2-1,3.08-1.49l6.15-3.07.19.35a157,157,0,0,1-25,11.64c-1.06.44-2.18.75-3.27,1.1l-3.3,1-3.3,1-3.35.85c-2.24.53-4.46,1.15-6.72,1.6l-6.81,1.25-1.7.31-1.72.21-3.43.44c-2.29.29-4.58.61-6.88.73l-6.9.5-6.92.18c-2.31.1-4.61,0-6.92,0s-4.61,0-6.92-.19c-4.6-.27-9.21-.53-13.79-1.06-18.36-1.81-36.45-5.46-54.33-9.77-2.24-.52-4.47-1.09-6.7-1.67l-6.67-1.72c-4.44-1.22-8.87-2.43-13.29-3.69q-13.25-3.81-26.4-7.88c-35.06-10.91-69.72-22.88-104.85-33.27s-70.63-19.5-106.76-25.59-72.84-8.91-109.44-7.1l-3.43.14-3.43.25-6.85.49c-4.57.28-9.12.81-13.67,1.29l-6.82.75-6.8,1-6.8,1c-2.27.29-4.51.76-6.76,1.13l-6.76,1.19-3.38.59c-1.13.21-2.24.46-3.36.69L1328.48,209l-13.33,3.26c-4.44,1.08-8.8,2.45-13.22,3.62-17.56,5-34.93,10.79-51.94,17.49-1.07.41-2.14.8-3.2,1.22l-3.17,1.32-6.33,2.63-6.33,2.64c-2.1.89-4.17,1.88-6.25,2.81-4.16,1.91-8.34,3.76-12.47,5.71l-12.3,6.09c-4.13,2-8.12,4.21-12.17,6.32l-6.07,3.21c-2,1.06-4,2.12-6,3.28l-11.93,6.79-3,1.69-2.93,1.78L1152,282.4l-5.86,3.57c-1.95,1.2-3.92,2.37-5.83,3.63L1128.7,297c-3.88,2.43-7.64,5-11.42,7.64l-11.37,7.73Z" transform="translate(-794.36 121.51)"/><path class="cls-5" d="M1105.79,315.05c382.1-267.95,624.77,68.41,839.42-44.85" transform="translate(-794.36 121.51)"/><path class="cls-6" d="M1105.79,317.86c373.87-251,592,77.88,839.42-46.05" transform="translate(-794.36 121.51)"/><path class="cls-7" d="M1105.79,320.66C1471.42,86.53,1665,408,1945.21,273.42" transform="translate(-794.36 121.51)"/><path class="cls-8" d="M1105.79,323.46c357.4-217.22,526.41,96.84,839.42-48.43" transform="translate(-794.36 121.51)"/><path class="cls-9" d="M1105.79,326.27C1455,126,1599.42,432.58,1945.21,276.63" transform="translate(-794.36 121.51)"/><path class="cls-10" d="M1105.79,329.07c340.94-183.41,460.84,115.79,839.42-50.83" transform="translate(-794.36 121.51)"/><path class="cls-11" d="M1105.79,331.87c332.71-166.49,428.06,125.27,839.42-52" transform="translate(-794.36 121.51)"/><path class="cls-12" d="M1105.79,334.68c324.48-149.59,395.27,134.74,839.42-53.22" transform="translate(-794.36 121.51)"/><path class="cls-3" d="M1105.77,337.43c16.54-7,33.34-13.32,50.48-18.68a441.82,441.82,0,0,1,52.22-13,368.2,368.2,0,0,1,53.5-6c4.49-.11,9-.33,13.47-.24l6.73,0,6.74.22c4.49.1,9,.49,13.45.74,2.24.15,4.47.38,6.71.57s4.47.37,6.7.65c35.76,3.81,70.74,12.46,105.4,21.64s69.39,18.43,104.74,24.65c17.66,3.12,35.44,5.55,53.31,7s35.81,2.14,53.73,2,35.84-1.23,53.68-3,35.58-4.48,53.22-7.72l6.61-1.24c2.2-.42,4.4-.82,6.59-1.31l13.16-2.78c4.38-1,8.73-2,13.1-3,2.18-.52,4.37-1,6.54-1.54l6.52-1.66c17.41-4.33,34.62-9.4,51.74-14.71,34.21-10.83,67.88-23.31,101.08-36.92l0,.09c-33.08,13.93-66.72,26.54-100.9,37.52-17.11,5.39-34.32,10.54-51.72,14.94l-6.52,1.69c-2.18.56-4.37,1.05-6.55,1.57-4.37,1-8.73,2.07-13.12,3l-13.17,2.78c-2.19.48-4.4.89-6.61,1.3l-6.62,1.23c-17.65,3.24-35.43,5.86-53.29,7.71s-35.81,2.84-53.77,3a561.24,561.24,0,0,1-107.15-9.38c-17.67-3.19-35.2-7-52.62-11.36s-34.75-9-52.12-13.46c-34.69-9.06-69.68-17.56-105.38-21.25a388.19,388.19,0,0,0-53.69-1.88,368.4,368.4,0,0,0-53.41,5.8c-35.31,6.37-69.61,17.52-102.78,31.15Z" transform="translate(-794.36 121.51)"/><path class="cls-3" d="M923.51,342.25c5.94-364.29,348,84.15,661.19-37C1266,512.18,925,253,922,434.17Z" transform="translate(-794.36 121.51)"/><path class="cls-4" d="M1584.77,305.4a295.08,295.08,0,0,1-47.11,14.92c-8,1.83-16.17,3.35-24.34,4.52s-16.39,2.11-24.64,2.67a365.63,365.63,0,0,1-49.54,0,415.51,415.51,0,0,1-49.12-6.23c-16.23-3-32.27-6.93-48.15-11.34-7.94-2.21-15.83-4.59-23.68-7.07s-15.69-5-23.47-7.7c-31.18-10.61-61.87-22.56-92.4-34.87s-60.84-25.15-91.52-36.86c-15.35-5.83-30.84-11.3-46.58-15.76s-31.76-8-48-8.86c-4-.19-8.08-.2-12.11,0a91.77,91.77,0,0,0-11.95,1.47,67.62,67.62,0,0,0-22.27,8.49,65.59,65.59,0,0,0-17.59,16.13,96.54,96.54,0,0,0-12,21c-6.28,15-10,31.09-12.41,47.29q-1.79,12.17-2.81,24.46c-.66,8.19-1.1,16.39-1.44,24.61h-.4A393.55,393.55,0,0,1,926,292.9a247.22,247.22,0,0,1,4.21-24.42,155.91,155.91,0,0,1,7.31-23.79,100,100,0,0,1,12.08-21.92,66.63,66.63,0,0,1,41.84-26.54,98,98,0,0,1,12.51-1.63c4.19-.24,8.39-.25,12.56-.08a171.2,171.2,0,0,1,24.77,3.16c8.15,1.58,16.2,3.61,24.13,5.95,15.89,4.64,31.41,10.28,46.78,16.25s30.54,12.37,45.68,18.83,30.2,13.08,45.33,19.53c30.24,12.93,60.76,25.29,92,35.66q23.4,7.77,47.31,13.85c15.92,4,32,7.52,48.16,10.21,8.08,1.39,16.2,2.56,24.32,3.59s16.3,1.79,24.46,2.39,16.36.93,24.55,1,16.38-.06,24.56-.51a335.34,335.34,0,0,0,96.14-19.4Z" transform="translate(-794.36 121.51)"/><path class="cls-16" d="M1584.7,305.21C1271,434.2,929,3,923.37,350.61" transform="translate(-794.36 121.51)"/><path class="cls-17" d="M1584.7,305.21C1270.51,442,928.63,28,923.24,359" transform="translate(-794.36 121.51)"/><path class="cls-18" d="M1584.7,305.21C1270,449.8,928.23,53,923.1,367.32" transform="translate(-794.36 121.51)"/><path class="cls-19" d="M1584.7,305.21C1269.51,457.6,927.82,78,923,375.68" transform="translate(-794.36 121.51)"/><path class="cls-20" d="M1584.7,305.21C1269,465.39,927.41,103,922.83,384" transform="translate(-794.36 121.51)"/><path class="cls-21" d="M1584.7,305.21c-316.19,168-657.7-177.21-662,87.18" transform="translate(-794.36 121.51)"/><path class="cls-22" d="M1584.7,305.21C1268,481,926.59,153,922.55,400.75" transform="translate(-794.36 121.51)"/><path class="cls-23" d="M1584.7,305.21C1267.51,488.79,926.19,178,922.42,409.1" transform="translate(-794.36 121.51)"/><path class="cls-24" d="M1584.7,305.21C1267,496.58,925.78,203,922.28,417.46" transform="translate(-794.36 121.51)"/><path class="cls-25" d="M1584.7,305.21C1266.5,504.38,925.37,228,922.15,425.82" transform="translate(-794.36 121.51)"/><path class="cls-3" d="M1584.73,305.25c-12.6,8.21-25.48,16-38.75,23.1s-26.82,13.65-40.67,19.54c-3.45,1.51-7,2.89-10.42,4.33s-7,2.78-10.53,4.08c-7,2.67-14.15,5.12-21.29,7.47-14.31,4.68-28.85,8.6-43.51,12a580.41,580.41,0,0,1-89.22,13.07,768.79,768.79,0,0,1-90.19.87c-30.05-1.39-60-4.24-89.88-7.92s-59.61-8.09-89.46-11.62c-14.92-1.76-29.89-3.22-44.89-3.88-7.5-.33-15-.41-22.51-.07a139.22,139.22,0,0,0-22.31,2.65,73.15,73.15,0,0,0-21.05,7.57,48.91,48.91,0,0,0-16.51,14.89,61,61,0,0,0-8.83,20.52,107.55,107.55,0,0,0-2.65,22.33H922a108.22,108.22,0,0,1,2.44-22.4A60.54,60.54,0,0,1,933.13,391a49.72,49.72,0,0,1,16.62-15.14,74,74,0,0,1,21.2-7.75,141,141,0,0,1,22.42-2.78c7.52-.37,15.06-.33,22.58-.05,15,.58,30,2.13,45,3.87,29.88,3.56,59.62,8,89.47,11.68s59.76,6.78,89.79,8.28q22.52,1.14,45.08,1.05c15-.08,30.06-.6,45-1.75A582.08,582.08,0,0,0,1419.39,375c7.31-1.73,14.6-3.56,21.83-5.59s14.43-4.17,21.58-6.48,14.26-4.74,21.29-7.38c3.54-1.28,7-2.68,10.53-4s7-2.79,10.42-4.29a532.21,532.21,0,0,0,79.63-42.09Z" transform="translate(-794.36 121.51)"/><path class="cls-3" d="M2368.5,613.58c-210-478.91-639-16.2-1278-178.9V383.45c670.3,0,1068-478.91,1278,0Z" transform="translate(-794.36 121.51)"/><path class="cls-4" d="M1090.49,383.25a1574.75,1574.75,0,0,0,174.61-12c57.93-7.07,115.39-17.61,172.37-30.15q42.75-9.4,85.13-20.49,21.18-5.53,42.27-11.43c14.05-4,28.06-8.08,42.05-12.26s27.95-8.43,41.87-12.85,27.81-8.89,41.69-13.42l20.82-6.81,20.77-6.94L1773.61,243c27.7-9.27,55.39-18.56,83.28-27.29s55.91-17.1,84.24-24.37,57-13.58,86-17.78c7.25-1.07,14.53-2,21.82-2.73,3.65-.33,7.29-.74,10.95-1l5.49-.42,5.49-.32c3.66-.25,7.33-.31,11-.48s7.34-.19,11-.14c7.34,0,14.69.25,22,.68,29.31,1.89,58.56,7.91,85.7,19.43A244.1,244.1,0,0,1,2273.79,237a299.75,299.75,0,0,1,29.61,32.51,388.55,388.55,0,0,1,25.26,35.92c7.77,12.41,14.89,25.2,21.52,38.22s12.79,26.3,18.5,39.74l-.36.16c-6-13.29-12.42-26.42-19.28-39.3s-14.21-25.47-22.09-37.73a386.77,386.77,0,0,0-25.59-35.37,314.28,314.28,0,0,0-29.7-31.87,240.68,240.68,0,0,0-72.57-47.11c-6.67-2.81-13.52-5.19-20.42-7.36s-13.94-3.95-21-5.52-14.23-2.73-21.4-3.75-14.41-1.64-21.65-2.1c-29-1.79-58.12.21-86.92,4.27s-57.35,10.2-85.63,17.29-56.31,15.26-84.23,23.76-55.74,17.38-83.54,26.34L1690.92,272q-20.87,6.71-41.76,13.26c-14,4.34-27.87,8.76-41.84,13s-28,8.42-42,12.51-28.06,8.12-42.15,12q-42.24,11.64-85,21.59a1608.59,1608.59,0,0,1-172.74,29.95,1373.84,1373.84,0,0,1-175,9.33Z" transform="translate(-794.36 121.51)"/><path class="cls-26" d="M1090.49,387.72c667.69,13.56,1068-464,1278,14.91" transform="translate(-794.36 121.51)"/><path class="cls-27" d="M1090.49,392c665.08,27.11,1068-449.1,1278,29.81" transform="translate(-794.36 121.51)"/><path class="cls-28" d="M1090.49,396.26c662.47,40.67,1068-434.19,1278,44.72" transform="translate(-794.36 121.51)"/><path class="cls-29" d="M1090.49,400.53c659.87,54.23,1068-419.28,1278,59.63" transform="translate(-794.36 121.51)"/><path class="cls-30" d="M1090.49,404.8c657.26,67.79,1068-404.37,1278,74.54" transform="translate(-794.36 121.51)"/><path class="cls-31" d="M1090.49,409.07c654.65,81.34,1068-389.47,1278,89.44" transform="translate(-794.36 121.51)"/><path class="cls-32" d="M1090.49,413.34c652,94.9,1068-374.56,1278,104.35" transform="translate(-794.36 121.51)"/><path class="cls-33" d="M1090.49,417.61c649.43,108.46,1068-359.65,1278,119.26" transform="translate(-794.36 121.51)"/><path class="cls-34" d="M1090.49,421.88c646.83,122,1068-344.74,1278,134.16" transform="translate(-794.36 121.51)"/><path class="cls-35" d="M1090.49,426.14c644.22,135.58,1068-329.83,1278,149.08" transform="translate(-794.36 121.51)"/><path class="cls-36" d="M1090.49,430.41c641.61,149.14,1068-314.92,1278,164" transform="translate(-794.36 121.51)"/><path class="cls-3" d="M1090.5,434.64l21.07,5c3.52.81,7,1.72,10.55,2.46l10.59,2.23,10.6,2.23c3.53.75,7.06,1.52,10.62,2.13l21.29,3.95c3.54.69,7.11,1.22,10.68,1.8l10.69,1.71,10.69,1.7,10.73,1.46,10.73,1.44c3.58.46,7.15,1,10.74,1.37l21.53,2.36q43.1,4.23,86.41,5.65,43.3,1.16,86.61-.2c28.86-.89,57.68-2.82,86.44-5.42s57.45-5.95,86.06-9.87,57.13-8.49,85.59-13.4,56.86-10.18,85.24-15.51,56.76-10.73,85.2-15.79,57-9.77,85.59-13.52,57.46-6.45,86.35-7.3a459.84,459.84,0,0,1,86.46,5l2.68.4c.89.15,1.78.34,2.67.5l5.32,1,5.32,1,2.66.52,2.64.64,10.53,2.6c.87.22,1.76.42,2.63.66l2.59.79,5.2,1.57c7,1.93,13.71,4.59,20.52,7l1.27.46,1.25.53,2.49,1.08,5,2.14,5,2.15c1.67.72,3.25,1.6,4.87,2.39l9.7,4.88c3.15,1.76,6.26,3.61,9.39,5.42l4.69,2.72c1.53,1,3,2,4.53,3l9,6,8.67,6.52,4.32,3.27c1.42,1.13,2.77,2.33,4.15,3.5l8.25,7c.7.57,1.35,1.19,2,1.82l2,1.88,3.91,3.75,3.91,3.76c.65.63,1.32,1.23,1.94,1.89l1.85,2,7.39,7.94,1.84,2,.93,1,.87,1,3.47,4.16,6.95,8.33c2.24,2.82,4.36,5.76,6.54,8.63l3.26,4.33c1.06,1.46,2.22,2.86,3.2,4.38l6.08,9,3,4.49c.5.75,1,1.48,1.5,2.25l1.42,2.31c15.47,24.41,28.59,50.24,40.2,76.69l-.1,0a578.47,578.47,0,0,0-40.52-76.47l-1.42-2.3c-.48-.76-1-1.5-1.51-2.25l-3.05-4.47-6.09-8.94c-1-1.52-2.14-2.91-3.21-4.36l-3.26-4.32c-2.19-2.86-4.31-5.79-6.56-8.6l-7-8.29-3.47-4.15-.87-1-.93-1-1.85-2-7.39-7.89-1.85-2c-.62-.65-1.29-1.25-1.94-1.88l-3.91-3.74-3.92-3.73-1.95-1.87c-.65-.63-1.3-1.24-2-1.81l-8.25-7c-1.38-1.16-2.73-2.36-4.14-3.48l-4.33-3.25-8.65-6.48-9-6c-1.51-1-3-2-4.52-3l-4.68-2.7c-3.13-1.79-6.23-3.63-9.38-5.38l-9.67-4.83c-1.63-.78-3.2-1.66-4.86-2.37l-5-2.12-5-2.13-2.48-1.07-1.25-.53-1.27-.46c-6.78-2.43-13.49-5.09-20.44-7l-5.18-1.57-2.58-.78c-.87-.25-1.75-.44-2.62-.67L2142,399.2l-2.63-.64-2.65-.52-5.31-1-5.31-1c-.88-.17-1.76-.36-2.65-.51l-2.68-.4a458.53,458.53,0,0,0-86.27-5,865.33,865.33,0,0,0-86.26,7.25c-57.26,7.56-114,18.46-170.81,28.95-28.39,5.28-56.8,10.49-85.27,15.35s-57,9.4-85.61,13.4-57.3,7.39-86.06,10.06-57.59,4.66-86.47,5.61-57.77,1.15-86.65.3-57.72-2.94-86.46-5.82l-21.53-2.41c-3.6-.36-7.17-.93-10.75-1.39l-10.73-1.47-10.73-1.48-10.7-1.73L1185.81,455c-3.56-.58-7.14-1.12-10.68-1.82l-21.29-4c-3.55-.64-7.08-1.42-10.61-2.19l-10.59-2.29-10.58-2.28c-3.53-.77-7-1.69-10.54-2.52l-21-5.13Z" transform="translate(-794.36 121.51)"/><path class="cls-3" d="M1383.81,430.3C1860.74,628.94,1907,352,2223.23,484.72V459.49c-390.33-284.86-657.56,58.93-839.42-43.66Z" transform="translate(-794.36 121.51)"/><path class="cls-4" d="M2223.11,459.65l-11.37-7.73c-3.78-2.59-7.54-5.21-11.42-7.64l-11.56-7.44c-1.91-1.26-3.88-2.43-5.83-3.63l-5.87-3.57-5.86-3.58-2.93-1.78-3-1.69-11.93-6.79c-2-1.16-4-2.22-6-3.28l-6.07-3.21c-4.05-2.11-8-4.36-12.17-6.32l-12.3-6.09c-4.13-1.95-8.31-3.8-12.47-5.71-2.08-.93-4.15-1.92-6.25-2.81l-6.33-2.64-6.33-2.63-3.17-1.32c-1.06-.42-2.13-.81-3.2-1.22-17-6.7-34.38-12.44-51.94-17.49-4.42-1.17-8.78-2.54-13.22-3.62l-13.33-3.26-13.42-2.82c-1.12-.23-2.24-.48-3.36-.69l-3.38-.59-6.76-1.19c-2.25-.37-4.5-.84-6.76-1.13l-6.8-1-6.8-1-6.82-.75c-4.55-.48-9.1-1-13.67-1.29l-6.85-.49-3.43-.25-3.43-.14c-36.6-1.81-73.35,1.05-109.45,7.1s-71.64,15.18-106.75,25.59S1633.07,400,1598,410.9q-13.15,4.08-26.4,7.88c-4.42,1.26-8.86,2.47-13.29,3.69l-6.67,1.72c-2.23.58-4.46,1.15-6.7,1.67-17.88,4.31-36,8-54.34,9.77-4.57.53-9.18.79-13.79,1.06-2.3.15-4.61.12-6.91.19s-4.61.11-6.92,0l-6.92-.18-6.9-.5c-2.3-.12-4.59-.44-6.88-.73l-3.43-.44-1.72-.21-1.7-.31-6.81-1.25c-2.26-.45-4.48-1.07-6.72-1.6l-3.35-.85-3.3-1-3.3-1c-1.1-.35-2.21-.66-3.27-1.1a157.55,157.55,0,0,1-25-11.64l.2-.35,6.15,3.07c1,.49,2,1.06,3.08,1.49l3.16,1.34,3.15,1.34a33.54,33.54,0,0,0,3.19,1.26l6.46,2.27c1.07.41,2.18.68,3.28,1l3.29.92,3.3.93,3.34.74c2.23.46,4.44,1,6.69,1.41l6.75,1.09c18.06,2.54,36.43,2.14,54.53,0s36-5.89,53.74-10.4,35.25-9.79,52.72-15.3,34.91-11.18,52.4-16.72,35-11,52.66-16.08c35.27-10.21,71.11-18.8,107.47-24.14a579.45,579.45,0,0,1,109.85-6.23c36.67,1.54,73.33,6.54,108.86,16.22,2.21.61,4.46,1.12,6.65,1.81l6.61,2c4.41,1.32,8.83,2.61,13.16,4.16s8.72,2.95,13,4.51l12.88,5c1.07.42,2.15.82,3.21,1.26l3.18,1.35,6.35,2.7,6.34,2.7c2.11.92,4.18,1.93,6.27,2.88,4.16,1.95,8.35,3.85,12.49,5.85l12.31,6.21c4.13,2,8.14,4.27,12.16,6.5l6,3.34c2,1.1,4,2.21,6,3.41l11.84,7.05,3,1.76,2.91,1.84,5.81,3.71,5.81,3.7c1.94,1.22,3.88,2.46,5.75,3.78l11.35,7.81c3.81,2.56,7.49,5.3,11.19,8l11.08,8.17Z" transform="translate(-794.36 121.51)"/><path class="cls-5" d="M2223.23,462.29c-382.1-268-624.77,68.41-839.42-44.85" transform="translate(-794.36 121.51)"/><path class="cls-6" d="M2223.23,465.1c-373.87-251-592,77.88-839.42-46.05" transform="translate(-794.36 121.51)"/><path class="cls-7" d="M2223.23,467.9c-365.64-234.13-559.2,87.36-839.42-47.24" transform="translate(-794.36 121.51)"/><path class="cls-8" d="M2223.23,470.7c-357.4-217.22-526.42,96.84-839.42-48.43" transform="translate(-794.36 121.51)"/><path class="cls-9" d="M2223.23,473.51c-349.17-200.32-493.63,106.31-839.42-49.64" transform="translate(-794.36 121.51)"/><path class="cls-10" d="M2223.23,476.31c-340.94-183.41-460.85,115.79-839.42-50.83" transform="translate(-794.36 121.51)"/><path class="cls-11" d="M2223.23,479.11c-332.71-166.49-428.06,125.27-839.42-52" transform="translate(-794.36 121.51)"/><path class="cls-12" d="M2223.23,481.92C1898.75,332.33,1828,616.66,1383.81,428.7" transform="translate(-794.36 121.51)"/><path class="cls-3" d="M2223.21,484.77c-33.17-13.63-67.47-24.78-102.78-31.15a368.4,368.4,0,0,0-53.41-5.8,388.19,388.19,0,0,0-53.69,1.88c-35.7,3.69-70.69,12.19-105.38,21.25-17.37,4.49-34.7,9.16-52.12,13.46s-35,8.17-52.62,11.36a561.24,561.24,0,0,1-107.15,9.38c-18-.18-35.9-1.22-53.77-3s-35.64-4.47-53.3-7.71l-6.61-1.23c-2.21-.41-4.42-.82-6.61-1.3l-13.18-2.78c-4.38-1-8.74-2-13.11-3-2.19-.52-4.38-1-6.55-1.57l-6.52-1.69c-17.4-4.4-34.61-9.55-51.72-14.94-34.19-11-67.82-23.59-100.9-37.52l0-.09c33.2,13.61,66.87,26.09,101.07,36.92,17.13,5.31,34.34,10.38,51.75,14.71l6.52,1.66c2.17.54,4.36,1,6.54,1.54,4.37,1,8.72,2.08,13.1,3.05l13.16,2.78c2.18.49,4.39.89,6.59,1.3l6.61,1.25c17.63,3.24,35.38,5.87,53.22,7.72s35.75,2.86,53.68,3,35.86-.45,53.73-2,35.65-3.92,53.31-7c35.35-6.22,70.07-15.43,104.74-24.65s69.64-17.83,105.4-21.64c2.23-.28,4.47-.43,6.7-.65s4.47-.42,6.71-.57c4.49-.25,9-.64,13.45-.74l6.73-.22,6.74,0c4.49-.09,9,.13,13.47.24a368.2,368.2,0,0,1,53.5,6,442.31,442.31,0,0,1,52.22,13c17.14,5.36,33.94,11.72,50.48,18.68Z" transform="translate(-794.36 121.51)"/><path class="cls-3" d="M1042,436.65c240.68-103.29,486.72,158.87,630.91,10.86l-.69-29C1458.63,459.6,1231.48,209.73,1042,390Z" transform="translate(-794.36 121.51)"/><path class="cls-4" d="M1672.26,418.74l-10.16,2-10.25,1.54c-3.44.37-6.87.78-10.32,1.12s-6.9.5-10.35.67a305.83,305.83,0,0,1-41.5-1c-3.44-.37-6.9-.64-10.33-1.09s-6.87-.83-10.29-1.38q-10.27-1.56-20.45-3.57c-13.58-2.67-27-6-40.31-9.8s-26.43-8.06-39.5-12.5l-9.79-3.37-9.76-3.44-19.5-6.91c-26-9.21-52-18.4-78.3-26.67s-52.82-15.73-79.77-21.09a386.72,386.72,0,0,0-40.7-5.95,291.17,291.17,0,0,0-41-1c-27.29,1.34-54.42,7.28-79.45,18.43s-47.92,26.91-68.37,45.36l-.27-.29,7.48-7.16c1.23-1.21,2.56-2.32,3.85-3.46l3.91-3.41c2.56-2.33,5.33-4.4,8-6.58,1.36-1.07,2.68-2.2,4.09-3.2l4.21-3a222.37,222.37,0,0,1,35.8-21.08,215.14,215.14,0,0,1,39.28-13.8,227.83,227.83,0,0,1,41.24-6c3.47-.16,7-.23,10.42-.34s6.95,0,10.42.09,6.94.23,10.41.46l5.19.39c1.73.13,3.46.25,5.18.46a391.75,391.75,0,0,1,41.07,6.41c27.12,5.63,53.6,13.75,79.7,22.7s52,18.54,78,27.52q9.78,3.36,19.6,6.59l9.84,3.16,9.86,3.09c13.17,4.07,26.4,7.9,39.7,11.4s26.66,6.77,40.12,9.54c6.73,1.37,13.49,2.61,20.27,3.68,3.39.58,6.8,1,10.19,1.51s6.82.82,10.23,1.24c27.28,3,55,2.86,82.2-1.63Z" transform="translate(-794.36 121.51)"/><path class="cls-13" d="M1672.4,425.79c-196.25,67.79-428.12-185.15-630.39-24.14" transform="translate(-794.36 121.51)"/><path class="cls-14" d="M1672.57,433c-178.89,94.53-415.49-161.49-630.56-19.71" transform="translate(-794.36 121.51)"/><path class="cls-15" d="M1672.75,440.27C1511.2,561.54,1269.89,302.45,1042,425" transform="translate(-794.36 121.51)"/><path class="cls-3" d="M1673,447.55a156,156,0,0,1-32,25.63,145.16,145.16,0,0,1-18.33,9.28c-1.59.66-3.21,1.23-4.81,1.84s-3.18,1.27-4.83,1.74c-3.28,1-6.53,2.14-9.87,2.9a174.17,174.17,0,0,1-40.7,5.4,263.92,263.92,0,0,1-41-2.65c-13.58-1.85-27-4.56-40.36-7.68s-26.55-6.73-39.7-10.53c-26.29-7.65-52.4-15.91-78.57-23.92s-52.5-15.55-79.12-21.88-53.59-11.28-80.84-13.68-54.72-2.33-81.85,1.23a312,312,0,0,0-79,21.47l0-.1a305.4,305.4,0,0,1,38.69-13.71,311,311,0,0,1,40.21-8.38,342.48,342.48,0,0,1,41-3.07,391,391,0,0,1,41.07,1.59c27.31,2.42,54.32,7.42,81,13.77S1336.81,440.94,1363,449l39.2,12.25c13.06,4.07,26.15,8.1,39.32,11.82s26.39,7.27,39.72,10.34,26.77,5.7,40.33,7.49a276.8,276.8,0,0,0,40.88,2.53,173.21,173.21,0,0,0,40.55-5.19c3.33-.75,6.56-1.86,9.83-2.85,1.65-.46,3.22-1.13,4.83-1.71s3.21-1.16,4.79-1.81a145.43,145.43,0,0,0,18.3-9.17,158.36,158.36,0,0,0,32.17-25.26Z" transform="translate(-794.36 121.51)"/><path class="cls-3" d="M1219.37,501.8c476.93,198.64,523.17-78.26,839.42,54.42V531c-390.33-284.86-657.55,58.93-839.42-43.66Z" transform="translate(-794.36 121.51)"/><path class="cls-4" d="M2058.67,531.15l-11.37-7.73c-3.78-2.59-7.54-5.21-11.42-7.64l-11.56-7.44c-1.91-1.26-3.88-2.43-5.83-3.63l-5.87-3.57-5.86-3.58-2.93-1.78-3-1.69-11.93-6.79c-2-1.15-4-2.22-6-3.28l-6.07-3.21c-4-2.11-8-4.36-12.17-6.32l-12.3-6.09c-4.13-1.95-8.31-3.8-12.47-5.71-2.08-.93-4.15-1.92-6.25-2.81l-6.33-2.64-6.33-2.63-3.17-1.32c-1.06-.42-2.13-.81-3.2-1.22-17-6.7-34.38-12.44-51.94-17.49-4.42-1.17-8.78-2.54-13.22-3.62l-13.33-3.26-13.42-2.82c-1.12-.23-2.24-.48-3.36-.69l-3.38-.59-6.76-1.19c-2.25-.37-4.49-.84-6.76-1.13l-6.8-1-6.8-1-6.82-.75c-4.55-.48-9.1-1-13.67-1.29l-6.85-.49-3.43-.25-3.43-.14c-36.6-1.81-73.35,1.05-109.44,7.1s-71.65,15.18-106.76,25.59-69.79,22.36-104.85,33.27q-13.15,4.08-26.4,7.88c-4.42,1.26-8.85,2.47-13.29,3.69l-6.67,1.72c-2.23.58-4.46,1.15-6.7,1.67-17.88,4.31-36,8-54.34,9.77-4.57.53-9.18.8-13.79,1.06-2.3.15-4.61.12-6.91.19s-4.61.11-6.92,0l-6.92-.18-6.9-.5c-2.3-.12-4.59-.44-6.88-.73l-3.43-.43-1.72-.22L1271,506l-6.81-1.25c-2.26-.45-4.48-1.07-6.72-1.6l-3.35-.85-3.3-1-3.3-1c-1.1-.35-2.21-.65-3.27-1.1a157,157,0,0,1-25-11.64l.19-.35,6.15,3.07c1,.49,2,1.06,3.08,1.49l3.16,1.34,3.15,1.34a33.54,33.54,0,0,0,3.19,1.26l6.46,2.27c1.07.41,2.18.68,3.28,1l3.29.92,3.3.93,3.34.74c2.23.46,4.44,1,6.69,1.41l6.75,1.09c18.06,2.54,36.43,2.14,54.53,0s36-5.89,53.74-10.4,35.25-9.79,52.72-15.3,34.91-11.18,52.4-16.72,35-11,52.66-16.08c35.27-10.21,71.11-18.8,107.47-24.14a579.49,579.49,0,0,1,109.85-6.23c36.67,1.54,73.33,6.55,108.86,16.22,2.21.61,4.46,1.12,6.65,1.81l6.61,2c4.41,1.32,8.83,2.61,13.16,4.16s8.72,2.95,13,4.51l12.88,5c1.07.42,2.15.82,3.21,1.26l3.18,1.35,6.35,2.7,6.34,2.7c2.11.92,4.18,1.93,6.27,2.88,4.16,1.95,8.35,3.86,12.49,5.85l12.31,6.21c4.13,2,8.14,4.27,12.16,6.5l6,3.34c2,1.1,4,2.21,6,3.41l11.84,7.05,3,1.76,2.91,1.85,5.81,3.7,5.81,3.7c1.94,1.23,3.88,2.46,5.75,3.78l11.35,7.81c3.81,2.56,7.49,5.3,11.2,8l11.07,8.17Z" transform="translate(-794.36 121.51)"/><path class="cls-5" d="M2058.79,533.79c-382.1-267.95-624.77,68.41-839.42-44.85" transform="translate(-794.36 121.51)"/><path class="cls-6" d="M2058.79,536.6c-373.87-251-592,77.88-839.42-46.05" transform="translate(-794.36 121.51)"/><path class="cls-7" d="M2058.79,539.4c-365.64-234.13-559.2,87.36-839.42-47.24" transform="translate(-794.36 121.51)"/><path class="cls-8" d="M2058.79,542.2C1701.39,325,1532.38,639,1219.37,493.77" transform="translate(-794.36 121.51)"/><path class="cls-9" d="M2058.79,545c-349.17-200.32-493.63,106.31-839.42-49.64" transform="translate(-794.36 121.51)"/><path class="cls-10" d="M2058.79,547.81C1717.85,364.4,1598,663.6,1219.37,497" transform="translate(-794.36 121.51)"/><path class="cls-11" d="M2058.79,550.61c-332.71-166.49-428.06,125.27-839.42-52" transform="translate(-794.36 121.51)"/><path class="cls-12" d="M2058.79,553.42c-324.48-149.59-395.27,134.74-839.42-53.22" transform="translate(-794.36 121.51)"/><path class="cls-3" d="M2058.77,556.27c-33.17-13.63-67.47-24.78-102.78-31.15a368.4,368.4,0,0,0-53.41-5.8,388.19,388.19,0,0,0-53.69,1.88c-35.7,3.69-70.69,12.19-105.38,21.25-17.37,4.49-34.69,9.16-52.12,13.46s-35,8.17-52.62,11.36a561.24,561.24,0,0,1-107.15,9.38c-18-.18-35.9-1.22-53.77-3s-35.64-4.47-53.29-7.71l-6.62-1.23c-2.21-.41-4.42-.82-6.61-1.3l-13.17-2.78c-4.39-1-8.75-2-13.12-3-2.19-.52-4.37-1-6.55-1.57l-6.52-1.69c-17.4-4.4-34.61-9.55-51.72-14.94-34.19-11-67.82-23.59-100.9-37.52l0-.09c33.2,13.61,66.87,26.09,101.07,36.92,17.13,5.32,34.34,10.38,51.75,14.71l6.52,1.66c2.17.54,4.36,1,6.54,1.54,4.37,1,8.72,2.08,13.1,3l13.16,2.78c2.19.49,4.39.9,6.59,1.31l6.61,1.24c17.64,3.24,35.38,5.87,53.22,7.72s35.75,2.86,53.68,3,35.86-.45,53.73-2,35.65-3.92,53.31-7c35.35-6.22,70.07-15.43,104.74-24.65s69.64-17.83,105.4-21.64c2.23-.28,4.47-.43,6.7-.65s4.47-.42,6.71-.57c4.49-.25,9-.64,13.45-.73l6.74-.23,6.73,0c4.49-.09,9,.13,13.47.24a368.2,368.2,0,0,1,53.5,6,444.28,444.28,0,0,1,52.22,13c17.14,5.36,33.94,11.72,50.48,18.68Z" transform="translate(-794.36 121.51)"/><path class="cls-3" d="M2241.07,561c-5.94-364.29-348,84.15-661.19-37,318.7,207,659.74-52.17,662.69,129Z" transform="translate(-794.36 121.51)"/><path class="cls-4" d="M1580,523.76a335.34,335.34,0,0,0,96.14,19.4c8.18.45,16.37.6,24.56.51s16.38-.39,24.55-1,16.32-1.39,24.45-2.39,16.25-2.2,24.33-3.59c16.18-2.69,32.24-6.18,48.16-10.21s31.7-8.67,47.31-13.85c31.21-10.37,61.73-22.73,92-35.66,15.13-6.45,30.18-13.1,45.33-19.53s30.31-12.86,45.68-18.83,30.89-11.61,46.78-16.25c7.93-2.34,16-4.37,24.13-5.95a171.2,171.2,0,0,1,24.77-3.16c4.17-.17,8.37-.16,12.56.08a98,98,0,0,1,12.51,1.63A66.63,66.63,0,0,1,2215,441.51a100.23,100.23,0,0,1,12.08,21.92,156.26,156.26,0,0,1,7.31,23.79,247.22,247.22,0,0,1,4.21,24.42,393.55,393.55,0,0,1,2.65,49.35h-.4c-.34-8.21-.78-16.42-1.44-24.61s-1.62-16.35-2.81-24.46c-2.42-16.2-6.13-32.28-12.41-47.29a96.54,96.54,0,0,0-12-21,65.59,65.59,0,0,0-17.59-16.13,67.62,67.62,0,0,0-22.27-8.49,91.77,91.77,0,0,0-11.95-1.47c-4-.2-8.07-.19-12.11,0-16.19.84-32.23,4.42-47.95,8.86s-31.23,9.93-46.58,15.76c-30.68,11.71-61,24.63-91.52,36.86s-61.22,24.26-92.4,34.87q-11.67,4-23.47,7.7c-7.85,2.48-15.74,4.86-23.68,7.07-15.88,4.41-31.92,8.31-48.15,11.34a415.51,415.51,0,0,1-49.12,6.23,365.63,365.63,0,0,1-49.54,0c-8.25-.56-16.46-1.48-24.64-2.67s-16.3-2.69-24.35-4.52a295.28,295.28,0,0,1-47.1-14.92Z" transform="translate(-794.36 121.51)"/><path class="cls-16" d="M1579.88,524c313.69,129,655.66-302.24,661.33,45.4" transform="translate(-794.36 121.51)"/><path class="cls-17" d="M1579.88,524C1894.07,660.74,2236,246.72,2241.34,577.7" transform="translate(-794.36 121.51)"/><path class="cls-18" d="M1579.88,524c314.69,144.59,656.47-252.23,661.6,62.11" transform="translate(-794.36 121.51)"/><path class="cls-19" d="M1579.88,524c315.19,152.39,656.88-227.22,661.74,70.47" transform="translate(-794.36 121.51)"/><path class="cls-20" d="M1579.88,524c315.69,160.18,657.29-202.21,661.87,78.82" transform="translate(-794.36 121.51)"/><path class="cls-21" d="M1579.88,524c316.19,168,657.7-177.21,662,87.18" transform="translate(-794.36 121.51)"/><path class="cls-22" d="M1579.88,524C1896.57,699.73,2238,371.75,2242,619.49" transform="translate(-794.36 121.51)"/><path class="cls-23" d="M1579.88,524c317.19,183.58,658.51-127.19,662.28,103.89" transform="translate(-794.36 121.51)"/><path class="cls-24" d="M1579.88,524C1897.57,715.32,2238.8,421.76,2242.3,636.2" transform="translate(-794.36 121.51)"/><path class="cls-25" d="M1579.88,524c318.2,199.17,659.33-77.18,662.55,120.61" transform="translate(-794.36 121.51)"/><path class="cls-3" d="M1579.91,523.91A532.21,532.21,0,0,0,1659.54,566c3.44,1.5,7,2.86,10.42,4.29s7,2.74,10.53,4c7,2.64,14.14,5.06,21.29,7.38s14.35,4.44,21.58,6.48,14.52,3.86,21.83,5.59a582.08,582.08,0,0,0,89.08,13.43c15,1.15,30,1.67,45,1.75s30.07-.29,45.08-1.05c30-1.5,60-4.6,89.79-8.28s59.59-8.12,89.47-11.68c14.93-1.74,29.92-3.29,45-3.87,7.53-.28,15.07-.32,22.59.05a141,141,0,0,1,22.42,2.78,74,74,0,0,1,21.2,7.75,49.72,49.72,0,0,1,16.62,15.14,60.54,60.54,0,0,1,8.73,20.73,108.22,108.22,0,0,1,2.44,22.4h-.1a108.23,108.23,0,0,0-2.65-22.33,61,61,0,0,0-8.83-20.52,49,49,0,0,0-16.51-14.89,73.15,73.15,0,0,0-21.05-7.57,139.22,139.22,0,0,0-22.31-2.65c-7.49-.33-15-.26-22.51.07-15,.66-30,2.12-44.89,3.88-29.85,3.53-59.6,8-89.46,11.62s-59.83,6.53-89.88,7.92a768.79,768.79,0,0,1-90.19-.87A580.41,580.41,0,0,1,1745,594.5c-14.66-3.39-29.2-7.31-43.51-12-7.15-2.35-14.26-4.8-21.29-7.47-3.54-1.3-7-2.72-10.53-4.08s-7-2.82-10.42-4.33c-13.85-5.89-27.41-12.44-40.67-19.54s-26.15-14.88-38.75-23.1Z" transform="translate(-794.36 121.51)"/><path class="cls-3" d="M796.08,832.32c210-478.91,639-16.2,1278-178.9V602.19c-670.3,0-1068-478.91-1278,0Z" transform="translate(-794.36 121.51)"/><path class="cls-4" d="M2074.09,602.39a1373.84,1373.84,0,0,1-175-9.33,1608.59,1608.59,0,0,1-172.74-29.95q-42.7-9.89-85-21.59-21.14-5.82-42.15-12t-42-12.51c-14-4.24-27.9-8.66-41.84-13s-27.86-8.79-41.76-13.26l-83.38-26.93q-41.68-13.44-83.53-26.34c-27.92-8.5-56-16.6-84.23-23.76s-56.8-13.26-85.63-17.29-58-6.06-86.92-4.27q-10.86.69-21.65,2.1c-7.17,1-14.33,2.17-21.4,3.75s-14.11,3.33-21,5.53-13.75,4.54-20.43,7.35A240.76,240.76,0,0,0,892.92,458a314.28,314.28,0,0,0-29.7,31.87,386.77,386.77,0,0,0-25.59,35.37Q825.81,543.63,815.54,563c-6.86,12.88-13.24,26-19.28,39.3l-.36-.16q8.57-20.16,18.5-39.74c6.63-13,13.75-25.81,21.52-38.22a388.55,388.55,0,0,1,25.26-35.92,299.75,299.75,0,0,1,29.61-32.51A244.1,244.1,0,0,1,964,407.33c27.14-11.52,56.39-17.54,85.7-19.43,7.33-.43,14.68-.72,22-.68,3.67-.05,7.34.1,11,.14s7.34.23,11,.48l5.49.32,5.49.42c3.66.25,7.3.66,11,1,7.29.77,14.57,1.66,21.82,2.73,29,4.2,57.63,10.53,86,17.78s56.36,15.62,84.24,24.37,55.58,18,83.28,27.29l41.54,13.92,20.77,6.94,20.82,6.81q20.82,6.79,41.69,13.42c13.92,4.42,27.89,8.66,41.87,12.85s28,8.3,42,12.26,28.15,7.74,42.27,11.43q42.36,11.08,85.12,20.49c57,12.54,114.45,23.08,172.38,30.15a1574.75,1574.75,0,0,0,174.61,12Z" transform="translate(-794.36 121.51)"/><path class="cls-26" d="M2074.09,606.46c-667.69,13.56-1068-464-1278,14.91" transform="translate(-794.36 121.51)"/><path class="cls-27" d="M2074.09,610.73c-665.08,27.12-1068-449.09-1278,29.81" transform="translate(-794.36 121.51)"/><path class="cls-28" d="M2074.09,615c-662.47,40.67-1068-434.19-1278,44.72" transform="translate(-794.36 121.51)"/><path class="cls-29" d="M2074.09,619.27c-659.87,54.23-1068-419.28-1278,59.63" transform="translate(-794.36 121.51)"/><path class="cls-30" d="M2074.09,623.54c-657.26,67.79-1068-404.37-1278,74.54" transform="translate(-794.36 121.51)"/><path class="cls-31" d="M2074.09,627.81c-654.65,81.35-1068-389.47-1278,89.44" transform="translate(-794.36 121.51)"/><path class="cls-32" d="M2074.09,632.08c-652,94.9-1068-374.56-1278,104.35" transform="translate(-794.36 121.51)"/><path class="cls-33" d="M2074.09,636.35c-649.43,108.46-1068-359.65-1278,119.26" transform="translate(-794.36 121.51)"/><path class="cls-34" d="M2074.09,640.62c-646.83,122-1068-344.74-1278,134.16" transform="translate(-794.36 121.51)"/><path class="cls-35" d="M2074.09,644.89c-644.22,135.58-1068-329.84-1278,149.07" transform="translate(-794.36 121.51)"/><path class="cls-36" d="M2074.09,649.15c-641.61,149.14-1068-314.92-1278,164" transform="translate(-794.36 121.51)"/><path class="cls-3" d="M2074.11,653.47l-21.05,5.13c-3.51.83-7,1.75-10.54,2.52l-10.58,2.28-10.59,2.29c-3.53.77-7.06,1.55-10.61,2.19l-21.29,4c-3.54.7-7.12,1.24-10.68,1.82l-10.69,1.73-10.7,1.73-10.73,1.48-10.73,1.47c-3.58.46-7.15,1-10.75,1.39l-21.53,2.41q-43.11,4.32-86.46,5.82c-28.88.85-57.78.68-86.65-.3s-57.71-2.94-86.47-5.61-57.45-6.08-86.06-10.06-57.14-8.54-85.61-13.4-56.88-10.07-85.27-15.35c-56.8-10.49-113.56-21.39-170.81-28.95a865.33,865.33,0,0,0-86.26-7.25,458.53,458.53,0,0,0-86.27,5l-2.68.4c-.89.15-1.77.34-2.65.51l-5.31,1-5.31,1-2.65.52-2.63.64-10.5,2.59c-.87.23-1.75.42-2.62.67l-2.58.78-5.18,1.57c-6.95,1.92-13.66,4.58-20.44,7L980,631l-1.25.53-2.48,1.07-5,2.13-5,2.12c-1.66.71-3.24,1.59-4.86,2.37l-9.67,4.83c-3.15,1.75-6.25,3.59-9.38,5.38l-4.68,2.7c-1.52,1-3,2-4.52,3l-9,6-8.65,6.48-4.33,3.25c-1.41,1.12-2.76,2.32-4.14,3.48l-8.25,7c-.7.57-1.35,1.18-2,1.81L894.84,685l-3.92,3.74L887,692.44c-.65.63-1.32,1.23-1.94,1.88l-1.85,2-7.39,7.89-1.85,2-.93,1-.87,1-3.47,4.15-7,8.29c-2.25,2.81-4.37,5.74-6.56,8.6l-3.26,4.32c-1.07,1.45-2.23,2.84-3.21,4.36l-6.09,8.94-3,4.47c-.5.75-1,1.49-1.51,2.25l-1.42,2.3a578.47,578.47,0,0,0-40.52,76.47l-.1,0c11.61-26.45,24.73-52.28,40.2-76.69l1.42-2.31c.48-.77,1-1.5,1.5-2.25l3-4.49,6.08-9c1-1.52,2.14-2.92,3.2-4.37l3.25-4.34c2.19-2.87,4.31-5.81,6.55-8.63l7-8.33,3.47-4.16.87-1,.93-1,1.84-2,7.39-7.94,1.85-2c.62-.66,1.29-1.26,1.94-1.89l3.91-3.76,3.91-3.75,2-1.88c.64-.63,1.3-1.25,2-1.82l8.25-7c1.38-1.17,2.73-2.37,4.15-3.5l4.32-3.27,8.67-6.52,9-6c1.51-1,3-2,4.53-3l4.69-2.72c3.13-1.81,6.24-3.66,9.39-5.42l9.7-4.88c1.62-.79,3.2-1.67,4.87-2.39l5-2.14,5-2.15,2.49-1.08,1.25-.53,1.27-.46c6.81-2.44,13.55-5.1,20.52-7l5.2-1.57,2.59-.79c.87-.24,1.75-.44,2.63-.66l10.53-2.6,2.64-.64,2.66-.52,5.32-1,5.32-1c.89-.16,1.78-.35,2.67-.5l2.68-.4a459.84,459.84,0,0,1,86.46-5,866.26,866.26,0,0,1,86.34,7.3c28.65,3.75,57.16,8.47,85.6,13.52s56.81,10.46,85.2,15.79S1444,655.07,1472.46,660s57,9.52,85.59,13.4,57.3,7.26,86.06,9.87,57.58,4.53,86.44,5.42,57.74,1,86.61.2q43.27-1.39,86.41-5.65l21.53-2.36c3.59-.35,7.16-.91,10.74-1.37l10.73-1.44,10.73-1.46,10.69-1.7,10.69-1.71c3.57-.58,7.14-1.11,10.68-1.8l21.29-3.95c3.56-.61,7.09-1.38,10.62-2.13l10.6-2.23,10.59-2.23c3.54-.74,7-1.65,10.55-2.46l21.07-5Z" transform="translate(-794.36 121.51)"/><path class="cls-3" d="M1780.77,645.81c-476.93,198.64-523.17-78.26-839.42,54.42V675c390.33-284.86,657.56,58.93,839.42-43.66Z" transform="translate(-794.36 121.51)"/><path class="cls-4" d="M941.23,674.84l11.07-8.18c3.71-2.71,7.39-5.45,11.2-8l11.35-7.81c1.87-1.33,3.81-2.56,5.75-3.78l5.81-3.71,5.81-3.7,2.91-1.84,3-1.76,11.84-7c2-1.2,4-2.31,6-3.42l6-3.33c4-2.23,8-4.48,12.16-6.5l12.31-6.22c4.14-2,8.33-3.89,12.49-5.84,2.09-1,4.16-2,6.27-2.88l6.34-2.7,6.35-2.7,3.18-1.35c1.06-.44,2.14-.84,3.21-1.26l12.88-5c4.32-1.56,8.69-3,13-4.51s8.75-2.85,13.16-4.17l6.61-2c2.19-.69,4.44-1.2,6.65-1.81,35.53-9.68,72.19-14.68,108.86-16.23a580.28,580.28,0,0,1,109.85,6.24c36.36,5.34,72.2,13.92,107.47,24.13,17.64,5.09,35.18,10.54,52.66,16.09s34.91,11.27,52.4,16.72,35,10.76,52.72,15.3,35.61,8.36,53.74,10.4,36.47,2.53,54.53,0l6.75-1.09c2.25-.4,4.46-1,6.69-1.42l3.34-.73,3.3-.93,3.29-.93c1.1-.32,2.21-.59,3.28-1l6.46-2.27c1.09-.36,2.14-.81,3.19-1.26l3.15-1.34,3.16-1.34c1.06-.44,2-1,3.08-1.49l6.15-3.07.2.35a157.55,157.55,0,0,1-25,11.64c-1.06.44-2.17.75-3.27,1.1l-3.3,1-3.3,1-3.35.84c-2.24.54-4.46,1.16-6.72,1.61l-6.81,1.25-1.7.31-1.72.21-3.43.44c-2.29.29-4.58.6-6.88.72l-6.9.51-6.92.18c-2.31.1-4.61,0-6.92,0s-4.61,0-6.91-.19c-4.61-.27-9.22-.53-13.79-1.06-18.36-1.82-36.46-5.47-54.34-9.77-2.24-.52-4.47-1.09-6.7-1.67l-6.67-1.73c-4.44-1.21-8.87-2.42-13.29-3.69q-13.24-3.81-26.4-7.88c-35.06-10.9-69.72-22.88-104.85-33.27s-70.63-19.5-106.75-25.58-72.85-8.91-109.45-7.1l-3.43.14-3.43.25-6.85.49c-4.57.27-9.12.8-13.67,1.28l-6.82.76-6.8,1-6.8,1c-2.26.29-4.51.76-6.76,1.13l-6.76,1.18-3.38.59c-1.12.21-2.24.46-3.36.69L1164,571.71,1150.71,575c-4.44,1.08-8.8,2.44-13.22,3.62-17.56,5-34.93,10.79-51.94,17.49-1.07.41-2.14.79-3.2,1.22l-3.17,1.32-6.33,2.63-6.33,2.63c-2.1.9-4.17,1.88-6.25,2.82-4.16,1.9-8.34,3.76-12.47,5.71l-12.3,6.08c-4.13,2-8.12,4.22-12.17,6.33l-6.07,3.2c-2,1.06-4,2.13-6,3.29l-11.93,6.78-3,1.7-2.93,1.78-5.86,3.57-5.87,3.58c-1.95,1.19-3.92,2.37-5.83,3.63l-11.56,7.43c-3.88,2.44-7.64,5.06-11.42,7.65l-11.37,7.73Z" transform="translate(-794.36 121.51)"/><path class="cls-5" d="M941.35,677.8c382.1-267.95,624.77,68.41,839.42-44.85" transform="translate(-794.36 121.51)"/><path class="cls-6" d="M941.35,680.6c373.87-251,592,77.89,839.42-46" transform="translate(-794.36 121.51)"/><path class="cls-7" d="M941.35,683.41c365.64-234.14,559.2,87.36,839.42-47.25" transform="translate(-794.36 121.51)"/><path class="cls-8" d="M941.35,686.21c357.4-217.22,526.42,96.84,839.42-48.44" transform="translate(-794.36 121.51)"/><path class="cls-9" d="M941.35,689C1290.52,488.7,1435,795.33,1780.77,639.38" transform="translate(-794.36 121.51)"/><path class="cls-10" d="M941.35,691.82C1282.29,508.41,1402.2,807.61,1780.77,641" transform="translate(-794.36 121.51)"/><path class="cls-11" d="M941.35,694.62c332.71-166.5,428.06,125.27,839.42-52" transform="translate(-794.36 121.51)"/><path class="cls-12" d="M941.35,697.42c324.48-149.58,395.28,134.75,839.42-53.22" transform="translate(-794.36 121.51)"/><path class="cls-3" d="M941.33,700.18c16.54-7,33.34-13.32,50.48-18.68a444.32,444.32,0,0,1,52.22-13,368.19,368.19,0,0,1,53.5-6c4.49-.11,9-.33,13.47-.25l6.73,0,6.74.23c4.49.09,9,.49,13.45.73,2.24.15,4.47.39,6.71.58s4.47.37,6.7.65c35.76,3.81,70.74,12.45,105.4,21.64s69.39,18.43,104.74,24.65c17.66,3.12,35.44,5.55,53.31,7s35.81,2.14,53.73,2,35.84-1.24,53.68-3,35.59-4.49,53.22-7.73l6.61-1.24c2.2-.41,4.41-.81,6.59-1.3l13.16-2.78c4.38-1,8.73-2,13.1-3,2.18-.52,4.37-1,6.54-1.54l6.52-1.67c17.41-4.32,34.62-9.39,51.75-14.71,34.2-10.83,67.87-23.3,101.07-36.92l0,.1c-33.08,13.92-66.71,26.54-100.9,37.51-17.11,5.4-34.32,10.55-51.72,15l-6.52,1.69c-2.17.55-4.36,1-6.55,1.56-4.37,1-8.73,2.08-13.11,3l-13.18,2.77c-2.19.49-4.4.89-6.61,1.3l-6.61,1.24c-17.66,3.24-35.44,5.86-53.3,7.71s-35.81,2.83-53.77,3a561.23,561.23,0,0,1-107.15-9.37c-17.66-3.19-35.2-7-52.62-11.36s-34.75-9-52.12-13.47c-34.69-9.05-69.68-17.56-105.38-21.25a388.18,388.18,0,0,0-53.69-1.87,368.4,368.4,0,0,0-53.41,5.8c-35.31,6.37-69.61,17.52-102.78,31.14Z" transform="translate(-794.36 121.51)"/><path class="cls-3" d="M2122.57,652.16C1881.89,548.86,1635.85,811,1491.66,663l.69-29c213.6,41.06,440.75-208.81,630.22-28.55Z" transform="translate(-794.36 121.51)"/><path class="cls-4" d="M1492.39,633.86c27.22,4.49,54.92,4.64,82.2,1.63,3.41-.42,6.83-.75,10.23-1.24s6.8-.94,10.18-1.51q10.18-1.62,20.28-3.68c13.45-2.77,26.82-6,40.12-9.54s26.53-7.34,39.7-11.41L1705,605l9.84-3.16q9.83-3.23,19.6-6.58c26.08-9,51.93-18.59,78-27.52s52.58-17.07,79.7-22.7a389.14,389.14,0,0,1,41.07-6.41c1.72-.21,3.45-.33,5.18-.46l5.19-.39c3.46-.24,6.94-.31,10.41-.47s7-.05,10.42-.08,6.95.17,10.42.34a227.83,227.83,0,0,1,41.24,6,214.39,214.39,0,0,1,39.28,13.8,223.06,223.06,0,0,1,35.8,21.07l4.21,3c1.41,1,2.73,2.13,4.09,3.2,2.68,2.18,5.45,4.25,8,6.58l3.91,3.41c1.29,1.14,2.62,2.25,3.85,3.46l7.48,7.16-.27.29c-20.45-18.45-43.26-34.36-68.37-45.37s-52.16-17.08-79.45-18.42a291.17,291.17,0,0,0-41,.95,386.7,386.7,0,0,0-40.7,5.94c-27,5.36-53.47,12.89-79.77,21.1s-52.3,17.46-78.3,26.67l-19.5,6.91-9.76,3.44-9.79,3.37c-13.07,4.44-26.22,8.68-39.5,12.5s-26.73,7.12-40.31,9.8q-10.18,2-20.45,3.57c-3.42.55-6.86.91-10.29,1.37s-6.89.73-10.33,1.1a307.46,307.46,0,0,1-41.5,1c-3.45-.17-6.91-.42-10.35-.67s-6.88-.76-10.32-1.13l-10.25-1.53-10.17-2Z" transform="translate(-794.36 121.51)"/><path class="cls-13" d="M1492.18,641.29c196.25,67.8,428.12-185.15,630.39-24.13" transform="translate(-794.36 121.51)"/><path class="cls-14" d="M1492,648.54c178.89,94.53,415.49-161.49,630.56-19.71" transform="translate(-794.36 121.51)"/><path class="cls-15" d="M1491.83,655.78c161.55,121.27,402.86-137.82,630.74-15.29" transform="translate(-794.36 121.51)"/><path class="cls-3" d="M1491.7,663a159.06,159.06,0,0,0,32.17,25.26,143.37,143.37,0,0,0,18.3,9.16c1.58.65,3.2,1.21,4.79,1.82s3.18,1.25,4.83,1.71c3.26,1,6.5,2.1,9.83,2.85a173.74,173.74,0,0,0,40.55,5.19,276.8,276.8,0,0,0,40.88-2.53c13.56-1.79,27-4.44,40.33-7.5s26.56-6.59,39.72-10.33,26.26-7.75,39.32-11.83l39.2-12.25c26.15-8.09,52.41-15.9,79.07-22.24s53.65-11.34,81-13.76a391,391,0,0,1,41.07-1.6,344.58,344.58,0,0,1,41,3.08,309.31,309.31,0,0,1,40.21,8.38,303.85,303.85,0,0,1,38.69,13.71l0,.09a312.38,312.38,0,0,0-79-21.46c-27.13-3.57-54.62-3.61-81.85-1.23s-54.23,7.36-80.84,13.68-52.94,13.89-79.12,21.88-52.28,16.27-78.57,23.92c-13.15,3.8-26.37,7.39-39.7,10.52s-26.78,5.84-40.36,7.69a263.92,263.92,0,0,1-41,2.65,174.7,174.7,0,0,1-40.7-5.4c-3.34-.76-6.59-1.89-9.87-2.9-1.65-.47-3.22-1.16-4.84-1.74s-3.21-1.19-4.8-1.84a145.22,145.22,0,0,1-18.33-9.29,155.61,155.61,0,0,1-32-25.62Z" transform="translate(-794.36 121.51)"/><path class="cls-3" d="M1945.21,717.31C1468.28,916,1422,639.05,1105.79,771.73V746.5c390.33-284.86,657.55,58.93,839.42-43.66Z" transform="translate(-794.36 121.51)"/><path class="cls-4" d="M1105.67,746.34l11.07-8.17c3.71-2.72,7.39-5.46,11.2-8l11.35-7.81c1.87-1.32,3.81-2.56,5.75-3.78l5.81-3.71,5.81-3.7,2.91-1.84,3-1.76,11.84-7c2-1.2,4-2.31,6-3.42l6-3.33c4-2.23,8-4.48,12.17-6.5l12.31-6.22c4.14-2,8.33-3.89,12.49-5.84,2.09-1,4.16-2,6.27-2.88l6.34-2.7,6.35-2.7,3.18-1.35c1.06-.44,2.14-.84,3.21-1.26l12.88-5c4.32-1.56,8.69-3,13-4.51s8.75-2.85,13.16-4.17l6.6-2c2.2-.69,4.45-1.2,6.66-1.81,35.53-9.68,72.19-14.68,108.86-16.23a580.33,580.33,0,0,1,109.85,6.24c36.36,5.34,72.2,13.92,107.47,24.13,17.64,5.09,35.18,10.54,52.66,16.09s34.91,11.27,52.4,16.72,35,10.76,52.72,15.3,35.61,8.36,53.74,10.4,36.47,2.53,54.53,0l6.75-1.09c2.25-.4,4.46-1,6.69-1.41l3.34-.74,3.3-.93,3.29-.93c1.1-.32,2.21-.58,3.27-1l6.47-2.27c1.09-.35,2.14-.81,3.18-1.26l3.16-1.34,3.16-1.34c1.06-.44,2-1,3.08-1.49l6.15-3.07.19.35a157,157,0,0,1-25,11.64c-1.06.44-2.18.75-3.27,1.1l-3.3,1-3.3,1-3.35.84c-2.24.54-4.46,1.16-6.72,1.61l-6.81,1.25-1.7.31-1.72.21-3.43.44c-2.29.29-4.58.6-6.88.72l-6.9.51-6.92.18c-2.31.1-4.61,0-6.92,0s-4.61,0-6.92-.19c-4.6-.27-9.21-.53-13.79-1.06-18.36-1.82-36.45-5.47-54.33-9.77-2.24-.52-4.47-1.09-6.7-1.67l-6.67-1.73c-4.44-1.21-8.87-2.42-13.29-3.69q-13.25-3.81-26.4-7.88C1696,687,1661.29,675,1626.16,664.63s-70.63-19.5-106.76-25.58-72.84-8.91-109.44-7.1l-3.43.14-3.43.25-6.85.49c-4.57.27-9.12.8-13.67,1.29l-6.82.75-6.8,1-6.8,1c-2.27.29-4.51.76-6.76,1.13l-6.76,1.18-3.38.59c-1.13.21-2.24.47-3.36.69l-13.42,2.83-13.33,3.26c-4.44,1.08-8.8,2.44-13.22,3.62-17.56,5-34.93,10.79-51.94,17.49-1.07.41-2.14.79-3.2,1.22l-3.17,1.32-6.33,2.63-6.33,2.63c-2.1.9-4.17,1.88-6.25,2.82-4.16,1.9-8.34,3.76-12.47,5.71l-12.3,6.09c-4.13,2-8.12,4.21-12.17,6.32l-6.07,3.2c-2,1.06-4,2.13-6,3.29l-11.93,6.78-3,1.7-2.93,1.78-5.87,3.58-5.86,3.57c-1.95,1.19-3.92,2.37-5.83,3.63l-11.56,7.43c-3.88,2.44-7.64,5.06-11.42,7.65l-11.37,7.73Z" transform="translate(-794.36 121.51)"/><path class="cls-5" d="M1105.79,749.3c382.1-267.95,624.77,68.41,839.42-44.85" transform="translate(-794.36 121.51)"/><path class="cls-6" d="M1105.79,752.1c373.87-251,592,77.89,839.42-46" transform="translate(-794.36 121.51)"/><path class="cls-7" d="M1105.79,754.91c365.63-234.13,559.2,87.36,839.42-47.24" transform="translate(-794.36 121.51)"/><path class="cls-8" d="M1105.79,757.71c357.4-217.22,526.41,96.84,839.42-48.44" transform="translate(-794.36 121.51)"/><path class="cls-9" d="M1105.79,760.51C1455,560.2,1599.42,866.83,1945.21,710.88" transform="translate(-794.36 121.51)"/><path class="cls-10" d="M1105.79,763.32c340.94-183.41,460.84,115.79,839.42-50.83" transform="translate(-794.36 121.51)"/><path class="cls-11" d="M1105.79,766.12c332.71-166.5,428.06,125.27,839.42-52" transform="translate(-794.36 121.51)"/><path class="cls-12" d="M1105.79,768.92c324.48-149.58,395.27,134.75,839.42-53.22" transform="translate(-794.36 121.51)"/><path class="cls-3" d="M1105.77,771.68c16.54-7,33.34-13.32,50.48-18.68a443.82,443.82,0,0,1,52.22-13,368.19,368.19,0,0,1,53.5-6c4.49-.11,9-.33,13.47-.25l6.73,0,6.74.23c4.49.09,9,.49,13.45.73,2.24.15,4.47.39,6.71.58s4.47.37,6.7.65c35.76,3.81,70.74,12.45,105.4,21.64s69.39,18.43,104.74,24.65c17.66,3.12,35.44,5.55,53.31,7s35.81,2.14,53.73,2,35.84-1.24,53.68-3,35.58-4.49,53.22-7.73l6.61-1.24c2.2-.41,4.4-.81,6.59-1.3l13.16-2.78c4.38-1,8.73-2,13.1-3,2.18-.52,4.37-1,6.54-1.54l6.52-1.67c17.41-4.32,34.62-9.39,51.74-14.71,34.21-10.83,67.88-23.3,101.08-36.91l0,.09c-33.08,13.92-66.72,26.54-100.9,37.51-17.11,5.4-34.32,10.55-51.72,15l-6.52,1.69c-2.18.55-4.37,1-6.55,1.56-4.37,1-8.73,2.08-13.12,3l-13.17,2.77c-2.19.49-4.4.89-6.61,1.3l-6.62,1.24c-17.65,3.24-35.43,5.86-53.29,7.71s-35.81,2.84-53.77,3a561.23,561.23,0,0,1-107.15-9.37c-17.67-3.19-35.2-7-52.62-11.36s-34.75-9-52.12-13.47c-34.69-9.05-69.68-17.56-105.38-21.25a388.18,388.18,0,0,0-53.69-1.87,368.4,368.4,0,0,0-53.41,5.8c-35.31,6.37-69.61,17.52-102.78,31.14Z" transform="translate(-794.36 121.51)"/><path class="cls-3" d="M923.51,776.5c5.94-364.29,348,84.15,661.19-37C1266,946.43,925,687.28,922,868.42Z" transform="translate(-794.36 121.51)"/><path class="cls-4" d="M1584.77,739.64a294.06,294.06,0,0,1-47.11,14.92c-8,1.83-16.17,3.35-24.34,4.53s-16.39,2.11-24.64,2.67a367.27,367.27,0,0,1-49.54,0,415.53,415.53,0,0,1-49.12-6.24c-16.23-3-32.27-6.92-48.15-11.33-7.94-2.21-15.83-4.59-23.68-7.07s-15.69-5-23.47-7.7c-31.18-10.61-61.87-22.56-92.4-34.87s-60.84-25.15-91.52-36.87c-15.35-5.82-30.84-11.29-46.58-15.76s-31.76-8-48-8.85c-4-.19-8.08-.21-12.11,0a93.54,93.54,0,0,0-11.95,1.48A67.62,67.62,0,0,0,969.94,643a65.59,65.59,0,0,0-17.59,16.13,96.54,96.54,0,0,0-12,21c-6.28,15-10,31.09-12.41,47.29q-1.79,12.17-2.81,24.45c-.66,8.19-1.1,16.4-1.44,24.62h-.4A393.49,393.49,0,0,1,926,727.15a247.22,247.22,0,0,1,4.21-24.42,155.91,155.91,0,0,1,7.31-23.79A99.77,99.77,0,0,1,949.56,657a66.52,66.52,0,0,1,41.84-26.54,96.24,96.24,0,0,1,12.51-1.63c4.19-.24,8.39-.25,12.56-.09a172.62,172.62,0,0,1,24.77,3.17c8.15,1.58,16.2,3.61,24.13,6,15.89,4.64,31.41,10.28,46.78,16.25s30.54,12.37,45.68,18.83,30.2,13.07,45.33,19.53c30.24,12.93,60.76,25.29,92,35.66q23.4,7.77,47.31,13.85c15.92,4,32,7.51,48.16,10.21,8.08,1.38,16.2,2.56,24.32,3.59s16.3,1.78,24.46,2.39,16.36.93,24.55,1,16.38-.06,24.56-.51a335.34,335.34,0,0,0,96.14-19.4Z" transform="translate(-794.36 121.51)"/><path class="cls-16" d="M1584.7,739.46C1271,868.45,929,437.22,923.37,784.85" transform="translate(-794.36 121.51)"/><path class="cls-17" d="M1584.7,739.46c-314.19,136.79-656.07-277.24-661.46,53.75" transform="translate(-794.36 121.51)"/><path class="cls-18" d="M1584.7,739.46C1270,884.05,928.23,487.23,923.1,801.57" transform="translate(-794.36 121.51)"/><path class="cls-19" d="M1584.7,739.46C1269.51,891.84,927.82,512.24,923,809.92" transform="translate(-794.36 121.51)"/><path class="cls-20" d="M1584.7,739.46C1269,899.64,927.41,537.24,922.83,818.28" transform="translate(-794.36 121.51)"/><path class="cls-21" d="M1584.7,739.46c-316.19,168-657.7-177.21-662,87.18" transform="translate(-794.36 121.51)"/><path class="cls-22" d="M1584.7,739.46C1268,915.24,926.59,587.26,922.55,835" transform="translate(-794.36 121.51)"/><path class="cls-23" d="M1584.7,739.46C1267.51,923,926.19,612.26,922.42,843.35" transform="translate(-794.36 121.51)"/><path class="cls-24" d="M1584.7,739.46C1267,930.83,925.78,637.27,922.28,851.71" transform="translate(-794.36 121.51)"/><path class="cls-25" d="M1584.7,739.46c-318.2,199.17-659.33-77.18-662.55,120.6" transform="translate(-794.36 121.51)"/><path class="cls-3" d="M1584.73,739.5c-12.6,8.21-25.48,16-38.75,23.1s-26.82,13.65-40.67,19.54c-3.45,1.51-7,2.89-10.42,4.33s-7,2.78-10.53,4.07c-7,2.67-14.15,5.13-21.29,7.48-14.31,4.68-28.85,8.6-43.51,12a580.39,580.39,0,0,1-89.22,13.06,766.62,766.62,0,0,1-90.19.88c-30.05-1.39-60-4.24-89.88-7.93s-59.61-8.08-89.46-11.62c-14.92-1.75-29.89-3.21-44.89-3.88-7.5-.32-15-.4-22.51-.06a138.09,138.09,0,0,0-22.31,2.65,73.15,73.15,0,0,0-21.05,7.57,49,49,0,0,0-16.51,14.88,61.09,61.09,0,0,0-8.83,20.53,107.39,107.39,0,0,0-2.65,22.33H922A108.14,108.14,0,0,1,924.4,846a60.59,60.59,0,0,1,8.73-20.74,49.69,49.69,0,0,1,16.62-15.13A74,74,0,0,1,971,802.4a141,141,0,0,1,22.42-2.78c7.52-.38,15.06-.33,22.58,0,15,.57,30,2.12,45,3.87,29.88,3.56,59.62,8,89.47,11.68s59.76,6.78,89.79,8.28q22.52,1.14,45.08,1.05c15-.08,30.06-.6,45-1.75a582.08,582.08,0,0,0,89.08-13.43c7.31-1.73,14.6-3.56,21.83-5.59s14.43-4.17,21.58-6.49,14.26-4.74,21.29-7.37c3.54-1.28,7-2.68,10.53-4s7-2.79,10.42-4.28a532.21,532.21,0,0,0,79.63-42.09Z" transform="translate(-794.36 121.51)"/><path class="cls-3" d="M2368.5,1047.82c-210-478.91-639-16.19-1278-178.89V817.7c670.3,0,1068-478.91,1278,0Z" transform="translate(-794.36 121.51)"/><path class="cls-4" d="M1090.49,817.5a1574.75,1574.75,0,0,0,174.61-12c57.93-7.07,115.39-17.62,172.37-30.15q42.75-9.4,85.13-20.5,21.18-5.52,42.27-11.43t42.05-12.25c14-4.2,27.95-8.43,41.87-12.85s27.81-8.89,41.69-13.42l20.82-6.82,20.77-6.93,41.54-13.92c27.7-9.27,55.39-18.56,83.28-27.29s55.91-17.11,84.24-24.38,57-13.57,86-17.77c7.25-1.08,14.53-2,21.82-2.74,3.65-.33,7.29-.73,10.95-1l5.49-.42,5.49-.32c3.66-.25,7.33-.32,11-.48s7.34-.19,11-.14c7.34,0,14.69.24,22,.68,29.31,1.89,58.56,7.91,85.7,19.43a244.1,244.1,0,0,1,73.21,48.39,298.82,298.82,0,0,1,29.61,32.51,387.21,387.21,0,0,1,25.26,35.92c7.77,12.4,14.89,25.2,21.52,38.22s12.79,26.29,18.5,39.74l-.36.16c-6-13.29-12.42-26.43-19.28-39.3S2334.83,753,2327,740.75a385.54,385.54,0,0,0-25.59-35.38,315.24,315.24,0,0,0-29.7-31.86,240.68,240.68,0,0,0-72.57-47.11c-6.67-2.81-13.52-5.2-20.42-7.36s-13.94-3.95-21-5.52-14.23-2.73-21.4-3.75-14.41-1.64-21.65-2.1c-29-1.79-58.12.2-86.92,4.27s-57.35,10.2-85.63,17.29-56.31,15.25-84.23,23.76-55.74,17.38-83.54,26.34l-83.37,26.93q-20.87,6.71-41.76,13.26c-14,4.34-27.87,8.76-41.84,13s-28,8.41-42,12.5-28.06,8.13-42.15,12q-42.26,11.64-85,21.59a1611.08,1611.08,0,0,1-172.74,30,1375.68,1375.68,0,0,1-175,9.33Z" transform="translate(-794.36 121.51)"/><path class="cls-26" d="M1090.49,822c667.69,13.55,1068-464,1278,14.9" transform="translate(-794.36 121.51)"/><path class="cls-27" d="M1090.49,826.24c665.08,27.11,1068-449.1,1278,29.81" transform="translate(-794.36 121.51)"/><path class="cls-28" d="M1090.49,830.51c662.47,40.67,1068-434.19,1278,44.72" transform="translate(-794.36 121.51)"/><path class="cls-29" d="M1090.49,834.78c659.87,54.23,1068-419.28,1278,59.63" transform="translate(-794.36 121.51)"/><path class="cls-30" d="M1090.49,839c657.26,67.79,1068-404.37,1278,74.54" transform="translate(-794.36 121.51)"/><path class="cls-31" d="M1090.49,843.31c654.65,81.35,1068-389.46,1278,89.45" transform="translate(-794.36 121.51)"/><path class="cls-32" d="M1090.49,847.58c652,94.91,1068-374.55,1278,104.36" transform="translate(-794.36 121.51)"/><path class="cls-33" d="M1090.49,851.85c649.43,108.47,1068-359.64,1278,119.26" transform="translate(-794.36 121.51)"/><path class="cls-34" d="M1090.49,856.12c646.83,122,1068-344.74,1278,134.17" transform="translate(-794.36 121.51)"/><path class="cls-35" d="M1090.49,860.39c644.22,135.58,1068-329.83,1278,149.08" transform="translate(-794.36 121.51)"/><path class="cls-36" d="M1090.49,864.66c641.61,149.14,1068-314.92,1278,164" transform="translate(-794.36 121.51)"/><path class="cls-3" d="M1090.5,868.88l21.07,5c3.52.81,7,1.71,10.55,2.46l10.59,2.23,10.6,2.23c3.53.75,7.06,1.51,10.62,2.13l21.29,3.94c3.54.7,7.11,1.23,10.68,1.81l10.69,1.7,10.69,1.71,10.73,1.46,10.73,1.44c3.58.46,7.15,1,10.74,1.37l21.53,2.36q43.1,4.23,86.41,5.64c28.87.77,57.75.76,86.61-.19s57.68-2.83,86.44-5.43,57.45-5.94,86.06-9.86,57.13-8.5,85.59-13.41,56.86-10.17,85.24-15.5,56.76-10.73,85.2-15.79,57-9.78,85.59-13.52,57.46-6.45,86.35-7.3a459,459,0,0,1,86.46,5l2.68.39c.89.15,1.78.34,2.67.51l5.32,1,5.32,1,2.66.51,2.64.65,10.53,2.6c.87.22,1.76.41,2.63.66l2.59.79,5.2,1.57c7,1.93,13.71,4.59,20.52,7l1.27.46,1.25.53,2.49,1.07,5,2.15,5,2.15c1.67.71,3.25,1.6,4.87,2.39l9.7,4.87c3.15,1.77,6.26,3.62,9.39,5.43l4.69,2.72c1.53,1,3,2,4.53,3l9,6,8.67,6.53,4.32,3.27c1.42,1.12,2.77,2.33,4.15,3.49l8.25,7c.7.58,1.35,1.2,2,1.83l2,1.88,3.91,3.75,3.91,3.75c.65.64,1.32,1.24,1.94,1.9l1.85,2,7.39,7.93,1.84,2,.93,1,.87,1,3.47,4.16,6.95,8.32c2.24,2.83,4.36,5.76,6.54,8.64l3.26,4.33c1.06,1.46,2.22,2.86,3.2,4.38l6.08,9,3,4.48c.5.75,1,1.49,1.5,2.25l1.42,2.31c15.47,24.42,28.59,50.25,40.2,76.69l-.1,0a578.36,578.36,0,0,0-40.52-76.46l-1.42-2.3c-.48-.77-1-1.5-1.51-2.25l-3.05-4.47-6.09-9c-1-1.51-2.14-2.9-3.21-4.35l-3.26-4.32c-2.19-2.87-4.31-5.79-6.56-8.61l-7-8.29-3.47-4.14-.87-1-.93-1-1.85-2-7.39-7.9-1.85-2c-.62-.65-1.29-1.25-1.94-1.88l-3.91-3.74-3.92-3.73-1.95-1.87c-.65-.63-1.3-1.25-2-1.81l-8.25-7c-1.38-1.16-2.73-2.36-4.14-3.48l-4.33-3.25-8.65-6.48-9-6c-1.51-1-3-2-4.52-3l-4.68-2.7c-3.13-1.79-6.23-3.63-9.38-5.38l-9.67-4.83c-1.63-.79-3.2-1.66-4.86-2.37l-5-2.13-5-2.13-2.48-1.06-1.25-.53-1.27-.46c-6.78-2.43-13.49-5.09-20.44-7l-5.18-1.56-2.58-.79c-.87-.24-1.75-.44-2.62-.66l-10.5-2.59-2.63-.65-2.65-.51-5.31-1-5.31-1c-.88-.16-1.76-.35-2.65-.5l-2.68-.4a458.53,458.53,0,0,0-86.27-5c-28.85.84-57.63,3.55-86.26,7.26-57.26,7.56-114,18.46-170.81,28.95-28.39,5.27-56.8,10.49-85.27,15.35s-57,9.4-85.61,13.39-57.3,7.39-86.06,10.07-57.59,4.66-86.47,5.61-57.77,1.15-86.65.3-57.72-3-86.46-5.83L1239.41,897c-3.6-.36-7.17-.92-10.75-1.39l-10.73-1.46-10.73-1.48L1196.5,891l-10.69-1.73c-3.56-.58-7.14-1.12-10.68-1.83l-21.29-4c-3.55-.63-7.08-1.41-10.61-2.18l-10.59-2.29-10.58-2.29c-3.53-.76-7-1.68-10.54-2.51l-21-5.13Z" transform="translate(-794.36 121.51)"/></g></svg>